<?xml version="1.0" encoding="utf-8"?>
<!-- Generator: Adobe Illustrator 17.1.0, SVG Export Plug-In . SVG Version: 6.00 Build 0)  -->
<!DOCTYPE svg PUBLIC "-//W3C//DTD SVG 1.1//EN" "http://www.w3.org/Graphics/SVG/1.1/DTD/svg11.dtd">
<svg version="1.1" id="Layer_1" xmlns="http://www.w3.org/2000/svg" xmlns:xlink="http://www.w3.org/1999/xlink" x="0px" y="0px"
	 viewBox="1.1 958.5 841.8 231.9" enable-background="new 1.1 958.5 841.8 231.9" xml:space="preserve">
<path fill="#777777" d="M278.1,1187.8c-19.8,0-21.2-10.5-21.2-21.2v-36.2h10.9v41.8c0,5.5,1.8,11.6,10.1,11.6
	c9.1-0.2,9.6-6.4,9.6-11.6v-38c0-5.7-1.2-9.1-2.7-14.6c-2.1-8.4-5-13-9.1-20.8l-10.9-20.8c-3.7-6.8-5-11-6.4-18.5
	c-1.4-7.1-1.4-11.8-1.4-19.1v-8.4c0-10.5,1.4-21,20.7-21c19.8,0,21,10.7,21,21.2v32.3h-11v-38c0-5.3-1.2-11.2-9.6-11.2
	c-9.1,0.2-10.1,6.2-10.1,11.2v11.4c0,7.5,0.2,12.1,1.8,19.8c1.4,6.8,3,10.9,6.4,17.5l10.3,19.8c2.1,4.8,6.2,11.2,8.4,18.7
	c2.5,7.8,3.9,11.2,3.9,20.3v33.2C298.7,1177.3,297.4,1187.6,278.1,1187.8L278.1,1187.8z M363.1,1186.5h-10.9v-89.8h-19.4v89.8h-11
	V1032c0-10.7,1.4-21.2,21.2-21.2c19.2,0,20.3,10.5,20.3,21v154.7H363.1z M352.2,1089.9v-63.7c0-5.2-0.5-11-9.6-11.2
	c-8.4,0-9.8,5.9-9.8,11.2v63.5h19.4V1089.9z M417.6,1117.3v-105.8h10.9v175h-10.9v-33.4l-19.7-93.8v127.2h-10.9v-175.1h9.8
	L417.6,1117.3L417.6,1117.3z M490.2,1018.1H474v168.4h-11v-168.4h-15.8v-6.4h43.2v6.4H490.2z M550.5,1186.5h-10.9v-89.8h-19.4v89.8
	h-11V1032c0-10.7,1.4-21.2,21.2-21.2c19.2,0,20.3,10.5,20.3,21v154.7H550.5z M539.6,1089.9v-63.7c0-5.2-0.5-11-9.6-11.2
	c-8.4,0-9.8,5.9-9.8,11.2v63.5h19.4L539.6,1089.9L539.6,1089.9z M649.5,1130.3v39.8c0,9.6-5,17.6-20.5,17.6
	c-15.5,0-21.2-7.7-21.2-17.1V1032c0-10.7,1.4-21.2,21.2-21.2c19.2,0,20.5,10.5,20.5,21v33h-11v-38.7c0-5.2-0.5-11-9.4-11.2
	c-8.5,0-10.1,5.9-10.1,11.2v148.5c0,4.5,3.9,8.5,10.1,8.5c6.4-0.2,9.4-3.9,9.4-8.4v-44.4H649.5z M704.7,1186.5v-74
	c0-5.2-0.7-10.5-4.3-12.8c-3.4-2.5-5.9-3-10.1-3h-5v89.9h-11v-174.4h19.8c3,0,11,0.4,16.2,4.3c5.3,3.9,5.3,9.3,5.3,15.5v46.8
	c0,3.2-0.5,5.5-2.7,8.4c-2.5,3.2-8.5,6.4-9.1,6.6c0.5,0.2,5.3,2.8,7.7,5.5c3.9,4.1,4.3,8.2,4.3,13v74.4h-11.1V1186.5z M700.2,1018.5
	c-2-0.9-5-1.6-8.2-1.6h-6.6v74.9h5.2c4.6,0,9.4-2.1,11.4-4.5c1.8-1.8,2.7-7.5,2.7-12.1v-46.9
	C704.7,1023.3,703.8,1020.1,700.2,1018.5L700.2,1018.5z M749.3,1174.8c0,4.5,3.2,8.4,9.6,8.4c6.2,0,9.4-4.1,9.4-8.5v-162.8h11v159
	c0,9.4-5,17.1-20.5,17.1c-15.5,0-20.7-8-20.7-17.6v-158.5h11v162.9H749.3z M827.8,1018.1h-23.9v-6.6h37.5l-25.8,167.7h27.5v7.1
	h-41.1L827.8,1018.1z M279.5,984.8c0,3.2-0.2,6.2-2.5,8.9c-2.1,2.7-5.5,3.7-8.9,3.7c-3.2,0-6.6-0.7-8.9-3.2
	c-2.5-2.7-2.7-6.1-2.7-9.4v-21h4.1v21c0,2,0,4.6,1.2,6.4c1.4,2,4.1,2.5,6.4,2.5c2.1,0,4.5-0.7,5.9-2.3c1.6-2,1.6-4.3,1.6-6.6v-21
	h3.6v21L279.5,984.8L279.5,984.8z M311.7,996.9h-4.1L290.8,968v28.9h-3.6v-33.2h5.2l15.7,27v-27h3.6v33.2H311.7z M319.5,996.9v-33.2
	h4.1v33.2H319.5z M343.4,996.9h-3.9l-11.2-33.2h4.3l9.3,27.3l9.1-27.3h3.6L343.4,996.9z M380.5,996.9h-21.4v-33.2h21v3.6h-16.7v10.5
	h13.4v3.4h-13.4v12.1h17.3v3.6h-0.2V996.9z M405.5,996.9l-6.1-14.2h-9.1v14.2h-4.1v-33.2h12.6c2.7,0,5.3,0.4,7.5,2
	c2.1,1.6,3.6,4.5,3.6,7.3c0,3.9-2.3,7.5-6.2,8.5l6.6,15.3H405.5L405.5,996.9z M398,979.2c2.1,0,4.1-0.2,5.7-1.8
	c1.2-1.2,1.6-2.7,1.6-4.3c0-2-0.7-3.6-2.3-4.6c-1.4-1.1-2.8-1.1-4.6-1.1h-8.2v11.8H398L398,979.2z M417.8,987.1
	c1.4,4.6,5.2,6.8,9.8,6.8c2,0,4.5-0.4,5.9-1.6c1.2-0.9,2-2.7,2-4.3c0-3.4-2.7-4.6-5.7-5.3l-5.5-1.4c-2.1-0.5-4.3-1.1-6.1-2.7
	c-1.8-1.6-2.7-3.7-2.7-6.1c0-6.4,5.5-9.1,11.2-9.1c5.5,0,10,2.7,11.8,8l-3.7,1.1c-0.7-3.6-4.6-5.9-8.2-5.9c-3.2,0-7.1,1.6-7.1,5.3
	c0,3.7,2.8,4.5,6.1,5.3l5,1.2c2.1,0.5,4.3,1.1,6.1,2.5c2.1,1.6,3,3.9,3,6.6c0,3-1.2,5.7-3.7,7.5c-2.5,1.8-5.7,2.5-8.5,2.5
	c-6.8,0-11.2-3-13.4-9.4L417.8,987.1L417.8,987.1z M446.1,996.9v-33.2h4.1v33.2H446.1z M468.9,996.9h-4.1v-29.5h-9.4v-3.6h22.8v3.6
	h-9.4v29.5H468.9z M494.3,983v13.9h-4.1V983l-11-19.2h4.8l8.7,15.3l8.9-15.3h3.7L494.3,983z M521.7,980.6c0-8.2,4.1-17.3,13.5-17.3
	c9.3,0,13.5,8.5,13.5,16.6c0,8.1-4.1,17.5-13.5,17.5C525.8,997.5,521.7,988.9,521.7,980.6z M544.6,980.1c0-3-0.5-6.4-2-9.1
	c-1.4-2.7-4.1-4.5-7.1-4.5c-7.3,0-9.4,8-9.4,13.9c0,5.7,2.3,13.4,9.3,13.4C542.5,994.1,544.6,985.9,544.6,980.1L544.6,980.1z
	 M555.1,996.9v-33.2h20.3v3.6h-16v10.5h13.4v3.4h-13.4V997h-4.3V996.9z M616.8,986.6c-1.6,6.2-5.3,10.9-12.3,10.9
	c-9.6,0-13.5-9.3-13.5-17.5c0-8.5,4.3-16.7,13.7-16.7c6.6,0,10.5,4.5,11.9,10.5l-3.9,0.7c-1.2-4.3-3.2-7.8-8.2-7.8
	c-7.1,0-9.1,7.8-9.1,13.5c0,2.7,0.4,5.9,1.6,8.2c1.4,3,3.9,5.3,7.3,5.3c5,0,7.5-3.7,8.5-8.2L616.8,986.6z M645.6,996.9h-4.3
	l-3.4-9.6h-12.3l-3,9.6H619l10.7-33.2h4.8L645.6,996.9L645.6,996.9z M632.1,968.2l-5.2,15.8H637L632.1,968.2L632.1,968.2z
	 M669.6,996.9h-19.6v-33.2h4.1v29.5h15.3v3.7H669.6z M674.4,996.9v-33.2h4.1v33.2H674.4z M686.7,996.9v-33.2H707v3.6h-16v10.5h13.3
	v3.4h-13.4V997h-4.2V996.9z M708.2,980.6c0-8.2,4.1-17.3,13.5-17.3c9.3,0,13.5,8.5,13.5,16.6c0,8.1-4.1,17.5-13.5,17.5
	C712.3,997.5,708.2,988.9,708.2,980.6z M731.1,980.1c0-3-0.5-6.4-2-9.1c-1.4-2.7-4.1-4.5-7.1-4.5c-7.3,0-9.4,8-9.4,13.9
	c0,5.7,2.3,13.4,9.3,13.4C729,994.1,731.1,985.9,731.1,980.1L731.1,980.1z M761.2,996.9l-6.1-14.2H746v14.2h-4.1v-33.2h12.5
	c2.7,0,5.3,0.4,7.5,2c2.1,1.6,3.6,4.5,3.6,7.3c0,3.9-2.3,7.5-6.2,8.5l6.6,15.3H761.2L761.2,996.9z M753.7,979.2
	c2.1,0,4.1-0.2,5.7-1.8c1.2-1.2,1.6-2.7,1.6-4.3c0-2-0.7-3.6-2.3-4.6c-1.4-1.1-2.8-1.1-4.6-1.1h-8.2v11.8H753.7z M796,996.9h-4.1
	L775,968v28.9h-3.4v-33.2h5.2l15.7,27v-27h3.6v33.2H796z M803.9,996.9v-33.2h4.1v33.2H803.9z M838.9,996.9h-4.3l-3.4-9.6h-12.3
	l-3,9.6h-3.6l10.7-33.2h4.8L838.9,996.9L838.9,996.9z M825.3,968.2l-5.2,15.8h10.1L825.3,968.2L825.3,968.2z M195,1077.5
	c-0.2-0.2-1.8-2-5-5.3c0.2-1.4,0.4-3.2,0.5-5.3l0.4-3.6l-1.4,0.7c-0.5,0.2-2,1.8-3.6,3.7c-3.6-3.9-8.4-8.9-14.1-14.8v-15.5
	c11,8,19.9,14.6,19.9,14.6c0.5,0.4,1.2-0.5,0.5-1.1c-3.9-3-11.4-8.5-20.5-15.1v-8.7c0-1.1,0-3.4-1.1-2.7c-2.1,1.4-11.6-0.4-11.8-0.4
	l-2.5,0.5c-8.4-6.2-16.9-12.5-24.2-17.8c-1.8-1.2-2.5-0.5-0.7,0.9c1.2,1.1,11.6,8.7,23.3,17.3c-3.7,0.7-6.8,0.7-9.4,0.5
	c-4.3-4.5-8.7-9.1-13.7-14.1c-1.4-1.4-2.5-0.5-1.1,0.9c0.2,0.2,5.2,5.5,12.3,12.8c-2.3-0.2-4.5-0.7-6.6-0.9
	c-1.2-1.8-2.7-3.6-3.7-5.3c-2.3-3-2.5-1.1-1.2,0.9c0.7,1.1,1.6,2.5,2.8,4.3h-4.5c-0.2-0.7-0.4-1.2-0.7-1.8c-0.9-2.3-2.5-3.2-1.4,0.7
	c0.2,0.5,0.4,0.9,0.4,1.4c-0.9,0.2-2.1,0.5-3.4,1.2c-0.4-2.5-0.9-4.8-1.2-7.1c-0.5-2.5-1.6-2.3-1.2,0.4c0.4,2.5,0.7,5,1.2,7.5
	c-1.6,0.9-3.2,2-4.1,3.6c0-4.3-0.2-8.4-0.2-12.3c0-4.1-1.1-2.5-1.2,0v11.2c-1.1-1.4-3-2.5-4.8-3.4l1.1-6.6c0.4-2.7-0.9-2.8-1.2-0.4
	c-0.4,2.1-0.7,4.3-1.2,6.4c-1.4-0.5-2.7-0.7-3.4-0.7l0.4-1.1c1.1-3.9-0.5-3.2-1.2-0.7c-0.2,0.5-0.4,1.1-0.5,1.8
	c-1.6,0-3.2,0-4.6,0.2c1.2-1.8,2.1-3.2,2.8-4.3c1.4-2,1.1-3.9-1.2-0.9c-1.2,1.6-2.5,3.4-3.7,5.3c-2.3,0-4.3,0.2-6.1,0.2
	c6.8-7.1,11.4-11.9,11.6-12.3c1.4-1.4,0.4-2.3-1.1-0.9c-4.6,4.6-8.9,9.1-12.8,13.2c-6.6,0.4-8.7,0.5-10.9,0.7
	c12.1-8.9,22.8-16.7,24-17.8c1.8-1.4,1.1-2.1-0.7-0.9c-7.7,5.7-16.7,12.3-25.5,18.7h-2.7c-2.1,0-7.3,0.2-8.7,0
	c-0.5,0-1.4-0.4-1.8-0.4c-1.1,0-1.2,0.7-1.2,1.8v9.3c-8.7,6.4-16.2,11.9-19.9,14.8c-0.7,0.5,0,1.4,0.5,1.1c0,0,8.7-6.4,19.6-14.4
	v15.5c-15.1,15.8-23,24.4-23.1,24.6c-1.1,1.1-0.2,1.8,0.7,0.9c3.2-3,12.1-12.1,22.1-22.6v23.7c-8.2,13-13.9,22.8-14.1,22.8
	c-1.2,2-1.1,3,0.4,1.4c0.4-0.4,6.1-9.3,13.7-21.2v14.6c-2,0.2-4.6,0.7-5.5,2c-1.1,1.4-0.7,2.7-0.9,4.6c-0.2,1.2-0.4,3-0.7,3.9
	c-0.5,1.6-2,2.7-2.8,3.6c-0.8,0.9-1.4,2.3-2,3.6c-0.9,2.1,0.4,5.3,1.8,7.7c0.7,1.2,2.1,2.7,3.6,2.8c5.3,0.9,6.1-2.8,6.8-4.8
	c0-0.2,0-0.2,0.2-0.4c0,3.6,0.2,5.5,0.2,5.7c0,0.2,2.7,0,6.8-0.2c-0.9,2.8-1.6,4.5-1.6,4.6c-0.9,3.4,0.7,2.1,1.1,0.9l2-5.5
	c3.6-0.2,8-0.4,12.5-0.5c0.9,1.4,2.8,3.6,3.6,5l0.9,1.6l0.5,1.1c0.7,1.2,1.2,2.3,2,3.2c-0.5,3-0.9,4.8-0.9,5.2
	c-1.1,4.6-0.2,5,1.1,0.7c0-0.2,0.4-1.8,0.9-4.3c0.5,0.7,1.1,1.6,1.8,2.5c1.4,2,4.5,3.9,11.6,6.9c2.7,1.2,6.6,2,10.9,2.1
	c0.2,3.6,1.1,2.7,1.2,0c5.5,0.2,11.8-0.7,17.8-2.7c3.2-1.6,5.5-3.4,6.9-5v0.2c1.2,4.3,2.1,3.9,1.1-0.7c0-0.2,0-0.4-0.2-0.7
	c0.9-1.1,1.2-1.8,1.2-2c0.4-0.7,3.6-7.5-0.4-12.5l-0.2-0.2l-0.4-0.2l-0.7-0.5c7.1,0.4,14.8,0.7,19.9,0.9l1.6,4.3
	c0.4,1.2,2.1,2.3,1.1-0.9c0,0-0.5-1.2-1.2-3.4c3.2,0.2,5.2,0.2,5.2,0v-7.3c4.5-0.7,5.9-2,8.7-4.5c3.4-3,5.5-7.1,5.3-11.2
	c0.2,0.4,0.4,0.5,0.4,0.5c1.4,1.6,1.6,0.5,0.4-1.4c0,0-0.5-0.7-1.2-2c-0.7-2.3-2-4.3-3.6-5.9c-1.6-2.7-3.6-5.9-5.9-9.6
	c2.3-0.4,4.8-1.1,6.8-1.8c2.1-0.9,5.3-3.4,6.8-7.3l0.9-0.4c0.2-0.4,0.4-0.9,0.4-1.2l4.6,4.6C195,1079.3,196.1,1078.6,195,1077.5
	L195,1077.5z M184.6,1069c-1.2,1.4-2.5,2.8-3.6,4.1c-0.4-1.4-0.7-4.3-1.1-6.2c-0.4-1.6-0.7-2.8-1.2-3.9
	C180.9,1065.1,182.8,1067,184.6,1069L184.6,1069z M171.6,1055.4c1.6,1.6,3,3.2,4.5,4.6v0.7c0.5,5.3-0.5,9.6-1.2,12.1
	c-0.7,2.5-1.4,3.6-2.7,4.1l-0.7,0.4C171.6,1069.2,171.6,1061.7,171.6,1055.4z M167.5,1027.9c0.2-1.1,2-1.4,2.3,0.5
	c0.4,1.1,0.2,25.5,0,49.6c-0.7,0.2-1.4,0.2-2.1,0.2h-0.2C167.5,1053.8,167.3,1028.5,167.5,1027.9L167.5,1027.9z M164.1,1027.9
	c0-0.7,1.8-1.1,1.6,0.5c0.2,0.4-0.2,25.1-0.4,49.1l-0.9-0.4c0-0.4-0.2-0.7-0.2-0.7c0-2.5,1.1-2.8,0-4.1c-0.2-0.4-0.7-0.5-1.2-0.7
	C163.6,1049,163.9,1028.3,164.1,1027.9L164.1,1027.9z M159.7,1026.9c0.4-1.4,1.8-0.4,1.8,0.2s-0.2,22.3-0.4,44.6
	c-0.5,0.2-1.2,0.2-2,0.4C159.3,1059,159.5,1043.9,159.7,1026.9L159.7,1026.9z M159.3,1072.7h0.4c0,0,2.3-0.7,3-0.2
	c0.9,0.7,0.5,3.7,0.5,4.8v1.1c0,0.2,0.2,0.4,0.2,0.7c0.4,0.9,1.2,1.2,1.2,1.6c-0.5-0.2-0.9-0.4-1.4-0.4c-0.7-0.2-1.4-0.4-2-0.4
	c-0.7-0.2-1.2-0.2-2-0.2h-1.6c-1.4,0.2-2.7,0.4-3.6,0.9c-0.4,0.2-0.7,0.4-1.1,0.7c0,0-0.2,0-0.2,0.2c-0.4,0.2-0.5,0.5-0.9,0.9
	c-0.5,0.7-0.9,1.6-1.2,2.5c-0.2-0.9-1.2-2-1.2-2.7c0-2.8,1.8-4.8,3-5.9c0.4-0.4,0.9-0.7,1.2-0.9c0.2-0.2,0.4-0.2,0.4-0.2l0.9-0.5
	c0.2,0,0.4-0.2,0.4-0.2c0.4-0.2,0.5-0.4,0.9-0.4c0.2,0,0.2,0,0.4-0.2C157.9,1073.1,158.8,1072.9,159.3,1072.7L159.3,1072.7z
	 M164.8,1082.2l0.4,0.2v6.4c-0.9,0-1.4,0.2-2.1,0.4c0-2.5,0-5,0.2-7.7c0.4,0.2,0.7,0.4,1.2,0.5L164.8,1082.2L164.8,1082.2z
	 M161.1,1080.9v9.1l-0.4,0.2c-0.4,0.2-0.9,0.4-1.4,0.5v-10.1L161.1,1080.9z M157.7,1080.7v10.5c-0.4,0-0.5,0.2-0.7,0.2
	c-2.7,0.2-4.3-0.9-4.6-1.6c-0.2-0.4-0.4-0.7-0.7-1.2c-0.2-0.5-0.4-1.6-0.4-1.6c0-1.4,0.7-2.3,2.1-3.9
	C154.5,1081.8,155.9,1080.9,157.7,1080.7z M119.7,1032c0.5-5,13.9-6.8,16.2-6.2c2.1,0.5,5.9,1.2,7.5,1.4c0,0,7.5,1.8,14.2-0.7v45.5
	c-1.2,0.4-4.1,1.1-6.1,2.7c-2.1,1.8-3.6,3.9-3.6,6.8c0,2,0.7,3.7,1.6,6.2c0.5,1.4,0.9,3,1.1,3c1.2,2,0.9,3.7,1.2,5.5
	c0.5,2.8,2.3,3.4,3,3.6l2.5,0.5v3.4h-0.5c-4.5-0.4-6.1-1.1-8.7-2.3l-3-1.8c-5.3-2.5-12.5-2.3-16-0.7c-2,0.7-3,1.4-4.1,2.7l-0.2,0.7
	l0.2,0.5c0.4,1.1,1.2,2.1,1.6,3c0.4,0.7,0.2,2.5,0.2,3c0,1.4-1.2,2.8-1.6,3.2h0.2c-1.2,0.7-1.8,2.3-2,4.5c-1.4,0.7-2.5,1.2-3.6,2
	C119.7,1118.4,119.1,1032.2,119.7,1032L119.7,1032z M133.4,1119.5c0.2,0.5,0.5,1.1,1.1,1.4c0.4,0.5,0.9,0.9,1.6,1.2
	c0.5,0.4,1.2,0.9,2,1.2l0.9,0.5c0.5,0.2,0.9,0.5,1.4,0.9c-0.5,0-0.9,0-1.4,0.2l-2.1,0.2c-0.5,0-0.9,0-1.2,0.2
	c-1.2,0.2-2.3,0.2-4.1-0.2c-0.5,0-1.1-0.2-1.8-0.4c-1.1-0.2-1.8-0.7-2.5-1.4c-0.7-0.7-1.4-1.6-1.8-2.5c-0.4-0.7-0.5-1.1-0.5-1.6
	l-0.2-1.4c0-0.7,0.2-1.4,0.2-2c0.2-0.5,0.2-0.9,0.5-1.2v-0.1c0.2-0.4,0.5-0.5,0.7-0.7l0.4-0.2c0.5-0.2,0.9-0.2,1.4-0.2h1.8l1.6,0.2
	h0.2l2.3,0.5l-0.4,0.9c-0.2,0.4-0.4,0.9-0.4,1.2c-0.2,0.4-0.2,0.9-0.2,1.2C132.9,1118.2,133,1118.9,133.4,1119.5L133.4,1119.5z
	 M134.2,1117.2c0-0.7,0.4-1.6,0.7-2.5c0.4,0,0.5,0,0.9-0.2c1.8,0.5,3.6,1.1,5.3,1.8L134.2,1117.2z M147.7,1118.4
	c2.3,0.7,4.8,1.1,7.5,1.4c-5.9,0.2-13,0.5-19.1,0.9c-0.7-0.5-1.1-0.9-1.4-1.4C139,1118.9,143.6,1118.8,147.7,1118.4z M136.5,1126.9
	c0,0.9-0.2,1.6-0.9,2.1c-3.9,3.2-7.1,3.9-14.6,2.8l-2.1-0.4v-4.3c2,0,4.1-0.5,6.2-2.1c0.2,0,0.9-0.2,1.8-0.2
	c0.7,0.5,1.6,0.9,2.7,1.1C133.4,1127.1,134,1127.1,136.5,1126.9L136.5,1126.9z M123.4,1119.8l-1.6-0.7l1.6-0.7
	C123.2,1118.9,123.2,1119.5,123.4,1119.8z M118.8,1120c3.6,0.2,5.5,3.6,5.2,3.9c-2.5,2.8-7.8,3-10.1,0.2
	C113.4,1123.6,115.8,1120.2,118.8,1120L118.8,1120z M113.4,1121.6c0.7,0.2-0.7,0.7-0.7,0.7c-1.6-0.4-4.8-0.5-8.5-0.9l-0.2-0.4
	c0-0.2-0.2-0.4-0.2-0.7C108.1,1120.7,111.7,1121.1,113.4,1121.6z M103.1,1118.2c-0.2-0.7-0.5-1.2-1.1-2c4.6,0.7,11.9,2,13.5,3.2
	c-0.9,0.4,0.2-0.2-1.2,0.9C113.1,1119.5,108.6,1118.9,103.1,1118.2L103.1,1118.2z M110.6,1123c0.5,0,1.8,0,1.2,1.1
	c0-0.2-2.5-0.2-6.4-0.2l-0.5-1.1C107.8,1122.9,109.7,1122.9,110.6,1123z M112,1125.3c2,0.7,3.2,1.4,5.2,1.8v3.9
	c-1.4-0.5-2.8-1.1-4.3-2c0,0-1.8-0.9-4.1-2c-1.1-0.5-2-1.2-2.7-2.1C109.4,1125,111.3,1125.2,112,1125.3z M78.1,1027.7
	c0-0.7,0-0.9,1.1-0.9c14.2,0.2,36.4-5.2,38.6,5.2c0,0.4,0.5,66.2,0.2,86.6c-4.8-2-8.5-2.7-16.7-3.7l-1.4-2c-1.6-2.3-2-3.2-3.2-4.1
	l-3-2.8c-1.6-1.2-3.6-3.2-3.9-3.6c-4.5-3-8.4-4.5-11.6-5.2C78.3,1056.2,77.7,1032.4,78.1,1027.7z M75.4,1029c0-2.1,1.2-2.1,1.1-0.5
	c0.2,2.3,0,24.9-0.5,68.3c-0.5-0.2-1.1-0.2-1.6-0.2C74.7,1071.5,75.4,1032.2,75.4,1029z M71.3,1028.5c-0.2-1.1,1.1-1.6,1.2-0.2
	c0.2,0.5-0.4,41.8-0.5,68.3l-1.6,0.2C70.4,1069.9,71.1,1028.8,71.3,1028.5z M66.7,1027.9c0.2-1.4,2.1-0.7,2.1,0.9
	c-0.2,28.8-0.5,52.3-0.7,68.5l-0.5,0.2h-1.1L66.7,1027.9z M60.8,1123.4c-1.1,0.9-2.1,1.2-3.6,1.1c-0.9,0-2.7-2.1-3.6-4.3
	c-0.4-0.9-0.4-2-0.2-3.6c0-0.5,0-0.9,0.2-1.2c0.2-0.5,0.5-1.1,0.9-1.4c0.5,0.7,1.6,1.4,2.7,2l2.1,1.2c1.2,0.9,3,1.4,4.3,1.6
	C63.1,1120.2,62.4,1122.1,60.8,1123.4L60.8,1123.4z M63.3,1117.2c-0.4,0-1.8,0.2-3.9-0.9l-2-1.1c-1.1-1.4-1.6-2.1-1.6-2.5
	c0,0,0-0.2,0.2-0.2c1.1-0.9,5.3-0.9,8-0.5v5C63.8,1117.2,63.5,1117.2,63.3,1117.2z M66.7,1123.7c-0.2-0.7-0.4-5-0.2-5.9v-5.7
	c0.5,0,1.1,0,1.6,0.2c0,6.6,0.2,10.1,0.7,10.3c0.4,0.2,6.9,0.2,15,0.2v0.2c0,0,0.4,0.5,0.5,0.7l0.2,0.5
	C75.1,1124.1,66.9,1123.9,66.7,1123.7z M81.2,1119.1c0.2,0.4,0.5,0.7,0.9,1.2c-6.4-0.2-11.2-0.5-11.4-0.7c-0.2-0.2-0.2-2.8-0.4-7.1
	l1.6,0.4c0,3.4,0.2,5.5,0.2,5.7C72.6,1118.8,76.1,1118.9,81.2,1119.1L81.2,1119.1z M74.2,1113.8c0.5,0.2,1.1,0.5,1.8,0.9
	c0,0,0,0.2,0.2,0c1.1,0.5,2.1,1.4,3.2,2.3c-3,0-5.2,0-5,0.2C74,1116.8,74.2,1115.6,74.2,1113.8z M146.3,1131.8c0,0.5,0,1.1-0.2,1.6
	v0.4c-0.2,0.5-0.2,1.1-0.4,1.8l-0.5,1.6c0,0.2,0,0.2-0.2,0.4c-0.2,0.5-0.4,1.1-0.7,1.6c-0.4,0.5-0.5,1.1-0.9,1.4
	c-1.4,2-3.4,3.2-8.4,5.5c-1.4,0.5-2.8,0.9-4.1,1.2l-0.7,0.2c-1.1,0.4-2.3,0.5-3.4,0.7h-0.5c-1.2,0.2-2.3,0.4-3.6,0.4h-0.2
	c-1.2,0-2.5,0.2-3.6,0c-1.2,0-2.3-0.2-3.4-0.2h-0.5c-0.5,0-1.2-0.2-1.8-0.4l-1.1-0.2l-1.2-0.4l-2.1-0.7c-6.6-3-11-5.2-13-7.8
	l-1.6-2.5l-1.1-1.6c-0.5-1.1-1.1-2-1.8-3l-1.1-1.2l-0.9-1.6c-0.5-1.1-1.2-2.3-2-3.4c-0.2-0.4-0.5-0.7-0.7-1.2c0-0.2-0.9-1.8-0.9-1.8
	v-0.2l-0.5-0.7c-0.4-0.5-0.5-0.9-0.9-1.2c-0.4-0.5-0.5-0.9-0.9-1.2c-0.5-0.9-1.1-1.6-1.4-1.8c-0.2-0.2-0.4-0.4-0.5-0.4
	c-0.4-0.4-0.7-0.7-1.2-1.1c-0.5-0.4-1.2-0.9-2.1-1.2c-0.7-0.4-1.6-0.9-2.5-1.2l-1.6-0.7l-2.1-0.9l-1.6-0.5c-0.9-0.2-1.6-0.5-2.3-0.5
	l-1.6-0.4c-0.7,0-1.2-0.2-1.8-0.2H64c-3.4,0.2-3.9-0.2-5-0.2h-0.7c-0.2,0-0.5,0-0.9,0.2l0.5-1.2c0.4-1.1,0.2-2.7,0.4-4.1
	c0.2-1.6,0.7-3.7,1.6-4.5c0.2-0.2,0.5-0.5,0.9-0.5c0.2,0,0.2,0,0.4-0.2l0.9-0.4h2.8l1.4-0.2h0.4l1.2-0.4c1.2-0.4,2.5-0.5,3.7-0.7
	c0.7-0.2,1.6-0.2,2.3-0.2c1.1,0,2.3,0,3.4,0.4l2.1,0.5c0.2,0,0.2,0,0.4,0.2c0.7,0.2,1.4,0.5,2.1,0.9c0.2,0,0.4,0.2,0.4,0.2
	c0.7,0.4,1.6,0.9,2.3,1.4l0.4,0.2c0.9,0.5,1.8,1.2,2.7,2H88c0.2,0.2,1.4,1.1,2.5,2l4.1,3.2c0.9,0.7,2.5,3.2,3.9,5.2l1.1,1.6
	c0.9,1.2,1.6,3,2.1,4.6c0,0.2,0.2,0.4,0.2,0.7c0.2,0.5,0.4,1.1,0.7,1.6l0.5,1.1l0.7,1.2l0.7,1.1l0.7,0.9c0,0,0,0.2,0.2,0.2
	c0.2,0.2,0.5,0.5,0.9,0.7l0.2,0.2l1.1,0.7l2.3,1.2c0.9,0.5,2,1.1,3,1.6c0,0,0.2,0,0.2,0.2c1.1,0.5,2.3,0.9,3.6,1.2l1.6,0.4
	c0.2,0,0.4,0,0.4,0.2c8.2,1.1,15,0,17.6-2.8c0.9-1.1,1.4-2.3,1.2-3.6h0.5c2.7-0.2,3.6-0.4,5.2,0.9
	C145.1,1129.1,146.3,1130.2,146.3,1131.8L146.3,1131.8z M168.9,1124.5c-0.7-0.2-15.7-0.7-27.7-0.9c-0.7-0.4-1.6-0.9-2.5-1.2
	c11.8,0.2,24.4,0.2,28.4,0c0-0.2,0.2-1.1,0.2-2.5l2-0.4C169.1,1122,169.1,1123.7,168.9,1124.5L168.9,1124.5z M181,1097.2
	c1.1,1.4,2,3.2,2.1,5.2c0.7,3.9,0.5,7.3-2.7,10.1l-1.2,1.1l-0.7,0.5c-0.2,0.2-0.4,0.2-0.4,0.4l-0.7,0.5l-0.4,0.2l-0.7,0.5l-0.4,0.2
	c-0.2,0.2-0.5,0.4-0.7,0.4l-0.4,0.2l-0.9,0.4c-0.2,0-0.2,0-0.4,0.2l-1.1,0.4h-0.1l-1.2,0.4l-1.6,0.2l-2.3,0.4
	c-0.9,0.2-1.6,0.2-2.5,0.2c-1.1,0.2-2.1,0.2-3.2,0.2h-3.4c-1.1,0-2-0.2-2.8-0.2h-0.2c-5-0.5-9.4-1.8-12.8-3.4l-2.5-1.1l-2.1-0.9
	c-1.8-0.7-3.4-1.2-5.2-1.6H132l-2-0.4h-0.5c-0.7,0-1.4-0.2-2,0c0.4-1.1,0.7-2.5,0.7-3.6v-0.7c-0.2-0.7-0.5-1.6-0.9-2.5
	c-0.4-0.7-0.5-1.2-0.9-2.1c0.7-0.9,1.1-1.6,2.5-2.1c2.8-1.1,9.1-1.8,14.1,0.5l3.7,1.6c2.7,1.2,4.8,2.5,9.6,2.8l2.7,0.2
	c0.5,0,1.1,0,1.6,0.2h4.1c0.9,0,1.8,0,2.5-0.2c0.7,0,1.4-0.2,2-0.2c0.7,0,1.2-0.2,1.8-0.2c0.9-0.2,1.6-0.4,2.3-0.5
	c0.2,0,0.2,0,0.4-0.2c0.7-0.2,1.2-0.4,1.8-0.5C180.3,1102,181,1099,181,1097.2L181,1097.2z M159.1,1101.1c0.5,0,1.2,0.2,1.8,0v3.4
	c-0.5,0-1.1,0-1.8-0.2V1101.1z M162.9,1104.5v-3.9h0.2c0.5-0.2,1.2-0.5,2-1.1v5C164.3,1104.7,163.6,1104.5,162.9,1104.5
	L162.9,1104.5z M167.3,1104.7v-6.8l2.1-1.8c0,2.8,0,5.7-0.2,8.4C168.7,1104.5,168.2,1104.7,167.3,1104.7L167.3,1104.7z
	 M179.1,1096.7c0.2,1.1,0.5,4.6-4.1,6.2l-3.7,1.2v-9.4c1.6-1.1,3.6-1.2,7.7,1.6C179.1,1096.3,179.1,1096.5,179.1,1096.7
	L179.1,1096.7z M178.4,1093.5l-2.1-0.4h-2.1c-0.5,0-0.9,0-1.4,0.2c-0.5,0-0.9,0.2-1.2,0.4c-0.7,0.2-1.2,0.5-1.8,0.9
	c-0.7,0.4-1.2,0.9-2,1.6c-0.2,0-0.2,0.2-0.2,0.2c-0.9,0.9-1.6,1.2-2.3,1.6c-0.7,0.4-1.2,0.5-2,0.7h-0.2l-0.5,0.2l-1.4,0.5
	c-1.1,0.4-2.3,0.5-3.4,0.4c-0.4,0-0.7-0.2-1.2-0.4c-2-0.9-3-2.7-3.2-3.4c-0.2-1.2,0.2-1.4-0.2-3.4c0.5,0.2,1.2,0.4,2,0.4h3
	c0.4,0,0.7-0.2,1.1-0.4l1.6-0.7h0.2c0.7-0.5,1.6-0.9,2.7-1.2c0.4-0.2,0.9-0.2,1.4-0.4h3.9c1.1,0,2.3-0.2,3.7,0.2
	c0.2,0,0.4,0,0.7,0.2c0.2,0,0.4,0,0.5,0.2l0.7,0.2c0.2,0,0.2,0,0.4,0.2l1.1,0.5l0.4,0.2l0.9,0.5l0.4,0.2
	C177.7,1092.8,178,1093.1,178.4,1093.5L178.4,1093.5z M167.5,1089v-5.3c0.7,0.4,1.6,0.7,2.3,0.9v4.6L167.5,1089z M177.3,1091.2
	c-3-2.1-4.3-2.1-5.9-2v-4.1c0.7,0.2,1.2,0.2,2,0.2C174.8,1087.3,176.2,1089.4,177.3,1091.2L177.3,1091.2z M189,1068.4
	c-0.4,2-0.7,3.6-1.1,4.8c-0.2,0.4-0.4,0.9-0.4,1.2l-0.4,0.7c-1.4,3.6-3,6.4-8.5,8.2c-0.7,0.2-1.4,0.4-2,0.4h-1.8
	c-0.7,0-1.4-0.2-2.1-0.4l-0.9-0.2l-1.1-0.2l-0.5-0.2c-2.3-0.7-4.1-2-4.6-3.2v-0.2l-0.2-0.5v-0.2c0.7,0.2,1.6,0.4,2.7,0.4
	c0.7,0,1.4,0,2.3-0.2c0.5,0,1.2-0.2,1.8-0.4l0.4-0.2c1.8-0.5,3.7-1.4,4.8-4.8c0.5-1.6,0.7-6.8,0.9-9.6c1.6,3.6,2.5,9.8,2.5,10.5
	l0.4,2c0,0,0.7-0.7,1.2-1.6c1.6-2.1,2.7-3.7,3.7-5c0.4-0.5,0.7-0.9,0.9-1.2l1.2-1.4h0.2l1.2-1.1
	C189.1,1066.8,189.1,1067.7,189,1068.4L189,1068.4z M62.2,1022.4c-0.9,0.5-1.4-0.4-0.4-0.9c2.1-1.2,36.2-16.6,38.9-17.8
	c1.6-0.7,2.5,0.4,0.9,1.2C101.5,1005,64.4,1021.3,62.2,1022.4z M101,1001c0,0,0.5,0.5-0.2,0.7c-0.9,0.4-11.6,0.9-12.3,0.9
	c-0.4,0-3.2,0.2-3.9,0.2c-2-0.2-0.5-0.7,0.4-0.7C88.3,1001.4,99.9,1000.5,101,1001z M173,1022.2c0.9,0.5,1.4-0.4,0.4-0.9
	c-2.1-1.2-36.2-16.6-38.9-17.8c-1.6-0.7-2.5,0.4-0.9,1.1C133.7,1004.8,170.9,1021.2,173,1022.2L173,1022.2z M135.5,1001
	c0,0-0.5,0.5,0.2,0.7c0.9,0.2,11.4,0.7,11.9,0.7c0.4,0,3,0.2,3.9,0.2c2-0.2,0.5-0.5-0.4-0.7C150.1,1001.6,136.9,1000.3,135.5,1001
	L135.5,1001z M99.7,1161.2l-0.2,0.4c-0.4,0-0.5,0-0.7,0.5l-2.8,10.5c-0.2,0.5,0,0.7,0.4,0.7l-0.2,0.4l-4.1-1.1v-0.4
	c0.5,0.2,0.7,0,0.9-0.4l2.1-7.8c-0.4,0-1.2,0-1.6,0.4l-0.4-0.2l0.7-3l0.4,0.2c0,0.4,0.2,0.4,0.5,0.5c0.5,0.2,0.9-0.2,1.1-0.7
	c0-0.4,0-0.5-0.4-0.5v-0.4L99.7,1161.2L99.7,1161.2z M105.4,1168.2c-1.2-0.5-2-1.8-2-2.8c0.2-1.8,2.3-3.2,5.9-2.8
	c3.9,0.4,5.7,2,5.5,3.7c-0.2,1.1-1.1,2.3-2.5,2.5c1.6,0.7,2.5,2,2.3,3.4c-0.2,2.1-2.5,3.6-6.4,3.2s-6.1-2.3-5.9-4.3
	C102.8,1169.6,103.8,1168.5,105.4,1168.2L105.4,1168.2z M108.6,1173.3c1.6,0.2,3.2-0.4,3.4-1.8c0.2-1.2-1.2-2.1-3-2.3
	c-1.6-0.2-3.2,0.4-3.4,1.8C105.4,1172.5,106.9,1173.2,108.6,1173.3z M109.2,1167.6c2,0.2,2.8-0.4,2.8-1.4c0-1.1-0.7-1.8-2.7-2
	c-2-0.2-2.8,0.4-2.8,1.4C106.5,1166.6,107.2,1167.5,109.2,1167.6z M126.1,1166l-0.4-0.2c0-0.7-1.2-1.4-2.8-1.2
	c-2.3,0.2-3.6,2.1-3.4,4.3c0.9-0.9,2.3-1.8,3.7-1.8c2.8-0.2,5.2,1.1,5.3,4.3c0.2,2.1-1.8,4.3-5.3,4.5c-4.3,0.2-6.2-2.5-6.4-5.7
	c-0.2-3.9,1.8-7.1,6.2-7.5c2.1-0.2,3.7,0.7,4.3,0.7c0.2,0,0.4,0,0.4-0.2l0.2,0.2L126.1,1166L126.1,1166z M125.6,1171.4
	c0-1.2-1.4-2.3-3-2.1c-1.6,0-2.8,1.2-2.7,2.5c0,1.4,1.4,2.3,3,2.1C124.5,1173.7,125.6,1172.6,125.6,1171.4z M132.3,1167.5
	c-1.2,0-2.5-0.9-2.8-2c-0.5-1.8,0.9-3.7,4.5-4.8c3.7-1.1,6.1-0.2,6.6,1.6c0.4,1.1-0.2,2.5-1.4,3.2c1.8,0,3,0.9,3.4,2.3
	c0.5,2.1-1.1,4.3-4.8,5.3c-3.9,1.1-6.6,0-7.1-2C130.4,1170,130.9,1168.5,132.3,1167.5L132.3,1167.5z M135.6,1165.7
	c1.8-0.5,2.5-1.4,2.1-2.3c-0.4-0.9-1.2-1.4-3-0.9s-2.5,1.4-2.1,2.3C132.7,1165.9,133.8,1166.2,135.6,1165.7z M137.2,1171.4
	c1.6-0.5,2.8-1.6,2.5-2.8s-2-1.4-3.6-1.1c-1.6,0.5-2.8,1.6-2.5,2.8S135.6,1171.7,137.2,1171.4z M73.5,1107.2l3.4,1.2
	c0.2,0,0.2,0,0.4-0.4h0.2l-1.1,2.7h-0.3v-0.5l-5.2-2v-0.2c0.4,0,0.4,0,0.4-0.2l2.7-7.3c0-0.2,0-0.2-0.2-0.4v-0.2l2.1,0.7v0.2
	c-0.2,0-0.4,0-0.4,0.2L73.5,1107.2L73.5,1107.2z M83.4,1110.6c0-0.2,0-0.4-0.2-0.5l-1.8-1.1l-0.7,1.2l3,1.8c0.2,0,0.2,0,0.4-0.4h0.1
	l-1.4,2.5h-0.2c0.2-0.2,0.2-0.4,0-0.4l-4.6-2.7l0.2-0.2c0.2,0.2,0.4,0,0.4-0.2l3.9-6.6c0-0.2,0.2-0.2-0.2-0.4l0.2-0.2l4.6,2.7
	c0.2,0,0.2,0,0.4-0.4h0.2l-1.4,2.5h-0.2c0.2-0.4,0.2-0.4,0-0.5l-3-1.8l-0.7,1.2l1.8,1.1c0.2,0.2,0.4,0,0.5-0.2h0.2L83.4,1110.6
	L83.4,1110.6z M85.3,1116.1c0.4,0,0.5,0,0.5-0.2l4.3-4.5l-1.2-1.2c0,0-0.2,0-0.5,0.2h-0.2l2-2.1h0.2c-0.2,0.4-0.2,0.4-0.2,0.5
	l3.7,3.7c0,0,0.2,0,0.5-0.2l0.2,0.2l-2.1,2c0.2-0.4,0.4-0.4,0.2-0.5l-1.4-1.2l-4.3,4.5c-0.2,0.2-0.2,0.2,0,0.4l-0.2,0.2L85.3,1116.1
	z M91.4,1124.6c0.4,0.2,0.4,0.2,0.5,0l5.7-2.5l-0.7-1.6c0-0.2-0.2-0.2-0.5,0v-0.2l2.7-1.2v0.2c-0.4,0.2-0.4,0.2-0.4,0.4l2.1,4.8
	c0,0.2,0.2,0.2,0.5,0v0.2l-2.7,1.2v-0.2c0.4-0.2,0.4-0.4,0.4-0.4l-0.9-1.8l-5.7,2.5c-0.2,0-0.2,0.2-0.2,0.4H92L91.4,1124.6
	L91.4,1124.6z M97.8,1136c-0.2,0-0.2,0.2,0,0.4l-0.2,0.2l-1.2-1.8l0.2-0.2c0.2,0.2,0.4,0.2,0.4,0l2.5-1.8l-1.6-2.3l-2.5,1.8
	c-0.2,0-0.2,0.2,0,0.4l-0.2,0.2l-1.2-1.8l0.2-0.2c0.2,0.2,0.4,0.2,0.4,0l6.2-4.5c0.2,0,0.2-0.2,0-0.4l0.2-0.2l1.2,1.8l-0.2,0.2
	c-0.2-0.2-0.4-0.2-0.4,0l-2.1,1.6l1.6,2.3l2.1-1.6c0.2,0,0.2-0.2,0-0.4l0.2-0.2l1.2,1.8l-0.2,0.2c-0.2-0.2-0.4-0.2-0.4,0L97.8,1136z
	 M105.3,1138.5c0-0.2,0-0.4-0.2-0.5l-1.6-1.2l-0.9,1.2l2.8,2c0.2,0,0.2,0,0.5-0.4h0.2l-1.6,2.3h-0.2c0.2-0.2,0.2-0.4,0-0.4l-4.3-3.2
	l0.2-0.2c0.2,0.2,0.4,0,0.4,0l4.5-6.2c0-0.2,0.2-0.2,0-0.4l0.2-0.2l4.3,3.2c0.2,0,0.2,0,0.4-0.2h0.2l-1.8,2.3h-0.2
	c0.2-0.4,0.2-0.4,0.2-0.5l-2.8-2l-0.9,1.1l1.6,1.2c0.2,0.2,0.4,0,0.5-0.2h0.2L105.3,1138.5L105.3,1138.5z M109,1143.4
	c0,0.2,0,0.2,0.2,0.4v0.2l-2.1-0.7v-0.2c0.4,0,0.4,0,0.4-0.2l2.3-7.3c0-0.2,0-0.2-0.2-0.4v-0.2l3.7,1.2c1.4,0.5,2,1.6,1.2,3.4
	c-0.5,1.4-1.2,2-2.3,2.1l0.4,3c0,0.2,0,0.4,0.2,0.4v0.2l-2.1-0.7v-0.2c0.2,0,0.2,0,0.4-0.2c0-0.2-0.4-2.7-0.4-3l-1.1-0.4L109,1143.4
	z M110.4,1139.1l1.8,0.5c0.5,0.2,0.9-0.2,1.1-0.5c0.2-0.5,0.2-0.9-0.5-1.1l-1.8-0.5L110.4,1139.1z M120.6,1142.9
	c-0.2-0.2-0.2-0.4-0.4-0.4l-2-0.2l-0.2,1.6l3.4,0.2c0.2,0,0.2,0,0.2-0.5h0.2l-0.2,2.8h-0.2c0-0.4,0-0.4-0.2-0.4l-5.3-0.4v0
	c0.2,0,0.4-0.2,0.4-0.4l0.5-7.7c0-0.2,0-0.4-0.4-0.4v-0.2l5.3,0.4c0.2,0,0.2,0,0.2-0.5h0.2l-0.2,2.8h-0.2c0-0.4,0-0.5-0.2-0.5
	l-3.4-0.2l-0.2,1.4l2,0.2c0.2,0,0.4-0.2,0.4-0.4h0.2L120.6,1142.9L120.6,1142.9z M126.3,1137.3c0-0.2-0.2-0.2-0.4-0.2v-0.2l3.9-1.2
	c1.1-0.4,2.1,0,2.7,1.6c0.4,0.9,0,1.6-0.5,2c0.7,0,1.4,0.5,1.8,1.6c0.4,1.2,0.2,2.5-1.4,3l-3.9,1.2v-0.2c0.2-0.2,0.2-0.2,0.2-0.4
	L126.3,1137.3L126.3,1137.3z M128.8,1139.4l1.4-0.4c0.9-0.2,1.1-0.4,0.9-1.1c-0.2-0.7-0.5-0.7-1.2-0.4l-1.4,0.4L128.8,1139.4
	L128.8,1139.4z M129.8,1143.1l1.8-0.5c0.7-0.2,0.9-0.5,0.7-1.2s-0.5-0.9-1.2-0.7l-1.8,0.5L129.8,1143.1L129.8,1143.1z M139.5,1137.5
	c-0.2-0.2-0.4-0.2-0.5-0.2l-1.8,0.9l0.7,1.4l3-1.6c0.2,0,0.2-0.2,0-0.5h0.2l1.2,2.5h-0.2c-0.2-0.2-0.2-0.4-0.4-0.2l-4.8,2.5
	l-0.2-0.2c0.2-0.2,0.2-0.2,0.2-0.4l-3.6-6.9c0-0.2-0.2-0.2-0.4-0.2l-0.2-0.2l4.8-2.5c0.2,0,0.2-0.2,0-0.5h0.2l1.2,2.5h-0.2
	c-0.2-0.4-0.4-0.4-0.4-0.4l-3,2l0.7,1.2l1.8-0.9c0.2-0.2,0.2-0.4,0.2-0.5h0.2L139.5,1137.5z M136.5,1109l3.6,0.9
	c0.2,0,0.2,0,0.4-0.4h0.2l-0.7,2.8h-0.2v-0.5l-5.5-1.4v-0.2c0.4,0,0.4,0,0.4-0.2l1.8-7.5c0-0.2,0-0.2-0.2-0.4v-0.2l2.1,0.5v0.2
	c-0.2,0-0.4,0-0.4,0.2L136.5,1109L136.5,1109z M141.5,1112.5v-0.2c0.2,0,0.4,0,0.4-0.2l2.8-7.1c0-0.2,0-0.2-0.2-0.4v-0.1l2,0.9v0.2
	c-0.2,0-0.4,0-0.4,0.2l-2.8,7.1c0,0.2,0,0.2,0.2,0.4v0.2L141.5,1112.5z M152.2,1112.9l-1.2-0.4c-0.2,0-0.2,0-0.2,0.4h-0.2l0.5-2.3
	h0.2v0.4l3,0.9v0.2c-0.2,0-0.2,0-0.2,0.2l-0.7,2.5v0.5c-1.1,0.5-2.3,0.7-3.7,0.4c-1.8-0.5-3-2.3-2.1-5.2c0.7-2.8,2.8-3.9,4.5-3.4
	c0.7,0.2,0.9,0.4,1.6,0.9c0.4,0.2,0.5,0.5,0.7,0.7c0,0,0.2,0,0.2-0.2l0.2,0.2l-1.2,1.8l-0.2-0.2v-0.2c0-0.4-0.9-1.1-1.6-1.2
	c-1.1-0.2-2.1,0.4-2.5,2c-0.5,1.8,0.4,2.8,1.2,3c0.5,0.2,1.1,0.2,1.6,0L152.2,1112.9L152.2,1112.9z M162.7,1116.8
	c0,0.2,0,0.2,0.4,0.4v0.2l-2.1-0.2v-0.2c0.4,0,0.4-0.2,0.4-0.4l0.2-3l-2.8-0.2l-0.2,3c0,0.2,0,0.2,0.4,0.4v0.2l-2.1-0.2v-0.2
	c0.4,0,0.4-0.2,0.4-0.4l0.5-7.7c0-0.2,0-0.2-0.4-0.4v-0.2l2.1,0.2v0.2c-0.2,0-0.4,0.2-0.4,0.4l-0.2,2.7l2.8,0.2l0.2-2.7
	c0-0.2,0-0.4-0.4-0.4v-0.2l2.1,0.2v0.2c-0.4,0-0.4,0.2-0.4,0.4L162.7,1116.8z M168.2,1116.6v-0.2c0.2,0,0.4-0.2,0.2-0.4l-0.9-6.1
	l-1.8,0.4c-0.2,0-0.2,0.2-0.2,0.5h-0.2l-0.5-2.8h0.2c0.2,0.4,0.2,0.4,0.4,0.4l5.2-0.9c0.2,0,0.2-0.2,0.2-0.5h0.2l0.5,2.8h-0.2
	l-0.2-0.4l-1.8,0.4l0.9,6.1c0,0.2,0,0.2,0.4,0.2v0.2L168.2,1116.6L168.2,1116.6z M59.8,1137.8l-0.2,0.2c-0.4-0.2-0.5-0.2-0.9,0
	l-6.8,6.9l2.5,2.5c0.5,0.5,0.7,0.5,1.1,0.4l0.4,0.4l-2.1,2.1l-0.2-0.2c0.2-0.4,0-0.5-0.4-1.1l-7.3-6.9c-0.5-0.5-0.7-0.5-1.1-0.4
	l-0.4-0.4l2.1-2.1l0.4,0.4c-0.4,0.4-0.2,0.5,0.4,1.1l2.5,2.5l6.8-6.9c0.4-0.4,0.4-0.5,0-0.9l0.2-0.2L59.8,1137.8z M44.4,1129.8
	l3.9-2.8c0.4-0.2,0.4-0.5,0-1.1l0.4-0.2l2.7,3.7l-0.4,0.2c-0.4-0.5-0.5-0.5-0.9-0.4l-8.9,6.2c-0.4,0.2-0.4,0.4,0,1.1l-0.4,0.2
	l-2.5-3.7l0.4-0.2c0.4,0.5,0.5,0.5,0.9,0.4l3.4-2.3l-3.7-5.2l-3.4,2.3c-0.4,0.2-0.4,0.5,0,1.1l-0.4,0.2l-2.7-3.7l0.4-0.2
	c0.4,0.5,0.5,0.5,0.9,0.4l8.9-6.2c0.4-0.2,0.4-0.5,0-1.1l0.4-0.2l2.7,3.7l-0.4,0.2c-0.4-0.5-0.5-0.5-0.9-0.4l-3.9,2.8L44.4,1129.8z
	 M38,1112.3l-2.8-6.2c-0.4-0.7-0.4-0.9-0.9-0.7l-0.2-0.4l2.7-1.2l0.2,0.4c-0.4,0.2-0.4,0.5,0,1.1l4.5,9.8l-0.4,0.2
	c-0.4-0.7-0.5-0.7-0.9-0.5l-9.8,4.3c-0.4,0.2-0.5,0.4-0.2,1.2l-0.4,0.2l-4.3-9.4c-0.4-0.7-0.4-0.9-0.9-0.7l-0.2-0.4l2.7-1.2l0.2,0.4
	c-0.2,0.2-0.2,0.5,0,1.1l2.7,5.9l2.8-1.2l-1.6-3.6c-0.4-0.5-0.5-0.9-0.9-0.7l-0.2-0.4l2.7-1.2l0.2,0.4c-0.2,0.2-0.2,0.5,0,1.1
	l1.6,3.4L38,1112.3z M18.7,1079.8h0.4c0.2,0.5,0.2,0.7,0.7,0.7l7.1-0.2c1.6,0,2.7-1.2,2.7-3.4c0-2.2-1.2-3.2-2.8-3.2l-7.1,0.2
	c-0.4,0-0.5,0.2-0.5,0.7h-0.4l-0.2-4.3H19c0.2,0.5,0.2,0.7,0.7,0.7l7.1-0.2c2.8-0.2,4.8,1.6,5,6.1c0.2,4.5-1.6,6.2-4.6,6.4l-7.1,0.2
	c-0.4,0-0.5,0.2-0.5,0.9h-0.4L18.7,1079.8z M31.4,1066.1h-0.3c0-0.5-0.2-0.7-0.5-0.7l-10.7-1.6c-0.4,0-0.5,0-0.7,0.5h-0.4l0.7-4.8
	h0.4c0,0.4,0,0.5,0.2,0.5c0.4,0,7.7-3.9,8.7-4.1l-7.5-1.2c-0.4,0-0.5,0-0.7,0.5h-0.4l0.7-3.9h0.4c0,0.5,0.2,0.7,0.5,0.7l10.7,1.6
	c0.5,0,0.5,0,0.7-0.4h0.4l-0.9,4.1h-0.4c0-0.4,0-0.5-0.2-0.5c-0.4,0-7.1,3.9-9.4,4.6l8.2,1.2c0.4,0,0.5,0,0.7-0.5H32L31.4,1066.1z
	 M34.8,1048.9l-0.4-0.2c0.2-0.9,0.2-1.1-0.4-1.1l-10.3-3.4c-0.4-0.2-0.5,0-0.9,0.7h-0.2l1.6-4.8l0.4,0.2c-0.2,0.9-0.2,1.1,0.4,1.1
	l10.3,3.4c0.4,0.2,0.5,0,0.9-0.7l0.4,0.2L34.8,1048.9z M39.3,1037.1l-0.4-0.2c0.2-0.4,0.2-0.7,0-0.9c-0.2-0.2-8.4-0.4-11.6-0.7
	c-0.5,0-1.1,0-1.2,0.2l-0.4-0.2l1.8-3.7l0.4,0.2c-0.2,0.5-0.2,0.7,0.2,0.7c0.4,0.2,6.4,0.4,9.3,0.7c-2.1-2.3-6.1-6.8-6.4-6.9
	c-0.2,0-0.2,0-0.5,0.5l-0.4-0.2l1.8-3.6l0.4,0.2c-0.2,0.5,0.2,0.7,0.5,1.2c2.8,3.2,7.3,8.2,7.8,8.4c0.2,0.2,0.4,0,0.5-0.4l0.4,0.2
	L39.3,1037.1z M45.9,1021.9l4.1-5.5c0.4-0.5,0.5-0.7,0.2-1.1l0.2-0.4l2.3,1.8l-0.2,0.4c-0.4-0.2-0.5,0-0.9,0.5l-6.4,8.5l-0.4-0.2
	c0.4-0.7,0.4-0.9,0-1.1l-8.5-6.6c-0.4-0.2-0.5-0.2-1.1,0.5l-0.2-0.2l6.2-8.4c0.4-0.5,0.5-0.7,0.2-1.1l0.2-0.4l2.3,1.8l-0.2,0.4
	c-0.4-0.2-0.5,0-0.9,0.5l-3.9,5.2l2.5,2l2.3-3c0.4-0.5,0.5-0.7,0.2-1.1l0.2-0.4l2.3,1.8l-0.2,0.4c-0.4-0.2-0.5,0-0.9,0.5l-2.3,3
	L45.9,1021.9z M55.3,1013.5l-0.2-0.2c0.4-0.4,0.4-0.5,0-0.9l-7.3-8c-0.4-0.4-0.5-0.4-0.9,0l-0.2-0.2l5.5-5c2.5-2.1,4.8-2.5,6.2-0.9
	c1.2,1.4,1.2,3,0,5l4.1,1.2c1.2,0.4,1.6,0.5,2.1,0.2l0.2,0.2l-3.2,2.8l-0.4-0.4c0.2-0.2,0.4-0.5,0.2-0.7c0-0.2-0.2-0.2-0.7-0.4
	l-4.5-1.2l-2,1.8l2.8,3.2c0.4,0.4,0.5,0.4,0.9,0l0.2,0.2L55.3,1013.5L55.3,1013.5z M53.2,1005.7l2.5-2.3c1.4-1.2,1.4-2.1,0.7-3
	c-0.7-0.7-1.8-0.7-3,0.5l-2.5,2.3L53.2,1005.7z M67.6,998.5l0.4-0.2v0.2c0.4,0.7,2.8,0,4.3-0.9c2.3-1.4,2.7-2.5,2.1-3.6
	c-1.4-2.3-8.5,4.1-10.9,0.2c-1.1-1.6-0.4-4.1,2.8-6.1c1.4-0.9,2.5-1.2,3.4-1.4s1.4-0.2,1.6-0.4c0.4-0.2,0.4-0.4,0.4-0.5h0.2v3.7
	h-0.4c0,0-0.2-0.2-0.2-0.4c-0.4-0.5-1.8-0.5-3.9,0.7c-1.4,0.9-1.6,1.8-1.2,2.5c1.2,2.1,8.4-4.3,11,0c1.1,1.8,0.2,4.5-3.7,6.9
	c-1.2,0.7-2.3,1.1-3.2,1.4c-0.9,0.2-1.4,0.2-1.8,0.5c-0.2,0-0.2,0.4-0.2,0.5h-0.4L67.6,998.5L67.6,998.5z M82.6,994.6l-0.2-0.4
	c0.7-0.4,0.9-0.5,0.7-0.9l-4.1-10c-0.2-0.4-0.4-0.5-1.2-0.2l-0.2-0.4l4.6-1.8l0.2,0.4c-0.7,0.4-0.9,0.5-0.7,0.9l4.1,10
	c0.2,0.4,0.4,0.5,1.2,0.2l0.2,0.4L82.6,994.6z M94.8,990.4V990c0.4-0.2,0.5-0.4,0.4-0.7l-2.3-9.6l-3.6,0.9c-0.7,0.2-0.9,0.4-0.9,0.7
	l-0.4,0.2l-0.7-3l0.4-0.2c0.2,0.4,0.4,0.4,1.1,0.2l9.8-2.5c0.7-0.2,0.9-0.4,0.9-0.7l0.5,0.2l0.7,2.8l-0.4,0.2
	c-0.2-0.5-0.5-0.5-1.1-0.4l-3.6,0.9l2.3,9.4c0.2,0.4,0.4,0.5,0.9,0.4v0.4L94.8,990.4L94.8,990.4z M114.5,987.1l-4.5,0.4v-0.4
	c0.5-0.2,0.7-0.4,0.7-0.7l-0.2-4.3l-5-6.2c-0.2-0.2-0.4-0.4-0.7-0.5v-0.4l4.6-0.4v0.4c-0.5,0-0.7,0.2-0.7,0.4s2.1,2.7,3.4,4.1
	c0.7-1.4,2.7-4.1,2.7-4.6c0-0.2-0.2-0.4-0.7-0.4V974l4.5-0.4v0.4c-0.4,0.2-0.5,0.2-0.7,0.5l-4.1,6.9l0.4,4.3c0,0.4,0.2,0.5,0.7,0.5
	L114.5,987.1z M149.9,979.4c4.3,1.4,5.9,5,4.6,8.5c-1.2,3.4-4.6,5.3-8.9,3.9c-4.3-1.4-5.9-5-4.6-8.5
	C142,979.9,145.4,978,149.9,979.4z M146.3,990c2.5,0.9,4.5-0.2,5.3-2.8c0.9-2.7,0-4.8-2.5-5.5c-2.5-0.9-4.5,0.2-5.3,2.8
	C142.8,987.1,143.6,989.1,146.3,990z M155,995.5l0.2-0.4c0.7,0.4,0.9,0.4,1.1,0l5.2-9.4c0.2-0.4,0.2-0.5-0.5-1.1l0.2-0.4l9.1,5
	c0.5,0.4,0.7,0.4,1.1,0l0.4,0.2l-1.4,2.5l-0.4-0.2c0.2-0.4,0-0.5-0.5-0.9l-5.7-3l-1.6,2.7l3.6,2c0.5,0.4,0.9,0.4,1.1,0l0.4,0.2
	l-1.4,2.5l-0.4-0.2c0-0.4,0-0.5-0.7-0.9l-3.6-2l-2.1,3.9c-0.2,0.4-0.2,0.5,0.5,1.1l-0.2,0.4L155,995.5L155,995.5z M197.5,1015.8
	l-3.6,0.4l-0.2-0.4c0,0,0.2,0,0.2-0.2c0.7-0.5,0.4-2.1-0.7-3.4c-1.8-2.1-3.9-2.7-6.4-0.5c-2,1.6-2.1,4.3-0.5,6.2
	c1.1,1.2,2.7,1.8,3.4,1.2c0,0,0.2-0.4,0.4-0.4l0.4,0.2l-0.4,3.6h-0.4c0-0.2,0-0.4-0.2-0.5c-0.5-0.5-2.3-0.2-4.8-3
	c-2.8-3.4-2.3-7.3,0.4-9.6c3.4-2.8,7.5-1.4,10,1.4c0.9,1.1,1.2,2,1.4,2.7c0.2,0.7,0.2,1.2,0.4,1.4l0.5,0.4L197.5,1015.8z
	 M189.9,1025.4l0.4-0.2c0.2,0.4,0.5,0.4,0.9,0.4l11.2-1.2c0.5,0,0.7,0,0.9-0.2c0.2,0,0.2-0.2,0-0.7l0.4-0.2l2.3,4.3l-0.4,0.2
	c-0.2-0.4-0.5-0.5-0.7-0.4c-0.2,0-0.2,0.2-0.7,0.7l-6.8,8.5c-0.4,0.4-0.4,0.5-0.2,0.9l-0.4,0.2l-2-3.6l0.4-0.2
	c0.2,0.4,0.4,0.4,0.5,0.4c0.2,0,0.2-0.2,0.4-0.4l1.4-2l-2.7-4.6l-2.1,0.2c-0.2,0-0.4,0-0.4,0.2c-0.2,0.2-0.4,0.4,0,0.7l-0.4,0.2
	L189.9,1025.4L189.9,1025.4z M198.6,1030.8l3.6-4.1l-5.3,0.7L198.6,1030.8z M209.1,1037.3c0.4-0.2,0.5-0.4,0.4-1.1l0.4-0.2l1.6,4.6
	l-0.4,0.2c-0.4-0.7-0.5-0.9-0.9-0.7l-9.3,3.2l2.1,6.2c0.2,0.7,0.4,0.9,0.9,0.7l0.2,0.4l-2.8,1.1l-0.2-0.4c0.4-0.2,0.4-0.5,0-1.1
	l-3.4-9.8l0.4-0.2c0.4,0.5,0.5,0.7,0.9,0.5L209.1,1037.3L209.1,1037.3z M202.1,1054.2h0.4c0.2,0.9,0.4,0.9,0.9,0.9l10.5-2.1
	c0.4,0,0.5-0.2,0.4-1.1h0.4l0.9,4.8h-0.4c-0.2-0.9-0.4-0.9-0.9-0.9l-10.5,2.1c-0.4,0-0.5,0.2-0.4,1.1H203L202.1,1054.2z
	 M203.7,1062.7h0.4c0.2,0.7,0.4,0.9,0.7,0.9l10.7-0.7c0.4,0,0.5-0.2,0.5-1.1h0.4l0.7,10.3c0,0.5,0.2,0.9,0.5,0.9v0.4l-2.8,0.2v-0.4
	c0.4-0.2,0.4-0.4,0.4-0.9l-0.5-6.4l-3.2,0.2l0.4,4.1c0,0.7,0.2,0.9,0.5,0.9v0.4l-2.8,0.2v-0.4c0.4-0.2,0.4-0.4,0.4-1.1l-0.4-4.1
	l-4.5,0.4c-0.4,0-0.5,0.2-0.5,1.1h-0.4L203.7,1062.7z M216.4,1085.7c-0.5,4.5-3.7,6.8-7.3,6.2c-3.6-0.6-6.2-3.4-5.5-7.8
	c0.5-4.5,3.7-6.8,7.3-6.2C214.4,1078.4,216.9,1081.3,216.4,1085.7z M205.5,1084.5c-0.4,2.7,1.1,4.3,3.9,4.6c2.8,0.4,4.6-0.9,5-3.6
	c0.4-2.7-1.1-4.3-3.9-4.6C207.7,1080.6,205.9,1081.8,205.5,1084.5z M201.8,1095.3l0.4,0.2c-0.2,0.5,0,0.7,0.4,0.9l10.1,3.6
	c0.4,0.2,0.5,0,0.9-0.5l0.4,0.2l-2.6,6.8c-1.1,3-3,4.5-5,3.7c-1.8-0.5-2.7-2.1-2.3-4.3l-4.3,1.1c-1.2,0.2-1.6,0.4-2,0.9l-0.4-0.2
	l1.4-4.1l0.4,0.2c0,0.4-0.2,0.5,0.2,0.7c0.2,0,0.2,0,0.9-0.2l4.5-1.1l0.9-2.5l-4.1-1.4c-0.4-0.2-0.5,0-0.9,0.5l-0.4-0.2
	L201.8,1095.3L201.8,1095.3z M207.5,1101.1l-1.1,3.2c-0.5,1.8-0.2,2.7,0.7,3c1.1,0.4,1.8-0.2,2.5-2l1.1-3.2L207.5,1101.1z
	 M195.9,1111.5l0.4,0.2c-0.2,0.5-0.2,0.7,0.2,0.9l9.3,5.3c0.4,0.2,0.5,0.2,0.9-0.2l0.4,0.2l-2.5,4.3l-0.4-0.2c0.2-0.4,0.2-0.5,0-0.5
	c-0.4-0.2-8.5,1.1-9.6,0.7l6.6,3.7c0.4,0.2,0.5,0.2,0.9-0.2l0.4,0.2l-2,3.6l-0.4-0.2c0.2-0.5,0.2-0.7-0.2-0.9l-9.4-5.3
	c-0.4-0.2-0.5-0.2-0.9,0.2l-0.4-0.2l2.1-3.7l0.4,0.2c-0.2,0.4-0.2,0.5,0,0.7c0.4,0.2,8.2-1.1,10.5-0.9l-7.3-4.1
	c-0.4-0.2-0.5-0.2-0.9,0.2l-0.4-0.2L195.9,1111.5L195.9,1111.5z M186.5,1126.2l0.2,0.2c-0.5,0.7-0.5,0.9-0.2,1.2l8.4,6.8
	c0.4,0.2,0.5,0.2,1.1-0.4l0.2,0.2l-3.2,3.9l-0.2-0.2c0.5-0.7,0.5-0.9,0.2-1.2l-8.4-6.8c-0.4-0.2-0.5-0.2-1.1,0.4l-0.2-0.2
	L186.5,1126.2z M181.4,1132.5l0.2,0.2c-0.4,0.4-0.2,0.7,0,0.9l3.9,10.5c0.2,0.4,0.2,0.7,0.4,0.7c0.2,0.2,0.2,0.2,0.7-0.2l0.2,0.2
	l-3.6,3.4l-0.2-0.2c0.4-0.4,0.4-0.5,0.2-0.7l-0.9-0.5l-10-4.5c-0.4-0.2-0.5-0.2-0.9,0l-0.2-0.2l3-2.7l0.2,0.2
	c-0.2,0.4-0.4,0.4-0.2,0.5c0,0,0.2,0.2,0.4,0.2l2.1,0.9l3.9-3.6l-0.7-2c0-0.2-0.2-0.4-0.2-0.4c-0.2-0.2-0.4-0.2-0.7,0.2l-0.2-0.2
	L181.4,1132.5L181.4,1132.5z M178.4,1142.2l5,2.3l-2.1-5L178.4,1142.2L178.4,1142.2z"/>
<circle fill="#777777" cx="27.4" cy="1093.5" r="2"/>
<path fill="#777777" d="M64.2,1148.8c-1.1,0-2,0.9-2,2s0.9,2,2,2s2-0.9,2-2C66.2,1149.7,65.3,1148.8,64.2,1148.8z M88.3,1162.5
	c-1.1,0-2,0.9-2,2c0,1.1,0.9,2,2,2c1.1,0,2-0.9,2-2C90.3,1163.4,89.4,1162.5,88.3,1162.5z M146.7,1161.6c-1.1,0-2,0.9-2,2
	c0,1.1,0.9,2,2,2c1.1,0,2-0.9,2-2C148.6,1162.5,147.7,1161.6,146.7,1161.6z M167.1,1149.8c-1.1,0-2,0.9-2,2s0.9,2,2,2
	c1.1,0,2-0.9,2-2C169.3,1150.6,168.4,1149.8,167.1,1149.8z"/>
<circle fill="#777777" cx="177.7" cy="1002.3" r="2"/>
<circle fill="#777777" cx="130.7" cy="981.7" r="2"/>
<g>
	<path fill="#777777" d="M92.3,1103.6H95c0.4,0,2.3,0.2,3.2,0.4c0.4,0,0.7,1.1,0.2,1.1c-2.8-0.2-1.8,0-4.6-0.4
		C91,1104.5,92.3,1103.6,92.3,1103.6z M102.8,1104.2c0.7-0.2,8.7,1.1,9.3,1.6c0,0,0.4,0.2,0.2,0.7c-0.5,0.9-2-0.7-7.5-0.9
		c-1.2-0.2-3,0-2.8-0.9C101.9,1104.5,102.4,1104.2,102.8,1104.2z"/>
</g>
<path fill="#777777" d="M86.4,1041c-0.4,0.4-0.4,1.4-0.5,1.8c0,0.2-1.1,0-1.1-0.2c0,0,0.4-2.1,0.5-2.7h2.1c0.2-0.4-0.5-2.5-0.5-2.5
	c-0.4,0.2-0.7,2.7-0.7,2.7h-0.9c0,0,0.7-4.6,1.4-4.6c0.2,0,0.7-0.2,0.9,0.2c0.2,0.5,2,6.4,2,6.9c-0.4,0.2-1.2,0.5-1.2,0
	c0,0,0-1.2-0.4-1.6C87.6,1040.8,86.7,1040.7,86.4,1041z"/>
<g>
	<path fill="#777777" d="M92.4,1058.1c-0.2,0.7-2,0.4-3.2,0.4c-3,0-6.2,0.4-6.2-0.4c-0.2-1.2,3.6-0.7,5-0.7
		C90.1,1057.4,92.8,1056.9,92.4,1058.1z M96.9,1057.9c-0.4,0.5-1.2,0.5-2.3,0.4c-0.4,0-0.5,0-0.7-0.4c0-0.7,1.1-0.7,2.5-0.7
		C96.9,1057.4,97.1,1057.6,96.9,1057.9z M102.6,1058.3c-0.4,0.2-3.6,0.5-3.7-0.2c-0.2-0.7,1.2-0.9,2.7-0.7
		C103.1,1057.2,102.9,1058.1,102.6,1058.3z M113.4,1060.4c-0.4,0.4-3.9-1.4-5.5-1.8c-1.2-0.4-2.1,0-3-0.2c-0.7-0.2-0.4-0.9,0.4-1.1
		C107.2,1056.9,114.2,1059.7,113.4,1060.4z"/>
</g>
<g>
	<path fill="#777777" d="M90.5,1063.6c-0.2,0.7-2,0.4-3.2,0.4c-2.8,0-4.3,0-4.3-0.9c0-0.7,1.6-0.2,3-0.2
		C88.2,1062.9,90.8,1062.4,90.5,1063.6z M98.1,1063.6c-0.2,0.7-2,0.4-3.2,0.4c-2.8,0-3,0-3-0.4c-0.2-0.5,0.4-0.7,1.8-0.7
		C95.8,1062.9,98.5,1062.6,98.1,1063.6z M103.3,1063.8c-0.4,0.5-1.2,0.2-2.5,0.2c-0.4,0-0.5,0-0.7-0.4c0-0.7,1.2-0.7,2.7-0.7
		C103.1,1062.9,103.5,1063.5,103.3,1063.8z M113.6,1066.1c-0.2,0.9-1.8-0.7-3.6-1.1c-1.2-0.4-3.7-0.5-4.8-0.5
		c-0.7-0.2-0.7-0.9,0-0.9C108.8,1062.9,113.8,1065.2,113.6,1066.1z"/>
</g>
<g>
	<path fill="#777777" d="M114,1071.8c0,1.2-2.5-0.4-4.1-0.5c-1.2-0.2-3.4-0.4-5.2-0.2c-0.7,0-0.7-1.1,0-1.1
		C106.3,1069.7,114,1070.9,114,1071.8L114,1071.8z M102.1,1070.4c-0.4,0.5-1.6,0.4-2.7,0.4c-0.4,0-0.7-0.2-0.7-0.5
		c0-0.7,0.7-0.7,2.1-0.7C102.2,1069.3,102.2,1070,102.1,1070.4z M91.4,1070c-0.4,0.5-2.3,0.4-3.4,0.2c-2.8-0.5-5.3,0.9-5.3-0.4
		c0-0.9,2.8-0.7,4.3-0.7C89.1,1069.2,92.1,1068.8,91.4,1070z M96.7,1070c-0.4,0.7-1.2,0.5-2.3,0.5c-0.4,0-0.7,0-0.7-0.4
		c0-0.9,1.2-0.9,2.7-0.9C96.5,1069.5,96.9,1069.7,96.7,1070z"/>
</g>
<g>
	<path fill="#777777" d="M99.4,1033.4c0.2,0.7-2,0.4-3.6,0.5c-3,0.4-3.2,0.7-3,0C93.5,1032.7,99.4,1032.4,99.4,1033.4z M101,1034
		c-0.2-0.2-0.4-0.4,0-0.7c1.2-0.9,3-0.2,3.4,0.2c0.4,0.5-0.2,0.9-0.5,0.9C103.5,1034.2,101.5,1034.3,101,1034z M113.1,1037.1
		c-0.4,0.4-2.5-1.1-3.6-1.6c-1.8-0.5-3.6-0.5-3.6-1.4C106,1032.2,114.7,1035.5,113.1,1037.1z"/>
</g>
<g>
	<path fill="#777777" d="M98.7,1046.2c-0.2,0.4-1.8,0-3,0.2c-1.4,0-2.3,0.4-2.5-0.5c0-0.7,1.4-0.5,2.8-0.5
		C97.6,1045.3,99.2,1045.1,98.7,1046.2z M100.3,1046.4c-0.5-0.2-0.4-0.5,0-0.9c1.4-0.2,3.2,0,3.6,0c0.5,0.2,0.4,0.9-0.2,0.9
		C100.6,1046.4,101,1046.5,100.3,1046.4z M113.1,1049l-3-0.9c-1.2-0.4-1.8-0.4-2.1-0.7c-0.5-0.2-0.2-0.9,0-1.1
		C108.3,1046.4,114.5,1048,113.1,1049z M107,1046.4c-0.2,1.1-1.1,0.5-1.6,0.5c-0.4-0.2-0.4-0.5-0.2-0.7
		C105.6,1045.7,106.9,1046,107,1046.4z"/>
</g>
<g>
	<path fill="#777777" d="M95.1,1040.3c0.4,0.9-1.2,0.9-1.6,0.9c-0.2-0.2-0.4-0.5-0.2-0.7C93.7,1040,94.9,1040,95.1,1040.3z
		 M97.4,1040.8c-0.2-0.2-0.4-0.5,0-0.9c1.2-0.5,4.6-0.2,5,0c0.9,0.5,0.4,1.1,0,1.1C100.5,1040.7,98,1041,97.4,1040.8z M110.2,1042.3
		c-0.4,0.4-2.7-0.5-3.9-0.7s-2.1-0.4-2.1-0.7c0-0.9,2-0.7,3.7-0.4C109.5,1040.8,111.1,1041.4,110.2,1042.3z M113.3,1043
		c-0.2,1.1-1.1,0.5-1.4,0.4c-0.2-0.2-0.5-0.7-0.2-0.9C112,1041.9,113.4,1042.6,113.3,1043z"/>
</g>
<g>
	<path fill="#777777" d="M83.5,1050.8c1.8-0.4,3,1.8,0.4,1.4c-0.9-0.2-1.1-0.4-1.1-0.7C83,1051.3,83,1051,83.5,1050.8z M96.5,1051.7
		c-0.2,0.7-4.1,0.5-5.2,0.5c-3,0-4.1,0-4.3-0.5c0-0.7,1.6-0.7,3-0.7C91.5,1051,96.9,1050.5,96.5,1051.7z M102.8,1052.1
		c-0.2,0.4-0.5,0.2-1.8,0.2c-1.2,0-2.1,0-2.3-0.5c0-0.7,1.2-0.7,2.7-0.7C102.9,1051.2,103.1,1051.7,102.8,1052.1z M110.1,1053.5
		c-0.9,0.7-1.4-0.4-2.8-0.7c-1.2-0.2-2.3-0.2-3.4-0.4c-0.7-0.4-0.4-1.1,0.2-1.2C107.8,1051.2,111,1052.8,110.1,1053.5z
		 M112.9,1054.7c-0.2,0.7-0.7,0.9-1.4,0.4c-0.2-0.2-0.5-0.7-0.4-0.9C111.5,1053.7,112.7,1054,112.9,1054.7z"/>
</g>
<g>
	<path fill="#777777" d="M112.7,1077.5c-0.4,0.9-3-0.5-5-0.5h-2.3c-0.7-0.2-0.7-1.1,0-1.1C107.8,1075.6,113.3,1076.5,112.7,1077.5z
		 M99.9,1076.3c-0.4,0.5-1.1,0.4-2.3,0.2c-0.4,0-2,0.5-2.5,0c-0.2-0.9,2-1.1,2.8-0.9C99.6,1075.4,100.1,1075.9,99.9,1076.3z
		 M92.1,1076.3c-0.4,0.5-4.3,0-5.5-0.2c-2.1,0-3.6,0.7-3.6-0.5c0.4-0.7,4.1-0.4,5-0.4C89.9,1075.4,92.6,1075.2,92.1,1076.3z
		 M103.8,1075.7c0.4,0.9-1.2,0.9-1.6,0.9c-0.2-0.2-0.4-0.5-0.2-0.7C102.4,1075.4,103.5,1075.6,103.8,1075.7z"/>
</g>
<g>
	<path fill="#777777" d="M126.8,1033.8c1.8,0,2,0.4,1.8,1.1c-0.2,0.4-2.3,0.2-2.8,0.2c-2.1,0-3,1.2-3.7,1.1
		c-0.9-0.2-0.4-0.9,0.5-1.4C123.2,1034.3,124.8,1033.8,126.8,1033.8L126.8,1033.8z M131.3,1033.6c0,0,2.5,0.2,2.8,0.4
		c0.7,0.4,0.5,0.9,0.4,1.1c-0.2,0.2-3.6-0.2-3.6-0.4c-0.2-0.2-0.4-0.2-0.4-0.5C130.4,1033.8,130.5,1033.6,131.3,1033.6z M152.7,1034
		c0.7,0.2,0.9,1.2,0.4,1.4c-2.5,0.4-3,0.2-3-0.2C149.2,1033.8,152.5,1034,152.7,1034z M143.6,1034.5c0,0,2.8,0,3.6,0.2
		c0.4,0,0.7,0.5,0.2,1.1c-0.2,0.4-3.9,0.4-4.3-0.9C143.1,1035.1,143.1,1034.5,143.6,1034.5z M137.2,1034.3c0,0,2.5,0.2,3.2,0.4
		c0.4,0,0.9,0.5,0.5,0.9c-0.2,0.4-3.9,0.4-4.3-0.9C136.9,1034.8,136.7,1034.3,137.2,1034.3L137.2,1034.3z"/>
</g>
<g>
	<path fill="#777777" d="M130.7,1040.5c0.4-0.7,2.5-0.5,3-0.2c0,0,0.2,0.4-0.2,0.7C132.3,1041.6,130.5,1041,130.7,1040.5z
		 M137.1,1040.8c0.7-0.5,3.4,0,2.5,1.1c-0.2,0.2-2,0.4-2.7,0C136.7,1041.7,136.3,1041.4,137.1,1040.8z M146,1041.2
		c0.9,1.2-2.3,1.1-2.7,1.1c-0.4,0-1.1-0.2-1.2-0.5C142,1040.7,145.2,1040.5,146,1041.2z M152.9,1040.7c0.5,1.6-2.1,1.2-2.5,1.2
		c-0.4,0-1.1,0-1.2-0.5C149,1040.5,152.5,1039.6,152.9,1040.7z M126.8,1039.2c0.7,0,2.1,0,2.1,0.7c-0.5,0.9-3.2,0.7-3.9,0.9
		c-2.5,0.4-3,1.2-3.7,1.1c-0.9-0.2-0.4-0.9,0.5-1.4C122.7,1040.3,125,1039.4,126.8,1039.2L126.8,1039.2z"/>
</g>
<g>
	<path fill="#777777" d="M138.7,1046.5c0.2,0.5-0.2,0.7-0.2,0.7c-0.2,0.4-2.7,0.2-3-0.7c0-0.2,0-0.9,0.7-0.7
		C136.9,1046.2,138.7,1045.5,138.7,1046.5L138.7,1046.5z M141.3,1046.2c0.2,0,4.5,0,3.4,1.2c-0.2,0.2-0.5,0.4-0.9,0.4
		c-1.1,0-2.8-0.2-3.2-0.4c-0.2-0.2-0.2-0.5,0-0.9C140.8,1046.4,141,1046.2,141.3,1046.2z M147.2,1046.2c3.2,0.5,5.5-0.4,5.7,0.4
		c0.4,0.7,0,0.9,0,0.9c-0.4,0.4-6.4,0.5-6.6-0.5C146.3,1046.4,146.8,1046.2,147.2,1046.2z M133,1046c0.7,1.1-1.6,0.9-1.8,0.9
		c-0.4,0-0.9-0.2-0.9-0.5C130.2,1045.3,132.5,1045.1,133,1046z M125.9,1045.1c0.7,0,1.6-0.4,2.1,0.5c-0.5,1.1-2,0.5-3.9,0.9
		c-2.5,0.4-2.5,1.1-3,0.5c-0.5-0.5,0-0.9,0.9-1.2C122.9,1045.5,124.1,1045.3,125.9,1045.1z"/>
</g>
<g>
	<path fill="#777777" d="M129.3,1051.5c0.4,0,1.1,0.2,1.6,0.5c0.4,0.4,0.2,0.7,0,0.9c-3,0.4-2.8-0.4-2.8-0.4
		C127.7,1051.3,128.9,1051.3,129.3,1051.5z M152.9,1051.9c1.4,0.7-0.9,1.4-2.5,1.1c-0.2,0-0.4-0.2-0.5-0.4
		C149.7,1051.7,152.4,1051.7,152.9,1051.9L152.9,1051.9z M135.8,1051.5c0.7,0.2,0.7,1.2,0,1.4c-0.2,0-3,0.5-3.2-0.4
		C132.5,1050.8,135.5,1051.3,135.8,1051.5z M148.8,1052.2c0.2,0.9-0.7,0.9-1.4,0.7c-1.1,0-4.1,0.4-3.9-0.5c0.2-0.5,1.2-0.4,1.8-0.4
		C146.1,1051.7,148.6,1051.7,148.8,1052.2z M141.3,1053c-0.4,0.7-3.4,0.4-2.8-0.7C138.7,1051.9,141.7,1051.3,141.3,1053z
		 M124.3,1051c0.7,0,2,0,2.1,0.9c-0.9,0.7-2,0.2-3.9,0.7c-1.8,0.4-2.1,0.7-2.1-0.2C120.4,1051.7,122.5,1051,124.3,1051z"/>
</g>
<g>
	<path fill="#777777" d="M128.8,1057.4c0,0,2.5-0.4,3.2,0.2c0.2,0.2,0.7,0.5,0.4,1.1c-0.4,0.4-3.9,0.4-3.9-0.7
		C128.4,1057.9,128.2,1057.6,128.8,1057.4z M134.9,1057.9c0.9-0.4,3.7,0.4,2.5,1.4c-0.2,0.2-2.3,0-2.8-0.5
		C134.4,1058.6,134.2,1058.3,134.9,1057.9z M140.4,1058.1c0.7-0.2,3.2,0.4,2.1,1.2c-0.2,0.2-1.8,0.4-2.3-0.2
		C140.1,1059,139.7,1058.3,140.4,1058.1L140.4,1058.1z M147.4,1058.5c-0.9,0.2-2.1,0.4-2.1,0.9c0.2,0.5,0.7,0.4,2.5,0.4
		c0.9,0,3.6,0.4,4.3,0.2c0.7-0.2,0.7-0.9,0.5-0.9C150.9,1059,149.7,1058.3,147.4,1058.5L147.4,1058.5z M124.7,1057.4
		c0.7,0,2-0.4,2,0.7c-0.7,0.9-1.8,0.5-3.7,1.1c-1.8,0.4-2.1,0.7-2.1-0.4C120.6,1058.1,122.9,1057.4,124.7,1057.4z"/>
</g>
<path fill="#777777" d="M129.5,1064.7h1.4c0.7,0,0.4,0.9,0.4,1.1c0,0.2-1.2,0.4-2.1,0.2c-0.4,0-1.2-0.2-1.2-0.9
	C128.1,1064.5,128.9,1064.7,129.5,1064.7L129.5,1064.7z M134.4,1064.7c0.2,0,4.1,0,3,1.1c-0.2,0.2-0.5,0.4-0.7,0.4
	c-1.1,0-2.7-0.2-3-0.4c-0.2-0.2-0.2-0.4,0-0.7C133.8,1064.9,134,1064.7,134.4,1064.7z M140.4,1064.9c0.7-0.4,3.2,0.7,2.3,1.4
	c-0.2,0-2.1,0-2.7-0.5C139.9,1065.8,139.5,1065.2,140.4,1064.9z M145.8,1065.4c0.2,0,4.5,0,3.4,1.2c-0.2,0.2-0.5,0.4-0.9,0.4
	c-1.1,0-2.8-0.2-3.2-0.4c-0.2-0.2-0.2-0.5,0-0.9C145.1,1065.6,145.4,1065.4,145.8,1065.4z M124.3,1064.3c0.9,0,2.1-0.4,2.1,0.7
	c-0.7,0.9-1.4,0.5-3.4,0.9c-1.8,0.4-2.1,0.7-2.1-0.4C121.1,1064.9,122.5,1064.5,124.3,1064.3z M151.1,1065.8
	c0.7-0.2,3.2,0.4,2.1,1.2c-0.2,0.2-1.8,0.4-2.3-0.2C150.8,1066.7,150.4,1065.9,151.1,1065.8L151.1,1065.8z M136.9,1071.5
	c0.2,0,4.1,0,3,1.1c-0.2,0.2-0.5,0.4-0.7,0.4c-1.1,0-2.7-0.2-3-0.4c-0.2-0.2-0.2-0.4,0-0.7C136.3,1071.6,136.7,1071.5,136.9,1071.5z
	 M143.3,1072c1.2-0.2,3.4,0.2,3.2,1.2c-0.2,0.7-0.9,0.2-1.2,0.2c-0.9,0-3.6,0.4-3.2-0.7C142,1072.2,142.9,1072.2,143.3,1072
	L143.3,1072z M148.1,1073.4c0,0.7,3,1.6,3,0.5C150.9,1073.4,148.3,1071.8,148.1,1073.4z M133.7,1071.3c0,0-2.1-0.5-3-0.4
	c-0.2,0-0.5,0.5-0.4,0.9c0.1,0.4,3.6,0.7,3.6-0.2C134,1071.8,134,1071.5,133.7,1071.3L133.7,1071.3z M125.6,1070.9
	c0.7,0,3.4,0,3.4,1.1c-0.4,0.9-2.5,0-5.2,0.4c-1.8,0.2-2.1,0.7-2.1-0.4C121.6,1071.3,123.8,1070.9,125.6,1070.9z M132,1077.2
	c0.9-0.4,3.9,0.4,2.7,1.4c-0.2,0.2-2.5,0-3.2-0.4C131.4,1078.1,131.3,1077.5,132,1077.2L132,1077.2z M138.3,1078.1
	c0.7-0.2,3.2,0.4,2.1,1.2c-0.2,0.2-2,0-2.5-0.4C137.8,1078.6,137.6,1078.2,138.3,1078.1L138.3,1078.1z M145.8,1079.1
	c0.7,1.2-2,0.9-2.3,0.9c-0.4,0-0.9-0.2-0.9-0.7C142.8,1078.2,145.4,1078.4,145.8,1079.1z M147.6,1080c0,0.7,1.8,1.2,1.8,0.2
	C149.2,1079.8,147.7,1078.6,147.6,1080z M122.2,1077.5c0.2,0,7.1-1.1,6.9,0.2c0,0.2,0.4,0.5-3.6,0.7c-0.9,0-3.7,0.5-4.1,0.4
	C121.3,1078.6,120.9,1078.1,122.2,1077.5z M129.8,1089c0,0,2.5-0.2,3.2,0.4c0.2,0.2,0.7,0.5,0.4,1.1c-0.2,0.4-3.9,0.4-3.7-0.7
	C129.5,1089.6,129.3,1089.2,129.8,1089L129.8,1089z M136.9,1089.9c0.2,0,4.1,0.2,3,1.2c-0.2,0.2-0.5,0.4-0.7,0.4
	c-1.1,0-2.7-0.2-2.8-0.5c-0.2-0.2-0.2-0.4,0-0.7C136.3,1089.9,136.5,1089.9,136.9,1089.9L136.9,1089.9z M143.8,1091.9
	c-1.1-0.2-2.7-0.7-2.3-1.2c0.4-0.5,1.4,0.2,1.8,0.2C145.4,1090.4,145.8,1092.2,143.8,1091.9z M149.5,1092.4c-1.1,0-2.8-0.4-2.7-1.1
	c0.2-0.5,1.1,0,1.4-0.2C151.1,1090.3,151.5,1092.4,149.5,1092.4z M126.8,1089.4c0.2,0.7-0.9,0.5-2.7,0.5c-1.8,0-3,1.4-3.6,0.4
	c-0.2-0.4,0.2-0.7,1.2-1.1C122.7,1088.8,126.6,1088.7,126.8,1089.4z M131.1,1083c0.2,0,3,0,2.3,1.1c-0.2,0.2-0.4,0.4-0.5,0.4
	c-0.7,0-2-0.2-2.1-0.4c-0.2-0.2-0.2-0.4,0-0.7C130.7,1083,130.9,1083,131.1,1083z M135.6,1083.4c0.7-0.4,4.8,0.4,3.6,1.6
	c-0.2,0-3.4-0.2-3.9-0.7C135.1,1084.3,134.9,1083.8,135.6,1083.4z M144.5,1084.5c0.7,0,3.7,0.5,3.6,1.4c0,0.2-1.1,0.2-1.6,0
	c-1.6-0.4-2.5-0.7-3.7-0.7c-0.5,0-0.5-0.5-0.4-0.9C142.4,1084.3,144.2,1084.5,144.5,1084.5z M128.1,1083.6c0.2,1.1-1.4,0.5-3.4,0.5
	c-1.8,0-3,1.2-3.6,0.2c-0.2-0.4,0.2-0.7,1.2-1.1C123.2,1083,128.1,1082.9,128.1,1083.6L128.1,1083.6z M147.4,1096
	c0.2,0,4.5,0.2,3.2,1.4c-0.2,0.2-0.5,0.4-0.9,0.4c-1.1,0-2.8-0.4-3.2-0.5c-0.2-0.2-0.2-0.5,0-0.9C146.7,1096.1,147,1096,147.4,1096z
	 M144.4,1096.9c-0.4,0.7-3.4,0.2-2.8-0.9C141.7,1095.6,144.9,1095.3,144.4,1096.9z M136.7,1095.1c0.2,0,4.1,0.2,3,1.2
	c-0.2,0.2-0.5,0.4-0.7,0.4c-1.1,0-2.7-0.4-2.8-0.5c-0.2-0.2-0.2-0.4,0-0.7C136.2,1095.1,136.5,1095.1,136.7,1095.1L136.7,1095.1z
	 M132.9,1094.7c0.7,1.2-1.6,0.9-1.8,0.7c-0.4,0-0.9-0.2-0.9-0.5C130,1094,132.3,1093.8,132.9,1094.7z M124.8,1094.4
	c0.7,0,2.1-0.4,2,0.7c-0.5,0.9-1.8,0.5-3.7,1.1c-1.8,0.4-2.1,0.7-2.1-0.4C120.9,1094.9,122.9,1094.4,124.8,1094.4z M121.8,1100.4
	c0,0,2.1-0.7,3.2-0.4c0.4,0,0.5,0.4,0.4,0.9c-0.9,0-3.2,0.4-3.6,0.7C121.6,1101.7,121.3,1100.8,121.8,1100.4L121.8,1100.4z"/>
<g>
	<path fill="#777777" d="M96.2,1081.6c1.1-0.2,3.7,1.1,0.9,1.2c-0.2,0-1.8,0-2-0.2C94,1081.8,95.8,1081.6,96.2,1081.6z M93,1082.3
		c0,0.5-3,0.5-5.3,0.4c-2.8-0.2-4.6,0.2-4.6-0.7c0.2-1.1,2.8-0.4,4.3-0.4C89.4,1081.8,93,1080.9,93,1082.3z M109.4,1083.2
		c-0.2,1.1-4.3-0.4-6.2-0.4c-1.4,0-2.5-0.2-2.7-0.2c-0.7-0.2-0.7-1.1,0-1.1C101.9,1081.4,109.4,1082.5,109.4,1083.2L109.4,1083.2z
		 M113.1,1085.5c-0.4,0.5-0.9,0-1.8-0.4c-0.4-0.2-0.9-0.4-0.7-0.9c0.5-0.7,1.4-0.2,1.8,0.2C113.1,1084.8,113.3,1085.2,113.1,1085.5z
		"/>
</g>
<g>
	<path fill="#777777" d="M105.6,1095.3c0,0.9-4.5-0.4-6.2-0.5h-3.7c-0.7-0.2-0.7-1.1,0-1.2C97.8,1093.3,105.8,1094,105.6,1095.3z
		 M93.1,1094.4c0,0.5-2.8,0.4-5.3,0.2c-4.5,0-4.8-0.2-4.6-0.9c0.4-1.1,2.8-0.7,4.3-0.7C89.4,1093.1,93.1,1092.9,93.1,1094.4z
		 M113.3,1097.6c-0.4,0.5-1.8-0.5-3-0.7c-0.4,0-1.8-0.2-1.6-0.7c0-0.7,1.1-0.7,2.5-0.4C112.6,1096.1,113.6,1097,113.3,1097.6z"/>
</g>
<g>
	<path fill="#777777" d="M109.2,1089.7c-0.4,1.4-2-0.2-6.2-0.4c-1.4,0-2.5-0.2-2.7-0.2c-0.7-0.2-0.7-1.1,0-1.1
		C102.4,1087.5,109.4,1088.7,109.2,1089.7L109.2,1089.7z M96.5,1087.5c1.1-0.2,3.7,1.1,0.9,1.2c-0.2,0-1.8,0-2-0.2
		C94.4,1087.8,96.2,1087.5,96.5,1087.5z M93,1088.1c0,1.1-4.8,0.4-5.9,0.4c-2.8-0.2-3.9,0.4-4.1-0.9c0.2-1.1,2.8-0.4,4.3-0.4
		C89.4,1087.1,93,1086.6,93,1088.1z M111.8,1090.3c1.1,0.4,2.8,2.7,0.2,1.6c-0.2,0-1.6-0.7-1.6-1.1
		C109.9,1089.6,111.7,1090.3,111.8,1090.3z"/>
</g>
<g>
	<path fill="#777777" d="M112.7,1111.5c0.2,0,0.7,0,0.4,0.7c-0.4,0.5-7.8-0.7-8.2-0.7c-0.7-0.2-0.7-0.4-0.7-0.9
		c0.2-0.4,0.7-0.4,0.9-0.4S112.6,1111.3,112.7,1111.5z M101.5,1110.6c-0.4,0.4-3.6,0.5-3.4-0.4c0-0.9,0.9-0.4,2.3-0.4
		C101.8,1109.8,101.9,1110.2,101.5,1110.6L101.5,1110.6z"/>
</g>
<path fill="#777777" d="M125.4,1110.4c0.7,0,1.2-0.5,1.2,0.5c-0.2,0.7-1.1,0.4-3,0.9c-1.8,0.4-2.3,0.9-2-0.2
	C121.5,1111.3,123.6,1110.6,125.4,1110.4L125.4,1110.4z M125.4,1105c0.7,0,1.4-0.4,1.4,0.7c-0.4,0.5-1.4,0.2-3.4,0.7
	c-1.8,0.4-2.1,0.9-2,0C121.3,1105.8,123.6,1105,125.4,1105z M83.4,1034.3c0,0-0.2,0.5-0.2,1.4v8.4h0.2c-0.2-0.2-0.2-5.3-0.2-5.3
	v-3.2C83.4,1035,83.4,1034.3,83.4,1034.3c1.6-0.4,6.1-0.9,7.1-0.4c0.4,0.2,0.4,1.6,0.4,3.4c0,2.7-0.2,6.1-0.4,6.4
	c-0.2,0.2-1.6,0.4-3.4,0.5c1.6,0,3.2-0.2,3.4-0.5c0.2-0.4,0.4-3.7,0.4-6.4c0-1.8-0.2-3.2-0.4-3.4C89.4,1033.4,85,1034,83.4,1034.3z
	 M83.5,1044.4c0.5,0.2,2.1,0.2,3.7,0H83.5z M83.4,1033.8c-0.5,0.2-0.7,0.4-0.5,4.8v5.7c0.2,0.9,1.1,0.9,2.1,0.7l1.6-0.2h1.6
	c2.8,0,3.4,0,3.7-0.7v-1.8l-0.2-3.6c0.2-5-0.4-5.2-0.7-5.3C89.4,1032.7,84.4,1033.4,83.4,1033.8z M90.3,1034.5v4.3l0.2,3.7v0.9
	c-0.5,0-2.5,0.2-2.5,0.2h-1.6l-1.6,0.2h-1.1c0.2,0,0.2-1.4,0.2-2v-6.9C85.8,1034.5,89.4,1034.2,90.3,1034.5L90.3,1034.5z
	 M223.9,1068.3c-0.9-5.7-1.1-10.5-1.2-14.4c-0.2-4.1-0.2-6.9-1.1-8.7v0.2l-8.5-21c-1.8-6.2-16.6-23.5-17.5-24.4
	c-1.8-2.7-11.8-10.3-14.6-11.8c-0.2,0-11-7.7-11-7.7c-4.5-3.2-11.9-6.2-18-8l-7.1-2.5c-8.9-3-22.6-3.4-24.6-3.2h-5
	c-1.6-0.2-15.5,0.2-23.9,3.4l-5.2,1.8c-6.6,1.8-12.6,3.7-17.3,6.9c0,0-12.3,8.7-12.8,9.1c-2.8,1.4-15.8,10.9-17.5,13.4l0.2-0.2
	c-0.7,0.9-14.1,16.7-15.8,23l-8.7,21.2v-0.2c-0.9,1.8-0.7,5.3-0.9,9.3c-0.2,3.9-0.5,8.2-1.4,13.9c-0.7,4.5-0.2,8.5,0.4,13.4
	c0.5,4.8,0.7,10.5,1.6,14.8c0.7,3.6,1.8,6.8,2,9.1c1.2,5.7,4.1,13.4,5.5,15.3c1.1,1.6,3,4.5,3,4.5c1.8,2.3,3.7,5.2,5.2,7.3
	c1.2,2,1.8,3.4,2.7,5.2c1.4,2.5,2.7,4.6,4.1,6.8c1.4,2,3,3.7,5.2,5.5c0.5,0.4,5.2,3.6,7.5,5c2.7,1.8,3.6,2.3,4.1,2.8l1.6,1.6
	c4.5,4.6,7.8,8,10.9,9.8c1.1,0.7,4.1,1.4,5,1.4c0.9,0,1.8-0.2,2.5-0.5c1.2-0.7,2-2,2.5-3.7c0-0.2,0.7-1.6,1.2-3
	c1.1,0.2,2.1,1.4,3.2,2.3l-0.5,2.1c-0.5,1.8-0.2,3.6,1.1,5.2c4.8,6.2,22.8,8.7,38.6,8.2c16.2,0.5,36.6-4.3,39.3-10.5
	c0.5-1.2,0.4-2.3-0.7-3.4c-0.4-0.4-0.5-0.7-0.7-0.9c0.2-0.2,0.2-0.4,0.5-0.5c0.7-0.4,1.6-0.2,2.1-0.2c0.7,1.2,1.4,2.5,2.1,3.9
	c0.4,0.5,0.9,0.9,1.6,1.1c4.6,0.7,19.8-12.5,19.9-12.6c0.5-0.5,3.4-2.8,5.9-4.6c2.1-1.4,4.1-2.7,4.6-3.2c4.1-3.4,7.1-7.3,10-12.1
	c2-3.6,4.3-7.5,7.8-12.3l0.4-0.4c3.2-4.5,7.7-13,8.4-19.4c0.2-2.3,0.9-5.3,1.6-9.1C223.2,1088.1,225.3,1077.3,223.9,1068.3
	L223.9,1068.3z M80.2,1163.4c-0.7-0.7-1.8-1.4-3-1.8c3.2-7.7,4.6-11.2,5-13v-1.1l-0.5-1.2c-0.4-0.7-1.4-2.1-1.4-3.2
	c0-1.6,0.5-1.2,1.2-1.2c0.7,0,3.7,0.7,5.9,1.8c1.6,0.7,2.8,2.3,3.4,3c0.2,0.4,0.2,0.9-0.2,1.2c-0.4,0.4-0.7,0.5-1.6,0.9
	c-0.9,0.4-2.5,1.6-2.8,1.8c-2,0.7-3.2,3.9-5,9.6c0,0.2,0,0.2-0.2,0.4c-0.2,0.5-0.4,1.2-0.5,2C80.2,1162.8,80.2,1163,80.2,1163.4
	L80.2,1163.4z M78.4,1144.9c-1.1-0.5-2.1-1.1-3.6-2.1c-2.1-1.6-7.5-5.9-10-7.3c-1.6-0.9-1.8-1.8-3.7-3.9c-1.6-1.8-3.4-3.6-4.8-4.6
	c-2-1.4-5.5-6.8-6.6-8.7c-3.9-6.4-10.3-19.1-11.8-31.6c-0.2-1.6-0.2-5.7-0.2-9.4c0-3.2,0-5.9-0.2-7.1c0.2-2.5,0.9-9.3,1.4-11
	c0.5-1.2,0.9-3.9,1.4-6.1c0.4-1.8,0.9-4.6,1.2-5.5c0-0.2,1.8-5.2,3-7.5l5.7-10.7c0-0.2,3-6.2,5.2-8.4l2.1-2.3
	c2.3-2.5,4.8-5.2,7.1-6.9c3.7-2.8,9.4-6.8,14.4-9.1l6.9-3.4c2.5-1.2,3.7-2,5.9-2.5c0.2,0,13.9-4.5,23.1-5c-0.9,2-1.4,3.7-1.8,4.6
	c0,0-2.1,0.4-5,0.5c-1.6,0-6.4,0.9-6.4,0.9c3.4,5.2,6.2,8.2,7.7,9.6c0,0-1.6,9.6-1.6,10.9c0.2,0,5.3-2.7,6.9-3.6
	c1.6-0.9,3.6-1.6,3.9-1.6c0.2,0,4.8,2,5.9,2.7c2.7,1.6,4.5,2.5,5,2.7v-0.2c0,0-2.5-10.3-2.5-10.9c0,0,1.2-1.2,2.1-2.3
	c1.4-1.8,2.8-2.8,3.7-3.9c0.9-1.1,2.7-3,2.7-3.2c-0.2,0-11.2-1.4-11.8-1.6c0,0-1.1-2.5-2-4.6c2.3,0.2,3.7,0.4,6.2,0.7h0.2
	c6.8,1.1,14.2,3.9,17.5,5.2c0,0,2.7,1.1,3,1.2c0.2,0,4.8,2,4.8,2c3.2,1.6,5.9,3.4,7.1,4.3l1.6,1.2c3.4,2.3,10.9,7.3,12.1,9.3l2,2.5
	c1.1,1.4,1.8,3.2,2.3,4.6c1.1,2.7,3.6,5.5,5.9,8.5c1.6,2,3.2,3.9,4.1,5.5c0,0,3,4.3,3.7,8.2c0.7,5,2,12.5,2.7,14.8
	c3.6,12.1,2.5,18.3,1.1,24.8c-0.4,2-1.4,4.6-1.6,6.6c-0.2,2.1-0.5,4.6-2,7.5c-0.5,1.1-1.6,3.6-2,5c-0.7,2.3-1.4,4.6-2.7,6.4
	c-0.5,0.7-1.4,2.1-2.8,4.3c-3,5-7.8,12.5-11.9,17.5c-1.2,1.6-4.8,4.5-7.7,6.6c-1.8,1.4-3.2,2.7-3.9,3.4c-1.1,1.1-3.4,2.8-5.3,4.3
	l0.2-0.5c0-0.4,0-0.5-0.2-0.9c-0.2-0.5-0.7-1.4-2.1-1.8c-1.4-0.4-3,0.2-5,1.1c-1.4,0.5-3,1.4-5.3,3.4c-0.9,0.7-2.1,2.1-1.8,3.2
	c0.4,0.7,1.1,1.4,2,2c-4.8,1.4-9.4,2.8-11.2,3.2c-1.1,0.2-5,1.4-7.5,1.8c-2.8,0.5-5.7,0.9-7.1,1.1c-5.9,0.2-14.2-2-16-2.8
	c-4.1-1.6-9.4-3.6-12.8-4.5c0,0,0.2,0,0.2-0.2c1.4-0.5,2.3-1.4,2.7-2.5c0.2-0.5,0.2-1.6-0.9-2.7c-1.1-1.2-2.7-2.5-4.3-3.2
	c-0.4-0.2-4.1-1.6-5.7-1.6c-1.2,0-1.8-0.2-2.3,0.2c-0.7,0.4-0.9,1.1-0.9,1.8C77.9,1143.4,78.1,1144.1,78.4,1144.9z M118.3,1002.3
	c-1.2-0.9-3.7-5.5-3.7-5.5c0.2-0.5,3.7-8.5,3.7-8.5c0.4,1.4,0.2,4.3,0.2,7.1C118.3,998,118.1,1000.9,118.3,1002.3z M104.4,999.1
	c1.2,0.4,4.8,1.4,4.8,1.4c2.7,1.1,5,2,7.8,2.7c-0.4,0.9-1.2,2.5-1.2,2.5s-6.1,9.4-6.4,10c0,0,1.8-9.6,1.8-9.8
	C110.6,1005.3,107,1002.3,104.4,999.1L104.4,999.1z M129.5,1001.9c0,0.4-2.3,3-2.3,3c-0.4,0-7.1-1.6-8-2c0,0,2.7-5.2,3.7-5.7
	l9.8,1.1c-0.7,0.4-3.6,1.1-6.2,2l-5.7,2.1C120.7,1002.5,128.6,1002.1,129.5,1001.9z M127.2,1015.8c-0.7-0.2-7.5-3.9-7.5-3.9
	c-0.2-0.2-1.2-7.3-1.1-8.5L127.2,1015.8L127.2,1015.8z M155.8,1169.6c-1.6,3.9-18.5,10.3-35.4,9.8c-17.6,0.5-35-2.1-38.7-6.9
	c-0.5-0.7-0.9-2.5-0.9-3.2c0-0.4,0-0.7,0.2-1.1l0.9-2.8l0.2-0.4v-0.2c1.6-5.5,3.4-11.8,4.8-12.1c1.2,0,1.2-0.7,8,1.8
	c2.5,1.2,15.7,5.2,18.5,5.3c2.1,0.2,9.4,0,12.5-0.5c2.5-0.4,4.5-1.1,5.3-1.2c2.3-0.2,14.8-3.9,17.1-4.6c0,0,0.2,0,0.2,0.2
	c0.5,0.5,0.9,2,1.4,3.2l0.4,1.1c0.2,0.7,0.5,1.6,0.7,2.5l0.2,0.7l0.7,2c0.2,0.4,0.4,0.7,0.4,0.9c0.2,0.5,0.5,1.1,0.9,1.6l0.5,0.9
	c0.2,0.2,0.2,0.4,0.4,0.7l1.6,2.1C155.9,1169.4,155.9,1169.4,155.8,1169.6L155.8,1169.6z M156.3,1164.1c-0.4,0.2-0.7,0.4-0.9,0.5
	c-0.7-1.1-1.2-2.3-1.6-3.6l-0.2-0.5c-0.2-0.5-0.4-1.1-0.5-1.4l-0.4-1.1l-0.2-0.7c-0.9-3-1.6-5.3-3.2-5.9h-1c-2,0.2-4.1-0.7-4.3-1.4
	c0-0.2,0.2-0.9,0.4-1.1c2-1.8,2.8-2.8,4.1-3.4c0.9-0.4,3-1.4,5.2-0.9c0.5,0.2,0.5,0.9,0.5,0.9v0.2c0,0.7-0.9,2.1-1.4,3
	c-1.1,0.9-1.6,2-1.6,3c0,1.8,1.2,3.7,3.2,6.6c0.9,1.4,2.1,3.2,3.4,5.5C157.4,1163.6,156.8,1163.7,156.3,1164.1L156.3,1164.1z
	 M219.2,1096.1c-0.7,3.7-1.4,6.8-1.6,9.3c-0.9,8.7-4.1,13-8,18.3l-0.4,0.4c-3.6,4.8-5.9,8.9-8,12.6c-2.7,4.8-4.8,8.5-8.7,11.6
	c-0.5,0.4-2.5,1.8-4.6,3c-3.9,2.5-6.4,4.3-6.9,4.8c-3.7,3.6-16.2,12.8-18.2,12.1c-2.7-5.2-5-8.9-6.6-11.6c-2-3-2.8-4.5-2.8-5.5
	c0-0.5,0.4-1.1,0.9-1.4c0.5-0.4,5.5-4.3,7.8-6.4l5-3.6c3-2.5,8-8,9.4-9.8c4.1-5.2,6.4-8.9,9.6-13.9c1.2-2,3.4-5.3,3.7-6.1
	c1.4-2,2.1-3.6,2.8-5.9c0.4-1.2,1.2-2.8,1.8-3.9c1.4-3,2-6.8,2.3-9.1c0.2-1.8,0.2-2.5,0.5-4.5c0.7-3.4,2.1-8.4,2.1-13.4
	c0-4.1-0.7-7.3-2.3-12.8c-0.7-2.1-2-10-2.8-14.8c-0.7-4.3-3.6-9.8-3.6-10.1c-1.1-1.8-3-3.6-4.8-5.7c-2.3-2.8-4.3-5.9-5.2-8.2
	c-0.7-1.8-2.1-3.4-3.2-5l-1.8-2.3c-1.4-2.1-6.4-5.9-11.6-9.4l-1.8-0.9c-1.2-1.1-4.6-2.8-8.2-4.6l-4.3-2.5l-3-1.2
	c-3.2-1.2-11.6-3.9-14.6-4.5h-0.2c-3.4-0.5-6.1-1.1-10.5-1.2c-0.2-0.5-0.4-1.1-0.5-1.4c-0.4-0.9-1.4-3-2-4.3c-0.7,0.5-2,3-3.2,5.7
	c-9.4,0.7-22.4,4.3-23.1,4.5c-2.3,0.7-3.7,1.4-6.2,2.7l-10,5c-6.6,3-10,6.1-11.9,7.5c-2.5,2-4.3,3.2-6.8,5.9l-2.1,2.3
	c-2.3,2.5-6.8,11-6.8,11.2l-3.9,6.6c-1.2,2.3-5.2,12.3-5.3,12.5c-0.4,1.1-0.9,2.8-1.2,5c-0.5,2.1-1.2,4.1-1.4,5.3
	c-0.5,7.8-1.1,11.4-1.1,12.5v0.2c0.2,1.1-0.4,4.1-0.4,6.4c0.2,3.9,0.2,7.8,0.2,9.6c0.7,7.3,5,19.6,9.1,26.4
	c0.2,0.4,3.2,6.8,10.7,15.5c1.1,1.2,3.9,3.7,5.5,5.5c2,2.1,2.7,3.2,4.5,4.3l6.8,4.5c2.5,1.8,5,3.6,7.5,5c0,0.2,0,0.4-0.2,0.7v0.2
	l-0.4,1.1l-0.2,0.4c-0.2,0.4-0.4,0.9-0.5,1.4c0,0,0,0.2-0.2,0.2c-0.2,0.5-0.4,1.1-0.7,1.6l-0.2,0.5c-0.2,0.5-0.4,1.1-0.7,1.6
	L76,1157c-0.2,0.4-0.4,0.7-0.4,1.1c-0.2,0.2-0.2,0.5-0.4,0.9l-0.4,0.7c-0.4,0.9-0.7,1.6-0.9,2.3c0,0,0,0.2-0.2,0.2l-0.2,0.2
	c-1.1,2.5-1.4,3.2-1.4,3.6c-0.4,1.2-0.7,2-1.4,2.5c-0.9,0.5-1.8,0.9-3.6,0.2c-2.5-0.9-4.5-3-6.8-5.2l-5.3-5.2l-2.7-2.3
	c-0.5-0.5-2.1-1.8-6.1-4.3l-2.7-1.6c-0.9-0.7-3-2.8-3.2-3c-3.9-3-4.6-5.3-7.3-10.1c-2-3.6-5-8.9-5.9-10l-2.3-3
	c-3.9-5.3-6.9-9.4-8-18.3c-0.2-2.3-1.1-4.5-2-8.2c-0.4-1.6-0.5-4.5-0.9-6.4c-0.5-6.9-1.8-15-0.5-21.9c0.9-5.9,0.9-9.6,0.9-13.5
	c0.2-3.6,0.2-6.4,0.9-7.7l0.4-1.2l7.5-19.8c0.9-2.8,6.8-12.6,9.1-15.8c2.3-3.2,8.4-9.8,8.4-9.8c1.1-2,11.2-8.9,14.4-10.5l13-9.1
	c4.3-3,12.5-5.7,18.5-7.5l4.5-1.8c8.4-2.8,20.8-3.9,22.4-3.7h5.3c1.8-0.2,16.4,0.9,24.8,3.7l5.3,1.2c6.1,2,13.2,4.6,17.5,7.8
	l13.9,9.3c-1.8-0.9,11.8,6.6,14.4,11.4c0.2,0.2,15,18.9,16.6,24.6l7.7,18.7c0.7,1.2,0.9,5.2,1.1,8.9c0.2,3.9,0.9,9.3,1.8,15.1
	C223.7,1077.7,221,1087.8,219.2,1096.1L219.2,1096.1z"/>
<g>
	<path fill="#777777" d="M112.6,1101.1c-0.2,0.9-4.3-0.7-6.2-0.9c-1.4,0-4.8-0.2-5-0.2c-0.7-0.2-1.1-0.9-0.4-1.1
		C103.1,1098.6,112.7,1100.1,112.6,1101.1z M92.8,1099.3h-4.3c-4.5,0-4.8,0-4.6-0.5c0.4-1.1,2.8-0.4,4.3-0.5
		C90.3,1098.5,92.8,1097.9,92.8,1099.3L92.8,1099.3z M95.5,1099.2c0.4-0.4,3-0.5,2.8,0.4c0,0.7-0.4,0.5-1.8,0.4
		C94.9,1099.9,95.1,1099.5,95.5,1099.2L95.5,1099.2z"/>
</g>
<g>
	<path fill="#777777" d="M117.9,962.7c-1.2,0-2.1-1.1-2.1-2.1c0-1.2,0.9-2.1,2.1-2.1c1.2,0,2.1,1.1,2.1,2.1
		C120,961.8,119.1,962.7,117.9,962.7z M110.2,962.8c-1.2,0-2.1-0.9-2.3-2c0-1.2,0.7-2.1,2-2.3c1.2,0,2.1,0.9,2.3,2
		C112.4,961.8,111.5,962.8,110.2,962.8z M102.6,963.5c-1.2,0.2-2.3-0.7-2.3-1.8c-0.2-1.2,0.7-2.3,1.8-2.3c1.2-0.2,2.3,0.7,2.3,1.8
		C104.7,962.3,103.8,963.4,102.6,963.5z M95.1,964.8c-1.2,0.2-2.3-0.5-2.5-1.6c-0.2-1.2,0.5-2.3,1.6-2.5c1.2-0.2,2.3,0.5,2.5,1.6
		C97.1,963.5,96.2,964.6,95.1,964.8z M87.6,966.6c-1.2,0.4-2.3-0.4-2.7-1.4c-0.4-1.1,0.4-2.3,1.4-2.7c1.1-0.4,2.3,0.4,2.7,1.4
		C89.4,965.1,88.7,966.2,87.6,966.6z M80.1,968.9c-1.1,0.4-2.3-0.2-2.7-1.2c-0.4-1.1,0.2-2.3,1.2-2.7c1.1-0.4,2.3,0.2,2.7,1.2
		C81.9,967.3,81.4,968.5,80.1,968.9z M72.9,971.7c-1.1,0.5-2.3,0-2.8-1.1c-0.5-1.1,0-2.3,1.1-2.8c1.1-0.5,2.3,0,2.8,1.1
		C74.5,970,74,971.2,72.9,971.7z M66,974.9c-1.1,0.5-2.3,0.2-2.8-0.9s-0.2-2.3,0.9-2.8c1.1-0.5,2.3-0.2,2.8,0.9
		C67.4,973.2,67.1,974.4,66,974.9z M59.4,978.7c-1.1,0.7-2.3,0.4-2.8-0.7c-0.5-1.1-0.4-2.3,0.7-2.8c1.1-0.5,2.3-0.4,2.8,0.7
		C60.6,976.7,60.3,978.1,59.4,978.7z M52.8,983c-0.9,0.7-2.3,0.5-3-0.5c-0.7-0.9-0.5-2.3,0.5-3c1.1-0.7,2.3-0.5,3,0.5
		C54.1,981,53.9,982.3,52.8,983z M46.8,987.7c-0.9,0.7-2.3,0.5-3-0.4c-0.7-0.9-0.7-2.3,0.4-3c0.9-0.7,2.3-0.5,3,0.4
		C47.8,985.5,47.6,987,46.8,987.7z M40.9,992.7c-0.9,0.9-2.1,0.7-3-0.2c-0.9-0.9-0.7-2.1,0.2-3c0.9-0.9,2.1-0.7,3,0.2
		C41.8,990.5,41.8,992,40.9,992.7z M35.5,998.2c-0.9,0.9-2.1,0.9-3,0.2c-0.9-0.9-0.9-2.1-0.2-3c0.9-0.9,2.1-0.9,3-0.2
		C36.2,996,36.2,997.3,35.5,998.2z M30.4,1004.1c-0.7,0.9-2.1,1.1-3,0.4c-0.9-0.7-1.1-2.1-0.4-3c0.7-0.9,2.1-1.1,3-0.4
		C31.1,1001.7,31.1,1003,30.4,1004.1z M25.6,1010.1c-0.7,0.9-2,1.2-3,0.5c-0.9-0.7-1.2-2-0.5-3c0.7-1.1,2-1.2,3-0.5
		C26.2,1007.8,26.4,1009,25.6,1010.1z M21.5,1016.5c-0.5,1.1-2,1.2-2.8,0.7c-1.1-0.5-1.4-2-0.7-2.8c0.7-1.1,2-1.2,3-0.7
		C21.7,1014.2,22.1,1015.5,21.5,1016.5z M17.8,1023.3c-0.5,1.1-1.8,1.4-2.8,0.9c-1-0.5-1.4-1.8-0.9-2.8c0.5-1.1,1.8-1.4,2.8-0.9
		C17.8,1020.8,18.3,1022.2,17.8,1023.3z M14.4,1030.2c-0.5,1.1-1.8,1.6-2.8,1.1c-1.1-0.5-1.6-1.6-1.1-2.8c0.5-1.1,1.8-1.6,2.8-1.1
		C14.4,1027.7,15,1029,14.4,1030.2z M11.6,1037.5c-0.4,1.1-1.6,1.6-2.7,1.2s-1.8-1.6-1.2-2.7c0.4-1.1,1.6-1.8,2.7-1.2
		C11.4,1035.1,12.1,1036.2,11.6,1037.5z M9.4,1044.8c-0.4,1.1-1.4,1.8-2.7,1.4c-1.1-0.4-1.8-1.4-1.4-2.7c0.4-1.3,1.4-1.8,2.7-1.4
		C9.1,1042.4,9.6,1043.5,9.4,1044.8z M7.7,1052.2c-0.2,1.2-1.4,2-2.5,1.6c-1.2-0.2-2-1.2-1.6-2.5c0-1.1,1.2-1.8,2.3-1.6
		C7.1,1049.9,7.8,1051,7.7,1052.2z M6.2,1059.9c-0.2,1.2-1.2,2-2.3,1.8c-1.2-0.2-2-1.2-1.8-2.3c0.2-1.2,1.2-2,2.3-1.8
		C5.7,1057.6,6.4,1058.6,6.2,1059.9z M5.5,1067.6c0,1.2-1.1,2.1-2.3,2c-1.2,0-2.1-1.1-2-2.3c0-1.2,1.1-2.1,2.3-2
		C4.8,1065.2,5.7,1066.3,5.5,1067.6z M5.3,1075.2c0,1.2-0.9,2.1-2.1,2.1s-2.1-0.9-2.1-2.1c0-1.2,0.9-2.1,2.1-2.1
		S5.3,1074,5.3,1075.2z M5.7,1082.9c0,1.2-0.7,2.1-2,2.3c-1.2,0.2-2.1-0.7-2.3-2c0-1.2,0.7-2.1,2-2.3
		C4.6,1080.7,5.5,1081.6,5.7,1082.9z M6.6,1090.6c0.2,1.2-0.7,2.3-1.8,2.5c-1.2,0.2-2.3-0.5-2.5-1.8c-0.2-1.2,0.7-2.3,1.8-2.5
		C5.3,1088.7,6.4,1089.4,6.6,1090.6z M7.8,1098.1c0.2,1.2-0.5,2.3-1.6,2.5c-1.2,0.2-2.3-0.5-2.5-1.6c-0.4-1.1,0.5-2.3,1.6-2.5
		C6.6,1096.3,7.7,1097,7.8,1098.1z M9.8,1105.6c0.4,1.1-0.4,2.3-1.4,2.7c-1.1,0.4-2.3-0.4-2.7-1.4c-0.4-1.2,0.4-2.3,1.4-2.7
		C8.1,1103.8,9.4,1104.5,9.8,1105.6z M12.1,1112.9c0.4,1.1-0.2,2.3-1.2,2.7c-1.1,0.4-2.3-0.2-2.7-1.2c-0.4-1.1,0.2-2.3,1.2-2.7
		C10.5,1111.3,11.8,1111.8,12.1,1112.9z M15.1,1120c0.5,1.1,0,2.3-1.1,2.8s-2.3,0-2.8-1.1s0-2.3,1.1-2.8S14.6,1118.9,15.1,1120z
		 M18.5,1126.9c0.5,1.1,0.2,2.3-0.9,2.8s-2.3,0.2-2.8-0.9c-0.5-1.1-0.2-2.3,0.9-2.8C16.6,1125.5,17.8,1125.9,18.5,1126.9z
		 M22.3,1133.5c0.7,1.1,0.4,2.3-0.7,3c-1.1,0.7-2.3,0.4-3-0.7c-0.7-1.1-0.4-2.3,0.7-3C20.3,1132.3,21.7,1132.6,22.3,1133.5z
		 M26.5,1139.9c0.7,0.9,0.5,2.3-0.5,3c-0.9,0.7-2.3,0.5-3-0.5c-0.7-0.9-0.5-2.3,0.5-3C24.6,1138.7,25.8,1139.1,26.5,1139.9z
		 M31.4,1146.1c0.7,0.9,0.7,2.3-0.4,3c-0.9,0.7-2.3,0.7-3-0.2c-0.7-0.9-0.7-2.3,0.4-3C29.3,1145,30.7,1145.2,31.4,1146.1z
		 M36.6,1151.8c0.9,0.9,0.7,2.1,0,3c-0.9,0.9-2.1,0.9-3,0c-0.9-0.9-0.7-2.1,0-3C34.5,1150.9,35.7,1150.9,36.6,1151.8z M42.1,1157.1
		c0.9,0.9,0.9,2.1,0.2,3s-2.1,0.9-3,0.2c-0.9-0.9-0.9-2.1-0.2-3C39.8,1156.4,41.2,1156.4,42.1,1157.1z M48,1162.1
		c0.9,0.7,1.1,2.1,0.4,3c-0.7,0.9-2.1,1.1-3,0.4c-0.9-0.7-1.1-2.1-0.4-3C45.7,1161.6,46.9,1161.4,48,1162.1z M54.2,1166.8
		c1.1,0.7,1.2,2,0.5,3c-0.7,0.9-2,1.2-3,0.5s-1.2-2-0.5-3C51.9,1166.4,53.2,1166,54.2,1166.8z M60.6,1170.9c1.1,0.5,1.4,2,0.7,2.8
		c-0.5,1.1-2,1.4-2.8,0.7c-1.1-0.5-1.4-2-0.7-2.8C58.3,1170.5,59.6,1170.3,60.6,1170.9z M67.4,1174.4c1.1,0.5,1.4,1.8,0.9,2.8
		c-0.5,1.1-1.8,1.4-2.8,0.9c-1.1-0.5-1.4-1.8-0.9-2.8C65.1,1174.4,66.3,1173.9,67.4,1174.4z M74.4,1177.6c1.1,0.5,1.6,1.6,1.1,2.8
		c-0.5,1.1-1.6,1.6-2.8,1.2c-1.1-0.5-1.6-1.8-1.2-2.8C72,1177.8,73.3,1177.3,74.4,1177.6z M81.8,1180.5c1.1,0.4,1.8,1.6,1.4,2.7
		c-0.4,1.1-1.6,1.8-2.7,1.4c-1.1-0.4-1.8-1.6-1.4-2.7C79.2,1180.6,80.4,1179.9,81.8,1180.5z M89.1,1182.6c1.2,0.4,1.8,1.4,1.6,2.7
		c-0.4,1.1-1.4,1.8-2.7,1.6c-1.2-0.4-1.8-1.4-1.6-2.7C86.7,1183,88,1182.2,89.1,1182.6L89.1,1182.6z M96.5,1184.2
		c1.2,0.2,2,1.2,1.8,2.5c-0.2,1.3-1.2,2-2.5,1.8c-1.2-0.2-2-1.2-1.8-2.5C94.4,1184.7,95.5,1184,96.5,1184.2L96.5,1184.2z
		 M104.2,1185.5c1.2,0.2,2,1.2,1.8,2.3c-0.2,1.2-1.2,2-2.3,2c-1.2-0.2-2-1.2-2-2.3C101.9,1186,102.9,1185.3,104.2,1185.5
		L104.2,1185.5z M111.8,1186c1.2,0,2.1,1.1,2,2.1c0,1.2-1.1,2.1-2.1,2.1c-1.2,0-2.1-1.1-2-2.3C109.7,1186.9,110.6,1186,111.8,1186
		L111.8,1186z M119.5,1186.2c1.2,0,2.1,0.9,2.1,2.1c0,1.2-0.9,2.1-2.1,2.1c-1.2,0-2.1-0.9-2.1-2.1
		C117.4,1187.1,118.4,1186.2,119.5,1186.2z M127.2,1185.6c1.2-0.2,2.1,0.7,2.3,2c0.2,1.2-0.7,2.1-2,2.3c-1.2,0.2-2.1-0.7-2.3-2
		C125.2,1186.9,126.1,1185.8,127.2,1185.6L127.2,1185.6z M134.9,1184.7c1.2-0.2,2.3,0.5,2.5,1.8c0.2,1.2-0.5,2.3-1.8,2.5
		c-1.2,0.2-2.3-0.5-2.5-1.8C132.9,1186,133.7,1184.9,134.9,1184.7L134.9,1184.7z M142.6,1183.3c1.2-0.4,2.3,0.4,2.5,1.6
		c0.2,1.1-0.4,2.3-1.6,2.5c-1.2,0.4-2.3-0.5-2.5-1.6C140.6,1184.7,141.3,1183.5,142.6,1183.3L142.6,1183.3z M149.9,1181.2
		c1.1-0.4,2.3,0.4,2.7,1.4c0.4,1.1-0.2,2.3-1.4,2.7c-1.1,0.4-2.3-0.4-2.7-1.4C148.1,1182.8,148.8,1181.5,149.9,1181.2z
		 M157.2,1178.7c1.1-0.4,2.3,0.2,2.7,1.2c0.4,1.1-0.2,2.3-1.2,2.7c-1.1,0.4-2.3-0.2-2.8-1.2C155.6,1180.5,156.1,1179.2,157.2,1178.7
		L157.2,1178.7z M164.1,1175.8c1.1-0.5,2.3,0,2.8,1.1s0,2.3-1.1,2.8c-1.1,0.5-2.3,0-2.8-1.1C162.7,1177.6,163.1,1176.4,164.1,1175.8
		z M171.1,1172.3c1.1-0.5,2.3-0.2,2.8,0.9c0.5,1.1,0.2,2.3-0.9,2.8c-1.1,0.5-2.3,0.2-2.8-0.9C169.6,1174.1,170,1172.8,171.1,1172.3z
		 M177.7,1168.4c1.1-0.7,2.3-0.4,3,0.7c0.7,1.1,0.4,2.3-0.7,3c-1.1,0.7-2.3,0.4-3-0.7C176.4,1170.3,176.8,1169.1,177.7,1168.4z
		 M184.1,1163.9c0.9-0.7,2.3-0.5,3,0.4s0.5,2.3-0.4,3c-0.9,0.7-2.3,0.5-3-0.4C182.8,1166,183,1164.6,184.1,1163.9z M190,1159.1
		c0.9-0.7,2.1-0.7,3,0.2c0.7,0.9,0.7,2.3-0.2,3c-0.9,0.7-2.3,0.7-3-0.2C189,1161.2,189.1,1160,190,1159.1z M195.7,1153.9
		c0.9-0.9,2.1-0.9,3,0c0.9,0.9,0.9,2.1,0,3c-0.9,0.9-2.1,0.9-3,0C194.8,1156.1,194.8,1154.8,195.7,1153.9z M201.1,1148.4
		c0.7-0.9,2.1-0.9,3-0.2c0.9,0.7,1.1,2.1,0.2,3c-0.7,0.9-2.1,0.9-3,0.2C200.4,1150.6,200.2,1149.3,201.1,1148.4z M205.9,1142.4
		c0.7-0.9,2-1.1,3-0.4c0.9,0.7,1.1,2,0.4,3c-0.7,0.9-2.1,1.1-3,0.4C205.4,1144.7,205.2,1143.3,205.9,1142.4z M210.3,1136
		c0.7-1.1,2-1.2,3-0.5c1.1,0.7,1.2,2,0.5,3c-0.7,1.1-2,1.2-3,0.5C210,1138.3,209.8,1136.9,210.3,1136z M214.4,1129.4
		c0.5-1.1,2-1.4,2.8-0.9c1.1,0.5,1.4,1.8,0.9,2.8c-0.5,1.1-2,1.4-2.8,0.7C214.1,1131.8,213.7,1130.5,214.4,1129.4z M218,1122.7
		c0.5-1.1,1.8-1.4,2.8-1.1c1.1,0.5,1.6,1.8,1.1,2.8c-0.5,1-1.8,1.6-2.8,1.1C217.8,1125,217.5,1123.7,218,1122.7z M221,1115.6
		c0.5-1.1,1.6-1.6,2.8-1.2c1.1,0.4,1.6,1.6,1.2,2.8c-0.5,1.1-1.6,1.6-2.8,1.2C221.2,1118,220.7,1116.8,221,1115.6z M223.7,1108.4
		c0.4-1.1,1.6-1.8,2.7-1.4c1.1,0.4,1.8,1.6,1.4,2.7c-0.4,1.1-1.6,1.8-2.7,1.4C223.9,1110.7,223.3,1109.5,223.7,1108.4z M225.7,1101
		c0.4-1.2,1.4-1.8,2.5-1.6c1.1,0.4,1.8,1.4,1.6,2.5c-0.4,1.2-1.4,1.8-2.7,1.6C226.2,1103.3,225.5,1102.2,225.7,1101z M227.3,1093.5
		c0.2-1.2,1.2-2,2.5-1.8c1.2,0.2,2,1.2,1.8,2.5c-0.2,1.3-1.2,2-2.5,1.8C227.8,1095.8,227.1,1094.7,227.3,1093.5L227.3,1093.5z
		 M228.3,1085.7c0.2-1.2,1.1-2,2.3-2c1.2,0.2,2,1.1,2,2.3c-0.2,1.2-1.2,2-2.3,2C229,1088,228.1,1087,228.3,1085.7z M228.9,1078.1
		c0-1.2,1.1-2.1,2.1-2.1c1.2,0,2.1,1.1,2.1,2.1c0,1.2-1.1,2.1-2.1,2.1C229.7,1080.2,228.9,1079.3,228.9,1078.1z M228.9,1070.4
		c0-1.2,0.9-2.1,2-2.1c1.2,0,2.1,0.9,2.1,2c0,1.2-0.9,2.1-2.1,2.1C229.7,1072.4,228.9,1071.5,228.9,1070.4z M228.3,1062.7
		c-0.2-1.2,0.7-2.1,2-2.3c1.2-0.2,2.1,0.7,2.3,2c0.2,1.2-0.7,2.3-2,2.3C229.4,1064.7,228.3,1063.8,228.3,1062.7z M227.3,1055.1
		c-0.2-1.2,0.5-2.3,1.8-2.5c1.2-0.2,2.3,0.5,2.5,1.8c0.2,1.2-0.5,2.3-1.8,2.5C228.5,1057,227.4,1056.2,227.3,1055.1L227.3,1055.1z
		 M225.7,1047.6c-0.4-1.2,0.4-2.3,1.6-2.5c1.1-0.4,2.3,0.4,2.7,1.6c0.4,1.2-0.4,2.3-1.6,2.7C227.1,1049.4,226,1048.7,225.7,1047.6
		L225.7,1047.6z M223.5,1040.1c-0.4-1.1,0.2-2.3,1.4-2.7c1.1-0.4,2.3,0.2,2.7,1.4c0.4,1.1-0.2,2.3-1.4,2.7
		C225.1,1041.9,223.9,1041.4,223.5,1040.1z M220.8,1032.9c-0.5-1.1,0-2.3,1.2-2.8c1.1-0.4,2.3,0,2.8,1.2c0.5,1.1,0,2.3-1.2,2.8
		C222.6,1034.5,221.4,1034,220.8,1032.9z M217.8,1025.8c-0.5-1.1,0-2.3,1.1-2.8c1.1-0.5,2.3-0.2,2.8,0.9c0.5,1.1,0,2.3-1.1,2.8
		C219.6,1027.2,218.4,1026.9,217.8,1025.8z M214.3,1019c-0.5-1.1-0.2-2.3,0.7-2.8c1.1-0.5,2.3-0.2,2.8,0.7c0.5,1.1,0.2,2.3-0.7,2.8
		C216,1020.4,214.8,1020.1,214.3,1019z M210.2,1012.4c-0.7-1.1-0.4-2.3,0.5-3c1.1-0.7,2.3-0.4,3,0.5c0.7,1.1,0.4,2.3-0.5,3
		C212.1,1013.7,210.9,1013.5,210.2,1012.4z M205.7,1006.2c-0.7-0.9-0.5-2.3,0.4-3c0.9-0.7,2.3-0.5,3,0.4s0.5,2.3-0.4,3
		C207.7,1007.3,206.4,1007.1,205.7,1006.2z M200.7,1000.3c-0.7-0.9-0.7-2.1,0.2-3c0.9-0.7,2.1-0.7,3,0.2c0.7,0.9,0.7,2.3-0.2,3
		C202.9,1001.2,201.6,1001.2,200.7,1000.3z M195.6,994.6c-0.9-0.9-0.9-2.1,0-3c0.9-0.9,2.1-0.9,3,0c0.9,0.9,0.9,2.1,0,3
		S196.3,995.5,195.6,994.6z M189.9,989.5c-0.9-0.7-1.1-2.1-0.2-3c0.7-0.9,2.1-1.1,3-0.2c0.9,0.7,1.1,2.1,0.2,3
		C192,990.2,190.8,990.4,189.9,989.5z M183.7,984.7c-0.9-0.7-1.1-2-0.4-3c0.7-0.9,2-1.2,3-0.5c0.9,0.7,1.1,2.1,0.4,3
		C186,985.2,184.6,985.4,183.7,984.7z M177.5,980.3c-1.1-0.7-1.2-2-0.7-2.8c0.7-1.1,2-1.2,3-0.7c1.1,0.7,1.2,2,0.7,3
		C179.8,980.6,178.4,980.8,177.5,980.3z M170.7,976.4c-1.1-0.5-1.4-1.8-0.9-2.8c0.5-1.1,1.8-1.4,2.8-0.9c1.1,0.5,1.4,1.8,0.9,2.8
		S171.8,976.9,170.7,976.4z M163.9,972.8c-1.1-0.5-1.6-1.8-1.1-2.8s1.8-1.6,2.8-1.1c1.1,0.5,1.6,1.8,1.1,2.8
		C166.3,972.8,165,973.3,163.9,972.8z M156.8,970c-1.1-0.5-1.6-1.8-1.2-2.8s1.6-1.6,2.7-1.2c1.1,0.4,1.6,1.6,1.2,2.8
		C159.1,969.8,157.9,970.3,156.8,970z M149.5,967.5c-1.1-0.4-1.8-1.4-1.4-2.7c0.4-1.1,1.4-1.8,2.7-1.4c1.1,0.4,1.8,1.6,1.4,2.7
		C151.8,967.1,150.8,967.8,149.5,967.5z M142.2,965.5c-1.2-0.4-1.8-1.4-1.6-2.5c0.2-1.2,1.4-2,2.5-1.6c1.2,0.2,2,1.4,1.6,2.5
		C144.5,965,143.3,965.7,142.2,965.5z M134.6,963.9c-1.2-0.2-2-1.2-1.8-2.5c0.2-1.2,1.2-2,2.5-1.8c1.2,0.2,2,1.2,1.8,2.5
		C136.9,963.4,135.8,964.1,134.6,963.9z M126.8,963c-1.1,0-2-1.1-2-2.3c0.2-1.2,1.1-2.1,2.3-2c1.2,0.2,2.1,1.2,2,2.3
		C129.1,962.3,128.1,963.2,126.8,963z"/>
</g>
</svg>
