<?xml version="1.0" encoding="utf-8"?>
<!-- Generator: Adobe Illustrator 17.1.0, SVG Export Plug-In . SVG Version: 6.00 Build 0)  -->
<!DOCTYPE svg PUBLIC "-//W3C//DTD SVG 1.1//EN" "http://www.w3.org/Graphics/SVG/1.1/DTD/svg11.dtd">
<svg version="1.1" id="Layer_1" xmlns="http://www.w3.org/2000/svg" xmlns:xlink="http://www.w3.org/1999/xlink" x="0px" y="0px"
	 viewBox="0 0 841.9 1190.6" enable-background="new 0 0 841.9 1190.6" xml:space="preserve">
<path fill="#F1F1F1" d="M277.6,708.2c-19.8,0-21.2-10.5-21.2-21.2v-36.1h10.9v41.7c0,5.5,1.8,11.6,10.1,11.6
	c9.1-0.2,9.6-6.4,9.6-11.6v-37.9c0-5.7-1.2-9.1-2.7-14.6c-2.1-8.4-5-13-9.1-20.8l-10.9-20.8c-3.7-6.8-5-11-6.4-18.5
	c-1.4-7.1-1.4-11.8-1.4-19.1v-8.4c0-10.5,1.4-21,20.7-21c19.8,0,21,10.7,21,21.2v32.2h-11v-37.9c0-5.3-1.2-11.2-9.6-11.2
	c-9.1,0.2-10.1,6.2-10.1,11.2v11.4c0,7.5,0.2,12.1,1.8,19.8c1.4,6.8,3,10.9,6.4,17.5l10.3,19.8c2.1,4.8,6.2,11.2,8.4,18.7
	c2.5,7.8,3.9,11.2,3.9,20.3v33.1C298.1,697.7,296.8,708,277.6,708.2L277.6,708.2z M362.4,706.9h-10.9v-89.6h-19.4v89.6h-11V552.7
	c0-10.7,1.4-21.2,21.2-21.2c19.2,0,20.3,10.5,20.3,21v154.4H362.4z M351.5,610.4v-63.6c0-5.2-0.5-11-9.6-11.2
	c-8.4,0-9.8,5.9-9.8,11.2v63.4h19.4V610.4z M416.8,637.8V532.2h10.9v174.7h-10.9v-33.3L397.1,580v127h-10.9V532.2h9.8L416.8,637.8
	L416.8,637.8z M489.3,538.8h-16.2v168.1h-11V538.8h-15.8v-6.4h43.1V538.8L489.3,538.8z M549.5,706.9h-10.9v-89.6h-19.4v89.6h-11
	V552.7c0-10.7,1.4-21.2,21.2-21.2c19.2,0,20.3,10.5,20.3,21v154.4H549.5z M538.6,610.4v-63.6c0-5.2-0.5-11-9.6-11.2
	c-8.4,0-9.8,5.9-9.8,11.2v63.4h19.4V610.4z M648.3,650.8v39.7c0,9.6-5,17.6-20.5,17.6c-15.5,0-21.2-7.7-21.2-17.1V552.7
	c0-10.7,1.4-21.2,21.2-21.2c19.2,0,20.5,10.5,20.5,21v32.9h-11v-38.6c0-5.2-0.5-11-9.4-11.2c-8.5,0-10.1,5.9-10.1,11.2V695
	c0,4.5,3.9,8.5,10.1,8.5c6.4-0.2,9.4-3.9,9.4-8.4v-44.3H648.3z M703.4,706.9V633c0-5.2-0.7-10.5-4.3-12.8c-3.4-2.5-5.9-3-10.1-3h-5
	v89.7h-11V532.8h19.8c3,0,11,0.4,16.2,4.3c5.3,3.9,5.3,9.3,5.3,15.5v46.7c0,3.2-0.5,5.5-2.7,8.4c-2.5,3.2-8.5,6.4-9.1,6.6
	c0.5,0.2,5.3,2.8,7.7,5.5c3.9,4.1,4.3,8.2,4.3,13v74.3H703.4L703.4,706.9z M698.9,539.2c-2-0.9-5-1.6-8.2-1.6h-6.6v74.8h5.2
	c4.6,0,9.4-2.1,11.4-4.5c1.8-1.8,2.7-7.5,2.7-12.1V549C703.4,544,702.5,540.8,698.9,539.2L698.9,539.2z M747.9,695.2
	c0,4.5,3.2,8.4,9.6,8.4c6.2,0,9.4-4.1,9.4-8.5V532.6h11v158.7c0,9.4-5,17.1-20.5,17.1c-15.5,0-20.7-8-20.7-17.6V532.6h11V695.2
	L747.9,695.2z M826.2,538.8h-23.9v-6.6h37.4l-25.8,167.4h27.4v7.1h-41L826.2,538.8z M279,505.5c0,3.2-0.2,6.2-2.5,8.9
	c-2.1,2.7-5.5,3.7-8.9,3.7c-3.2,0-6.6-0.7-8.9-3.2c-2.5-2.7-2.7-6.1-2.7-9.4v-21h4.1v21c0,2,0,4.6,1.2,6.4c1.4,2,4.1,2.5,6.4,2.5
	c2.1,0,4.5-0.7,5.9-2.3c1.6-2,1.6-4.3,1.6-6.6v-21h3.6v21H279z M311.1,517.6H307l-16.7-28.8v28.8h-3.6v-33.1h5.2l15.7,26.9v-26.9
	h3.6V517.6z M318.9,517.6v-33.1h4.1v33.1H318.9z M342.8,517.6h-3.9l-11.2-33.1h4.3l9.3,27.2l9.1-27.2h3.6
	C353.8,484.5,342.8,517.6,342.8,517.6z M379.8,517.6h-21.4v-33.1h21v3.6h-16.7v10.5h13.4v3.4h-13.4v12.1H380v3.6H379.8z
	 M404.7,517.6l-6.1-14.2h-9.1v14.2h-4.1v-33.1H398c2.7,0,5.3,0.4,7.5,2c2.1,1.6,3.6,4.5,3.6,7.3c0,3.9-2.3,7.5-6.2,8.5l6.6,15.3
	H404.7L404.7,517.6z M397.3,500c2.1,0,4.1-0.2,5.7-1.8c1.2-1.2,1.6-2.7,1.6-4.3c0-2-0.7-3.6-2.3-4.6c-1.4-1.1-2.8-1.1-4.6-1.1h-8.2
	V500H397.3L397.3,500z M417,507.8c1.4,4.6,5.2,6.8,9.8,6.8c2,0,4.5-0.4,5.9-1.6c1.2-0.9,2-2.7,2-4.3c0-3.4-2.7-4.6-5.7-5.3l-5.5-1.4
	c-2.1-0.5-4.3-1.1-6.1-2.7c-1.8-1.6-2.7-3.7-2.7-6.1c0-6.4,5.5-9.1,11.2-9.1c5.5,0,10,2.7,11.8,8l-3.7,1.1c-0.7-3.6-4.6-5.9-8.2-5.9
	c-3.2,0-7.1,1.6-7.1,5.3c0,3.7,2.8,4.5,6.1,5.3l5,1.2c2.1,0.5,4.3,1.1,6.1,2.5c2.1,1.6,3,3.9,3,6.6c0,3-1.2,5.7-3.7,7.5
	c-2.5,1.8-5.7,2.5-8.5,2.5c-6.8,0-11.2-3-13.4-9.4L417,507.8L417,507.8z M445.3,517.6v-33.1h4.1v33.1H445.3z M468,517.6h-4.1v-29.4
	h-9.4v-3.6h22.8v3.6h-9.4v29.4H468z M493.4,503.7v13.9h-4.1v-13.9l-11-19.2h4.8l8.7,15.3l8.9-15.3h3.7L493.4,503.7z M520.7,501.4
	c0-8.2,4.1-17.3,13.5-17.3c9.3,0,13.5,8.5,13.5,16.6s-4.1,17.5-13.5,17.5C524.8,518.2,520.7,509.6,520.7,501.4z M543.6,500.9
	c0-3-0.5-6.4-2-9.1c-1.4-2.7-4.1-4.5-7.1-4.5c-7.3,0-9.4,8-9.4,13.9c0,5.7,2.3,13.4,9.3,13.4C541.5,514.8,543.6,506.6,543.6,500.9
	L543.6,500.9z M554.1,517.6v-33.1h20.3v3.6h-16v10.5h13.4v3.4h-13.4v15.7C558.4,517.6,554.1,517.6,554.1,517.6z M615.6,507.3
	c-1.6,6.2-5.3,10.9-12.3,10.9c-9.6,0-13.5-9.3-13.5-17.5c0-8.5,4.3-16.7,13.7-16.7c6.6,0,10.5,4.5,11.9,10.5l-3.9,0.7
	c-1.2-4.3-3.2-7.8-8.2-7.8c-7.1,0-9.1,7.8-9.1,13.5c0,2.7,0.4,5.9,1.6,8.2c1.4,3,3.9,5.3,7.3,5.3c5,0,7.5-3.7,8.5-8.2L615.6,507.3z
	 M644.4,517.6h-4.3l-3.4-9.6h-12.3l-3,9.6h-3.6l10.7-33.1h4.8L644.4,517.6L644.4,517.6z M630.9,489l-5.2,15.8h10.1L630.9,489
	L630.9,489z M668.3,517.6h-19.6v-33.1h4.1v29.4h15.3v3.7H668.3z M673.1,517.6v-33.1h4.1v33.1H673.1z M685.4,517.6v-33.1h20.3v3.6
	h-16v10.5H703v3.4h-13.4v15.7C689.6,517.6,685.4,517.6,685.4,517.6z M706.9,501.4c0-8.2,4.1-17.3,13.5-17.3
	c9.3,0,13.5,8.5,13.5,16.6s-4.1,17.5-13.5,17.5C711,518.2,706.9,509.6,706.9,501.4z M729.7,500.9c0-3-0.5-6.4-2-9.1
	c-1.4-2.7-4.1-4.5-7.1-4.5c-7.3,0-9.4,8-9.4,13.9c0,5.7,2.3,13.4,9.3,13.4C727.6,514.8,729.7,506.6,729.7,500.9L729.7,500.9z
	 M759.8,517.6l-6.1-14.2h-9.1v14.2h-4.1v-33.1H753c2.7,0,5.3,0.4,7.5,2s3.6,4.5,3.6,7.3c0,3.9-2.3,7.5-6.2,8.5l6.6,15.3H759.8
	L759.8,517.6z M752.3,500c2.1,0,4.1-0.2,5.7-1.8c1.2-1.2,1.6-2.7,1.6-4.3c0-2-0.7-3.6-2.3-4.6c-1.4-1.1-2.8-1.1-4.6-1.1h-8.2V500
	H752.3z M794.5,517.6h-4.1l-16.9-28.8v28.8h-3.4v-33.1h5.2l15.7,26.9v-26.9h3.6V517.6z M802.4,517.6v-33.1h4.1v33.1H802.4z
	 M837.3,517.6H833l-3.4-9.6h-12.3l-3,9.6h-3.6l10.7-33.1h4.8L837.3,517.6L837.3,517.6z M823.7,489l-5.2,15.8h10.1L823.7,489
	L823.7,489z M194.6,598.1c-0.2-0.2-1.8-2-5-5.3c0.2-1.4,0.4-3.2,0.5-5.3l0.4-3.6l-1.4,0.7c-0.5,0.2-2,1.8-3.6,3.7
	c-3.6-3.9-8.4-8.9-14.1-14.8v-15.5c11,8,19.9,14.6,19.9,14.6c0.5,0.4,1.2-0.5,0.5-1.1c-3.9-3-11.4-8.5-20.5-15.1v-8.7
	c0-1.1,0-3.4-1.1-2.7c-2.1,1.4-11.6-0.4-11.8-0.4l-2.5,0.5c-8.4-6.2-16.9-12.5-24.2-17.8c-1.8-1.2-2.5-0.5-0.7,0.9
	c1.2,1.1,11.6,8.7,23.3,17.3c-3.7,0.7-6.8,0.7-9.4,0.5c-4.3-4.5-8.7-9.1-13.7-14.1c-1.4-1.4-2.5-0.5-1.1,0.9
	c0.2,0.2,5.2,5.5,12.3,12.8c-2.3-0.2-4.5-0.7-6.6-0.9c-1.2-1.8-2.7-3.6-3.7-5.3c-2.3-3-2.5-1.1-1.2,0.9c0.7,1.1,1.6,2.5,2.8,4.3
	h-4.5c-0.2-0.7-0.4-1.2-0.7-1.8c-0.9-2.3-2.5-3.2-1.4,0.7c0.2,0.5,0.4,0.9,0.4,1.4c-0.9,0.2-2.1,0.5-3.4,1.2
	c-0.4-2.5-0.9-4.8-1.2-7.1c-0.5-2.5-1.6-2.3-1.2,0.4c0.4,2.5,0.7,5,1.2,7.5c-1.6,0.9-3.2,2-4.1,3.6c0-4.3-0.2-8.4-0.2-12.3
	c0-4.1-1.1-2.5-1.2,0v11.2c-1.1-1.4-3-2.5-4.8-3.4l1.1-6.6c0.4-2.7-0.9-2.8-1.2-0.4c-0.4,2.1-0.7,4.3-1.2,6.4
	c-1.4-0.5-2.7-0.7-3.4-0.7l0.4-1.1c1.1-3.9-0.5-3.2-1.2-0.7c-0.2,0.5-0.4,1.1-0.5,1.8c-1.6,0-3.2,0-4.6,0.2c1.2-1.8,2.1-3.2,2.8-4.3
	c1.4-2,1.1-3.9-1.2-0.9c-1.2,1.6-2.5,3.4-3.7,5.3c-2.3,0-4.3,0.2-6.1,0.2c6.8-7.1,11.4-11.9,11.6-12.3c1.4-1.4,0.4-2.3-1.1-0.9
	c-4.6,4.6-8.9,9.1-12.8,13.2c-6.6,0.4-8.7,0.5-10.9,0.7c12.1-8.9,22.8-16.7,24-17.8c1.8-1.4,1.1-2.1-0.7-0.9
	c-7.7,5.7-16.7,12.3-25.5,18.7h-2.7c-2.1,0-7.3,0.2-8.7,0c-0.5,0-1.4-0.4-1.8-0.4c-1.1,0-1.2,0.7-1.2,1.8v9.3
	c-8.7,6.4-16.2,11.9-19.9,14.8c-0.7,0.5,0,1.4,0.5,1.1c0,0,8.7-6.4,19.6-14.4v15.5c-15.1,15.8-23,24.4-23.1,24.6
	c-1.1,1.1-0.2,1.8,0.7,0.9c3.2-3,12.1-12.1,22.1-22.6v23.7c-8.2,13-13.9,22.8-14.1,22.8c-1.2,2-1.1,3,0.4,1.4
	c0.4-0.4,6.1-9.3,13.7-21.2v14.6c-2,0.2-4.6,0.7-5.5,2c-1.1,1.4-0.7,2.7-0.9,4.6c-0.2,1.2-0.4,3-0.7,3.9c-0.5,1.6-2,2.7-2.8,3.6
	s-1.4,2.3-2,3.6c-0.9,2.1,0.4,5.3,1.8,7.7c0.7,1.2,2.1,2.7,3.6,2.8c5.3,0.9,6.1-2.8,6.8-4.8c0-0.2,0-0.2,0.2-0.4
	c0,3.6,0.2,5.5,0.2,5.7c0,0.2,2.7,0,6.8-0.2c-0.9,2.8-1.6,4.5-1.6,4.6c-0.9,3.4,0.7,2.1,1.1,0.9l2-5.5c3.6-0.2,8-0.4,12.5-0.5
	c0.9,1.4,2.8,3.6,3.6,5l0.9,1.6l0.5,1.1c0.7,1.2,1.2,2.3,2,3.2c-0.5,3-0.9,4.8-0.9,5.2c-1.1,4.6-0.2,5,1.1,0.7
	c0-0.2,0.4-1.8,0.9-4.3c0.5,0.7,1.1,1.6,1.8,2.5c1.4,2,4.5,3.9,11.6,6.9c2.7,1.2,6.6,2,10.9,2.1c0.2,3.6,1.1,2.7,1.2,0
	c5.5,0.2,11.8-0.7,17.8-2.7c3.2-1.6,5.5-3.4,6.9-5v0.2c1.2,4.3,2.1,3.9,1.1-0.7c0-0.2,0-0.4-0.2-0.7c0.9-1.1,1.2-1.8,1.2-2
	c0.4-0.7,3.6-7.5-0.4-12.5l-0.2-0.2l-0.4-0.2l-0.7-0.5c7.1,0.4,14.8,0.7,19.9,0.9l1.6,4.3c0.4,1.2,2.1,2.3,1.1-0.9
	c0,0-0.5-1.2-1.2-3.4c3.2,0.2,5.2,0.2,5.2,0v-7.3c4.5-0.7,5.9-2,8.7-4.5c3.4-3,5.5-7.1,5.3-11.2c0.2,0.4,0.4,0.5,0.4,0.5
	c1.4,1.6,1.6,0.5,0.4-1.4c0,0-0.5-0.7-1.2-2c-0.7-2.3-2-4.3-3.6-5.9c-1.6-2.7-3.6-5.9-5.9-9.6c2.3-0.4,4.8-1.1,6.8-1.8
	c2.1-0.9,5.3-3.4,6.8-7.3l0.9-0.4c0.2-0.4,0.4-0.9,0.4-1.2l4.6,4.6C194.6,599.9,195.7,599.2,194.6,598.1L194.6,598.1z M184.3,589.6
	c-1.2,1.4-2.5,2.8-3.6,4.1c-0.4-1.4-0.7-4.3-1.1-6.2c-0.4-1.6-0.7-2.8-1.2-3.9C180.6,585.7,182.5,587.6,184.3,589.6L184.3,589.6z
	 M171.3,576c1.6,1.6,3,3.2,4.5,4.6v0.7c0.5,5.3-0.5,9.6-1.2,12.1c-0.7,2.5-1.4,3.6-2.7,4.1l-0.7,0.4
	C171.3,589.8,171.3,582.3,171.3,576z M167.2,548.6c0.2-1.1,2-1.4,2.3,0.5c0.4,1.1,0.2,25.5,0,49.5c-0.7,0.2-1.4,0.2-2.1,0.2h-0.2
	C167.2,574.4,167,549.2,167.2,548.6L167.2,548.6z M163.8,548.6c0-0.7,1.8-1.1,1.6,0.5c0.2,0.4-0.2,25.1-0.4,49l-0.9-0.4
	c0-0.4-0.2-0.7-0.2-0.7c0-2.5,1.1-2.8,0-4.1c-0.2-0.4-0.7-0.5-1.2-0.7C163.3,569.6,163.6,549,163.8,548.6L163.8,548.6z M159.4,547.6
	c0.4-1.4,1.8-0.4,1.8,0.2s-0.2,22.3-0.4,44.5c-0.5,0.2-1.2,0.2-2,0.4C159,579.6,159.2,564.5,159.4,547.6L159.4,547.6z M159,593.3
	h0.4c0,0,2.3-0.7,3-0.2c0.9,0.7,0.5,3.7,0.5,4.8v1.1c0,0.2,0.2,0.4,0.2,0.7c0.4,0.9,1.2,1.2,1.2,1.6c-0.5-0.2-0.9-0.4-1.4-0.4
	c-0.7-0.2-1.4-0.4-2-0.4c-0.7-0.2-1.2-0.2-2-0.2h-1.6c-1.4,0.2-2.7,0.4-3.6,0.9c-0.4,0.2-0.7,0.4-1.1,0.7c0,0-0.2,0-0.2,0.2
	c-0.4,0.2-0.5,0.5-0.9,0.9c-0.5,0.7-0.9,1.6-1.2,2.5c-0.2-0.9-1.2-2-1.2-2.7c0-2.8,1.8-4.8,3-5.9c0.4-0.4,0.9-0.7,1.2-0.9
	c0.2-0.2,0.4-0.2,0.4-0.2l0.9-0.5c0.2,0,0.4-0.2,0.4-0.2c0.4-0.2,0.5-0.4,0.9-0.4c0.2,0,0.2,0,0.4-0.2
	C157.6,593.7,158.5,593.5,159,593.3L159,593.3z M164.5,602.8l0.4,0.2v6.4c-0.9,0-1.4,0.2-2.1,0.4c0-2.5,0-5,0.2-7.7
	c0.4,0.2,0.7,0.4,1.2,0.5L164.5,602.8L164.5,602.8z M160.8,601.5v9.1l-0.4,0.2c-0.4,0.2-0.9,0.4-1.4,0.5v-10.1L160.8,601.5z
	 M157.4,601.3v10.5c-0.4,0-0.5,0.2-0.7,0.2c-2.7,0.2-4.3-0.9-4.6-1.6c-0.2-0.4-0.4-0.7-0.7-1.2c-0.2-0.5-0.4-1.6-0.4-1.6
	c0-1.4,0.7-2.3,2.1-3.9C154.2,602.4,155.6,601.5,157.4,601.3z M119.5,552.7c0.5-5,13.9-6.8,16.2-6.2c2.1,0.5,5.9,1.2,7.5,1.4
	c0,0,7.5,1.8,14.2-0.7v45.4c-1.2,0.4-4.1,1.1-6.1,2.7c-2.1,1.8-3.6,3.9-3.6,6.8c0,2,0.7,3.7,1.6,6.2c0.5,1.4,0.9,3,1.1,3
	c1.2,2,0.9,3.7,1.2,5.5c0.5,2.8,2.3,3.4,3,3.6l2.5,0.5v3.4h-0.5c-4.5-0.4-6.1-1.1-8.7-2.3l-3-1.8c-5.3-2.5-12.5-2.3-16-0.7
	c-2,0.7-3,1.4-4.1,2.7l-0.2,0.7l0.2,0.5c0.4,1.1,1.2,2.1,1.6,3c0.4,0.7,0.2,2.5,0.2,3c0,1.4-1.2,2.8-1.6,3.2h0.2
	c-1.2,0.7-1.8,2.3-2,4.5c-1.4,0.7-2.5,1.2-3.6,2C119.5,638.9,118.9,552.9,119.5,552.7L119.5,552.7z M133.2,640
	c0.2,0.5,0.5,1.1,1.1,1.4c0.4,0.5,0.9,0.9,1.6,1.2c0.5,0.4,1.2,0.9,2,1.2l0.9,0.5c0.5,0.2,0.9,0.5,1.4,0.9c-0.5,0-0.9,0-1.4,0.2
	l-2.1,0.2c-0.5,0-0.9,0-1.2,0.2c-1.2,0.2-2.3,0.2-4.1-0.2c-0.5,0-1.1-0.2-1.8-0.4c-1.1-0.2-1.8-0.7-2.5-1.4s-1.4-1.6-1.8-2.5
	c-0.4-0.7-0.5-1.1-0.5-1.6l-0.2-1.4c0-0.7,0.2-1.4,0.2-2c0.2-0.5,0.2-0.9,0.5-1.2V635c0.2-0.4,0.5-0.5,0.7-0.7l0.4-0.2
	c0.5-0.2,0.9-0.2,1.4-0.2h1.8l1.6,0.2h0.2l2.3,0.5l-0.4,0.9c-0.2,0.4-0.4,0.9-0.4,1.2c-0.2,0.4-0.2,0.9-0.2,1.2
	C132.7,638.7,132.8,639.4,133.2,640L133.2,640z M133.9,637.7c0-0.7,0.4-1.6,0.7-2.5c0.4,0,0.5,0,0.9-0.2c1.8,0.5,3.6,1.1,5.3,1.8
	L133.9,637.7z M147.4,638.9c2.3,0.7,4.8,1.1,7.5,1.4c-5.9,0.2-13,0.5-19.1,0.9c-0.7-0.5-1.1-0.9-1.4-1.4
	C138.7,639.4,143.3,639.3,147.4,638.9z M136.2,647.4c0,0.9-0.2,1.6-0.9,2.1c-3.9,3.2-7.1,3.9-14.6,2.8l-2.1-0.4v-4.3
	c2,0,4.1-0.5,6.2-2.1c0.2,0,0.9-0.2,1.8-0.2c0.7,0.5,1.6,0.9,2.7,1.1C133.2,647.6,133.7,647.6,136.2,647.4L136.2,647.4z
	 M123.2,640.3l-1.6-0.7l1.6-0.7C123,639.4,123,640,123.2,640.3z M118.6,640.5c3.6,0.2,5.5,3.6,5.2,3.9c-2.5,2.8-7.8,3-10.1,0.2
	C113.2,644.1,115.6,640.7,118.6,640.5L118.6,640.5z M113.2,642.1c0.7,0.2-0.7,0.7-0.7,0.7c-1.6-0.4-4.8-0.5-8.5-0.9l-0.2-0.4
	c0-0.2-0.2-0.4-0.2-0.7C107.9,641.2,111.5,641.6,113.2,642.1z M102.9,638.7c-0.2-0.7-0.5-1.2-1.1-2c4.6,0.7,11.9,2,13.5,3.2
	c-0.9,0.4,0.2-0.2-1.2,0.9C112.9,640,108.4,639.4,102.9,638.7L102.9,638.7z M110.4,643.5c0.5,0,1.8,0,1.2,1.1c0-0.2-2.5-0.2-6.4-0.2
	l-0.5-1.1C107.6,643.4,109.5,643.4,110.4,643.5z M111.8,645.8c2,0.7,3.2,1.4,5.2,1.8v3.9c-1.4-0.5-2.8-1.1-4.3-2c0,0-1.8-0.9-4.1-2
	c-1.1-0.5-2-1.2-2.7-2.1C109.2,645.5,111.1,645.7,111.8,645.8z M78,548.4c0-0.7,0-0.9,1.1-0.9c14.2,0.2,36.3-5.2,38.5,5.2
	c0,0.4,0.5,66.1,0.2,86.4c-4.8-2-8.5-2.7-16.7-3.7l-1.4-2c-1.6-2.3-2-3.2-3.2-4.1l-3-2.8c-1.6-1.2-3.6-3.2-3.9-3.6
	c-4.5-3-8.4-4.5-11.6-5.2C78.2,576.8,77.6,553.1,78,548.4z M75.3,549.7c0-2.1,1.2-2.1,1.1-0.5c0.2,2.3,0,24.9-0.5,68.2
	c-0.5-0.2-1.1-0.2-1.6-0.2C74.6,592.1,75.3,552.9,75.3,549.7z M71.2,549.2c-0.2-1.1,1.1-1.6,1.2-0.2c0.2,0.5-0.4,41.7-0.5,68.2
	l-1.6,0.2C70.3,590.5,71,549.5,71.2,549.2z M66.6,548.6c0.2-1.4,2.1-0.7,2.1,0.9c-0.2,28.7-0.5,52.2-0.7,68.4l-0.5,0.2h-1.1
	L66.6,548.6z M60.7,643.9c-1.1,0.9-2.1,1.2-3.6,1.1c-0.9,0-2.7-2.1-3.6-4.3c-0.4-0.9-0.4-2-0.2-3.6c0-0.5,0-0.9,0.2-1.2
	c0.2-0.5,0.5-1.1,0.9-1.4c0.5,0.7,1.6,1.4,2.7,2l2.1,1.2c1.2,0.9,3,1.4,4.3,1.6C63,640.7,62.3,642.6,60.7,643.9L60.7,643.9z
	 M63.2,637.7c-0.4,0-1.8,0.2-3.9-0.9l-2-1.1c-1.1-1.4-1.6-2.1-1.6-2.5c0,0,0-0.2,0.2-0.2c1.1-0.9,5.3-0.9,8-0.5v5
	C63.7,637.7,63.4,637.7,63.2,637.7z M66.6,644.2c-0.2-0.7-0.4-5-0.2-5.9v-5.7c0.5,0,1.1,0,1.6,0.2c0,6.6,0.2,10.1,0.7,10.3
	c0.4,0.2,6.9,0.2,15,0.2v0.2c0,0,0.4,0.5,0.5,0.7l0.2,0.5C75,644.6,66.8,644.4,66.6,644.2z M81,639.6c0.2,0.4,0.5,0.7,0.9,1.2
	c-6.4-0.2-11.2-0.5-11.4-0.7c-0.2-0.2-0.2-2.8-0.4-7.1l1.6,0.4c0,3.4,0.2,5.5,0.2,5.7C72.5,639.3,76,639.4,81,639.6L81,639.6z
	 M74.1,634.3c0.5,0.2,1.1,0.5,1.8,0.9c0,0,0,0.2,0.2,0c1.1,0.5,2.1,1.4,3.2,2.3c-3,0-5.2,0-5,0.2C73.9,637.3,74.1,636.1,74.1,634.3z
	 M146,652.3c0,0.5,0,1.1-0.2,1.6v0.4c-0.2,0.5-0.2,1.1-0.4,1.8l-0.5,1.6c0,0.2,0,0.2-0.2,0.4c-0.2,0.5-0.4,1.1-0.7,1.6
	c-0.4,0.5-0.5,1.1-0.9,1.4c-1.4,2-3.4,3.2-8.4,5.5c-1.4,0.5-2.8,0.9-4.1,1.2l-0.7,0.2c-1.1,0.4-2.3,0.5-3.4,0.7h-0.5
	c-1.2,0.2-2.3,0.4-3.6,0.4h-0.2c-1.2,0-2.5,0.2-3.6,0c-1.2,0-2.3-0.2-3.4-0.2h-0.5c-0.5,0-1.2-0.2-1.8-0.4l-1.1-0.2l-1.2-0.4
	l-2.1-0.7c-6.6-3-11-5.2-13-7.8l-1.6-2.5l-1.1-1.6c-0.5-1.1-1.1-2-1.8-3l-1.1-1.2l-0.9-1.6c-0.5-1.1-1.2-2.3-2-3.4
	c-0.2-0.4-0.5-0.7-0.7-1.2c0-0.2-0.9-1.8-0.9-1.8v-0.2l-0.5-0.7c-0.4-0.5-0.5-0.9-0.9-1.2c-0.4-0.5-0.5-0.9-0.9-1.2
	c-0.5-0.9-1.1-1.6-1.4-1.8c-0.2-0.2-0.4-0.4-0.5-0.4c-0.4-0.4-0.7-0.7-1.2-1.1c-0.5-0.4-1.2-0.9-2.1-1.2c-0.7-0.4-1.6-0.9-2.5-1.2
	l-1.6-0.7l-2.1-0.9l-1.6-0.5c-0.9-0.2-1.6-0.5-2.3-0.5l-1.6-0.4c-0.7,0-1.2-0.2-1.8-0.2h-0.5c-3.4,0.2-3.9-0.2-5-0.2h-0.7
	c-0.2,0-0.5,0-0.9,0.2l0.5-1.2c0.4-1.1,0.2-2.7,0.4-4.1c0.2-1.6,0.7-3.7,1.6-4.5c0.2-0.2,0.5-0.5,0.9-0.5c0.2,0,0.2,0,0.4-0.2
	L62,620h2.8l1.4-0.2h0.4l1.2-0.4c1.2-0.4,2.5-0.5,3.7-0.7c0.7-0.2,1.6-0.2,2.3-0.2c1.1,0,2.3,0,3.4,0.4l2.1,0.5c0.2,0,0.2,0,0.4,0.2
	c0.7,0.2,1.4,0.5,2.1,0.9c0.2,0,0.4,0.2,0.4,0.2c0.7,0.4,1.6,0.9,2.3,1.4l0.4,0.2c0.9,0.5,1.8,1.2,2.7,2h0.2c0.2,0.2,1.4,1.1,2.5,2
	l4.1,3.2c0.9,0.7,2.5,3.2,3.9,5.2l1.1,1.6c0.9,1.2,1.6,3,2.1,4.6c0,0.2,0.2,0.4,0.2,0.7c0.2,0.5,0.4,1.1,0.7,1.6l0.5,1.1l0.7,1.2
	l0.7,1.1l0.7,0.9c0,0,0,0.2,0.2,0.2c0.2,0.2,0.5,0.5,0.9,0.7l0.2,0.2l1.1,0.7l2.3,1.2c0.9,0.5,2,1.1,3,1.6c0,0,0.2,0,0.2,0.2
	c1.1,0.5,2.3,0.9,3.6,1.2l1.6,0.4c0.2,0,0.4,0,0.4,0.2c8.2,1.1,15,0,17.6-2.8c0.9-1.1,1.4-2.3,1.2-3.6h0.5c2.7-0.2,3.6-0.4,5.2,0.9
	C144.8,649.6,146,650.7,146,652.3L146,652.3z M168.6,645c-0.7-0.2-15.7-0.7-27.6-0.9c-0.7-0.4-1.6-0.9-2.5-1.2
	c11.8,0.2,24.4,0.2,28.3,0c0-0.2,0.2-1.1,0.2-2.5l2-0.4C168.8,642.5,168.8,644.2,168.6,645L168.6,645z M180.7,617.7
	c1.1,1.4,2,3.2,2.1,5.2c0.7,3.9,0.5,7.3-2.7,10.1l-1.2,1.1l-0.7,0.5c-0.2,0.2-0.4,0.2-0.4,0.4l-0.7,0.5l-0.4,0.2l-0.7,0.5l-0.4,0.2
	c-0.2,0.2-0.5,0.4-0.7,0.4l-0.4,0.2l-0.9,0.4c-0.2,0-0.2,0-0.4,0.2l-1.1,0.4H172l-1.2,0.4l-1.6,0.2l-2.3,0.4
	c-0.9,0.2-1.6,0.2-2.5,0.2c-1.1,0.2-2.1,0.2-3.2,0.2h-3.4c-1.1,0-2-0.2-2.8-0.2h-0.2c-5-0.5-9.4-1.8-12.8-3.4l-2.5-1.1l-2.1-0.9
	c-1.8-0.7-3.4-1.2-5.2-1.6h-0.4l-2-0.4h-0.5c-0.7,0-1.4-0.2-2,0c0.4-1.1,0.7-2.5,0.7-3.6v-0.7c-0.2-0.7-0.5-1.6-0.9-2.5
	c-0.4-0.7-0.5-1.2-0.9-2.1c0.7-0.9,1.1-1.6,2.5-2.1c2.8-1.1,9.1-1.8,14.1,0.5l3.7,1.6c2.7,1.2,4.8,2.5,9.6,2.8l2.7,0.2
	c0.5,0,1.1,0,1.6,0.2h4.1c0.9,0,1.8,0,2.5-0.2c0.7,0,1.4-0.2,2-0.2c0.7,0,1.2-0.2,1.8-0.2c0.9-0.2,1.6-0.4,2.3-0.5
	c0.2,0,0.2,0,0.4-0.2c0.7-0.2,1.2-0.4,1.8-0.5C180,622.5,180.7,619.5,180.7,617.7L180.7,617.7z M158.8,621.6c0.5,0,1.2,0.2,1.8,0
	v3.4c-0.5,0-1.1,0-1.8-0.2V621.6z M162.6,625v-3.9h0.2c0.5-0.2,1.2-0.5,2-1.1v5C164,625.2,163.3,625,162.6,625L162.6,625z
	 M167,625.2v-6.8l2.1-1.8c0,2.8,0,5.7-0.2,8.4C168.4,625,167.9,625.2,167,625.2L167,625.2z M178.8,617.2c0.2,1.1,0.5,4.6-4.1,6.2
	l-3.7,1.2v-9.4c1.6-1.1,3.6-1.2,7.7,1.6C178.8,616.8,178.8,617,178.8,617.2L178.8,617.2z M178.1,614l-2.1-0.4h-2.1
	c-0.5,0-0.9,0-1.4,0.2c-0.5,0-0.9,0.2-1.2,0.4c-0.7,0.2-1.2,0.5-1.8,0.9c-0.7,0.4-1.2,0.9-2,1.6c-0.2,0-0.2,0.2-0.2,0.2
	c-0.9,0.9-1.6,1.2-2.3,1.6s-1.2,0.5-2,0.7h-0.2l-0.5,0.2l-1.4,0.5c-1.1,0.4-2.3,0.5-3.4,0.4c-0.4,0-0.7-0.2-1.2-0.4
	c-2-0.9-3-2.7-3.2-3.4c-0.2-1.2,0.2-1.4-0.2-3.4c0.5,0.2,1.2,0.4,2,0.4h3c0.4,0,0.7-0.2,1.1-0.4l1.6-0.7h0.2
	c0.7-0.5,1.6-0.9,2.7-1.2c0.4-0.2,0.9-0.2,1.4-0.4h3.9c1.1,0,2.3-0.2,3.7,0.2c0.2,0,0.4,0,0.7,0.2c0.2,0,0.4,0,0.5,0.2l0.7,0.2
	c0.2,0,0.2,0,0.4,0.2l1.1,0.5l0.4,0.2l0.9,0.5l0.4,0.2C177.4,613.3,177.7,613.6,178.1,614L178.1,614z M167.2,609.5v-5.3
	c0.7,0.4,1.6,0.7,2.3,0.9v4.6L167.2,609.5z M177,611.7c-3-2.1-4.3-2.1-5.9-2v-4.1c0.7,0.2,1.2,0.2,2,0.2
	C174.5,607.9,175.9,609.9,177,611.7L177,611.7z M188.6,589c-0.4,2-0.7,3.6-1.1,4.8c-0.2,0.4-0.4,0.9-0.4,1.2l-0.4,0.7
	c-1.4,3.6-3,6.4-8.5,8.2c-0.7,0.2-1.4,0.4-2,0.4h-1.8c-0.7,0-1.4-0.2-2.1-0.4l-0.9-0.2l-1.1-0.2l-0.5-0.2c-2.3-0.7-4.1-2-4.6-3.2
	v-0.2l-0.2-0.5v-0.2c0.7,0.2,1.6,0.4,2.7,0.4c0.7,0,1.4,0,2.3-0.2c0.5,0,1.2-0.2,1.8-0.4l0.4-0.2c1.8-0.5,3.7-1.4,4.8-4.8
	c0.5-1.6,0.7-6.8,0.9-9.6c1.6,3.6,2.5,9.8,2.5,10.5l0.4,2c0,0,0.7-0.7,1.2-1.6c1.6-2.1,2.7-3.7,3.7-5c0.4-0.5,0.7-0.9,0.9-1.2
	l1.2-1.4h0.2l1.2-1.1C188.7,587.4,188.7,588.3,188.6,589L188.6,589z M62.1,543.1c-0.9,0.5-1.4-0.4-0.4-0.9
	c2.1-1.2,36.1-16.6,38.8-17.8c1.6-0.7,2.5,0.4,0.9,1.2C101.3,525.7,64.3,542,62.1,543.1z M100.8,521.7c0,0,0.5,0.5-0.2,0.7
	c-0.9,0.4-11.6,0.9-12.3,0.9c-0.4,0-3.2,0.2-3.9,0.2c-2-0.2-0.5-0.7,0.4-0.7C88.1,522.1,99.7,521.2,100.8,521.7z M172.7,542.9
	c0.9,0.5,1.4-0.4,0.4-0.9c-2.1-1.2-36.1-16.6-38.8-17.8c-1.6-0.7-2.5,0.4-0.9,1.1C133.4,525.5,170.6,541.9,172.7,542.9L172.7,542.9z
	 M135.2,521.7c0,0-0.5,0.5,0.2,0.7c0.9,0.2,11.4,0.7,11.9,0.7c0.4,0,3,0.2,3.9,0.2c2-0.2,0.5-0.5-0.4-0.7
	C149.8,522.3,136.6,521,135.2,521.7L135.2,521.7z M99.5,681.6l-0.2,0.4c-0.4,0-0.5,0-0.7,0.5L95.8,693c-0.2,0.5,0,0.7,0.4,0.7
	l-0.2,0.4l-4.1-1.1v-0.4c0.5,0.2,0.7,0,0.9-0.4l2.1-7.8c-0.4,0-1.2,0-1.6,0.4l-0.4-0.2l0.7-3l0.4,0.2c0,0.4,0.2,0.4,0.5,0.5
	c0.5,0.2,0.9-0.2,1.1-0.7c0-0.4,0-0.5-0.4-0.5v-0.4L99.5,681.6L99.5,681.6z M105.2,688.6c-1.2-0.5-2-1.8-2-2.8
	c0.2-1.8,2.3-3.2,5.9-2.8c3.9,0.4,5.7,2,5.5,3.7c-0.2,1.1-1.1,2.3-2.5,2.5c1.6,0.7,2.5,2,2.3,3.4c-0.2,2.1-2.5,3.6-6.4,3.2
	c-3.9-0.4-6.1-2.3-5.9-4.3C102.6,690,103.6,688.9,105.2,688.6L105.2,688.6z M108.4,693.7c1.6,0.2,3.2-0.4,3.4-1.8
	c0.2-1.2-1.2-2.1-3-2.3c-1.6-0.2-3.2,0.4-3.4,1.8C105.2,692.9,106.7,693.6,108.4,693.7z M109,688c2,0.2,2.8-0.4,2.8-1.4
	c0-1.1-0.7-1.8-2.7-2c-2-0.2-2.8,0.4-2.8,1.4C106.3,687,107,687.9,109,688z M125.9,686.4l-0.4-0.2c0-0.7-1.2-1.4-2.8-1.2
	c-2.3,0.2-3.6,2.1-3.4,4.3c0.9-0.9,2.3-1.8,3.7-1.8c2.8-0.2,5.2,1.1,5.3,4.3c0.2,2.1-1.8,4.3-5.3,4.5c-4.3,0.2-6.2-2.5-6.4-5.7
	c-0.2-3.9,1.8-7.1,6.2-7.5c2.1-0.2,3.7,0.7,4.3,0.7c0.2,0,0.4,0,0.4-0.2l0.2,0.2L125.9,686.4L125.9,686.4z M125.4,691.8
	c0-1.2-1.4-2.3-3-2.1c-1.6,0-2.8,1.2-2.7,2.5c0,1.4,1.4,2.3,3,2.1C124.3,694.1,125.4,693,125.4,691.8z M132.1,687.9
	c-1.2,0-2.5-0.9-2.8-2c-0.5-1.8,0.9-3.7,4.5-4.8c3.7-1.1,6.1-0.2,6.6,1.6c0.4,1.1-0.2,2.5-1.4,3.2c1.8,0,3,0.9,3.4,2.3
	c0.5,2.1-1.1,4.3-4.8,5.3c-3.9,1.1-6.6,0-7.1-2C130.2,690.4,130.7,688.9,132.1,687.9L132.1,687.9z M135.3,686.1
	c1.8-0.5,2.5-1.4,2.1-2.3c-0.4-0.9-1.2-1.4-3-0.9c-1.8,0.5-2.5,1.4-2.1,2.3C132.5,686.3,133.5,686.6,135.3,686.1z M136.9,691.8
	c1.6-0.5,2.8-1.6,2.5-2.8s-2-1.4-3.6-1.1c-1.6,0.5-2.8,1.6-2.5,2.8S135.3,692.1,136.9,691.8z M73.4,627.7l3.4,1.2
	c0.2,0,0.2,0,0.4-0.4h0.2l-1.1,2.7H76v-0.5l-5.2-2v-0.2c0.4,0,0.4,0,0.4-0.2l2.7-7.3c0-0.2,0-0.2-0.2-0.4v-0.2l2.1,0.7v0.2
	c-0.2,0-0.4,0-0.4,0.2L73.4,627.7L73.4,627.7z M83.2,631.1c0-0.2,0-0.4-0.2-0.5l-1.8-1.1l-0.7,1.2l3,1.8c0.2,0,0.2,0,0.4-0.4H84
	l-1.4,2.5h-0.2c0.2-0.2,0.2-0.4,0-0.4l-4.6-2.7l0.2-0.2c0.2,0.2,0.4,0,0.4-0.2l3.9-6.6c0-0.2,0.2-0.2-0.2-0.4l0.2-0.2l4.6,2.7
	c0.2,0,0.2,0,0.4-0.4h0.2l-1.4,2.5h-0.2c0.2-0.4,0.2-0.4,0-0.5l-3-1.8l-0.7,1.2l1.8,1.1c0.2,0.2,0.4,0,0.5-0.2h0.2L83.2,631.1
	L83.2,631.1z M85.1,636.6c0.4,0,0.5,0,0.5-0.2l4.3-4.5l-1.2-1.2c0,0-0.2,0-0.5,0.2H88l2-2.1h0.2c-0.2,0.4-0.2,0.4-0.2,0.5l3.7,3.7
	c0,0,0.2,0,0.5-0.2l0.2,0.2l-2.1,2c0.2-0.4,0.4-0.4,0.2-0.5l-1.4-1.2l-4.3,4.5c-0.2,0.2-0.2,0.2,0,0.4l-0.2,0.2
	C86.5,638.2,85.1,636.6,85.1,636.6z M91.2,645.1c0.4,0.2,0.4,0.2,0.5,0l5.7-2.5l-0.7-1.6c0-0.2-0.2-0.2-0.5,0v-0.2l2.7-1.2v0.2
	c-0.4,0.2-0.4,0.2-0.4,0.4l2.1,4.8c0,0.2,0.2,0.2,0.5,0v0.2l-2.7,1.2v-0.2c0.4-0.2,0.4-0.4,0.4-0.4l-0.9-1.8l-5.7,2.5
	c-0.2,0-0.2,0.2-0.2,0.4h-0.2L91.2,645.1L91.2,645.1z M97.6,656.5c-0.2,0-0.2,0.2,0,0.4l-0.2,0.2l-1.2-1.8l0.2-0.2
	c0.2,0.2,0.4,0.2,0.4,0l2.5-1.8l-1.6-2.3l-2.5,1.8c-0.2,0-0.2,0.2,0,0.4l-0.2,0.2l-1.2-1.8l0.2-0.2c0.2,0.2,0.4,0.2,0.4,0l6.2-4.5
	c0.2,0,0.2-0.2,0-0.4l0.2-0.2l1.2,1.8l-0.2,0.2c-0.2-0.2-0.4-0.2-0.4,0l-2.1,1.6l1.6,2.3l2.1-1.6c0.2,0,0.2-0.2,0-0.4l0.2-0.2
	l1.2,1.8l-0.2,0.2c-0.2-0.2-0.4-0.2-0.4,0L97.6,656.5z M105.1,659c0-0.2,0-0.4-0.2-0.5l-1.6-1.2l-0.9,1.2l2.8,2c0.2,0,0.2,0,0.5-0.4
	h0.2l-1.6,2.3h-0.2c0.2-0.2,0.2-0.4,0-0.4l-4.3-3.2l0.2-0.2c0.2,0.2,0.4,0,0.4,0l4.5-6.2c0-0.2,0.2-0.2,0-0.4l0.2-0.2l4.3,3.2
	c0.2,0,0.2,0,0.4-0.2h0.2l-1.8,2.3h-0.2c0.2-0.4,0.2-0.4,0.2-0.5l-2.8-2l-0.9,1.1l1.6,1.2c0.2,0.2,0.4,0,0.5-0.2h0.2L105.1,659
	L105.1,659z M108.8,663.8c0,0.2,0,0.2,0.2,0.4v0.2l-2.1-0.7v-0.2c0.4,0,0.4,0,0.4-0.2l2.3-7.3c0-0.2,0-0.2-0.2-0.4v-0.2l3.7,1.2
	c1.4,0.5,2,1.6,1.2,3.4c-0.5,1.4-1.2,2-2.3,2.1l0.4,3c0,0.2,0,0.4,0.2,0.4v0.2l-2.1-0.7v-0.2c0.2,0,0.2,0,0.4-0.2
	c0-0.2-0.4-2.7-0.4-3l-1.1-0.4L108.8,663.8z M110.2,659.6l1.8,0.5c0.5,0.2,0.9-0.2,1.1-0.5c0.2-0.5,0.2-0.9-0.5-1.1l-1.8-0.5
	L110.2,659.6z M120.4,663.3c-0.2-0.2-0.2-0.4-0.4-0.4l-2-0.2l-0.2,1.6l3.4,0.2c0.2,0,0.2,0,0.2-0.5h0.2l-0.2,2.8h-0.2
	c0-0.4,0-0.4-0.2-0.4l-5.3-0.4V666c0.2,0,0.4-0.2,0.4-0.4l0.5-7.7c0-0.2,0-0.4-0.4-0.4v-0.2l5.3,0.4c0.2,0,0.2,0,0.2-0.5h0.2
	l-0.2,2.8h-0.2c0-0.4,0-0.5-0.2-0.5l-3.4-0.2l-0.2,1.4l2,0.2c0.2,0,0.4-0.2,0.4-0.4h0.2L120.4,663.3L120.4,663.3z M126.1,657.8
	c0-0.2-0.2-0.2-0.4-0.2v-0.2l3.9-1.2c1.1-0.4,2.1,0,2.7,1.6c0.4,0.9,0,1.6-0.5,2c0.7,0,1.4,0.5,1.8,1.6c0.4,1.2,0.2,2.5-1.4,3
	l-3.9,1.2v-0.2c0.2-0.2,0.2-0.2,0.2-0.4L126.1,657.8L126.1,657.8z M128.6,659.9l1.4-0.4c0.9-0.2,1.1-0.4,0.9-1.1
	c-0.2-0.7-0.5-0.7-1.2-0.4l-1.4,0.4L128.6,659.9L128.6,659.9z M129.6,663.5l1.8-0.5c0.7-0.2,0.9-0.5,0.7-1.2
	c-0.2-0.7-0.5-0.9-1.2-0.7l-1.8,0.5L129.6,663.5L129.6,663.5z M139.2,658c-0.2-0.2-0.4-0.2-0.5-0.2l-1.8,0.9l0.7,1.4l3-1.6
	c0.2,0,0.2-0.2,0-0.5h0.2l1.2,2.5h-0.2c-0.2-0.2-0.2-0.4-0.4-0.2l-4.8,2.5l-0.2-0.2c0.2-0.2,0.2-0.2,0.2-0.4l-3.6-6.9
	c0-0.2-0.2-0.2-0.4-0.2l-0.2-0.2l4.8-2.5c0.2,0,0.2-0.2,0-0.5h0.2l1.2,2.5h-0.2c-0.2-0.4-0.4-0.4-0.4-0.4l-3,2l0.7,1.2l1.8-0.9
	c0.2-0.2,0.2-0.4,0.2-0.5h0.2L139.2,658z M136.2,629.5l3.6,0.9c0.2,0,0.2,0,0.4-0.4h0.2l-0.7,2.8h-0.2v-0.5l-5.5-1.4v-0.2
	c0.4,0,0.4,0,0.4-0.2l1.8-7.5c0-0.2,0-0.2-0.2-0.4v-0.2l2.1,0.5v0.2c-0.2,0-0.4,0-0.4,0.2L136.2,629.5L136.2,629.5z M141.2,633v-0.2
	c0.2,0,0.4,0,0.4-0.2l2.8-7.1c0-0.2,0-0.2-0.2-0.4V625l2,0.9v0.2c-0.2,0-0.4,0-0.4,0.2l-2.8,7.1c0,0.2,0,0.2,0.2,0.4v0.2L141.2,633z
	 M151.9,633.4l-1.2-0.4c-0.2,0-0.2,0-0.2,0.4h-0.2l0.5-2.3h0.2v0.4l3,0.9v0.2c-0.2,0-0.2,0-0.2,0.2l-0.7,2.5v0.5
	c-1.1,0.5-2.3,0.7-3.7,0.4c-1.8-0.5-3-2.3-2.1-5.2c0.7-2.8,2.8-3.9,4.5-3.4c0.7,0.2,0.9,0.4,1.6,0.9c0.4,0.2,0.5,0.5,0.7,0.7
	c0,0,0.2,0,0.2-0.2l0.2,0.2l-1.2,1.8l-0.2-0.2v-0.2c0-0.4-0.9-1.1-1.6-1.2c-1.1-0.2-2.1,0.4-2.5,2c-0.5,1.8,0.4,2.8,1.2,3
	c0.5,0.2,1.1,0.2,1.6,0L151.9,633.4L151.9,633.4z M162.4,637.3c0,0.2,0,0.2,0.4,0.4v0.2l-2.1-0.2v-0.2c0.4,0,0.4-0.2,0.4-0.4l0.2-3
	l-2.8-0.2l-0.2,3c0,0.2,0,0.2,0.4,0.4v0.2l-2.1-0.2v-0.2c0.4,0,0.4-0.2,0.4-0.4l0.5-7.7c0-0.2,0-0.2-0.4-0.4v-0.2l2.1,0.2v0.2
	c-0.2,0-0.4,0.2-0.4,0.4l-0.2,2.7l2.8,0.2l0.2-2.7c0-0.2,0-0.4-0.4-0.4v-0.2l2.1,0.2v0.2c-0.4,0-0.4,0.2-0.4,0.4L162.4,637.3z
	 M167.9,637.1v-0.2c0.2,0,0.4-0.2,0.2-0.4l-0.9-6.1l-1.8,0.4c-0.2,0-0.2,0.2-0.2,0.5h-0.2l-0.5-2.8h0.2c0.2,0.4,0.2,0.4,0.4,0.4
	l5.2-0.9c0.2,0,0.2-0.2,0.2-0.5h0.2l0.5,2.8h-0.2l-0.2-0.4l-1.8,0.4l0.9,6.1c0,0.2,0,0.2,0.4,0.2v0.2L167.9,637.1L167.9,637.1z
	 M59.7,658.3l-0.2,0.2c-0.4-0.2-0.5-0.2-0.9,0l-6.8,6.9l2.5,2.5c0.5,0.5,0.7,0.5,1.1,0.4l0.4,0.4l-2.1,2.1l-0.2-0.2
	c0.2-0.4,0-0.5-0.4-1.1l-7.3-6.9c-0.5-0.5-0.7-0.5-1.1-0.4l-0.4-0.4l2.1-2.1l0.4,0.4c-0.4,0.4-0.2,0.5,0.4,1.1l2.5,2.5l6.8-6.9
	c0.4-0.4,0.4-0.5,0-0.9l0.2-0.2L59.7,658.3z M44.3,650.3l3.9-2.8c0.4-0.2,0.4-0.5,0-1.1l0.4-0.2l2.7,3.7l-0.4,0.2
	c-0.4-0.5-0.5-0.5-0.9-0.4l-8.9,6.2c-0.4,0.2-0.4,0.4,0,1.1l-0.4,0.2l-2.5-3.7l0.4-0.2c0.4,0.5,0.5,0.5,0.9,0.4l3.4-2.3l-3.7-5.2
	l-3.4,2.3c-0.4,0.2-0.4,0.5,0,1.1l-0.4,0.2l-2.7-3.7l0.4-0.2c0.4,0.5,0.5,0.5,0.9,0.4l8.9-6.2c0.4-0.2,0.4-0.5,0-1.1l0.4-0.2
	l2.7,3.7l-0.4,0.2c-0.4-0.5-0.5-0.5-0.9-0.4l-3.9,2.8L44.3,650.3z M37.9,632.8l-2.8-6.2c-0.4-0.7-0.4-0.9-0.9-0.7l-0.2-0.4l2.7-1.2
	l0.2,0.4c-0.4,0.2-0.4,0.5,0,1.1l4.5,9.8l-0.4,0.2c-0.4-0.7-0.5-0.7-0.9-0.5l-9.8,4.3c-0.4,0.2-0.5,0.4-0.2,1.2l-0.4,0.2l-4.3-9.4
	c-0.4-0.7-0.4-0.9-0.9-0.7l-0.2-0.4l2.7-1.2l0.2,0.4c-0.2,0.2-0.2,0.5,0,1.1l2.7,5.9l2.8-1.2l-1.6-3.6c-0.4-0.5-0.5-0.9-0.9-0.7
	l-0.2-0.4l2.7-1.2l0.2,0.4c-0.2,0.2-0.2,0.5,0,1.1l1.6,3.4C34.5,634.1,37.9,632.8,37.9,632.8z M18.7,600.4h0.4
	c0.2,0.5,0.2,0.7,0.7,0.7l7.1-0.2c1.6,0,2.7-1.2,2.7-3.4s-1.2-3.2-2.8-3.2l-7.1,0.2c-0.4,0-0.5,0.2-0.5,0.7h-0.4l-0.2-4.3h0.4
	c0.2,0.5,0.2,0.7,0.7,0.7l7.1-0.2c2.8-0.2,4.8,1.6,5,6.1c0.2,4.5-1.6,6.2-4.6,6.4l-7.1,0.2c-0.4,0-0.5,0.2-0.5,0.9h-0.4
	C19.1,605.1,18.7,600.4,18.7,600.4z M31.3,586.7H31c0-0.5-0.2-0.7-0.5-0.7l-10.7-1.6c-0.4,0-0.5,0-0.7,0.5h-0.4l0.7-4.8h0.4
	c0,0.4,0,0.5,0.2,0.5c0.4,0,7.7-3.9,8.7-4.1l-7.5-1.2c-0.4,0-0.5,0-0.7,0.5h-0.4l0.7-3.9h0.4c0,0.5,0.2,0.7,0.5,0.7l10.7,1.6
	c0.5,0,0.5,0,0.7-0.4h0.4l-0.9,4.1h-0.4c0-0.4,0-0.5-0.2-0.5c-0.4,0-7.1,3.9-9.4,4.6l8.2,1.2c0.4,0,0.5,0,0.7-0.5h0.4
	C31.9,582.8,31.3,586.7,31.3,586.7z M34.7,569.5l-0.4-0.2c0.2-0.9,0.2-1.1-0.4-1.1l-10.3-3.4c-0.4-0.2-0.5,0-0.9,0.7h-0.2l1.6-4.8
	l0.4,0.2c-0.2,0.9-0.2,1.1,0.4,1.1l10.3,3.4c0.4,0.2,0.5,0,0.9-0.7l0.4,0.2C36.5,564.8,34.7,569.5,34.7,569.5z M39.2,557.7l-0.4-0.2
	c0.2-0.4,0.2-0.7,0-0.9c-0.2-0.2-8.4-0.4-11.6-0.7c-0.5,0-1.1,0-1.2,0.2l-0.4-0.2l1.8-3.7l0.4,0.2c-0.2,0.5-0.2,0.7,0.2,0.7
	c0.4,0.2,6.4,0.4,9.3,0.7c-2.1-2.3-6.1-6.8-6.4-6.9c-0.2,0-0.2,0-0.5,0.5l-0.4-0.2l1.8-3.6l0.4,0.2c-0.2,0.5,0.2,0.7,0.5,1.2
	c2.8,3.2,7.3,8.2,7.8,8.4c0.2,0.2,0.4,0,0.5-0.4l0.4,0.2C41.3,553.3,39.2,557.7,39.2,557.7z M45.8,542.6l4.1-5.5
	c0.4-0.5,0.5-0.7,0.2-1.1l0.2-0.4l2.3,1.8l-0.2,0.4c-0.4-0.2-0.5,0-0.9,0.5l-6.4,8.5l-0.4-0.2c0.4-0.7,0.4-0.9,0-1.1l-8.5-6.6
	c-0.4-0.2-0.5-0.2-1.1,0.5l-0.2-0.2l6.2-8.4c0.4-0.5,0.5-0.7,0.2-1.1l0.2-0.4l2.3,1.8l-0.2,0.4c-0.4-0.2-0.5,0-0.9,0.5l-3.9,5.2
	l2.5,2l2.3-3c0.4-0.5,0.5-0.7,0.2-1.1l0.2-0.4l2.3,1.8l-0.2,0.4c-0.4-0.2-0.5,0-0.9,0.5l-2.3,3C42.9,540.6,45.8,542.6,45.8,542.6z
	 M55.2,534.2L55,534c0.4-0.4,0.4-0.5,0-0.9l-7.3-8c-0.4-0.4-0.5-0.4-0.9,0l-0.2-0.2l5.5-5c2.5-2.1,4.8-2.5,6.2-0.9
	c1.2,1.4,1.2,3,0,5l4.1,1.2c1.2,0.4,1.6,0.5,2.1,0.2l0.2,0.2l-3.2,2.8l-0.4-0.4c0.2-0.2,0.4-0.5,0.2-0.7c0-0.2-0.2-0.2-0.7-0.4
	l-4.5-1.2l-2,1.8l2.8,3.2c0.4,0.4,0.5,0.4,0.9,0l0.2,0.2L55.2,534.2L55.2,534.2z M53.1,526.4l2.5-2.3c1.4-1.2,1.4-2.1,0.7-3
	c-0.7-0.7-1.8-0.7-3,0.5l-2.5,2.3C50.7,523.9,53.1,526.4,53.1,526.4z M67.5,519.2l0.4-0.2v0.2c0.4,0.7,2.8,0,4.3-0.9
	c2.3-1.4,2.7-2.5,2.1-3.6c-1.4-2.3-8.5,4.1-10.9,0.2c-1.1-1.6-0.4-4.1,2.8-6.1c1.4-0.9,2.5-1.2,3.4-1.4c0.9-0.2,1.4-0.2,1.6-0.4
	c0.4-0.2,0.4-0.4,0.4-0.5h0.2v3.7h-0.4c0,0-0.2-0.2-0.2-0.4c-0.4-0.5-1.8-0.5-3.9,0.7c-1.4,0.9-1.6,1.8-1.2,2.5
	c1.2,2.1,8.4-4.3,11,0c1.1,1.8,0.2,4.5-3.7,6.9c-1.2,0.7-2.3,1.1-3.2,1.4c-0.9,0.2-1.4,0.2-1.8,0.5c-0.2,0-0.2,0.4-0.2,0.5h-0.4
	L67.5,519.2L67.5,519.2z M82.4,515.3l-0.2-0.4c0.7-0.4,0.9-0.5,0.7-0.9l-4.1-10c-0.2-0.4-0.4-0.5-1.2-0.2l-0.2-0.4l4.6-1.8l0.2,0.4
	c-0.7,0.4-0.9,0.5-0.7,0.9l4.1,10c0.2,0.4,0.4,0.5,1.2,0.2l0.2,0.4L82.4,515.3z M94.6,511.1v-0.4c0.4-0.2,0.5-0.4,0.4-0.7l-2.3-9.6
	l-3.6,0.9c-0.7,0.2-0.9,0.4-0.9,0.7l-0.4,0.2l-0.7-3l0.4-0.2c0.2,0.4,0.4,0.4,1.1,0.2l9.8-2.5c0.7-0.2,0.9-0.4,0.9-0.7l0.5,0.2
	l0.7,2.8l-0.4,0.2c-0.2-0.5-0.5-0.5-1.1-0.4l-3.6,0.9l2.3,9.4c0.2,0.4,0.4,0.5,0.9,0.4v0.4L94.6,511.1L94.6,511.1z M114.3,507.8
	l-4.5,0.4v-0.4c0.5-0.2,0.7-0.4,0.7-0.7l-0.2-4.3l-5-6.2c-0.2-0.2-0.4-0.4-0.7-0.5v-0.4l4.6-0.4v0.4c-0.5,0-0.7,0.2-0.7,0.4
	c0,0.2,2.1,2.7,3.4,4.1c0.7-1.4,2.7-4.1,2.7-4.6c0-0.2-0.2-0.4-0.7-0.4v-0.4l4.5-0.4v0.4c-0.4,0.2-0.5,0.2-0.7,0.5l-4.1,6.9l0.4,4.3
	c0,0.4,0.2,0.5,0.7,0.5L114.3,507.8z M149.6,500.2c4.3,1.4,5.9,5,4.6,8.5c-1.2,3.4-4.6,5.3-8.9,3.9c-4.3-1.4-5.9-5-4.6-8.5
	C141.7,500.7,145.1,498.8,149.6,500.2z M146,510.7c2.5,0.9,4.5-0.2,5.3-2.8c0.9-2.7,0-4.8-2.5-5.5c-2.5-0.9-4.5,0.2-5.3,2.8
	C142.5,507.8,143.3,509.8,146,510.7z M154.7,516.2l0.2-0.4c0.7,0.4,0.9,0.4,1.1,0l5.2-9.4c0.2-0.4,0.2-0.5-0.5-1.1l0.2-0.4l9.1,5
	c0.5,0.4,0.7,0.4,1.1,0l0.4,0.2l-1.4,2.5l-0.4-0.2c0.2-0.4,0-0.5-0.5-0.9l-5.7-3l-1.6,2.7l3.6,2c0.5,0.4,0.9,0.4,1.1,0l0.4,0.2
	l-1.4,2.5l-0.4-0.2c0-0.4,0-0.5-0.7-0.9l-3.6-2l-2.1,3.9c-0.2,0.4-0.2,0.5,0.5,1.1l-0.2,0.4L154.7,516.2L154.7,516.2z M197.1,536.5
	l-3.6,0.4l-0.2-0.4c0,0,0.2,0,0.2-0.2c0.7-0.5,0.4-2.1-0.7-3.4c-1.8-2.1-3.9-2.7-6.4-0.5c-2,1.6-2.1,4.3-0.5,6.2
	c1.1,1.2,2.7,1.8,3.4,1.2c0,0,0.2-0.4,0.4-0.4l0.4,0.2l-0.4,3.6h-0.4c0-0.2,0-0.4-0.2-0.5c-0.5-0.5-2.3-0.2-4.8-3
	c-2.8-3.4-2.3-7.3,0.4-9.6c3.4-2.8,7.5-1.4,10,1.4c0.9,1.1,1.2,2,1.4,2.7c0.2,0.7,0.2,1.2,0.4,1.4l0.5,0.4L197.1,536.5z
	 M189.5,546.1l0.4-0.2c0.2,0.4,0.5,0.4,0.9,0.4l11.2-1.2c0.5,0,0.7,0,0.9-0.2c0.2,0,0.2-0.2,0-0.7l0.4-0.2l2.3,4.3l-0.4,0.2
	c-0.2-0.4-0.5-0.5-0.7-0.4c-0.2,0-0.2,0.2-0.7,0.7l-6.8,8.5c-0.4,0.4-0.4,0.5-0.2,0.9l-0.4,0.2l-2-3.6l0.4-0.2
	c0.2,0.4,0.4,0.4,0.5,0.4c0.2,0,0.2-0.2,0.4-0.4l1.4-2l-2.7-4.6l-2.1,0.2c-0.2,0-0.4,0-0.4,0.2c-0.2,0.2-0.4,0.4,0,0.7l-0.4,0.2
	L189.5,546.1L189.5,546.1z M198.2,551.5l3.6-4.1l-5.3,0.7C196.4,548.1,198.2,551.5,198.2,551.5z M208.7,557.9
	c0.4-0.2,0.5-0.4,0.4-1.1l0.4-0.2l1.6,4.6l-0.4,0.2c-0.4-0.7-0.5-0.9-0.9-0.7l-9.3,3.2l2.1,6.2c0.2,0.7,0.4,0.9,0.9,0.7l0.2,0.4
	l-2.8,1.1l-0.2-0.4c0.4-0.2,0.4-0.5,0-1.1l-3.4-9.8l0.4-0.2c0.4,0.5,0.5,0.7,0.9,0.5L208.7,557.9L208.7,557.9z M201.7,574.8h0.4
	c0.2,0.9,0.4,0.9,0.9,0.9l10.5-2.1c0.4,0,0.5-0.2,0.4-1.1h0.4l0.9,4.8h-0.4c-0.2-0.9-0.4-0.9-0.9-0.9l-10.5,2.1
	c-0.4,0-0.5,0.2-0.4,1.1h-0.4L201.7,574.8z M203.3,583.3h0.4c0.2,0.7,0.4,0.9,0.7,0.9l10.7-0.7c0.4,0,0.5-0.2,0.5-1.1h0.4l0.7,10.3
	c0,0.5,0.2,0.9,0.5,0.9v0.4l-2.8,0.2v-0.4c0.4-0.2,0.4-0.4,0.4-0.9l-0.5-6.4l-3.2,0.2l0.4,4.1c0,0.7,0.2,0.9,0.5,0.9v0.4l-2.8,0.2
	v-0.4c0.4-0.2,0.4-0.4,0.4-1.1l-0.4-4.1l-4.5,0.4c-0.4,0-0.5,0.2-0.5,1.1h-0.4L203.3,583.3z M216,606.3c-0.5,4.5-3.7,6.8-7.3,6.2
	s-6.2-3.4-5.5-7.8c0.5-4.5,3.7-6.8,7.3-6.2C214,599,216.5,601.9,216,606.3z M205.1,605.1c-0.4,2.7,1.1,4.3,3.9,4.6
	c2.8,0.4,4.6-0.9,5-3.6c0.4-2.7-1.1-4.3-3.9-4.6C207.3,601.2,205.5,602.4,205.1,605.1z M201.4,615.8l0.4,0.2c-0.2,0.5,0,0.7,0.4,0.9
	l10.1,3.6c0.4,0.2,0.5,0,0.9-0.5l0.4,0.2L211,627c-1.1,3-3,4.5-5,3.7c-1.8-0.5-2.7-2.1-2.3-4.3l-4.3,1.1c-1.2,0.2-1.6,0.4-2,0.9
	l-0.4-0.2l1.4-4.1l0.4,0.2c0,0.4-0.2,0.5,0.2,0.7c0.2,0,0.2,0,0.9-0.2l4.5-1.1l0.9-2.5l-4.1-1.4c-0.4-0.2-0.5,0-0.9,0.5l-0.4-0.2
	L201.4,615.8L201.4,615.8z M207.1,621.6l-1.1,3.2c-0.5,1.8-0.2,2.7,0.7,3c1.1,0.4,1.8-0.2,2.5-2l1.1-3.2L207.1,621.6z M195.5,632
	l0.4,0.2c-0.2,0.5-0.2,0.7,0.2,0.9l9.3,5.3c0.4,0.2,0.5,0.2,0.9-0.2l0.4,0.2l-2.5,4.3l-0.4-0.2c0.2-0.4,0.2-0.5,0-0.5
	c-0.4-0.2-8.5,1.1-9.6,0.7l6.6,3.7c0.4,0.2,0.5,0.2,0.9-0.2l0.4,0.2l-2,3.6l-0.4-0.2c0.2-0.5,0.2-0.7-0.2-0.9l-9.4-5.3
	c-0.4-0.2-0.5-0.2-0.9,0.2l-0.4-0.2l2.1-3.7l0.4,0.2c-0.2,0.4-0.2,0.5,0,0.7c0.4,0.2,8.2-1.1,10.5-0.9l-7.3-4.1
	c-0.4-0.2-0.5-0.2-0.9,0.2l-0.4-0.2L195.5,632L195.5,632z M186.1,646.7l0.2,0.2c-0.5,0.7-0.5,0.9-0.2,1.2l8.4,6.8
	c0.4,0.2,0.5,0.2,1.1-0.4l0.2,0.2l-3.2,3.9l-0.2-0.2c0.5-0.7,0.5-0.9,0.2-1.2l-8.4-6.8c-0.4-0.2-0.5-0.2-1.1,0.4l-0.2-0.2
	L186.1,646.7z M181.1,653l0.2,0.2c-0.4,0.4-0.2,0.7,0,0.9l3.9,10.5c0.2,0.4,0.2,0.7,0.4,0.7c0.2,0.2,0.2,0.2,0.7-0.2l0.2,0.2
	l-3.6,3.4l-0.2-0.2c0.4-0.4,0.4-0.5,0.2-0.7l-0.9-0.5l-10-4.5c-0.4-0.2-0.5-0.2-0.9,0l-0.2-0.2l3-2.7l0.2,0.2
	c-0.2,0.4-0.4,0.4-0.2,0.5c0,0,0.2,0.2,0.4,0.2l2.1,0.9l3.9-3.6l-0.7-2c0-0.2-0.2-0.4-0.2-0.4c-0.2-0.2-0.4-0.2-0.7,0.2l-0.2-0.2
	L181.1,653L181.1,653z M178.1,662.6l5,2.3l-2.1-5L178.1,662.6L178.1,662.6z"/>
<circle fill="#F1F1F1" cx="27.4" cy="614" r="2"/>
<path fill="#F1F1F1" d="M64.1,669.2c-1.1,0-2,0.9-2,2c0,1.1,0.9,2,2,2c1.1,0,2-0.9,2-2C66.1,670.1,65.2,669.2,64.1,669.2z
	 M88.1,682.9c-1.1,0-2,0.9-2,2c0,1.1,0.9,2,2,2c1.1,0,2-0.9,2-2C90.1,683.8,89.2,682.9,88.1,682.9z M146.4,682c-1.1,0-2,0.9-2,2
	c0,1.1,0.9,2,2,2s2-0.9,2-2C148.3,682.9,147.4,682,146.4,682z M166.8,670.2c-1.1,0-2,0.9-2,2c0,1.1,0.9,2,2,2c1.1,0,2-0.9,2-2
	C169,671,168.1,670.2,166.8,670.2z"/>
<circle fill="#F1F1F1" cx="177.4" cy="523" r="2"/>
<circle fill="#F1F1F1" cx="130.5" cy="502.5" r="2"/>
<g>
	<path fill="#F1F1F1" d="M92.1,624.1h2.7c0.4,0,2.3,0.2,3.2,0.4c0.4,0,0.7,1.1,0.2,1.1c-2.8-0.2-1.8,0-4.6-0.4
		C90.8,625,92.1,624.1,92.1,624.1z M102.6,624.7c0.7-0.2,8.7,1.1,9.3,1.6c0,0,0.4,0.2,0.2,0.7c-0.5,0.9-2-0.7-7.5-0.9
		c-1.2-0.2-3,0-2.8-0.9C101.7,625,102.2,624.7,102.6,624.7z"/>
</g>
<path fill="#F1F1F1" d="M86.2,561.6c-0.4,0.4-0.4,1.4-0.5,1.8c0,0.2-1.1,0-1.1-0.2c0,0,0.4-2.1,0.5-2.7h2.1c0.2-0.4-0.5-2.5-0.5-2.5
	c-0.4,0.2-0.7,2.7-0.7,2.7h-0.9c0,0,0.7-4.6,1.4-4.6c0.2,0,0.7-0.2,0.9,0.2c0.2,0.5,2,6.4,2,6.9c-0.4,0.2-1.2,0.5-1.2,0
	c0,0,0-1.2-0.4-1.6C87.4,561.4,86.5,561.3,86.2,561.6z"/>
<g>
	<path fill="#F1F1F1" d="M92.2,578.7c-0.2,0.7-2,0.4-3.2,0.4c-3,0-6.2,0.4-6.2-0.4c-0.2-1.2,3.6-0.7,5-0.7
		C89.9,578,92.6,577.5,92.2,578.7z M96.7,578.5c-0.4,0.5-1.2,0.5-2.3,0.4c-0.4,0-0.5,0-0.7-0.4c0-0.7,1.1-0.7,2.5-0.7
		C96.7,578,96.9,578.2,96.7,578.5z M102.4,578.9c-0.4,0.2-3.6,0.5-3.7-0.2c-0.2-0.7,1.2-0.9,2.7-0.7
		C102.9,577.8,102.7,578.7,102.4,578.9z M113.2,581c-0.4,0.4-3.9-1.4-5.5-1.8c-1.2-0.4-2.1,0-3-0.2c-0.7-0.2-0.4-0.9,0.4-1.1
		C107,577.5,114,580.3,113.2,581z"/>
</g>
<g>
	<path fill="#F1F1F1" d="M90.3,584.2c-0.2,0.7-2,0.4-3.2,0.4c-2.8,0-4.3,0-4.3-0.9c0-0.7,1.6-0.2,3-0.2
		C88,583.5,90.6,583,90.3,584.2z M97.9,584.2c-0.2,0.7-2,0.4-3.2,0.4c-2.8,0-3,0-3-0.4c-0.2-0.5,0.4-0.7,1.8-0.7
		C95.6,583.5,98.3,583.2,97.9,584.2z M103.1,584.4c-0.4,0.5-1.2,0.2-2.5,0.2c-0.4,0-0.5,0-0.7-0.4c0-0.7,1.2-0.7,2.7-0.7
		C102.9,583.5,103.3,584.1,103.1,584.4z M113.4,586.7c-0.2,0.9-1.8-0.7-3.6-1.1c-1.2-0.4-3.7-0.5-4.8-0.5c-0.7-0.2-0.7-0.9,0-0.9
		C108.6,583.5,113.6,585.8,113.4,586.7z"/>
</g>
<g>
	<path fill="#F1F1F1" d="M113.8,592.4c0,1.2-2.5-0.4-4.1-0.5c-1.2-0.2-3.4-0.4-5.2-0.2c-0.7,0-0.7-1.1,0-1.1
		C106.1,590.3,113.8,591.5,113.8,592.4L113.8,592.4z M101.9,591c-0.4,0.5-1.6,0.4-2.7,0.4c-0.4,0-0.7-0.2-0.7-0.5
		c0-0.7,0.7-0.7,2.1-0.7C102,589.9,102,590.6,101.9,591z M91.2,590.6c-0.4,0.5-2.3,0.4-3.4,0.2c-2.8-0.5-5.3,0.9-5.3-0.4
		c0-0.9,2.8-0.7,4.3-0.7C88.9,589.8,91.9,589.4,91.2,590.6z M96.5,590.6c-0.4,0.7-1.2,0.5-2.3,0.5c-0.4,0-0.7,0-0.7-0.4
		c0-0.9,1.2-0.9,2.7-0.9C96.3,590.1,96.7,590.3,96.5,590.6z"/>
</g>
<g>
	<path fill="#F1F1F1" d="M99.2,554.1c0.2,0.7-2,0.4-3.6,0.5c-3,0.4-3.2,0.7-3,0C93.3,553.4,99.2,553.1,99.2,554.1z M100.8,554.7
		c-0.2-0.2-0.4-0.4,0-0.7c1.2-0.9,3-0.2,3.4,0.2c0.4,0.5-0.2,0.9-0.5,0.9C103.3,554.9,101.3,555,100.8,554.7z M112.9,557.7
		c-0.4,0.4-2.5-1.1-3.6-1.6c-1.8-0.5-3.6-0.5-3.6-1.4C105.8,552.9,114.5,556.1,112.9,557.7z"/>
</g>
<g>
	<path fill="#F1F1F1" d="M98.5,566.8c-0.2,0.4-1.8,0-3,0.2c-1.4,0-2.3,0.4-2.5-0.5c0-0.7,1.4-0.5,2.8-0.5
		C97.4,565.9,99,565.7,98.5,566.8z M100.1,567c-0.5-0.2-0.4-0.5,0-0.9c1.4-0.2,3.2,0,3.6,0c0.5,0.2,0.4,0.9-0.2,0.9
		C100.4,567,100.8,567.1,100.1,567z M112.9,569.6l-3-0.9c-1.2-0.4-1.8-0.4-2.1-0.7c-0.5-0.2-0.2-0.9,0-1.1
		C108.1,567,114.3,568.6,112.9,569.6z M106.8,567c-0.2,1.1-1.1,0.5-1.6,0.5c-0.4-0.2-0.4-0.5-0.2-0.7
		C105.4,566.3,106.7,566.6,106.8,567z"/>
</g>
<g>
	<path fill="#F1F1F1" d="M94.9,560.9c0.4,0.9-1.2,0.9-1.6,0.9c-0.2-0.2-0.4-0.5-0.2-0.7C93.5,560.6,94.7,560.6,94.9,560.9z
		 M97.2,561.4c-0.2-0.2-0.4-0.5,0-0.9c1.2-0.5,4.6-0.2,5,0c0.9,0.5,0.4,1.1,0,1.1C100.3,561.3,97.8,561.6,97.2,561.4z M110,562.9
		c-0.4,0.4-2.7-0.5-3.9-0.7c-1.2-0.2-2.1-0.4-2.1-0.7c0-0.9,2-0.7,3.7-0.4C109.3,561.4,110.9,562,110,562.9z M113.1,563.6
		c-0.2,1.1-1.1,0.5-1.4,0.4c-0.2-0.2-0.5-0.7-0.2-0.9C111.8,562.5,113.2,563.2,113.1,563.6z"/>
</g>
<g>
	<path fill="#F1F1F1" d="M83.3,571.4c1.8-0.4,3,1.8,0.4,1.4c-0.9-0.2-1.1-0.4-1.1-0.7C82.8,571.9,82.8,571.6,83.3,571.4z
		 M96.3,572.3c-0.2,0.7-4.1,0.5-5.2,0.5c-3,0-4.1,0-4.3-0.5c0-0.7,1.6-0.7,3-0.7C91.3,571.6,96.7,571.1,96.3,572.3z M102.6,572.7
		c-0.2,0.4-0.5,0.2-1.8,0.2c-1.2,0-2.1,0-2.3-0.5c0-0.7,1.2-0.7,2.7-0.7C102.7,571.8,102.9,572.3,102.6,572.7z M109.9,574.1
		c-0.9,0.7-1.4-0.4-2.8-0.7c-1.2-0.2-2.3-0.2-3.4-0.4c-0.7-0.4-0.4-1.1,0.2-1.2C107.6,571.8,110.8,573.4,109.9,574.1z M112.7,575.3
		c-0.2,0.7-0.7,0.9-1.4,0.4c-0.2-0.2-0.5-0.7-0.4-0.9C111.3,574.3,112.5,574.6,112.7,575.3z"/>
</g>
<g>
	<path fill="#F1F1F1" d="M112.5,598.1c-0.4,0.9-3-0.5-5-0.5h-2.3c-0.7-0.2-0.7-1.1,0-1.1C107.6,596.2,113.1,597.1,112.5,598.1z
		 M99.7,596.9c-0.4,0.5-1.1,0.4-2.3,0.2c-0.4,0-2,0.5-2.5,0c-0.2-0.9,2-1.1,2.8-0.9C99.4,596,99.9,596.5,99.7,596.9z M91.9,596.9
		c-0.4,0.5-4.3,0-5.5-0.2c-2.1,0-3.6,0.7-3.6-0.5c0.4-0.7,4.1-0.4,5-0.4C89.7,596,92.4,595.8,91.9,596.9z M103.6,596.3
		c0.4,0.9-1.2,0.9-1.6,0.9c-0.2-0.2-0.4-0.5-0.2-0.7C102.2,596,103.3,596.2,103.6,596.3z"/>
</g>
<g>
	<path fill="#F1F1F1" d="M126.6,554.5c1.8,0,2,0.4,1.8,1.1c-0.2,0.4-2.3,0.2-2.8,0.2c-2.1,0-3,1.2-3.7,1.1c-0.9-0.2-0.4-0.9,0.5-1.4
		C123,555,124.6,554.5,126.6,554.5L126.6,554.5z M131.1,554.3c0,0,2.5,0.2,2.8,0.4c0.7,0.4,0.5,0.9,0.4,1.1
		c-0.2,0.2-3.6-0.2-3.6-0.4c-0.2-0.2-0.4-0.2-0.4-0.5C130.2,554.5,130.3,554.3,131.1,554.3z M152.4,554.7c0.7,0.2,0.9,1.2,0.4,1.4
		c-2.5,0.4-3,0.2-3-0.2C148.9,554.5,152.2,554.7,152.4,554.7z M143.3,555.2c0,0,2.8,0,3.6,0.2c0.4,0,0.7,0.5,0.2,1.1
		c-0.2,0.4-3.9,0.4-4.3-0.9C142.8,555.7,142.8,555.2,143.3,555.2z M136.9,555c0,0,2.5,0.2,3.2,0.4c0.4,0,0.9,0.5,0.5,0.9
		c-0.2,0.4-3.9,0.4-4.3-0.9C136.6,555.4,136.4,555,136.9,555L136.9,555z"/>
</g>
<g>
	<path fill="#F1F1F1" d="M130.5,561.1c0.4-0.7,2.5-0.5,3-0.2c0,0,0.2,0.4-0.2,0.7C132.1,562.2,130.3,561.6,130.5,561.1z
		 M136.8,561.4c0.7-0.5,3.4,0,2.5,1.1c-0.2,0.2-2,0.4-2.7,0C136.4,562.3,136,562,136.8,561.4z M145.7,561.8c0.9,1.2-2.3,1.1-2.7,1.1
		s-1.1-0.2-1.2-0.5C141.7,561.3,144.9,561.1,145.7,561.8z M152.6,561.3c0.5,1.6-2.1,1.2-2.5,1.2c-0.4,0-1.1,0-1.2-0.5
		C148.7,561.1,152.2,560.2,152.6,561.3z M126.6,559.8c0.7,0,2.1,0,2.1,0.7c-0.5,0.9-3.2,0.7-3.9,0.9c-2.5,0.4-3,1.2-3.7,1.1
		c-0.9-0.2-0.4-0.9,0.5-1.4C122.5,560.9,124.8,560,126.6,559.8L126.6,559.8z"/>
</g>
<g>
	<path fill="#F1F1F1" d="M138.4,567.1c0.2,0.5-0.2,0.7-0.2,0.7c-0.2,0.4-2.7,0.2-3-0.7c0-0.2,0-0.9,0.7-0.7
		C136.6,566.8,138.4,566.1,138.4,567.1L138.4,567.1z M141,566.8c0.2,0,4.5,0,3.4,1.2c-0.2,0.2-0.5,0.4-0.9,0.4
		c-1.1,0-2.8-0.2-3.2-0.4c-0.2-0.2-0.2-0.5,0-0.9C140.5,567,140.7,566.8,141,566.8z M146.9,566.8c3.2,0.5,5.5-0.4,5.7,0.4
		c0.4,0.7,0,0.9,0,0.9c-0.4,0.4-6.4,0.5-6.6-0.5C146,567,146.5,566.8,146.9,566.8z M132.8,566.6c0.7,1.1-1.6,0.9-1.8,0.9
		c-0.4,0-0.9-0.2-0.9-0.5C130,565.9,132.3,565.7,132.8,566.6z M125.7,565.7c0.7,0,1.6-0.4,2.1,0.5c-0.5,1.1-2,0.5-3.9,0.9
		c-2.5,0.4-2.5,1.1-3,0.5c-0.5-0.5,0-0.9,0.9-1.2C122.7,566.1,123.9,565.9,125.7,565.7z"/>
</g>
<g>
	<path fill="#F1F1F1" d="M129.1,572.1c0.4,0,1.1,0.2,1.6,0.5c0.4,0.4,0.2,0.7,0,0.9c-3,0.4-2.8-0.4-2.8-0.4
		C127.5,571.9,128.7,571.9,129.1,572.1z M152.6,572.5c1.4,0.7-0.9,1.4-2.5,1.1c-0.2,0-0.4-0.2-0.5-0.4
		C149.4,572.3,152.1,572.3,152.6,572.5L152.6,572.5z M135.5,572.1c0.7,0.2,0.7,1.2,0,1.4c-0.2,0-3,0.5-3.2-0.4
		C132.3,571.4,135.2,571.9,135.5,572.1z M148.5,572.8c0.2,0.9-0.7,0.9-1.4,0.7c-1.1,0-4.1,0.4-3.9-0.5c0.2-0.5,1.2-0.4,1.8-0.4
		C145.8,572.3,148.3,572.3,148.5,572.8z M141,573.6c-0.4,0.7-3.4,0.4-2.8-0.7C138.4,572.5,141.4,571.9,141,573.6z M124.1,571.6
		c0.7,0,2,0,2.1,0.9c-0.9,0.7-2,0.2-3.9,0.7c-1.8,0.4-2.1,0.7-2.1-0.2C120.2,572.3,122.3,571.6,124.1,571.6z"/>
</g>
<g>
	<path fill="#F1F1F1" d="M128.6,578c0,0,2.5-0.4,3.2,0.2c0.2,0.2,0.7,0.5,0.4,1.1c-0.4,0.4-3.9,0.4-3.9-0.7
		C128.2,578.5,128,578.2,128.6,578z M134.6,578.5c0.9-0.4,3.7,0.4,2.5,1.4c-0.2,0.2-2.3,0-2.8-0.5
		C134.1,579.2,133.9,578.9,134.6,578.5z M140.1,578.7c0.7-0.2,3.2,0.4,2.1,1.2c-0.2,0.2-1.8,0.4-2.3-0.2
		C139.8,579.6,139.4,578.9,140.1,578.7L140.1,578.7z M147.1,579.1c-0.9,0.2-2.1,0.4-2.1,0.9c0.2,0.5,0.7,0.4,2.5,0.4
		c0.9,0,3.6,0.4,4.3,0.2c0.7-0.2,0.7-0.9,0.5-0.9C150.6,579.6,149.4,578.9,147.1,579.1L147.1,579.1z M124.5,578c0.7,0,2-0.4,2,0.7
		c-0.7,0.9-1.8,0.5-3.7,1.1c-1.8,0.4-2.1,0.7-2.1-0.4C120.4,578.7,122.7,578,124.5,578z"/>
</g>
<path fill="#F1F1F1" d="M129.3,585.3h1.4c0.7,0,0.4,0.9,0.4,1.1c0,0.2-1.2,0.4-2.1,0.2c-0.4,0-1.2-0.2-1.2-0.9
	C127.9,585.1,128.7,585.3,129.3,585.3L129.3,585.3z M134.1,585.3c0.2,0,4.1,0,3,1.1c-0.2,0.2-0.5,0.4-0.7,0.4c-1.1,0-2.7-0.2-3-0.4
	c-0.2-0.2-0.2-0.4,0-0.7C133.5,585.5,133.7,585.3,134.1,585.3z M140.1,585.5c0.7-0.4,3.2,0.7,2.3,1.4c-0.2,0-2.1,0-2.7-0.5
	C139.6,586.4,139.2,585.8,140.1,585.5z M145.5,586c0.2,0,4.5,0,3.4,1.2c-0.2,0.2-0.5,0.4-0.9,0.4c-1.1,0-2.8-0.2-3.2-0.4
	c-0.2-0.2-0.2-0.5,0-0.9C144.8,586.2,145.1,586,145.5,586z M124.1,584.9c0.9,0,2.1-0.4,2.1,0.7c-0.7,0.9-1.4,0.5-3.4,0.9
	c-1.8,0.4-2.1,0.7-2.1-0.4C120.9,585.5,122.3,585.1,124.1,584.9z M150.8,586.4c0.7-0.2,3.2,0.4,2.1,1.2c-0.2,0.2-1.8,0.4-2.3-0.2
	C150.5,587.3,150.1,586.5,150.8,586.4L150.8,586.4z M136.6,592.1c0.2,0,4.1,0,3,1.1c-0.2,0.2-0.5,0.4-0.7,0.4c-1.1,0-2.7-0.2-3-0.4
	c-0.2-0.2-0.2-0.4,0-0.7C136,592.2,136.4,592.1,136.6,592.1z M143,592.6c1.2-0.2,3.4,0.2,3.2,1.2c-0.2,0.7-0.9,0.2-1.2,0.2
	c-0.9,0-3.6,0.4-3.2-0.7C141.7,592.8,142.6,592.8,143,592.6L143,592.6z M147.8,594c0,0.7,3,1.6,3,0.5C150.6,594,148,592.4,147.8,594
	z M133.4,591.9c0,0-2.1-0.5-3-0.4c-0.2,0-0.5,0.5-0.4,0.9c0.2,0.4,3.6,0.7,3.6-0.2C133.7,592.4,133.7,592.1,133.4,591.9L133.4,591.9
	z M125.4,591.5c0.7,0,3.4,0,3.4,1.1c-0.4,0.9-2.5,0-5.2,0.4c-1.8,0.2-2.1,0.7-2.1-0.4C121.4,591.9,123.6,591.5,125.4,591.5z
	 M131.8,597.8c0.9-0.4,3.9,0.4,2.7,1.4c-0.2,0.2-2.5,0-3.2-0.4C131.2,598.7,131.1,598.1,131.8,597.8L131.8,597.8z M138,598.7
	c0.7-0.2,3.2,0.4,2.1,1.2c-0.2,0.2-2,0-2.5-0.4C137.5,599.2,137.3,598.8,138,598.7L138,598.7z M145.5,599.7c0.7,1.2-2,0.9-2.3,0.9
	c-0.4,0-0.9-0.2-0.9-0.7C142.5,598.8,145.1,599,145.5,599.7z M147.3,600.6c0,0.7,1.8,1.2,1.8,0.2
	C148.9,600.4,147.4,599.2,147.3,600.6z M122,598.1c0.2,0,7.1-1.1,6.9,0.2c0,0.2,0.4,0.5-3.6,0.7c-0.9,0-3.7,0.5-4.1,0.4
	C121.1,599.2,120.7,598.7,122,598.1z M129.6,609.5c0,0,2.5-0.2,3.2,0.4c0.2,0.2,0.7,0.5,0.4,1.1c-0.2,0.4-3.9,0.4-3.7-0.7
	C129.3,610.1,129.1,609.7,129.6,609.5L129.6,609.5z M136.6,610.4c0.2,0,4.1,0.2,3,1.2c-0.2,0.2-0.5,0.4-0.7,0.4
	c-1.1,0-2.7-0.2-2.8-0.5c-0.2-0.2-0.2-0.4,0-0.7C136,610.4,136.2,610.4,136.6,610.4L136.6,610.4z M143.5,612.4
	c-1.1-0.2-2.7-0.7-2.3-1.2s1.4,0.2,1.8,0.2C145.1,610.9,145.5,612.7,143.5,612.4z M149.2,612.9c-1.1,0-2.8-0.4-2.7-1.1
	c0.2-0.5,1.1,0,1.4-0.2C150.8,610.8,151.2,612.9,149.2,612.9z M126.6,609.9c0.2,0.7-0.9,0.5-2.7,0.5s-3,1.4-3.6,0.4
	c-0.2-0.4,0.2-0.7,1.2-1.1C122.5,609.3,126.4,609.2,126.6,609.9z M130.9,603.6c0.2,0,3,0,2.3,1.1c-0.2,0.2-0.4,0.4-0.5,0.4
	c-0.7,0-2-0.2-2.1-0.4c-0.2-0.2-0.2-0.4,0-0.7C130.5,603.6,130.7,603.6,130.9,603.6z M135.3,604c0.7-0.4,4.8,0.4,3.6,1.6
	c-0.2,0-3.4-0.2-3.9-0.7C134.8,604.9,134.6,604.4,135.3,604z M144.2,605.1c0.7,0,3.7,0.5,3.6,1.4c0,0.2-1.1,0.2-1.6,0
	c-1.6-0.4-2.5-0.7-3.7-0.7c-0.5,0-0.5-0.5-0.4-0.9C142.1,604.9,143.9,605.1,144.2,605.1z M127.9,604.2c0.2,1.1-1.4,0.5-3.4,0.5
	c-1.8,0-3,1.2-3.6,0.2c-0.2-0.4,0.2-0.7,1.2-1.1C123,603.6,127.9,603.5,127.9,604.2L127.9,604.2z M147.1,616.5
	c0.2,0,4.5,0.2,3.2,1.4c-0.2,0.2-0.5,0.4-0.9,0.4c-1.1,0-2.8-0.4-3.2-0.5c-0.2-0.2-0.2-0.5,0-0.9
	C146.4,616.6,146.7,616.5,147.1,616.5z M144.1,617.4c-0.4,0.7-3.4,0.2-2.8-0.9C141.4,616.1,144.6,615.8,144.1,617.4z M136.4,615.6
	c0.2,0,4.1,0.2,3,1.2c-0.2,0.2-0.5,0.4-0.7,0.4c-1.1,0-2.7-0.4-2.8-0.5c-0.2-0.2-0.2-0.4,0-0.7C135.9,615.6,136.2,615.6,136.4,615.6
	L136.4,615.6z M132.7,615.2c0.7,1.2-1.6,0.9-1.8,0.7c-0.4,0-0.9-0.2-0.9-0.5C129.8,614.5,132.1,614.3,132.7,615.2z M124.6,614.9
	c0.7,0,2.1-0.4,2,0.7c-0.5,0.9-1.8,0.5-3.7,1.1c-1.8,0.4-2.1,0.7-2.1-0.4C120.7,615.4,122.7,614.9,124.6,614.9z M121.6,620.9
	c0,0,2.1-0.7,3.2-0.4c0.4,0,0.5,0.4,0.4,0.9c-0.9,0-3.2,0.4-3.6,0.7C121.4,622.2,121.1,621.3,121.6,620.9L121.6,620.9z"/>
<g>
	<path fill="#F1F1F1" d="M96,602.2c1.1-0.2,3.7,1.1,0.9,1.2c-0.2,0-1.8,0-2-0.2C93.8,602.4,95.6,602.2,96,602.2z M92.8,602.9
		c0,0.5-3,0.5-5.3,0.4c-2.8-0.2-4.6,0.2-4.6-0.7c0.2-1.1,2.8-0.4,4.3-0.4C89.2,602.4,92.8,601.5,92.8,602.9z M109.2,603.8
		c-0.2,1.1-4.3-0.4-6.2-0.4c-1.4,0-2.5-0.2-2.7-0.2c-0.7-0.2-0.7-1.1,0-1.1C101.7,602,109.2,603.1,109.2,603.8L109.2,603.8z
		 M112.9,606.1c-0.4,0.5-0.9,0-1.8-0.4c-0.4-0.2-0.9-0.4-0.7-0.9c0.5-0.7,1.4-0.2,1.8,0.2C112.9,605.4,113.1,605.8,112.9,606.1z"/>
</g>
<g>
	<path fill="#F1F1F1" d="M105.4,615.8c0,0.9-4.5-0.4-6.2-0.5h-3.7c-0.7-0.2-0.7-1.1,0-1.2C97.6,613.8,105.6,614.5,105.4,615.8z
		 M92.9,614.9c0,0.5-2.8,0.4-5.3,0.2c-4.5,0-4.8-0.2-4.6-0.9c0.4-1.1,2.8-0.7,4.3-0.7C89.2,613.6,92.9,613.4,92.9,614.9z
		 M113.1,618.1c-0.4,0.5-1.8-0.5-3-0.7c-0.4,0-1.8-0.2-1.6-0.7c0-0.7,1.1-0.7,2.5-0.4C112.4,616.6,113.4,617.5,113.1,618.1z"/>
</g>
<g>
	<path fill="#F1F1F1" d="M109,610.2c-0.4,1.4-2-0.2-6.2-0.4c-1.4,0-2.5-0.2-2.7-0.2c-0.7-0.2-0.7-1.1,0-1.1
		C102.2,608.1,109.2,609.2,109,610.2L109,610.2z M96.3,608.1c1.1-0.2,3.7,1.1,0.9,1.2c-0.2,0-1.8,0-2-0.2
		C94.2,608.3,96,608.1,96.3,608.1z M92.8,608.6c0,1.1-4.8,0.4-5.9,0.4c-2.8-0.2-3.9,0.4-4.1-0.9c0.2-1.1,2.8-0.4,4.3-0.4
		C89.2,607.7,92.8,607.2,92.8,608.6z M111.6,610.8c1.1,0.4,2.8,2.7,0.2,1.6c-0.2,0-1.6-0.7-1.6-1.1
		C109.7,610.1,111.5,610.8,111.6,610.8z"/>
</g>
<g>
	<path fill="#F1F1F1" d="M112.5,632c0.2,0,0.7,0,0.4,0.7c-0.4,0.5-7.8-0.7-8.2-0.7c-0.7-0.2-0.7-0.4-0.7-0.9
		c0.2-0.4,0.7-0.4,0.9-0.4S112.4,631.8,112.5,632z M101.3,631.1c-0.4,0.4-3.6,0.5-3.4-0.4c0-0.9,0.9-0.4,2.3-0.4
		S101.7,630.7,101.3,631.1L101.3,631.1z"/>
</g>
<path fill="#F1F1F1" d="M125.2,630.9c0.7,0,1.2-0.5,1.2,0.5c-0.2,0.7-1.1,0.4-3,0.9c-1.8,0.4-2.3,0.9-2-0.2
	C121.3,631.8,123.4,631.1,125.2,630.9L125.2,630.9z M125.2,625.5c0.7,0,1.4-0.4,1.4,0.7c-0.4,0.5-1.4,0.2-3.4,0.7
	c-1.8,0.4-2.1,0.9-2,0C121.1,626.3,123.4,625.5,125.2,625.5z M83.2,555c0,0-0.2,0.5-0.2,1.4v8.4h0.2c-0.2-0.2-0.2-5.3-0.2-5.3v-3.2
	C83.2,555.6,83.2,555,83.2,555c1.6-0.4,6.1-0.9,7.1-0.4c0.4,0.2,0.4,1.6,0.4,3.4c0,2.7-0.2,6.1-0.4,6.4c-0.2,0.2-1.6,0.4-3.4,0.5
	c1.6,0,3.2-0.2,3.4-0.5c0.2-0.4,0.4-3.7,0.4-6.4c0-1.8-0.2-3.2-0.4-3.4C89.2,554.1,84.8,554.7,83.2,555z M83.3,565
	c0.5,0.2,2.1,0.2,3.7,0H83.3z M83.2,554.5c-0.5,0.2-0.7,0.4-0.5,4.8v5.7c0.2,0.9,1.1,0.9,2.1,0.7l1.6-0.2H88c2.8,0,3.4,0,3.7-0.7
	V563l-0.2-3.6c0.2-5-0.4-5.2-0.7-5.3C89.2,553.4,84.2,554.1,83.2,554.5z M90.1,555.2v4.3l0.2,3.7v0.9c-0.5,0-2.5,0.2-2.5,0.2h-1.6
	l-1.6,0.2h-1.1c0.2,0,0.2-1.4,0.2-2v-6.9C85.6,555.2,89.2,554.9,90.1,555.2L90.1,555.2z M223.5,588.9c-0.9-5.7-1.1-10.5-1.2-14.4
	c-0.2-4.1-0.2-6.9-1.1-8.7v0.2l-8.5-21c-1.8-6.2-16.6-23.5-17.5-24.4c-1.8-2.7-11.8-10.3-14.6-11.8c-0.2,0-11-7.7-11-7.7
	c-4.5-3.2-11.9-6.2-18-8l-7.1-2.5c-8.9-3-22.6-3.4-24.6-3.2h-5c-1.6-0.2-15.5,0.2-23.9,3.4l-5.2,1.8c-6.6,1.8-12.6,3.7-17.3,6.9
	c0,0-12.3,8.7-12.8,9.1c-2.8,1.4-15.8,10.9-17.5,13.4l0.2-0.2c-0.7,0.9-14.1,16.7-15.8,23l-8.7,21.2v-0.2c-0.9,1.8-0.7,5.3-0.9,9.3
	c-0.2,3.9-0.5,8.2-1.4,13.9c-0.7,4.5-0.2,8.5,0.4,13.4c0.5,4.8,0.7,10.5,1.6,14.8c0.7,3.6,1.8,6.8,2,9.1c1.2,5.7,4.1,13.4,5.5,15.3
	c1.1,1.6,3,4.5,3,4.5c1.8,2.3,3.7,5.2,5.2,7.3c1.2,2,1.8,3.4,2.7,5.2c1.4,2.5,2.7,4.6,4.1,6.8c1.4,2,3,3.7,5.2,5.5
	c0.5,0.4,5.2,3.6,7.5,5c2.7,1.8,3.6,2.3,4.1,2.8l1.6,1.6c4.5,4.6,7.8,8,10.9,9.8c1.1,0.7,4.1,1.4,5,1.4c0.9,0,1.8-0.2,2.5-0.5
	c1.2-0.7,2-2,2.5-3.7c0-0.2,0.7-1.6,1.2-3c1.1,0.2,2.1,1.4,3.2,2.3l-0.5,2.1c-0.5,1.8-0.2,3.6,1.1,5.2c4.8,6.2,22.8,8.7,38.5,8.2
	c16.2,0.5,36.5-4.3,39.2-10.5c0.5-1.2,0.4-2.3-0.7-3.4c-0.4-0.4-0.5-0.7-0.7-0.9c0.2-0.2,0.2-0.4,0.5-0.5c0.7-0.4,1.6-0.2,2.1-0.2
	c0.7,1.2,1.4,2.5,2.1,3.9c0.4,0.5,0.9,0.9,1.6,1.1c4.6,0.7,19.8-12.5,19.9-12.6c0.5-0.5,3.4-2.8,5.9-4.6c2.1-1.4,4.1-2.7,4.6-3.2
	c4.1-3.4,7.1-7.3,10-12.1c2-3.6,4.3-7.5,7.8-12.3l0.4-0.4c3.2-4.5,7.7-13,8.4-19.4c0.2-2.3,0.9-5.3,1.6-9.1
	C222.8,608.6,224.9,597.9,223.5,588.9L223.5,588.9z M80.1,683.8c-0.7-0.7-1.8-1.4-3-1.8c3.2-7.7,4.6-11.2,5-13v-1.1l-0.5-1.2
	c-0.4-0.7-1.4-2.1-1.4-3.2c0-1.6,0.5-1.2,1.2-1.2c0.7,0,3.7,0.7,5.9,1.8c1.6,0.7,2.8,2.3,3.4,3c0.2,0.4,0.2,0.9-0.2,1.2
	c-0.4,0.4-0.7,0.5-1.6,0.9c-0.9,0.4-2.5,1.6-2.8,1.8c-2,0.7-3.2,3.9-5,9.6c0,0.2,0,0.2-0.2,0.4c-0.2,0.5-0.4,1.2-0.5,2
	C80.1,683.2,80.1,683.4,80.1,683.8L80.1,683.8z M78.3,665.3c-1.1-0.5-2.1-1.1-3.6-2.1c-2.1-1.6-7.5-5.9-10-7.3
	c-1.6-0.9-1.8-1.8-3.7-3.9c-1.6-1.8-3.4-3.6-4.8-4.6c-2-1.4-5.5-6.8-6.6-8.7c-3.9-6.4-10.3-19.1-11.8-31.5c-0.2-1.6-0.2-5.7-0.2-9.4
	c0-3.2,0-5.9-0.2-7.1c0.2-2.5,0.9-9.3,1.4-11c0.5-1.2,0.9-3.9,1.4-6.1c0.4-1.8,0.9-4.6,1.2-5.5c0-0.2,1.8-5.2,3-7.5l5.7-10.7
	c0-0.2,3-6.2,5.2-8.4l2.1-2.3c2.3-2.5,4.8-5.2,7.1-6.9c3.7-2.8,9.4-6.8,14.4-9.1l6.9-3.4c2.5-1.2,3.7-2,5.9-2.5
	c0.2,0,13.9-4.5,23.1-5c-0.9,2-1.4,3.7-1.8,4.6c0,0-2.1,0.4-5,0.5c-1.6,0-6.4,0.9-6.4,0.9c3.4,5.2,6.2,8.2,7.7,9.6
	c0,0-1.6,9.6-1.6,10.9c0.2,0,5.3-2.7,6.9-3.6c1.6-0.9,3.6-1.6,3.9-1.6c0.2,0,4.8,2,5.9,2.7c2.7,1.6,4.5,2.5,5,2.7v-0.2
	c0,0-2.5-10.3-2.5-10.9c0,0,1.2-1.2,2.1-2.3c1.4-1.8,2.8-2.8,3.7-3.9c0.9-1.1,2.7-3,2.7-3.2c-0.2,0-11.2-1.4-11.8-1.6
	c0,0-1.1-2.5-2-4.6c2.3,0.2,3.7,0.4,6.2,0.7h0.2c6.8,1.1,14.2,3.9,17.5,5.2c0,0,2.7,1.1,3,1.2c0.2,0,4.8,2,4.8,2
	c3.2,1.6,5.9,3.4,7.1,4.3l1.6,1.2c3.4,2.3,10.9,7.3,12.1,9.3l2,2.5c1.1,1.4,1.8,3.2,2.3,4.6c1.1,2.7,3.6,5.5,5.9,8.5
	c1.6,2,3.2,3.9,4.1,5.5c0,0,3,4.3,3.7,8.2c0.7,5,2,12.5,2.7,14.8c3.6,12.1,2.5,18.3,1.1,24.8c-0.4,2-1.4,4.6-1.6,6.6
	c-0.2,2.1-0.5,4.6-2,7.5c-0.5,1.1-1.6,3.6-2,5c-0.7,2.3-1.4,4.6-2.7,6.4c-0.5,0.7-1.4,2.1-2.8,4.3c-3,5-7.8,12.5-11.9,17.5
	c-1.2,1.6-4.8,4.5-7.7,6.6c-1.8,1.4-3.2,2.7-3.9,3.4c-1.1,1.1-3.4,2.8-5.3,4.3l0.2-0.5c0-0.4,0-0.5-0.2-0.9
	c-0.2-0.5-0.7-1.4-2.1-1.8c-1.4-0.4-3,0.2-5,1.1c-1.4,0.5-3,1.4-5.3,3.4c-0.9,0.7-2.1,2.1-1.8,3.2c0.4,0.7,1.1,1.4,2,2
	c-4.8,1.4-9.4,2.8-11.2,3.2c-1.1,0.2-5,1.4-7.5,1.8c-2.8,0.5-5.7,0.9-7.1,1.1c-5.9,0.2-14.2-2-16-2.8c-4.1-1.6-9.4-3.6-12.8-4.5
	c0,0,0.2,0,0.2-0.2c1.4-0.5,2.3-1.4,2.7-2.5c0.2-0.5,0.2-1.6-0.9-2.7c-1.1-1.2-2.7-2.5-4.3-3.2c-0.4-0.2-4.1-1.6-5.7-1.6
	c-1.2,0-1.8-0.2-2.3,0.2c-0.7,0.4-0.9,1.1-0.9,1.8C77.8,663.8,78,664.5,78.3,665.3z M118.1,523c-1.2-0.9-3.7-5.5-3.7-5.5
	c0.2-0.5,3.7-8.5,3.7-8.5c0.4,1.4,0.2,4.3,0.2,7.1C118.1,518.7,117.9,521.6,118.1,523z M104.2,519.8c1.2,0.4,4.8,1.4,4.8,1.4
	c2.7,1.1,5,2,7.8,2.7c-0.4,0.9-1.2,2.5-1.2,2.5s-6.1,9.4-6.4,10c0,0,1.8-9.6,1.8-9.8C110.4,526,106.8,523,104.2,519.8L104.2,519.8z
	 M129.3,522.6c0,0.4-2.3,3-2.3,3c-0.4,0-7.1-1.6-8-2c0,0,2.7-5.2,3.7-5.7l9.8,1.1c-0.7,0.4-3.6,1.1-6.2,2l-5.7,2.1
	C120.5,523.2,128.4,522.8,129.3,522.6z M127,536.5c-0.7-0.2-7.5-3.9-7.5-3.9c-0.2-0.2-1.2-7.3-1.1-8.5L127,536.5L127,536.5z
	 M155.5,690c-1.6,3.9-18.5,10.3-35.3,9.8c-17.6,0.5-34.9-2.1-38.6-6.9c-0.5-0.7-0.9-2.5-0.9-3.2c0-0.4,0-0.7,0.2-1.1l0.9-2.8
	l0.2-0.4v-0.2c1.6-5.5,3.4-11.8,4.8-12.1c1.2,0,1.2-0.7,8,1.8c2.5,1.2,15.7,5.2,18.5,5.3c2.1,0.2,9.4,0,12.5-0.5
	c2.5-0.4,4.5-1.1,5.3-1.2c2.3-0.2,14.8-3.9,17.1-4.6c0,0,0.2,0,0.2,0.2c0.5,0.5,0.9,2,1.4,3.2l0.4,1.1c0.2,0.7,0.5,1.6,0.7,2.5
	l0.2,0.7l0.7,2c0.2,0.4,0.4,0.7,0.4,0.9c0.2,0.5,0.5,1.1,0.9,1.6l0.5,0.9c0.2,0.2,0.2,0.4,0.4,0.7l1.6,2.1
	C155.6,689.8,155.6,689.8,155.5,690L155.5,690z M156,684.5c-0.4,0.2-0.7,0.4-0.9,0.5c-0.7-1.1-1.2-2.3-1.6-3.6l-0.2-0.5
	c-0.2-0.5-0.4-1.1-0.5-1.4l-0.4-1.1l-0.2-0.7c-0.9-3-1.6-5.3-3.2-5.9H148c-2,0.2-4.1-0.7-4.3-1.4c0-0.2,0.2-0.9,0.4-1.1
	c2-1.8,2.8-2.8,4.1-3.4c0.9-0.4,3-1.4,5.2-0.9c0.5,0.2,0.5,0.9,0.5,0.9v0.2c0,0.7-0.9,2.1-1.4,3c-1.1,0.9-1.6,2-1.6,3
	c0,1.8,1.2,3.7,3.2,6.6c0.9,1.4,2.1,3.2,3.4,5.5C157.1,684,156.5,684.1,156,684.5L156,684.5z M218.8,616.6c-0.7,3.7-1.4,6.8-1.6,9.3
	c-0.9,8.7-4.1,13-8,18.3l-0.4,0.4c-3.6,4.8-5.9,8.9-8,12.6c-2.7,4.8-4.8,8.5-8.7,11.6c-0.5,0.4-2.5,1.8-4.6,3
	c-3.9,2.5-6.4,4.3-6.9,4.8c-3.7,3.6-16.2,12.8-18.2,12.1c-2.7-5.2-5-8.9-6.6-11.6c-2-3-2.8-4.5-2.8-5.5c0-0.5,0.4-1.1,0.9-1.4
	c0.5-0.4,5.5-4.3,7.8-6.4l5-3.6c3-2.5,8-8,9.4-9.8c4.1-5.2,6.4-8.9,9.6-13.9c1.2-2,3.4-5.3,3.7-6.1c1.4-2,2.1-3.6,2.8-5.9
	c0.4-1.2,1.2-2.8,1.8-3.9c1.4-3,2-6.8,2.3-9.1c0.2-1.8,0.2-2.5,0.5-4.5c0.7-3.4,2.1-8.4,2.1-13.4c0-4.1-0.7-7.3-2.3-12.8
	c-0.7-2.1-2-10-2.8-14.8c-0.7-4.3-3.6-9.8-3.6-10.1c-1.1-1.8-3-3.6-4.8-5.7c-2.3-2.8-4.3-5.9-5.2-8.2c-0.7-1.8-2.1-3.4-3.2-5
	l-1.8-2.3c-1.4-2.1-6.4-5.9-11.6-9.4l-1.8-0.9c-1.2-1.1-4.6-2.8-8.2-4.6l-4.3-2.5l-3-1.2c-3.2-1.2-11.6-3.9-14.6-4.5h-0.2
	c-3.4-0.5-6.1-1.1-10.5-1.2c-0.2-0.5-0.4-1.1-0.5-1.4c-0.4-0.9-1.4-3-2-4.3c-0.7,0.5-2,3-3.2,5.7c-9.4,0.7-22.4,4.3-23.1,4.5
	c-2.3,0.7-3.7,1.4-6.2,2.7l-10,5c-6.6,3-10,6.1-11.9,7.5c-2.5,2-4.3,3.2-6.8,5.9l-2.1,2.3c-2.3,2.5-6.8,11-6.8,11.2l-3.9,6.6
	c-1.2,2.3-5.2,12.3-5.3,12.5c-0.4,1.1-0.9,2.8-1.2,5c-0.5,2.1-1.2,4.1-1.4,5.3c-0.5,7.8-1.1,11.4-1.1,12.5v0.2
	c0.2,1.1-0.4,4.1-0.4,6.4c0.2,3.9,0.2,7.8,0.2,9.6c0.7,7.3,5,19.6,9.1,26.4c0.2,0.4,3.2,6.8,10.7,15.5c1.1,1.2,3.9,3.7,5.5,5.5
	c2,2.1,2.7,3.2,4.5,4.3l6.8,4.5c2.5,1.8,5,3.6,7.5,5c0,0.2,0,0.4-0.2,0.7v0.2l-0.4,1.1l-0.2,0.4c-0.2,0.4-0.4,0.9-0.5,1.4
	c0,0,0,0.2-0.2,0.2c-0.2,0.5-0.4,1.1-0.7,1.6l-0.2,0.5c-0.2,0.5-0.4,1.1-0.7,1.6l-0.4,0.9c-0.2,0.4-0.4,0.7-0.4,1.1
	c-0.2,0.2-0.2,0.5-0.4,0.9l-0.4,0.7c-0.4,0.9-0.7,1.6-0.9,2.3c0,0,0,0.2-0.2,0.2l-0.2,0.2c-1.1,2.5-1.4,3.2-1.4,3.6
	c-0.4,1.2-0.7,2-1.4,2.5c-0.9,0.5-1.8,0.9-3.6,0.2c-2.5-0.9-4.5-3-6.8-5.2l-5.3-5.2l-2.7-2.3c-0.5-0.5-2.1-1.8-6.1-4.3l-2.7-1.6
	c-0.9-0.7-3-2.8-3.2-3c-3.9-3-4.6-5.3-7.3-10.1c-2-3.6-5-8.9-5.9-10l-2.3-3c-3.9-5.3-6.9-9.4-8-18.3c-0.2-2.3-1.1-4.5-2-8.2
	c-0.4-1.6-0.5-4.5-0.9-6.4c-0.5-6.9-1.8-15-0.5-21.9c0.9-5.9,0.9-9.6,0.9-13.5c0.2-3.6,0.2-6.4,0.9-7.7l0.4-1.2l7.5-19.8
	c0.9-2.8,6.8-12.6,9.1-15.8c2.3-3.2,8.4-9.8,8.4-9.8c1.1-2,11.2-8.9,14.4-10.5l13-9.1c4.3-3,12.5-5.7,18.5-7.5l4.5-1.8
	c8.4-2.8,20.8-3.9,22.4-3.7h5.3c1.8-0.2,16.4,0.9,24.8,3.7l5.3,1.2c6.1,2,13.2,4.6,17.5,7.8l13.9,9.3c-1.8-0.9,11.8,6.6,14.4,11.4
	c0.2,0.2,15,18.9,16.6,24.6l7.7,18.7c0.7,1.2,0.9,5.2,1.1,8.9c0.2,3.9,0.9,9.3,1.8,15.1C223.3,598.3,220.6,608.3,218.8,616.6
	L218.8,616.6z"/>
<g>
	<path fill="#F1F1F1" d="M112.4,621.6c-0.2,0.9-4.3-0.7-6.2-0.9c-1.4,0-4.8-0.2-5-0.2c-0.7-0.2-1.1-0.9-0.4-1.1
		C102.9,619.1,112.5,620.6,112.4,621.6z M92.6,619.8h-4.3c-4.5,0-4.8,0-4.6-0.5c0.4-1.1,2.8-0.4,4.3-0.5
		C90.1,619,92.6,618.4,92.6,619.8L92.6,619.8z M95.3,619.7c0.4-0.4,3-0.5,2.8,0.4c0,0.7-0.4,0.5-1.8,0.4
		C94.7,620.4,94.9,620,95.3,619.7L95.3,619.7z"/>
</g>
<g>
	<path fill="#F1F1F1" d="M117.7,483.5c-1.2,0-2.1-1.1-2.1-2.1c0-1.2,0.9-2.1,2.1-2.1s2.1,1.1,2.1,2.1
		C119.8,482.6,118.9,483.5,117.7,483.5z M110,483.6c-1.2,0-2.1-0.9-2.3-2c0-1.2,0.7-2.1,2-2.3c1.2,0,2.1,0.9,2.3,2
		C112.2,482.6,111.3,483.6,110,483.6z M102.4,484.3c-1.2,0.2-2.3-0.7-2.3-1.8c-0.2-1.2,0.7-2.3,1.8-2.3c1.2-0.2,2.3,0.7,2.3,1.8
		C104.5,483.1,103.6,484.2,102.4,484.3z M94.9,485.6c-1.2,0.2-2.3-0.5-2.5-1.6c-0.2-1.2,0.5-2.3,1.6-2.5c1.2-0.2,2.3,0.5,2.5,1.6
		C96.9,484.3,96,485.4,94.9,485.6z M87.4,487.4c-1.2,0.4-2.3-0.4-2.7-1.4c-0.4-1.1,0.4-2.3,1.4-2.7c1.1-0.4,2.3,0.4,2.7,1.4
		C89.2,485.9,88.5,487,87.4,487.4z M80,489.7c-1.1,0.4-2.3-0.2-2.7-1.2c-0.4-1.1,0.2-2.3,1.2-2.7c1.1-0.4,2.3,0.2,2.7,1.2
		C81.7,488.1,81.2,489.3,80,489.7z M72.8,492.5c-1.1,0.5-2.3,0-2.8-1.1c-0.5-1.1,0-2.3,1.1-2.8c1.1-0.5,2.3,0,2.8,1.1
		C74.4,490.8,73.9,492,72.8,492.5z M65.9,495.7c-1.1,0.5-2.3,0.2-2.8-0.9c-0.5-1.1-0.2-2.3,0.9-2.8c1.1-0.5,2.3-0.2,2.8,0.9
		C67.3,494,67,495.2,65.9,495.7z M59.3,499.5c-1.1,0.7-2.3,0.4-2.8-0.7s-0.4-2.3,0.7-2.8c1.1-0.5,2.3-0.4,2.8,0.7
		C60.5,497.5,60.2,498.9,59.3,499.5z M52.7,503.7c-0.9,0.7-2.3,0.5-3-0.5c-0.7-0.9-0.5-2.3,0.5-3c1.1-0.7,2.3-0.5,3,0.5
		C54,501.8,53.8,503,52.7,503.7z M46.7,508.4c-0.9,0.7-2.3,0.5-3-0.4c-0.7-0.9-0.7-2.3,0.4-3c0.9-0.7,2.3-0.5,3,0.4
		C47.7,506.2,47.5,507.7,46.7,508.4z M40.8,513.4c-0.9,0.9-2.1,0.7-3-0.2s-0.7-2.1,0.2-3s2.1-0.7,3,0.2
		C41.7,511.2,41.7,512.7,40.8,513.4z M35.4,518.9c-0.9,0.9-2.1,0.9-3,0.2c-0.9-0.9-0.9-2.1-0.2-3c0.9-0.9,2.1-0.9,3-0.2
		C36.1,516.7,36.1,518,35.4,518.9z M30.3,524.8c-0.7,0.9-2.1,1.1-3,0.4c-0.9-0.7-1.1-2.1-0.4-3c0.7-0.9,2.1-1.1,3-0.4
		C31,522.4,31,523.7,30.3,524.8z M25.6,530.8c-0.7,0.9-2,1.2-3,0.5c-0.9-0.7-1.2-2-0.5-3c0.7-1.1,2-1.2,3-0.5
		C26.2,528.5,26.4,529.7,25.6,530.8z M21.5,537.2c-0.5,1.1-2,1.2-2.8,0.7c-1.1-0.5-1.4-2-0.7-2.8c0.7-1.1,2-1.2,3-0.7
		C21.7,534.9,22.1,536.2,21.5,537.2z M17.8,544c-0.5,1.1-1.8,1.4-2.8,0.9c-1.1-0.5-1.4-1.8-0.9-2.8c0.5-1.1,1.8-1.4,2.8-0.9
		C17.8,541.5,18.3,542.9,17.8,544z M14.4,550.9c-0.5,1.1-1.8,1.6-2.8,1.1c-1.1-0.5-1.6-1.6-1.1-2.8c0.5-1.1,1.8-1.6,2.8-1.1
		C14.4,548.4,15,549.7,14.4,550.9z M11.6,558.1c-0.4,1.1-1.6,1.6-2.7,1.2s-1.8-1.6-1.2-2.7c0.4-1.1,1.6-1.8,2.7-1.2
		C11.4,555.7,12.1,556.8,11.6,558.1z M9.4,565.4c-0.4,1.1-1.4,1.8-2.7,1.4c-1.1-0.4-1.8-1.4-1.4-2.7s1.4-1.8,2.7-1.4
		C9.1,563,9.6,564.1,9.4,565.4z M7.7,572.8c-0.2,1.2-1.4,2-2.5,1.6c-1.2-0.2-2-1.2-1.6-2.5c0-1.1,1.2-1.8,2.3-1.6
		C7.1,570.5,7.8,571.6,7.7,572.8z M6.2,580.5c-0.2,1.2-1.2,2-2.3,1.8c-1.2-0.2-2-1.2-1.8-2.3c0.2-1.2,1.2-2,2.3-1.8
		C5.7,578.2,6.4,579.2,6.2,580.5z M5.5,588.2c0,1.2-1.1,2.1-2.3,2c-1.2,0-2.1-1.1-2-2.3c0-1.2,1.1-2.1,2.3-2
		C4.8,585.8,5.7,586.9,5.5,588.2z M5.3,595.8c0,1.2-0.9,2.1-2.1,2.1s-2.1-0.9-2.1-2.1s0.9-2.1,2.1-2.1S5.3,594.6,5.3,595.8z
		 M5.7,603.5c0,1.2-0.7,2.1-2,2.3c-1.2,0.2-2.1-0.7-2.3-2c0-1.2,0.7-2.1,2-2.3C4.6,601.3,5.5,602.2,5.7,603.5z M6.6,611.1
		c0.2,1.2-0.7,2.3-1.8,2.5c-1.2,0.2-2.3-0.5-2.5-1.8c-0.2-1.2,0.7-2.3,1.8-2.5C5.3,609.2,6.4,609.9,6.6,611.1z M7.8,618.6
		c0.2,1.2-0.5,2.3-1.6,2.5c-1.2,0.2-2.3-0.5-2.5-1.6c-0.4-1.1,0.5-2.3,1.6-2.5C6.6,616.8,7.7,617.5,7.8,618.6z M9.8,626.1
		c0.4,1.1-0.4,2.3-1.4,2.7c-1.1,0.4-2.3-0.4-2.7-1.4c-0.4-1.2,0.4-2.3,1.4-2.7S9.4,625,9.8,626.1z M12.1,633.4
		c0.4,1.1-0.2,2.3-1.2,2.7c-1.1,0.4-2.3-0.2-2.7-1.2c-0.4-1.1,0.2-2.3,1.2-2.7C10.5,631.8,11.8,632.3,12.1,633.4z M15.1,640.5
		c0.5,1.1,0,2.3-1.1,2.8c-1.1,0.5-2.3,0-2.8-1.1c-0.5-1.1,0-2.3,1.1-2.8S14.6,639.4,15.1,640.5z M18.5,647.4
		c0.5,1.1,0.2,2.3-0.9,2.8c-1.1,0.5-2.3,0.2-2.8-0.9c-0.5-1.1-0.2-2.3,0.9-2.8C16.6,646,17.8,646.4,18.5,647.4z M22.3,654
		c0.7,1.1,0.4,2.3-0.7,3c-1.1,0.7-2.3,0.4-3-0.7c-0.7-1.1-0.4-2.3,0.7-3C20.3,652.8,21.7,653.1,22.3,654z M26.5,660.4
		c0.7,0.9,0.5,2.3-0.5,3c-0.9,0.7-2.3,0.5-3-0.5c-0.7-0.9-0.5-2.3,0.5-3C24.6,659.2,25.8,659.6,26.5,660.4z M31.3,666.5
		c0.7,0.9,0.7,2.3-0.4,3c-0.9,0.7-2.3,0.7-3-0.2c-0.7-0.9-0.7-2.3,0.4-3C29.2,665.4,30.6,665.6,31.3,666.5z M36.5,672.2
		c0.9,0.9,0.7,2.1,0,3c-0.9,0.9-2.1,0.9-3,0s-0.7-2.1,0-3C34.4,671.3,35.6,671.3,36.5,672.2z M42,677.5c0.9,0.9,0.9,2.1,0.2,3
		c-0.7,0.9-2.1,0.9-3,0.2c-0.9-0.9-0.9-2.1-0.2-3S41.1,676.8,42,677.5z M47.9,682.5c0.9,0.7,1.1,2.1,0.4,3s-2.1,1.1-3,0.4
		c-0.9-0.7-1.1-2.1-0.4-3C45.6,682,46.8,681.8,47.9,682.5z M54.1,687.2c1.1,0.7,1.2,2,0.5,3c-0.7,0.9-2,1.2-3,0.5
		c-1.1-0.7-1.2-2-0.5-3C51.8,686.8,53.1,686.4,54.1,687.2z M60.5,691.3c1.1,0.5,1.4,2,0.7,2.8c-0.5,1.1-2,1.4-2.8,0.7
		c-1.1-0.5-1.4-2-0.7-2.8C58.2,690.9,59.5,690.7,60.5,691.3z M67.3,694.8c1.1,0.5,1.4,1.8,0.9,2.8c-0.5,1.1-1.8,1.4-2.8,0.9
		c-1.1-0.5-1.4-1.8-0.9-2.8C65,694.8,66.2,694.3,67.3,694.8z M74.3,698c1.1,0.5,1.6,1.6,1.1,2.8c-0.5,1.1-1.6,1.6-2.8,1.2
		c-1.1-0.5-1.6-1.8-1.2-2.8C71.9,698.2,73.2,697.7,74.3,698z M81.6,700.9c1.1,0.4,1.8,1.6,1.4,2.7c-0.4,1.1-1.6,1.8-2.7,1.4
		c-1.1-0.4-1.8-1.6-1.4-2.7C79.1,701,80.3,700.3,81.6,700.9z M88.9,703c1.2,0.4,1.8,1.4,1.6,2.7c-0.4,1.1-1.4,1.8-2.7,1.6
		c-1.2-0.4-1.8-1.4-1.6-2.7C86.5,703.4,87.8,702.6,88.9,703L88.9,703z M96.3,704.6c1.2,0.2,2,1.2,1.8,2.5s-1.2,2-2.5,1.8
		c-1.2-0.2-2-1.2-1.8-2.5C94.2,705.1,95.3,704.4,96.3,704.6L96.3,704.6z M104,705.9c1.2,0.2,2,1.2,1.8,2.3c-0.2,1.2-1.2,2-2.3,2
		c-1.2-0.2-2-1.2-2-2.3C101.7,706.4,102.7,705.7,104,705.9L104,705.9z M111.6,706.4c1.2,0,2.1,1.1,2,2.1c0,1.2-1.1,2.1-2.1,2.1
		c-1.2,0-2.1-1.1-2-2.3C109.5,707.3,110.4,706.4,111.6,706.4L111.6,706.4z M119.3,706.6c1.2,0,2.1,0.9,2.1,2.1
		c0,1.2-0.9,2.1-2.1,2.1s-2.1-0.9-2.1-2.1C117.2,707.5,118.2,706.6,119.3,706.6z M127,706c1.2-0.2,2.1,0.7,2.3,2
		c0.2,1.2-0.7,2.1-2,2.3c-1.2,0.2-2.1-0.7-2.3-2C125,707.3,125.9,706.2,127,706L127,706z M134.6,705.1c1.2-0.2,2.3,0.5,2.5,1.8
		c0.2,1.2-0.5,2.3-1.8,2.5c-1.2,0.2-2.3-0.5-2.5-1.8C132.7,706.4,133.4,705.3,134.6,705.1L134.6,705.1z M142.3,703.7
		c1.2-0.4,2.3,0.4,2.5,1.6c0.2,1.1-0.4,2.3-1.6,2.5c-1.2,0.4-2.3-0.5-2.5-1.6C140.3,705.1,141,703.9,142.3,703.7L142.3,703.7z
		 M149.6,701.6c1.1-0.4,2.3,0.4,2.7,1.4c0.4,1.1-0.2,2.3-1.4,2.7c-1.1,0.4-2.3-0.4-2.7-1.4C147.8,703.2,148.5,701.9,149.6,701.6z
		 M156.9,699.1c1.1-0.4,2.3,0.2,2.7,1.2c0.4,1.1-0.2,2.3-1.2,2.7c-1.1,0.4-2.3-0.2-2.8-1.2C155.3,700.9,155.8,699.6,156.9,699.1
		L156.9,699.1z M163.8,696.2c1.1-0.5,2.3,0,2.8,1.1c0.5,1.1,0,2.3-1.1,2.8c-1.1,0.5-2.3,0-2.8-1.1
		C162.4,698,162.8,696.8,163.8,696.2z M170.8,692.7c1.1-0.5,2.3-0.2,2.8,0.9c0.5,1.1,0.2,2.3-0.9,2.8c-1.1,0.5-2.3,0.2-2.8-0.9
		C169.3,694.5,169.7,693.2,170.8,692.7z M177.4,688.8c1.1-0.7,2.3-0.4,3,0.7c0.7,1.1,0.4,2.3-0.7,3c-1.1,0.7-2.3,0.4-3-0.7
		C176.1,690.7,176.5,689.5,177.4,688.8z M183.8,684.3c0.9-0.7,2.3-0.5,3,0.4c0.7,0.9,0.5,2.3-0.4,3s-2.3,0.5-3-0.4
		C182.5,686.4,182.7,685,183.8,684.3z M189.6,679.5c0.9-0.7,2.1-0.7,3,0.2c0.7,0.9,0.7,2.3-0.2,3c-0.9,0.7-2.3,0.7-3-0.2
		C188.6,681.6,188.7,680.4,189.6,679.5z M195.3,674.3c0.9-0.9,2.1-0.9,3,0c0.9,0.9,0.9,2.1,0,3c-0.9,0.9-2.1,0.9-3,0
		C194.4,676.5,194.4,675.2,195.3,674.3z M200.7,668.8c0.7-0.9,2.1-0.9,3-0.2s1.1,2.1,0.2,3c-0.7,0.9-2.1,0.9-3,0.2
		C200,671,199.8,669.7,200.7,668.8z M205.5,662.8c0.7-0.9,2-1.1,3-0.4c0.9,0.7,1.1,2,0.4,3c-0.7,0.9-2.1,1.1-3,0.4
		C205,665.1,204.8,663.7,205.5,662.8z M209.9,656.5c0.7-1.1,2-1.2,3-0.5c1.1,0.7,1.2,2,0.5,3c-0.7,1.1-2,1.2-3,0.5
		C209.6,658.8,209.4,657.4,209.9,656.5z M214,649.9c0.5-1.1,2-1.4,2.8-0.9c1.1,0.5,1.4,1.8,0.9,2.8c-0.5,1.1-2,1.4-2.8,0.7
		C213.7,652.3,213.3,651,214,649.9z M217.6,643.2c0.5-1.1,1.8-1.4,2.8-1.1c1.1,0.5,1.6,1.8,1.1,2.8s-1.8,1.6-2.8,1.1
		C217.4,645.5,217.1,644.2,217.6,643.2z M220.6,636.1c0.5-1.1,1.6-1.6,2.8-1.2c1.1,0.4,1.6,1.6,1.2,2.8c-0.5,1.1-1.6,1.6-2.8,1.2
		C220.8,638.5,220.3,637.3,220.6,636.1z M223.3,628.9c0.4-1.1,1.6-1.8,2.7-1.4c1.1,0.4,1.8,1.6,1.4,2.7c-0.4,1.1-1.6,1.8-2.7,1.4
		C223.5,631.2,222.9,630,223.3,628.9z M225.3,621.5c0.4-1.2,1.4-1.8,2.5-1.6c1.1,0.4,1.8,1.4,1.6,2.5c-0.4,1.2-1.4,1.8-2.7,1.6
		C225.8,623.8,225.1,622.7,225.3,621.5z M226.9,614c0.2-1.2,1.2-2,2.5-1.8c1.2,0.2,2,1.2,1.8,2.5s-1.2,2-2.5,1.8
		C227.4,616.3,226.7,615.2,226.9,614L226.9,614z M227.9,606.3c0.2-1.2,1.1-2,2.3-2c1.2,0.2,2,1.1,2,2.3c-0.2,1.2-1.2,2-2.3,2
		C228.6,608.5,227.7,607.6,227.9,606.3z M228.5,598.7c0-1.2,1.1-2.1,2.1-2.1c1.2,0,2.1,1.1,2.1,2.1c0,1.2-1.1,2.1-2.1,2.1
		C229.3,600.8,228.5,599.9,228.5,598.7z M228.5,591c0-1.2,0.9-2.1,2-2.1c1.2,0,2.1,0.9,2.1,2c0,1.2-0.9,2.1-2.1,2.1
		C229.3,593,228.5,592.1,228.5,591z M227.9,583.3c-0.2-1.2,0.7-2.1,2-2.3c1.2-0.2,2.1,0.7,2.3,2c0.2,1.2-0.7,2.3-2,2.3
		C229,585.3,227.9,584.4,227.9,583.3z M226.9,575.7c-0.2-1.2,0.5-2.3,1.8-2.5c1.2-0.2,2.3,0.5,2.5,1.8c0.2,1.2-0.5,2.3-1.8,2.5
		C228.1,577.6,227,576.8,226.9,575.7L226.9,575.7z M225.3,568.2c-0.4-1.2,0.4-2.3,1.6-2.5c1.1-0.4,2.3,0.4,2.7,1.6s-0.4,2.3-1.6,2.7
		C226.7,570,225.6,569.3,225.3,568.2L225.3,568.2z M223.1,560.7c-0.4-1.1,0.2-2.3,1.4-2.7c1.1-0.4,2.3,0.2,2.7,1.4
		c0.4,1.1-0.2,2.3-1.4,2.7C224.7,562.5,223.5,562,223.1,560.7z M220.4,553.6c-0.5-1.1,0-2.3,1.2-2.8c1.1-0.4,2.3,0,2.8,1.2
		c0.5,1.1,0,2.3-1.2,2.8C222.2,555.2,221,554.7,220.4,553.6z M217.4,546.5c-0.5-1.1,0-2.3,1.1-2.8c1.1-0.5,2.3-0.2,2.8,0.9
		c0.5,1.1,0,2.3-1.1,2.8C219.2,547.9,218,547.6,217.4,546.5z M213.9,539.7c-0.5-1.1-0.2-2.3,0.7-2.8c1.1-0.5,2.3-0.2,2.8,0.7
		c0.5,1.1,0.2,2.3-0.7,2.8C215.6,541.1,214.4,540.8,213.9,539.7z M209.8,533.1c-0.7-1.1-0.4-2.3,0.5-3c1.1-0.7,2.3-0.4,3,0.5
		c0.7,1.1,0.4,2.3-0.5,3C211.7,534.4,210.5,534.2,209.8,533.1z M205.3,526.9c-0.7-0.9-0.5-2.3,0.4-3c0.9-0.7,2.3-0.5,3,0.4
		c0.7,0.9,0.5,2.3-0.4,3C207.3,528,206,527.8,205.3,526.9z M200.3,521c-0.7-0.9-0.7-2.1,0.2-3c0.9-0.7,2.1-0.7,3,0.2
		c0.7,0.9,0.7,2.3-0.2,3C202.5,521.9,201.2,521.9,200.3,521z M195.2,515.3c-0.9-0.9-0.9-2.1,0-3c0.9-0.9,2.1-0.9,3,0
		c0.9,0.9,0.9,2.1,0,3S195.9,516.2,195.2,515.3z M189.5,510.2c-0.9-0.7-1.1-2.1-0.2-3c0.7-0.9,2.1-1.1,3-0.2c0.9,0.7,1.1,2.1,0.2,3
		C191.6,510.9,190.4,511.1,189.5,510.2z M183.4,505.4c-0.9-0.7-1.1-2-0.4-3c0.7-0.9,2-1.2,3-0.5c0.9,0.7,1.1,2.1,0.4,3
		C185.7,505.9,184.3,506.1,183.4,505.4z M177.2,501.1c-1.1-0.7-1.2-2-0.7-2.8c0.7-1.1,2-1.2,3-0.7c1.1,0.7,1.2,2,0.7,3
		C179.5,501.4,178.1,501.6,177.2,501.1z M170.4,497.2c-1.1-0.5-1.4-1.8-0.9-2.8c0.5-1.1,1.8-1.4,2.8-0.9c1.1,0.5,1.4,1.8,0.9,2.8
		S171.5,497.7,170.4,497.2z M163.6,493.6c-1.1-0.5-1.6-1.8-1.1-2.8s1.8-1.6,2.8-1.1c1.1,0.5,1.6,1.8,1.1,2.8
		C166,493.6,164.7,494.1,163.6,493.6z M156.5,490.8c-1.1-0.5-1.6-1.8-1.2-2.8s1.6-1.6,2.7-1.2c1.1,0.4,1.6,1.6,1.2,2.8
		C158.8,490.6,157.6,491.1,156.5,490.8z M149.2,488.3c-1.1-0.4-1.8-1.4-1.4-2.7c0.4-1.1,1.4-1.8,2.7-1.4c1.1,0.4,1.8,1.6,1.4,2.7
		S150.5,488.6,149.2,488.3z M141.9,486.3c-1.2-0.4-1.8-1.4-1.6-2.5c0.2-1.2,1.4-2,2.5-1.6c1.2,0.2,2,1.4,1.6,2.5
		C144.2,485.8,143,486.5,141.9,486.3z M134.3,484.7c-1.2-0.2-2-1.2-1.8-2.5c0.2-1.2,1.2-2,2.5-1.8c1.2,0.2,2,1.2,1.8,2.5
		C136.6,484.2,135.5,484.9,134.3,484.7z M126.6,483.8c-1.1,0-2-1.1-2-2.3c0.2-1.2,1.1-2.1,2.3-2c1.2,0.2,2.1,1.2,2,2.3
		C128.9,483.1,127.9,484,126.6,483.8z"/>
</g>
</svg>
