<?xml version="1.0" encoding="utf-8"?>
<!-- Generator: Adobe Illustrator 17.1.0, SVG Export Plug-In . SVG Version: 6.00 Build 0)  -->
<!DOCTYPE svg PUBLIC "-//W3C//DTD SVG 1.1//EN" "http://www.w3.org/Graphics/SVG/1.1/DTD/svg11.dtd">
<svg version="1.1" id="Layer_1" xmlns="http://www.w3.org/2000/svg" xmlns:xlink="http://www.w3.org/1999/xlink" x="0px" y="0px"
	 viewBox="1.1 1437.8 842.1 231.9" enable-background="new 1.1 1437.8 842.1 231.9" xml:space="preserve">
<path fill="#777777" d="M278.1,1667.1c-19.8,0-21.2-10.5-21.2-21.2v-36.2h10.9v41.8c0,5.5,1.8,11.6,10.1,11.6
	c9.1-0.2,9.6-6.4,9.6-11.6v-38c0-5.7-1.2-9.1-2.7-14.6c-2.1-8.4-5-13-9.1-20.8l-10.9-20.8c-3.7-6.8-5-11-6.4-18.5
	c-1.4-7.1-1.4-11.8-1.4-19.1v-8.4c0-10.5,1.4-21,20.7-21c19.8,0,21,10.7,21,21.2v32.3h-11v-38c0-5.3-1.2-11.2-9.6-11.2
	c-9.1,0.2-10.1,6.2-10.1,11.2v11.4c0,7.5,0.2,12.1,1.8,19.8c1.4,6.8,3,10.9,6.4,17.5l10.3,19.8c2.1,4.8,6.2,11.2,8.4,18.7
	c2.5,7.8,3.9,11.2,3.9,20.3v33.2C298.7,1656.6,297.4,1666.9,278.1,1667.1L278.1,1667.1z M363.1,1665.8h-10.9V1576h-19.4v89.8h-11
	v-154.5c0-10.7,1.4-21.2,21.2-21.2c19.2,0,20.3,10.5,20.3,21v154.7H363.1z M352.2,1569.2v-63.7c0-5.2-0.5-11-9.6-11.2
	c-8.4,0-9.8,5.9-9.8,11.2v63.5h19.4V1569.2z M417.6,1596.6v-105.8h10.9v175h-10.9v-33.4l-19.7-93.8v127.2H387v-175.1h9.8
	L417.6,1596.6L417.6,1596.6z M490.3,1497.4h-16.2v168.4h-11v-168.4h-15.8v-6.4h43.2v6.4H490.3z M550.6,1665.8h-10.9V1576h-19.4v89.8
	h-11v-154.5c0-10.7,1.4-21.2,21.2-21.2c19.2,0,20.3,10.5,20.3,21v154.7H550.6z M539.7,1569.2v-63.7c0-5.2-0.5-11-9.6-11.2
	c-8.4,0-9.8,5.9-9.8,11.2v63.5h19.4L539.7,1569.2L539.7,1569.2z M649.6,1609.6v39.8c0,9.6-5,17.6-20.5,17.6s-21.2-7.7-21.2-17.1
	v-138.6c0-10.7,1.4-21.2,21.2-21.2c19.2,0,20.5,10.5,20.5,21v33h-11v-38.7c0-5.2-0.5-11-9.4-11.2c-8.5,0-10.1,5.9-10.1,11.2v148.5
	c0,4.5,3.9,8.5,10.1,8.5c6.4-0.2,9.4-3.9,9.4-8.4v-44.4H649.6z M704.8,1665.8v-74c0-5.2-0.7-10.5-4.3-12.8c-3.4-2.5-5.9-3-10.1-3h-5
	v89.9h-11v-174.4h19.8c3,0,11,0.4,16.2,4.3c5.3,3.9,5.3,9.3,5.3,15.5v46.8c0,3.2-0.5,5.5-2.7,8.4c-2.5,3.2-8.5,6.4-9.1,6.6
	c0.5,0.2,5.3,2.8,7.7,5.5c3.9,4.1,4.3,8.2,4.3,13v74.4h-11.1L704.8,1665.8L704.8,1665.8z M700.3,1497.8c-2-0.9-5-1.6-8.2-1.6h-6.6
	v74.9h5.2c4.6,0,9.4-2.1,11.4-4.5c1.8-1.8,2.7-7.5,2.7-12.1v-46.9C704.8,1502.6,703.9,1499.4,700.3,1497.8L700.3,1497.8z
	 M749.4,1654.1c0,4.5,3.2,8.4,9.6,8.4c6.2,0,9.4-4.1,9.4-8.5v-162.8h11v159c0,9.4-5,17.1-20.5,17.1c-15.5,0-20.7-8-20.7-17.6v-158.5
	h11v162.9L749.4,1654.1L749.4,1654.1z M827.9,1497.4H804v-6.6h37.5l-25.8,167.7h27.5v7.1h-41.1L827.9,1497.4z M279.5,1464.1
	c0,3.2-0.2,6.2-2.5,8.9c-2.1,2.7-5.5,3.7-8.9,3.7c-3.2,0-6.6-0.7-8.9-3.2c-2.5-2.7-2.7-6.1-2.7-9.4v-21h4.1v21c0,2,0,4.6,1.2,6.4
	c1.4,2,4.1,2.5,6.4,2.5c2.1,0,4.5-0.7,5.9-2.3c1.6-2,1.6-4.3,1.6-6.6v-21h3.6v21H279.5L279.5,1464.1z M311.7,1476.2h-4.1l-16.8-28.9
	v28.9h-3.6V1443h5.2l15.7,27v-27h3.6V1476.2L311.7,1476.2z M319.5,1476.2V1443h4.1v33.2H319.5z M343.4,1476.2h-3.9l-11.2-33.2h4.3
	l9.3,27.3l9.1-27.3h3.6L343.4,1476.2z M380.5,1476.2h-21.4V1443h21v3.6h-16.7v10.5h13.4v3.4h-13.4v12.1h17.3v3.6L380.5,1476.2
	L380.5,1476.2L380.5,1476.2z M405.5,1476.2l-6.1-14.2h-9.1v14.2h-4.1V1443h12.6c2.7,0,5.3,0.4,7.5,2c2.1,1.6,3.6,4.5,3.6,7.3
	c0,3.9-2.3,7.5-6.2,8.5l6.6,15.3h-4.8V1476.2z M398,1458.5c2.1,0,4.1-0.2,5.7-1.8c1.2-1.2,1.6-2.7,1.6-4.3c0-2-0.7-3.6-2.3-4.6
	c-1.4-1.1-2.8-1.1-4.6-1.1h-8.2v11.8H398L398,1458.5z M417.8,1466.4c1.4,4.6,5.2,6.8,9.8,6.8c2,0,4.5-0.4,5.9-1.6
	c1.2-0.9,2-2.7,2-4.3c0-3.4-2.7-4.6-5.7-5.3l-5.5-1.4c-2.1-0.5-4.3-1.1-6.1-2.7c-1.8-1.6-2.7-3.7-2.7-6.1c0-6.4,5.5-9.1,11.2-9.1
	c5.5,0,10,2.7,11.8,8l-3.7,1.1c-0.7-3.6-4.6-5.9-8.2-5.9c-3.2,0-7.1,1.6-7.1,5.3s2.8,4.5,6.1,5.3l5,1.2c2.1,0.5,4.3,1.1,6.1,2.5
	c2.1,1.6,3,3.9,3,6.6c0,3-1.2,5.7-3.7,7.5c-2.5,1.8-5.7,2.5-8.5,2.5c-6.8,0-11.2-3-13.4-9.4L417.8,1466.4L417.8,1466.4z
	 M446.1,1476.2V1443h4.1v33.2H446.1z M469,1476.2h-4.1v-29.5h-9.4v-3.6h22.8v3.6h-9.4v29.5H469z M494.4,1462.3v13.9h-4.1v-13.9
	l-11-19.2h4.8l8.7,15.3l8.9-15.3h3.7L494.4,1462.3z M521.8,1459.9c0-8.2,4.1-17.3,13.5-17.3c9.3,0,13.5,8.5,13.5,16.6
	s-4.1,17.5-13.5,17.5C525.9,1476.8,521.8,1468.2,521.8,1459.9z M544.7,1459.4c0-3-0.5-6.4-2-9.1c-1.4-2.7-4.1-4.5-7.1-4.5
	c-7.3,0-9.4,8-9.4,13.9c0,5.7,2.3,13.4,9.3,13.4C542.6,1473.4,544.7,1465.2,544.7,1459.4L544.7,1459.4z M555.2,1476.2V1443h20.3v3.6
	h-16v10.5h13.4v3.4h-13.4v15.8L555.2,1476.2L555.2,1476.2z M616.9,1465.9c-1.6,6.2-5.3,10.9-12.3,10.9c-9.6,0-13.5-9.3-13.5-17.5
	c0-8.5,4.3-16.7,13.7-16.7c6.6,0,10.5,4.5,11.9,10.5l-3.9,0.7c-1.2-4.3-3.2-7.8-8.2-7.8c-7.1,0-9.1,7.8-9.1,13.5
	c0,2.7,0.4,5.9,1.6,8.2c1.4,3,3.9,5.3,7.3,5.3c5,0,7.5-3.7,8.5-8.2L616.9,1465.9z M645.7,1476.2h-4.3l-3.4-9.6h-12.3l-3,9.6h-3.6
	l10.7-33.2h4.8L645.7,1476.2L645.7,1476.2z M632.2,1447.5l-5.2,15.8h10.1L632.2,1447.5L632.2,1447.5z M669.7,1476.2h-19.6V1443h4.1
	v29.5h15.3v3.7H669.7z M674.5,1476.2V1443h4.1v33.2H674.5z M686.8,1476.2V1443h20.3v3.6h-16v10.5h13.3v3.4H691v15.8L686.8,1476.2
	L686.8,1476.2L686.8,1476.2z M708.3,1459.9c0-8.2,4.1-17.3,13.5-17.3c9.3,0,13.5,8.5,13.5,16.6s-4.1,17.5-13.5,17.5
	C712.4,1476.8,708.3,1468.2,708.3,1459.9z M731.2,1459.4c0-3-0.5-6.4-2-9.1c-1.4-2.7-4.1-4.5-7.1-4.5c-7.3,0-9.4,8-9.4,13.9
	c0,5.7,2.3,13.4,9.3,13.4C729.1,1473.4,731.2,1465.2,731.2,1459.4L731.2,1459.4z M761.3,1476.2l-6.1-14.2h-9.1v14.2H742V1443h12.5
	c2.7,0,5.3,0.4,7.5,2c2.1,1.6,3.6,4.5,3.6,7.3c0,3.9-2.3,7.5-6.2,8.5l6.6,15.3h-4.7V1476.2z M753.8,1458.5c2.1,0,4.1-0.2,5.7-1.8
	c1.2-1.2,1.6-2.7,1.6-4.3c0-2-0.7-3.6-2.3-4.6c-1.4-1.1-2.8-1.1-4.6-1.1H746v11.8H753.8L753.8,1458.5z M796.1,1476.2H792l-16.9-28.9
	v28.9h-3.4V1443h5.2l15.7,27v-27h3.6L796.1,1476.2L796.1,1476.2z M804,1476.2V1443h4.1v33.2H804z M839,1476.2h-4.3l-3.4-9.6H819
	l-3,9.6h-3.6l10.7-33.2h4.8L839,1476.2L839,1476.2z M825.4,1447.5l-5.2,15.8h10.1L825.4,1447.5L825.4,1447.5z M195,1556.8
	c-0.2-0.2-1.8-2-5-5.3c0.2-1.4,0.4-3.2,0.5-5.3l0.4-3.6l-1.4,0.7c-0.5,0.2-2,1.8-3.6,3.7c-3.6-3.9-8.4-8.9-14.1-14.8v-15.5
	c11,8,19.9,14.6,19.9,14.6c0.5,0.4,1.2-0.5,0.5-1.1c-3.9-3-11.4-8.5-20.5-15.1v-8.7c0-1.1,0-3.4-1.1-2.7c-2.1,1.4-11.6-0.4-11.8-0.4
	l-2.5,0.5c-8.4-6.2-16.9-12.5-24.2-17.8c-1.8-1.2-2.5-0.5-0.7,0.9c1.2,1.1,11.6,8.7,23.3,17.3c-3.7,0.7-6.8,0.7-9.4,0.5
	c-4.3-4.5-8.7-9.1-13.7-14.1c-1.4-1.4-2.5-0.5-1.1,0.9c0.2,0.2,5.2,5.5,12.3,12.8c-2.3-0.2-4.5-0.7-6.6-0.9
	c-1.2-1.8-2.7-3.6-3.7-5.3c-2.3-3-2.5-1.1-1.2,0.9c0.7,1.1,1.6,2.5,2.8,4.3h-4.5c-0.2-0.7-0.4-1.2-0.7-1.8c-0.9-2.3-2.5-3.2-1.4,0.7
	c0.2,0.5,0.4,0.9,0.4,1.4c-0.9,0.2-2.1,0.5-3.4,1.2c-0.4-2.5-0.9-4.8-1.2-7.1c-0.5-2.5-1.6-2.3-1.2,0.4c0.4,2.5,0.7,5,1.2,7.5
	c-1.6,0.9-3.2,2-4.1,3.6c0-4.3-0.2-8.4-0.2-12.3c0-4.1-1.1-2.5-1.2,0v11.2c-1.1-1.4-3-2.5-4.8-3.4l1.1-6.6c0.4-2.7-0.9-2.8-1.2-0.4
	c-0.4,2.1-0.7,4.3-1.2,6.4c-1.4-0.5-2.7-0.7-3.4-0.7l0.4-1.1c1.1-3.9-0.5-3.2-1.2-0.7c-0.2,0.5-0.4,1.1-0.5,1.8
	c-1.6,0-3.2,0-4.6,0.2c1.2-1.8,2.1-3.2,2.8-4.3c1.4-2,1.1-3.9-1.2-0.9c-1.2,1.6-2.5,3.4-3.7,5.3c-2.3,0-4.3,0.2-6.1,0.2
	c6.8-7.1,11.4-11.9,11.6-12.3c1.4-1.4,0.4-2.3-1.1-0.9c-4.6,4.6-8.9,9.1-12.8,13.2c-6.6,0.4-8.7,0.5-10.9,0.7
	c12.1-8.9,22.8-16.7,24-17.8c1.8-1.4,1.1-2.1-0.7-0.9c-7.7,5.7-16.7,12.3-25.5,18.7h-2.7c-2.1,0-7.3,0.2-8.7,0
	c-0.5,0-1.4-0.4-1.8-0.4c-1.1,0-1.2,0.7-1.2,1.8v9.3c-8.7,6.4-16.2,11.9-19.9,14.8c-0.7,0.5,0,1.4,0.5,1.1c0,0,8.7-6.4,19.6-14.4
	v15.5c-15.1,15.8-23,24.4-23.1,24.6c-1.1,1.1-0.2,1.8,0.7,0.9c3.2-3,12.1-12.1,22.1-22.6v23.7c-8.2,13-13.9,22.8-14.1,22.8
	c-1.2,2-1.1,3,0.4,1.4c0.4-0.4,6.1-9.3,13.7-21.2v14.6c-2,0.2-4.6,0.7-5.5,2c-1.1,1.4-0.7,2.7-0.9,4.6c-0.2,1.2-0.4,3-0.7,3.9
	c-0.5,1.6-2,2.7-2.8,3.6s-1.4,2.3-2,3.6c-0.9,2.1,0.4,5.3,1.8,7.7c0.7,1.2,2.1,2.7,3.6,2.8c5.3,0.9,6.1-2.8,6.8-4.8
	c0-0.2,0-0.2,0.2-0.4c0,3.6,0.2,5.5,0.2,5.7c0,0.2,2.7,0,6.8-0.2c-0.9,2.8-1.6,4.5-1.6,4.6c-0.9,3.4,0.7,2.1,1.1,0.9l2-5.5
	c3.6-0.2,8-0.4,12.5-0.5c0.9,1.4,2.8,3.6,3.6,5l0.9,1.6l0.5,1.1c0.7,1.2,1.2,2.3,2,3.2c-0.5,3-0.9,4.8-0.9,5.2
	c-1.1,4.6-0.2,5,1.1,0.7c0-0.2,0.4-1.8,0.9-4.3c0.5,0.7,1.1,1.6,1.8,2.5c1.4,2,4.5,3.9,11.6,6.9c2.7,1.2,6.6,2,10.9,2.1
	c0.2,3.6,1.1,2.7,1.2,0c5.5,0.2,11.8-0.7,17.8-2.7c3.2-1.6,5.5-3.4,6.9-5v0.2c1.2,4.3,2.1,3.9,1.1-0.7c0-0.2,0-0.4-0.2-0.7
	c0.9-1.1,1.2-1.8,1.2-2c0.4-0.7,3.6-7.5-0.4-12.5l-0.2-0.2l-0.4-0.2l-0.7-0.5c7.1,0.4,14.8,0.7,19.9,0.9l1.6,4.3
	c0.4,1.2,2.1,2.3,1.1-0.9c0,0-0.5-1.2-1.2-3.4c3.2,0.2,5.2,0.2,5.2,0v-7.3c4.5-0.7,5.9-2,8.7-4.5c3.4-3,5.5-7.1,5.3-11.2
	c0.2,0.4,0.4,0.5,0.4,0.5c1.4,1.6,1.6,0.5,0.4-1.4c0,0-0.5-0.7-1.2-2c-0.7-2.3-2-4.3-3.6-5.9c-1.6-2.7-3.6-5.9-5.9-9.6
	c2.3-0.4,4.8-1.1,6.8-1.8c2.1-0.9,5.3-3.4,6.8-7.3l0.9-0.4c0.2-0.4,0.4-0.9,0.4-1.2l4.6,4.6C195,1558.6,196.1,1557.9,195,1556.8
	L195,1556.8z M184.6,1548.3c-1.2,1.4-2.5,2.8-3.6,4.1c-0.4-1.4-0.7-4.3-1.1-6.2c-0.4-1.6-0.7-2.8-1.2-3.9
	C180.9,1544.4,182.8,1546.3,184.6,1548.3L184.6,1548.3z M171.6,1534.7c1.6,1.6,3,3.2,4.5,4.6v0.7c0.5,5.3-0.5,9.6-1.2,12.1
	s-1.4,3.6-2.7,4.1l-0.7,0.4C171.6,1548.5,171.6,1541,171.6,1534.7z M167.5,1507.2c0.2-1.1,2-1.4,2.3,0.5c0.4,1.1,0.2,25.5,0,49.6
	c-0.7,0.2-1.4,0.2-2.1,0.2h-0.2C167.5,1533.1,167.3,1507.8,167.5,1507.2L167.5,1507.2z M164.1,1507.2c0-0.7,1.8-1.1,1.6,0.5
	c0.2,0.4-0.2,25.1-0.4,49.1l-0.9-0.4c0-0.4-0.2-0.7-0.2-0.7c0-2.5,1.1-2.8,0-4.1c-0.2-0.4-0.7-0.5-1.2-0.7
	C163.6,1528.3,163.9,1507.6,164.1,1507.2L164.1,1507.2z M159.7,1506.2c0.4-1.4,1.8-0.4,1.8,0.2c0,0.6-0.2,22.3-0.4,44.6
	c-0.5,0.2-1.2,0.2-2,0.4C159.3,1538.3,159.5,1523.2,159.7,1506.2L159.7,1506.2z M159.3,1552h0.4c0,0,2.3-0.7,3-0.2
	c0.9,0.7,0.5,3.7,0.5,4.8v1.1c0,0.2,0.2,0.4,0.2,0.7c0.4,0.9,1.2,1.2,1.2,1.6c-0.5-0.2-0.9-0.4-1.4-0.4c-0.7-0.2-1.4-0.4-2-0.4
	c-0.7-0.2-1.2-0.2-2-0.2h-1.6c-1.4,0.2-2.7,0.4-3.6,0.9c-0.4,0.2-0.7,0.4-1.1,0.7c0,0-0.2,0-0.2,0.2c-0.4,0.2-0.5,0.5-0.9,0.9
	c-0.5,0.7-0.9,1.6-1.2,2.5c-0.2-0.9-1.2-2-1.2-2.7c0-2.8,1.8-4.8,3-5.9c0.4-0.4,0.9-0.7,1.2-0.9c0.2-0.2,0.4-0.2,0.4-0.2l0.9-0.5
	c0.2,0,0.4-0.2,0.4-0.2c0.4-0.2,0.5-0.4,0.9-0.4c0.2,0,0.2,0,0.4-0.2C157.9,1552.4,158.8,1552.2,159.3,1552L159.3,1552z
	 M164.8,1561.5l0.4,0.2v6.4c-0.9,0-1.4,0.2-2.1,0.4c0-2.5,0-5,0.2-7.7c0.4,0.2,0.7,0.4,1.2,0.5L164.8,1561.5L164.8,1561.5z
	 M161.1,1560.2v9.1l-0.4,0.2c-0.4,0.2-0.9,0.4-1.4,0.5v-10.1L161.1,1560.2z M157.7,1560v10.5c-0.4,0-0.5,0.2-0.7,0.2
	c-2.7,0.2-4.3-0.9-4.6-1.6c-0.2-0.4-0.4-0.7-0.7-1.2c-0.2-0.5-0.4-1.6-0.4-1.6c0-1.4,0.7-2.3,2.1-3.9
	C154.5,1561.1,155.9,1560.2,157.7,1560z M119.7,1511.3c0.5-5,13.9-6.8,16.2-6.2c2.1,0.5,5.9,1.2,7.5,1.4c0,0,7.5,1.8,14.2-0.7v45.5
	c-1.2,0.4-4.1,1.1-6.1,2.7c-2.1,1.8-3.6,3.9-3.6,6.8c0,2,0.7,3.7,1.6,6.2c0.5,1.4,0.9,3,1.1,3c1.2,2,0.9,3.7,1.2,5.5
	c0.5,2.8,2.3,3.4,3,3.6l2.5,0.5v3.4h-0.5c-4.5-0.4-6.1-1.1-8.7-2.3l-3-1.8c-5.3-2.5-12.5-2.3-16-0.7c-2,0.7-3,1.4-4.1,2.7l-0.2,0.7
	l0.2,0.5c0.4,1.1,1.2,2.1,1.6,3c0.4,0.7,0.2,2.5,0.2,3c0,1.4-1.2,2.8-1.6,3.2h0.2c-1.2,0.7-1.8,2.3-2,4.5c-1.4,0.7-2.5,1.2-3.6,2
	C119.7,1597.7,119.1,1511.5,119.7,1511.3L119.7,1511.3z M133.4,1598.8c0.2,0.5,0.5,1.1,1.1,1.4c0.4,0.5,0.9,0.9,1.6,1.2
	c0.5,0.4,1.2,0.9,2,1.2l0.9,0.5c0.5,0.2,0.9,0.5,1.4,0.9c-0.5,0-0.9,0-1.4,0.2l-2.1,0.2c-0.5,0-0.9,0-1.2,0.2
	c-1.2,0.2-2.3,0.2-4.1-0.2c-0.5,0-1.1-0.2-1.8-0.4c-1.1-0.2-1.8-0.7-2.5-1.4c-0.7-0.7-1.4-1.6-1.8-2.5c-0.4-0.7-0.5-1.1-0.5-1.6
	l-0.2-1.4c0-0.7,0.2-1.4,0.2-2c0.2-0.5,0.2-0.9,0.5-1.2v-0.1c0.2-0.4,0.5-0.5,0.7-0.7l0.4-0.2c0.5-0.2,0.9-0.2,1.4-0.2h1.8l1.6,0.2
	h0.2l2.3,0.5l-0.4,0.9c-0.2,0.4-0.4,0.9-0.4,1.2c-0.2,0.4-0.2,0.9-0.2,1.2C132.9,1597.5,133,1598.2,133.4,1598.8L133.4,1598.8z
	 M134.2,1596.5c0-0.7,0.4-1.6,0.7-2.5c0.4,0,0.5,0,0.9-0.2c1.8,0.5,3.6,1.1,5.3,1.8L134.2,1596.5z M147.7,1597.7
	c2.3,0.7,4.8,1.1,7.5,1.4c-5.9,0.2-13,0.5-19.1,0.9c-0.7-0.5-1.1-0.9-1.4-1.4C139,1598.2,143.6,1598.1,147.7,1597.7z M136.5,1606.2
	c0,0.9-0.2,1.6-0.9,2.1c-3.9,3.2-7.1,3.9-14.6,2.8l-2.1-0.4v-4.3c2,0,4.1-0.5,6.2-2.1c0.2,0,0.9-0.2,1.8-0.2
	c0.7,0.5,1.6,0.9,2.7,1.1C133.4,1606.4,134,1606.4,136.5,1606.2L136.5,1606.2z M123.4,1599.1l-1.6-0.7l1.6-0.7
	C123.2,1598.2,123.2,1598.8,123.4,1599.1z M118.8,1599.3c3.6,0.2,5.5,3.6,5.2,3.9c-2.5,2.8-7.8,3-10.1,0.2
	C113.4,1602.9,115.8,1599.5,118.8,1599.3L118.8,1599.3z M113.4,1600.9c0.7,0.2-0.7,0.7-0.7,0.7c-1.6-0.4-4.8-0.5-8.5-0.9l-0.2-0.4
	c0-0.2-0.2-0.4-0.2-0.7C108.1,1600,111.7,1600.4,113.4,1600.9z M103.1,1597.5c-0.2-0.7-0.5-1.2-1.1-2c4.6,0.7,11.9,2,13.5,3.2
	c-0.9,0.4,0.2-0.2-1.2,0.9C113.1,1598.8,108.6,1598.2,103.1,1597.5L103.1,1597.5z M110.6,1602.3c0.5,0,1.8,0,1.2,1.1
	c0-0.2-2.5-0.2-6.4-0.2l-0.5-1.1C107.8,1602.2,109.7,1602.2,110.6,1602.3z M112,1604.6c2,0.7,3.2,1.4,5.2,1.8v3.9
	c-1.4-0.5-2.8-1.1-4.3-2c0,0-1.8-0.9-4.1-2c-1.1-0.5-2-1.2-2.7-2.1C109.4,1604.3,111.3,1604.5,112,1604.6z M78.1,1507
	c0-0.7,0-0.9,1.1-0.9c14.2,0.2,36.4-5.2,38.6,5.2c0,0.4,0.5,66.2,0.2,86.6c-4.8-2-8.5-2.7-16.7-3.7l-1.4-2c-1.6-2.3-2-3.2-3.2-4.1
	l-3-2.8c-1.6-1.2-3.6-3.2-3.9-3.6c-4.5-3-8.4-4.5-11.6-5.2C78.3,1535.5,77.7,1511.7,78.1,1507z M75.4,1508.3c0-2.1,1.2-2.1,1.1-0.5
	c0.2,2.3,0,24.9-0.5,68.3c-0.5-0.2-1.1-0.2-1.6-0.2C74.7,1550.8,75.4,1511.5,75.4,1508.3z M71.3,1507.8c-0.2-1.1,1.1-1.6,1.2-0.2
	c0.2,0.5-0.4,41.8-0.5,68.3l-1.6,0.2C70.4,1549.2,71.1,1508.1,71.3,1507.8z M66.7,1507.2c0.2-1.4,2.1-0.7,2.1,0.9
	c-0.2,28.8-0.5,52.3-0.7,68.5l-0.5,0.2h-1.1L66.7,1507.2z M60.8,1602.7c-1.1,0.9-2.1,1.2-3.6,1.1c-0.9,0-2.7-2.1-3.6-4.3
	c-0.4-0.9-0.4-2-0.2-3.6c0-0.5,0-0.9,0.2-1.2c0.2-0.5,0.5-1.1,0.9-1.4c0.5,0.7,1.6,1.4,2.7,2l2.1,1.2c1.2,0.9,3,1.4,4.3,1.6
	C63.1,1599.5,62.4,1601.4,60.8,1602.7L60.8,1602.7z M63.3,1596.5c-0.4,0-1.8,0.2-3.9-0.9l-2-1.1c-1.1-1.4-1.6-2.1-1.6-2.5
	c0,0,0-0.2,0.2-0.2c1.1-0.9,5.3-0.9,8-0.5v5C63.8,1596.5,63.5,1596.5,63.3,1596.5z M66.7,1603c-0.2-0.7-0.4-5-0.2-5.9v-5.7
	c0.5,0,1.1,0,1.6,0.2c0,6.6,0.2,10.1,0.7,10.3c0.4,0.2,6.9,0.2,15,0.2v0.2c0,0,0.4,0.5,0.5,0.7l0.2,0.5
	C75.1,1603.4,66.9,1603.2,66.7,1603z M81.2,1598.4c0.2,0.4,0.5,0.7,0.9,1.2c-6.4-0.2-11.2-0.5-11.4-0.7c-0.2-0.2-0.2-2.8-0.4-7.1
	l1.6,0.4c0,3.4,0.2,5.5,0.2,5.7C72.6,1598.1,76.1,1598.2,81.2,1598.4L81.2,1598.4z M74.2,1593.1c0.5,0.2,1.1,0.5,1.8,0.9
	c0,0,0,0.2,0.2,0c1.1,0.5,2.1,1.4,3.2,2.3c-3,0-5.2,0-5,0.2C74,1596.1,74.2,1594.9,74.2,1593.1z M146.3,1611.1c0,0.5,0,1.1-0.2,1.6
	v0.4c-0.2,0.5-0.2,1.1-0.4,1.8l-0.5,1.6c0,0.2,0,0.2-0.2,0.4c-0.2,0.5-0.4,1.1-0.7,1.6c-0.4,0.5-0.5,1.1-0.9,1.4
	c-1.4,2-3.4,3.2-8.4,5.5c-1.4,0.5-2.8,0.9-4.1,1.2l-0.7,0.2c-1.1,0.4-2.3,0.5-3.4,0.7h-0.5c-1.2,0.2-2.3,0.4-3.6,0.4h-0.2
	c-1.2,0-2.5,0.2-3.6,0c-1.2,0-2.3-0.2-3.4-0.2H115c-0.5,0-1.2-0.2-1.8-0.4l-1.1-0.2l-1.2-0.4l-2.1-0.7c-6.6-3-11-5.2-13-7.8
	l-1.6-2.5l-1.1-1.6c-0.5-1.1-1.1-2-1.8-3l-1.1-1.2l-0.9-1.6c-0.5-1.1-1.2-2.3-2-3.4c-0.2-0.4-0.5-0.7-0.7-1.2c0-0.2-0.9-1.8-0.9-1.8
	v-0.2l-0.5-0.7c-0.4-0.5-0.5-0.9-0.9-1.2c-0.4-0.5-0.5-0.9-0.9-1.2c-0.5-0.9-1.1-1.6-1.4-1.8c-0.2-0.2-0.4-0.4-0.5-0.4
	c-0.4-0.4-0.7-0.7-1.2-1.1s-1.2-0.9-2.1-1.2c-0.7-0.4-1.6-0.9-2.5-1.2l-1.6-0.7l-2.1-0.9l-1.6-0.5c-0.9-0.2-1.6-0.5-2.3-0.5
	l-1.6-0.4c-0.7,0-1.2-0.2-1.8-0.2H64c-3.4,0.2-3.9-0.2-5-0.2h-0.7c-0.2,0-0.5,0-0.9,0.2l0.5-1.2c0.4-1.1,0.2-2.7,0.4-4.1
	c0.2-1.6,0.7-3.7,1.6-4.5c0.2-0.2,0.5-0.5,0.9-0.5c0.2,0,0.2,0,0.4-0.2l0.9-0.4h2.8l1.4-0.2h0.4l1.2-0.4c1.2-0.4,2.5-0.5,3.7-0.7
	c0.7-0.2,1.6-0.2,2.3-0.2c1.1,0,2.3,0,3.4,0.4l2.1,0.5c0.2,0,0.2,0,0.4,0.2c0.7,0.2,1.4,0.5,2.1,0.9c0.2,0,0.4,0.2,0.4,0.2
	c0.7,0.4,1.6,0.9,2.3,1.4l0.4,0.2c0.9,0.5,1.8,1.2,2.7,2H88c0.2,0.2,1.4,1.1,2.5,2l4.1,3.2c0.9,0.7,2.5,3.2,3.9,5.2l1.1,1.6
	c0.9,1.2,1.6,3,2.1,4.6c0,0.2,0.2,0.4,0.2,0.7c0.2,0.5,0.4,1.1,0.7,1.6l0.5,1.1l0.7,1.2l0.7,1.1l0.7,0.9c0,0,0,0.2,0.2,0.2
	c0.2,0.2,0.5,0.5,0.9,0.7l0.2,0.2l1.1,0.7l2.3,1.2c0.9,0.5,2,1.1,3,1.6c0,0,0.2,0,0.2,0.2c1.1,0.5,2.3,0.9,3.6,1.2l1.6,0.4
	c0.2,0,0.4,0,0.4,0.2c8.2,1.1,15,0,17.6-2.8c0.9-1.1,1.4-2.3,1.2-3.6h0.5c2.7-0.2,3.6-0.4,5.2,0.9
	C145.1,1608.4,146.3,1609.5,146.3,1611.1L146.3,1611.1z M168.9,1603.8c-0.7-0.2-15.7-0.7-27.7-0.9c-0.7-0.4-1.6-0.9-2.5-1.2
	c11.8,0.2,24.4,0.2,28.4,0c0-0.2,0.2-1.1,0.2-2.5l2-0.4C169.1,1601.3,169.1,1603,168.9,1603.8L168.9,1603.8z M181,1576.5
	c1.1,1.4,2,3.2,2.1,5.2c0.7,3.9,0.5,7.3-2.7,10.1l-1.2,1.1l-0.7,0.5c-0.2,0.2-0.4,0.2-0.4,0.4l-0.7,0.5l-0.4,0.2l-0.7,0.5l-0.4,0.2
	c-0.2,0.2-0.5,0.4-0.7,0.4l-0.4,0.2l-0.9,0.4c-0.2,0-0.2,0-0.4,0.2l-1.1,0.4h-0.1l-1.2,0.4l-1.6,0.2l-2.3,0.4
	c-0.9,0.2-1.6,0.2-2.5,0.2c-1.1,0.2-2.1,0.2-3.2,0.2h-3.4c-1.1,0-2-0.2-2.8-0.2h-0.2c-5-0.5-9.4-1.8-12.8-3.4l-2.5-1.1l-2.1-0.9
	c-1.8-0.7-3.4-1.2-5.2-1.6H132l-2-0.4h-0.5c-0.7,0-1.4-0.2-2,0c0.4-1.1,0.7-2.5,0.7-3.6v-0.7c-0.2-0.7-0.5-1.6-0.9-2.5
	c-0.4-0.7-0.5-1.2-0.9-2.1c0.7-0.9,1.1-1.6,2.5-2.1c2.8-1.1,9.1-1.8,14.1,0.5l3.7,1.6c2.7,1.2,4.8,2.5,9.6,2.8l2.7,0.2
	c0.5,0,1.1,0,1.6,0.2h4.1c0.9,0,1.8,0,2.5-0.2c0.7,0,1.4-0.2,2-0.2c0.7,0,1.2-0.2,1.8-0.2c0.9-0.2,1.6-0.4,2.3-0.5
	c0.2,0,0.2,0,0.4-0.2c0.7-0.2,1.2-0.4,1.8-0.5C180.3,1581.3,181,1578.3,181,1576.5L181,1576.5z M159.1,1580.4c0.5,0,1.2,0.2,1.8,0
	v3.4c-0.5,0-1.1,0-1.8-0.2V1580.4z M162.9,1583.8v-3.9h0.2c0.5-0.2,1.2-0.5,2-1.1v5C164.3,1584,163.6,1583.8,162.9,1583.8
	L162.9,1583.8z M167.3,1584v-6.8l2.1-1.8c0,2.8,0,5.7-0.2,8.4C168.7,1583.8,168.2,1584,167.3,1584L167.3,1584z M179.1,1576
	c0.2,1.1,0.5,4.6-4.1,6.2l-3.7,1.2v-9.4c1.6-1.1,3.6-1.2,7.7,1.6C179.1,1575.6,179.1,1575.8,179.1,1576L179.1,1576z M178.4,1572.8
	l-2.1-0.4h-2.1c-0.5,0-0.9,0-1.4,0.2c-0.5,0-0.9,0.2-1.2,0.4c-0.7,0.2-1.2,0.5-1.8,0.9c-0.7,0.4-1.2,0.9-2,1.6
	c-0.2,0-0.2,0.2-0.2,0.2c-0.9,0.9-1.6,1.2-2.3,1.6c-0.7,0.4-1.2,0.5-2,0.7h-0.2l-0.5,0.2l-1.4,0.5c-1.1,0.4-2.3,0.5-3.4,0.4
	c-0.4,0-0.7-0.2-1.2-0.4c-2-0.9-3-2.7-3.2-3.4c-0.2-1.2,0.2-1.4-0.2-3.4c0.5,0.2,1.2,0.4,2,0.4h3c0.4,0,0.7-0.2,1.1-0.4l1.6-0.7h0.2
	c0.7-0.5,1.6-0.9,2.7-1.2c0.4-0.2,0.9-0.2,1.4-0.4h3.9c1.1,0,2.3-0.2,3.7,0.2c0.2,0,0.4,0,0.7,0.2c0.2,0,0.4,0,0.5,0.2l0.7,0.2
	c0.2,0,0.2,0,0.4,0.2l1.1,0.5l0.4,0.2l0.9,0.5l0.4,0.2C177.7,1572.1,178,1572.4,178.4,1572.8L178.4,1572.8z M167.5,1568.3v-5.3
	c0.7,0.4,1.6,0.7,2.3,0.9v4.6L167.5,1568.3z M177.3,1570.5c-3-2.1-4.3-2.1-5.9-2v-4.1c0.7,0.2,1.2,0.2,2,0.2
	C174.8,1566.6,176.2,1568.7,177.3,1570.5L177.3,1570.5z M189,1547.7c-0.4,2-0.7,3.6-1.1,4.8c-0.2,0.4-0.4,0.9-0.4,1.2l-0.4,0.7
	c-1.4,3.6-3,6.4-8.5,8.2c-0.7,0.2-1.4,0.4-2,0.4h-1.8c-0.7,0-1.4-0.2-2.1-0.4l-0.9-0.2l-1.1-0.2l-0.5-0.2c-2.3-0.7-4.1-2-4.6-3.2
	v-0.2l-0.2-0.5v-0.2c0.7,0.2,1.6,0.4,2.7,0.4c0.7,0,1.4,0,2.3-0.2c0.5,0,1.2-0.2,1.8-0.4l0.4-0.2c1.8-0.5,3.7-1.4,4.8-4.8
	c0.5-1.6,0.7-6.8,0.9-9.6c1.6,3.6,2.5,9.8,2.5,10.5l0.4,2c0,0,0.7-0.7,1.2-1.6c1.6-2.1,2.7-3.7,3.7-5c0.4-0.5,0.7-0.9,0.9-1.2
	l1.2-1.4h0.2l1.2-1.1C189.1,1546.1,189.1,1547,189,1547.7L189,1547.7z M62.2,1501.7c-0.9,0.5-1.4-0.4-0.4-0.9
	c2.1-1.2,36.2-16.6,38.9-17.8c1.6-0.7,2.5,0.4,0.9,1.2C101.5,1484.3,64.4,1500.6,62.2,1501.7z M101,1480.3c0,0,0.5,0.5-0.2,0.7
	c-0.9,0.4-11.6,0.9-12.3,0.9c-0.4,0-3.2,0.2-3.9,0.2c-2-0.2-0.5-0.7,0.4-0.7C88.3,1480.7,99.9,1479.8,101,1480.3z M173,1501.5
	c0.9,0.5,1.4-0.4,0.4-0.9c-2.1-1.2-36.2-16.6-38.9-17.8c-1.6-0.7-2.5,0.4-0.9,1.1C133.7,1484.1,170.9,1500.5,173,1501.5L173,1501.5z
	 M135.5,1480.3c0,0-0.5,0.5,0.2,0.7c0.9,0.2,11.4,0.7,11.9,0.7c0.4,0,3,0.2,3.9,0.2c2-0.2,0.5-0.5-0.4-0.7
	C150.1,1480.9,136.9,1479.6,135.5,1480.3L135.5,1480.3z M99.7,1640.5l-0.2,0.4c-0.4,0-0.5,0-0.7,0.5l-2.8,10.5
	c-0.2,0.5,0,0.7,0.4,0.7l-0.2,0.4l-4.1-1.1v-0.4c0.5,0.2,0.7,0,0.9-0.4l2.1-7.8c-0.4,0-1.2,0-1.6,0.4l-0.4-0.2l0.7-3l0.4,0.2
	c0,0.4,0.2,0.4,0.5,0.5c0.5,0.2,0.9-0.2,1.1-0.7c0-0.4,0-0.5-0.4-0.5v-0.4L99.7,1640.5L99.7,1640.5z M105.4,1647.5
	c-1.2-0.5-2-1.8-2-2.8c0.2-1.8,2.3-3.2,5.9-2.8c3.9,0.4,5.7,2,5.5,3.7c-0.2,1.1-1.1,2.3-2.5,2.5c1.6,0.7,2.5,2,2.3,3.4
	c-0.2,2.1-2.5,3.6-6.4,3.2s-6.1-2.3-5.9-4.3C102.8,1648.9,103.8,1647.8,105.4,1647.5L105.4,1647.5z M108.6,1652.6
	c1.6,0.2,3.2-0.4,3.4-1.8c0.2-1.2-1.2-2.1-3-2.3c-1.6-0.2-3.2,0.4-3.4,1.8C105.4,1651.8,106.9,1652.5,108.6,1652.6z M109.2,1646.9
	c2,0.2,2.8-0.4,2.8-1.4c0-1.1-0.7-1.8-2.7-2c-2-0.2-2.8,0.4-2.8,1.4C106.5,1645.9,107.2,1646.8,109.2,1646.9z M126.1,1645.3
	l-0.4-0.2c0-0.7-1.2-1.4-2.8-1.2c-2.3,0.2-3.6,2.1-3.4,4.3c0.9-0.9,2.3-1.8,3.7-1.8c2.8-0.2,5.2,1.1,5.3,4.3
	c0.2,2.1-1.8,4.3-5.3,4.5c-4.3,0.2-6.2-2.5-6.4-5.7c-0.2-3.9,1.8-7.1,6.2-7.5c2.1-0.2,3.7,0.7,4.3,0.7c0.2,0,0.4,0,0.4-0.2l0.2,0.2
	L126.1,1645.3L126.1,1645.3z M125.6,1650.7c0-1.2-1.4-2.3-3-2.1c-1.6,0-2.8,1.2-2.7,2.5c0,1.4,1.4,2.3,3,2.1
	C124.5,1653,125.6,1651.9,125.6,1650.7z M132.3,1646.8c-1.2,0-2.5-0.9-2.8-2c-0.5-1.8,0.9-3.7,4.5-4.8c3.7-1.1,6.1-0.2,6.6,1.6
	c0.4,1.1-0.2,2.5-1.4,3.2c1.8,0,3,0.9,3.4,2.3c0.5,2.1-1.1,4.3-4.8,5.3c-3.9,1.1-6.6,0-7.1-2
	C130.4,1649.3,130.9,1647.8,132.3,1646.8L132.3,1646.8z M135.6,1645c1.8-0.5,2.5-1.4,2.1-2.3c-0.4-0.9-1.2-1.4-3-0.9
	c-1.8,0.5-2.5,1.4-2.1,2.3C132.7,1645.2,133.8,1645.5,135.6,1645z M137.2,1650.7c1.6-0.5,2.8-1.6,2.5-2.8s-2-1.4-3.6-1.1
	c-1.6,0.5-2.8,1.6-2.5,2.8C133.9,1650.8,135.6,1651,137.2,1650.7z M73.5,1586.5l3.4,1.2c0.2,0,0.2,0,0.4-0.4h0.2l-1.1,2.7h-0.3v-0.5
	l-5.2-2v-0.2c0.4,0,0.4,0,0.4-0.2l2.7-7.3c0-0.2,0-0.2-0.2-0.4v-0.2l2.1,0.7v0.2c-0.2,0-0.4,0-0.4,0.2L73.5,1586.5L73.5,1586.5z
	 M83.4,1589.9c0-0.2,0-0.4-0.2-0.5l-1.8-1.1l-0.7,1.2l3,1.8c0.2,0,0.2,0,0.4-0.4h0.1l-1.4,2.5h-0.2c0.2-0.2,0.2-0.4,0-0.4l-4.6-2.7
	l0.2-0.2c0.2,0.2,0.4,0,0.4-0.2l3.9-6.6c0-0.2,0.2-0.2-0.2-0.4l0.2-0.2l4.6,2.7c0.2,0,0.2,0,0.4-0.4h0.2l-1.4,2.5h-0.2
	c0.2-0.4,0.2-0.4,0-0.5l-3-1.8l-0.7,1.2l1.8,1.1c0.2,0.2,0.4,0,0.5-0.2h0.2L83.4,1589.9L83.4,1589.9z M85.3,1595.4
	c0.4,0,0.5,0,0.5-0.2l4.3-4.5l-1.2-1.2c0,0-0.2,0-0.5,0.2h-0.2l2-2.1h0.2c-0.2,0.4-0.2,0.4-0.2,0.5l3.7,3.7c0,0,0.2,0,0.5-0.2
	l0.2,0.2l-2.1,2c0.2-0.4,0.4-0.4,0.2-0.5l-1.4-1.2l-4.3,4.5c-0.2,0.2-0.2,0.2,0,0.4l-0.2,0.2L85.3,1595.4z M91.4,1603.9
	c0.4,0.2,0.4,0.2,0.5,0l5.7-2.5l-0.7-1.6c0-0.2-0.2-0.2-0.5,0v-0.2l2.7-1.2v0.2c-0.4,0.2-0.4,0.2-0.4,0.4l2.1,4.8
	c0,0.2,0.2,0.2,0.5,0v0.2l-2.7,1.2v-0.2c0.4-0.2,0.4-0.4,0.4-0.4l-0.9-1.8l-5.7,2.5c-0.2,0-0.2,0.2-0.2,0.4H92L91.4,1603.9
	L91.4,1603.9z M97.8,1615.3c-0.2,0-0.2,0.2,0,0.4l-0.2,0.2l-1.2-1.8l0.2-0.2c0.2,0.2,0.4,0.2,0.4,0l2.5-1.8l-1.6-2.3l-2.5,1.8
	c-0.2,0-0.2,0.2,0,0.4l-0.2,0.2l-1.2-1.8l0.2-0.2c0.2,0.2,0.4,0.2,0.4,0l6.2-4.5c0.2,0,0.2-0.2,0-0.4l0.2-0.2l1.2,1.8l-0.2,0.2
	c-0.2-0.2-0.4-0.2-0.4,0l-2.1,1.6l1.6,2.3l2.1-1.6c0.2,0,0.2-0.2,0-0.4l0.2-0.2l1.2,1.8l-0.2,0.2c-0.2-0.2-0.4-0.2-0.4,0
	L97.8,1615.3z M105.3,1617.8c0-0.2,0-0.4-0.2-0.5l-1.6-1.2l-0.9,1.2l2.8,2c0.2,0,0.2,0,0.5-0.4h0.2l-1.6,2.3h-0.2
	c0.2-0.2,0.2-0.4,0-0.4l-4.3-3.2l0.2-0.2c0.2,0.2,0.4,0,0.4,0l4.5-6.2c0-0.2,0.2-0.2,0-0.4l0.2-0.2l4.3,3.2c0.2,0,0.2,0,0.4-0.2h0.2
	l-1.8,2.3h-0.2c0.2-0.4,0.2-0.4,0.2-0.5l-2.8-2l-0.9,1.1l1.6,1.2c0.2,0.2,0.4,0,0.5-0.2h0.2L105.3,1617.8L105.3,1617.8z M109,1622.7
	c0,0.2,0,0.2,0.2,0.4v0.2l-2.1-0.7v-0.2c0.4,0,0.4,0,0.4-0.2l2.3-7.3c0-0.2,0-0.2-0.2-0.4v-0.2l3.7,1.2c1.4,0.5,2,1.6,1.2,3.4
	c-0.5,1.4-1.2,2-2.3,2.1l0.4,3c0,0.2,0,0.4,0.2,0.4v0.2l-2.1-0.7v-0.2c0.2,0,0.2,0,0.4-0.2c0-0.2-0.4-2.7-0.4-3l-1.1-0.4L109,1622.7
	z M110.4,1618.4l1.8,0.5c0.5,0.2,0.9-0.2,1.1-0.5c0.2-0.5,0.2-0.9-0.5-1.1l-1.8-0.5L110.4,1618.4z M120.6,1622.2
	c-0.2-0.2-0.2-0.4-0.4-0.4l-2-0.2l-0.2,1.6l3.4,0.2c0.2,0,0.2,0,0.2-0.5h0.2l-0.2,2.8h-0.2c0-0.4,0-0.4-0.2-0.4l-5.3-0.4l0,0
	c0.2,0,0.4-0.2,0.4-0.4l0.5-7.7c0-0.2,0-0.4-0.4-0.4v-0.2l5.3,0.4c0.2,0,0.2,0,0.2-0.5h0.2l-0.2,2.8h-0.2c0-0.4,0-0.5-0.2-0.5
	l-3.4-0.2l-0.2,1.4l2,0.2c0.2,0,0.4-0.2,0.4-0.4h0.2L120.6,1622.2L120.6,1622.2z M126.3,1616.6c0-0.2-0.2-0.2-0.4-0.2v-0.2l3.9-1.2
	c1.1-0.4,2.1,0,2.7,1.6c0.4,0.9,0,1.6-0.5,2c0.7,0,1.4,0.5,1.8,1.6c0.4,1.2,0.2,2.5-1.4,3l-3.9,1.2v-0.2c0.2-0.2,0.2-0.2,0.2-0.4
	L126.3,1616.6L126.3,1616.6z M128.8,1618.7l1.4-0.4c0.9-0.2,1.1-0.4,0.9-1.1c-0.2-0.7-0.5-0.7-1.2-0.4l-1.4,0.4L128.8,1618.7
	L128.8,1618.7z M129.8,1622.4l1.8-0.5c0.7-0.2,0.9-0.5,0.7-1.2c-0.2-0.7-0.5-0.9-1.2-0.7l-1.8,0.5L129.8,1622.4L129.8,1622.4z
	 M139.5,1616.8c-0.2-0.2-0.4-0.2-0.5-0.2l-1.8,0.9l0.7,1.4l3-1.6c0.2,0,0.2-0.2,0-0.5h0.2l1.2,2.5h-0.2c-0.2-0.2-0.2-0.4-0.4-0.2
	l-4.8,2.5l-0.2-0.2c0.2-0.2,0.2-0.2,0.2-0.4l-3.6-6.9c0-0.2-0.2-0.2-0.4-0.2l-0.2-0.2l4.8-2.5c0.2,0,0.2-0.2,0-0.5h0.2l1.2,2.5h-0.2
	c-0.2-0.4-0.4-0.4-0.4-0.4l-3,2l0.7,1.2l1.8-0.9c0.2-0.2,0.2-0.4,0.2-0.5h0.2L139.5,1616.8z M136.5,1588.3l3.6,0.9
	c0.2,0,0.2,0,0.4-0.4h0.2l-0.7,2.8h-0.2v-0.5l-5.5-1.4v-0.2c0.4,0,0.4,0,0.4-0.2l1.8-7.5c0-0.2,0-0.2-0.2-0.4v-0.2l2.1,0.5v0.2
	c-0.2,0-0.4,0-0.4,0.2L136.5,1588.3L136.5,1588.3z M141.5,1591.8v-0.2c0.2,0,0.4,0,0.4-0.2l2.8-7.1c0-0.2,0-0.2-0.2-0.4v-0.1l2,0.9
	v0.2c-0.2,0-0.4,0-0.4,0.2l-2.8,7.1c0,0.2,0,0.2,0.2,0.4v0.2L141.5,1591.8z M152.2,1592.2l-1.2-0.4c-0.2,0-0.2,0-0.2,0.4h-0.2
	l0.5-2.3h0.2v0.4l3,0.9v0.2c-0.2,0-0.2,0-0.2,0.2l-0.7,2.5v0.5c-1.1,0.5-2.3,0.7-3.7,0.4c-1.8-0.5-3-2.3-2.1-5.2
	c0.7-2.8,2.8-3.9,4.5-3.4c0.7,0.2,0.9,0.4,1.6,0.9c0.4,0.2,0.5,0.5,0.7,0.7c0,0,0.2,0,0.2-0.2l0.2,0.2l-1.2,1.8l-0.2-0.2v-0.2
	c0-0.4-0.9-1.1-1.6-1.2c-1.1-0.2-2.1,0.4-2.5,2c-0.5,1.8,0.4,2.8,1.2,3c0.5,0.2,1.1,0.2,1.6,0L152.2,1592.2L152.2,1592.2z
	 M162.7,1596.1c0,0.2,0,0.2,0.4,0.4v0.2l-2.1-0.2v-0.2c0.4,0,0.4-0.2,0.4-0.4l0.2-3l-2.8-0.2l-0.2,3c0,0.2,0,0.2,0.4,0.4v0.2
	l-2.1-0.2v-0.2c0.4,0,0.4-0.2,0.4-0.4l0.5-7.7c0-0.2,0-0.2-0.4-0.4v-0.2l2.1,0.2v0.2c-0.2,0-0.4,0.2-0.4,0.4l-0.2,2.7l2.8,0.2
	l0.2-2.7c0-0.2,0-0.4-0.4-0.4v-0.2l2.1,0.2v0.2c-0.4,0-0.4,0.2-0.4,0.4L162.7,1596.1z M168.2,1595.9v-0.2c0.2,0,0.4-0.2,0.2-0.4
	l-0.9-6.1l-1.8,0.4c-0.2,0-0.2,0.2-0.2,0.5h-0.2l-0.5-2.8h0.2c0.2,0.4,0.2,0.4,0.4,0.4l5.2-0.9c0.2,0,0.2-0.2,0.2-0.5h0.2l0.5,2.8
	h-0.2l-0.2-0.4l-1.8,0.4l0.9,6.1c0,0.2,0,0.2,0.4,0.2v0.2L168.2,1595.9L168.2,1595.9z M59.8,1617.1l-0.2,0.2c-0.4-0.2-0.5-0.2-0.9,0
	l-6.8,6.9l2.5,2.5c0.5,0.5,0.7,0.5,1.1,0.4l0.4,0.4l-2.1,2.1l-0.2-0.2c0.2-0.4,0-0.5-0.4-1.1l-7.3-6.9c-0.5-0.5-0.7-0.5-1.1-0.4
	l-0.4-0.4l2.1-2.1l0.4,0.4c-0.4,0.4-0.2,0.5,0.4,1.1l2.5,2.5l6.8-6.9c0.4-0.4,0.4-0.5,0-0.9l0.2-0.2L59.8,1617.1z M44.4,1609.1
	l3.9-2.8c0.4-0.2,0.4-0.5,0-1.1l0.4-0.2l2.7,3.7l-0.4,0.2c-0.4-0.5-0.5-0.5-0.9-0.4l-8.9,6.2c-0.4,0.2-0.4,0.4,0,1.1l-0.4,0.2
	l-2.5-3.7l0.4-0.2c0.4,0.5,0.5,0.5,0.9,0.4l3.4-2.3l-3.7-5.2l-3.4,2.3c-0.4,0.2-0.4,0.5,0,1.1l-0.4,0.2l-2.7-3.7l0.4-0.2
	c0.4,0.5,0.5,0.5,0.9,0.4l8.9-6.2c0.4-0.2,0.4-0.5,0-1.1l0.4-0.2l2.7,3.7l-0.4,0.2c-0.4-0.5-0.5-0.5-0.9-0.4l-3.9,2.8L44.4,1609.1z
	 M38,1591.6l-2.8-6.2c-0.4-0.7-0.4-0.9-0.9-0.7l-0.2-0.4l2.7-1.2l0.2,0.4c-0.4,0.2-0.4,0.5,0,1.1l4.5,9.8l-0.4,0.2
	c-0.4-0.7-0.5-0.7-0.9-0.5l-9.8,4.3c-0.4,0.2-0.5,0.4-0.2,1.2l-0.4,0.2l-4.3-9.4c-0.4-0.7-0.4-0.9-0.9-0.7l-0.2-0.4l2.7-1.2l0.2,0.4
	c-0.2,0.2-0.2,0.5,0,1.1l2.7,5.9l2.8-1.2l-1.6-3.6c-0.4-0.5-0.5-0.9-0.9-0.7l-0.2-0.4l2.7-1.2l0.2,0.4c-0.2,0.2-0.2,0.5,0,1.1
	l1.6,3.4L38,1591.6z M18.7,1559.1h0.4c0.2,0.5,0.2,0.7,0.7,0.7l7.1-0.2c1.6,0,2.7-1.2,2.7-3.4c0-2.2-1.2-3.2-2.8-3.2l-7.1,0.2
	c-0.4,0-0.5,0.2-0.5,0.7h-0.4l-0.2-4.3H19c0.2,0.5,0.2,0.7,0.7,0.7l7.1-0.2c2.8-0.2,4.8,1.6,5,6.1s-1.6,6.2-4.6,6.4l-7.1,0.2
	c-0.4,0-0.5,0.2-0.5,0.9h-0.4L18.7,1559.1z M31.4,1545.4h-0.3c0-0.5-0.2-0.7-0.5-0.7l-10.7-1.6c-0.4,0-0.5,0-0.7,0.5h-0.4l0.7-4.8
	h0.4c0,0.4,0,0.5,0.2,0.5c0.4,0,7.7-3.9,8.7-4.1l-7.5-1.2c-0.4,0-0.5,0-0.7,0.5h-0.4l0.7-3.9h0.4c0,0.5,0.2,0.7,0.5,0.7l10.7,1.6
	c0.5,0,0.5,0,0.7-0.4h0.4l-0.9,4.1h-0.4c0-0.4,0-0.5-0.2-0.5c-0.4,0-7.1,3.9-9.4,4.6l8.2,1.2c0.4,0,0.5,0,0.7-0.5H32L31.4,1545.4z
	 M34.8,1528.2l-0.4-0.2c0.2-0.9,0.2-1.1-0.4-1.1l-10.3-3.4c-0.4-0.2-0.5,0-0.9,0.7h-0.2l1.6-4.8l0.4,0.2c-0.2,0.9-0.2,1.1,0.4,1.1
	l10.3,3.4c0.4,0.2,0.5,0,0.9-0.7l0.4,0.2L34.8,1528.2z M39.3,1516.4l-0.4-0.2c0.2-0.4,0.2-0.7,0-0.9c-0.2-0.2-8.4-0.4-11.6-0.7
	c-0.5,0-1.1,0-1.2,0.2l-0.4-0.2l1.8-3.7l0.4,0.2c-0.2,0.5-0.2,0.7,0.2,0.7c0.4,0.2,6.4,0.4,9.3,0.7c-2.1-2.3-6.1-6.8-6.4-6.9
	c-0.2,0-0.2,0-0.5,0.5l-0.4-0.2l1.8-3.6l0.4,0.2c-0.2,0.5,0.2,0.7,0.5,1.2c2.8,3.2,7.3,8.2,7.8,8.4c0.2,0.2,0.4,0,0.5-0.4l0.4,0.2
	L39.3,1516.4z M45.9,1501.2l4.1-5.5c0.4-0.5,0.5-0.7,0.2-1.1l0.2-0.4l2.3,1.8l-0.2,0.4c-0.4-0.2-0.5,0-0.9,0.5l-6.4,8.5l-0.4-0.2
	c0.4-0.7,0.4-0.9,0-1.1l-8.5-6.6c-0.4-0.2-0.5-0.2-1.1,0.5l-0.2-0.2l6.2-8.4c0.4-0.5,0.5-0.7,0.2-1.1l0.2-0.4l2.3,1.8l-0.2,0.4
	c-0.4-0.2-0.5,0-0.9,0.5l-3.9,5.2l2.5,2l2.3-3c0.4-0.5,0.5-0.7,0.2-1.1l0.2-0.4l2.3,1.8l-0.2,0.4c-0.4-0.2-0.5,0-0.9,0.5l-2.3,3
	L45.9,1501.2z M55.3,1492.8l-0.2-0.2c0.4-0.4,0.4-0.5,0-0.9l-7.3-8c-0.4-0.4-0.5-0.4-0.9,0l-0.2-0.2l5.5-5c2.5-2.1,4.8-2.5,6.2-0.9
	c1.2,1.4,1.2,3,0,5l4.1,1.2c1.2,0.4,1.6,0.5,2.1,0.2l0.2,0.2l-3.2,2.8l-0.4-0.4c0.2-0.2,0.4-0.5,0.2-0.7c0-0.2-0.2-0.2-0.7-0.4
	l-4.5-1.2l-2,1.8l2.8,3.2c0.4,0.4,0.5,0.4,0.9,0l0.2,0.2L55.3,1492.8L55.3,1492.8z M53.2,1485l2.5-2.3c1.4-1.2,1.4-2.1,0.7-3
	c-0.7-0.7-1.8-0.7-3,0.5l-2.5,2.3L53.2,1485z M67.6,1477.8l0.4-0.2v0.2c0.4,0.7,2.8,0,4.3-0.9c2.3-1.4,2.7-2.5,2.1-3.6
	c-1.4-2.3-8.5,4.1-10.9,0.2c-1.1-1.6-0.4-4.1,2.8-6.1c1.4-0.9,2.5-1.2,3.4-1.4c0.9-0.2,1.4-0.2,1.6-0.4c0.4-0.2,0.4-0.4,0.4-0.5h0.2
	v3.7h-0.4c0,0-0.2-0.2-0.2-0.4c-0.4-0.5-1.8-0.5-3.9,0.7c-1.4,0.9-1.6,1.8-1.2,2.5c1.2,2.1,8.4-4.3,11,0c1.1,1.8,0.2,4.5-3.7,6.9
	c-1.2,0.7-2.3,1.1-3.2,1.4c-0.9,0.2-1.4,0.2-1.8,0.5c-0.2,0-0.2,0.4-0.2,0.5h-0.4L67.6,1477.8L67.6,1477.8z M82.6,1473.9l-0.2-0.4
	c0.7-0.4,0.9-0.5,0.7-0.9l-4.1-10c-0.2-0.4-0.4-0.5-1.2-0.2l-0.2-0.4l4.6-1.8l0.2,0.4c-0.7,0.4-0.9,0.5-0.7,0.9l4.1,10
	c0.2,0.4,0.4,0.5,1.2,0.2l0.2,0.4L82.6,1473.9z M94.8,1469.7v-0.4c0.4-0.2,0.5-0.4,0.4-0.7l-2.3-9.6l-3.6,0.9
	c-0.7,0.2-0.9,0.4-0.9,0.7l-0.4,0.2l-0.7-3l0.4-0.2c0.2,0.4,0.4,0.4,1.1,0.2l9.8-2.5c0.7-0.2,0.9-0.4,0.9-0.7l0.5,0.2l0.7,2.8
	l-0.4,0.2c-0.2-0.5-0.5-0.5-1.1-0.4l-3.6,0.9l2.3,9.4c0.2,0.4,0.4,0.5,0.9,0.4v0.4L94.8,1469.7L94.8,1469.7z M114.5,1466.4l-4.5,0.4
	v-0.4c0.5-0.2,0.7-0.4,0.7-0.7l-0.2-4.3l-5-6.2c-0.2-0.2-0.4-0.4-0.7-0.5v-0.4l4.6-0.4v0.4c-0.5,0-0.7,0.2-0.7,0.4
	c0,0.2,2.1,2.7,3.4,4.1c0.7-1.4,2.7-4.1,2.7-4.6c0-0.2-0.2-0.4-0.7-0.4v-0.5l4.5-0.4v0.4c-0.4,0.2-0.5,0.2-0.7,0.5l-4.1,6.9l0.4,4.3
	c0,0.4,0.2,0.5,0.7,0.5L114.5,1466.4z M149.9,1458.7c4.3,1.4,5.9,5,4.6,8.5c-1.2,3.4-4.6,5.3-8.9,3.9c-4.3-1.4-5.9-5-4.6-8.5
	C142,1459.2,145.4,1457.3,149.9,1458.7z M146.3,1469.3c2.5,0.9,4.5-0.2,5.3-2.8c0.9-2.7,0-4.8-2.5-5.5c-2.5-0.9-4.5,0.2-5.3,2.8
	C142.8,1466.4,143.6,1468.4,146.3,1469.3z M155,1474.8l0.2-0.4c0.7,0.4,0.9,0.4,1.1,0l5.2-9.4c0.2-0.4,0.2-0.5-0.5-1.1l0.2-0.4
	l9.1,5c0.5,0.4,0.7,0.4,1.1,0l0.4,0.2l-1.4,2.5l-0.4-0.2c0.2-0.4,0-0.5-0.5-0.9l-5.7-3l-1.6,2.7l3.6,2c0.5,0.4,0.9,0.4,1.1,0
	l0.4,0.2l-1.4,2.5l-0.4-0.2c0-0.4,0-0.5-0.7-0.9l-3.6-2l-2.1,3.9c-0.2,0.4-0.2,0.5,0.5,1.1l-0.2,0.4L155,1474.8L155,1474.8z
	 M197.5,1495.1l-3.6,0.4l-0.2-0.4c0,0,0.2,0,0.2-0.2c0.7-0.5,0.4-2.1-0.7-3.4c-1.8-2.1-3.9-2.7-6.4-0.5c-2,1.6-2.1,4.3-0.5,6.2
	c1.1,1.2,2.7,1.8,3.4,1.2c0,0,0.2-0.4,0.4-0.4l0.4,0.2l-0.4,3.6h-0.4c0-0.2,0-0.4-0.2-0.5c-0.5-0.5-2.3-0.2-4.8-3
	c-2.8-3.4-2.3-7.3,0.4-9.6c3.4-2.8,7.5-1.4,10,1.4c0.9,1.1,1.2,2,1.4,2.7c0.2,0.7,0.2,1.2,0.4,1.4l0.5,0.4L197.5,1495.1z
	 M189.9,1504.7l0.4-0.2c0.2,0.4,0.5,0.4,0.9,0.4l11.2-1.2c0.5,0,0.7,0,0.9-0.2c0.2,0,0.2-0.2,0-0.7l0.4-0.2l2.3,4.3l-0.4,0.2
	c-0.2-0.4-0.5-0.5-0.7-0.4c-0.2,0-0.2,0.2-0.7,0.7l-6.8,8.5c-0.4,0.4-0.4,0.5-0.2,0.9l-0.4,0.2l-2-3.6l0.4-0.2
	c0.2,0.4,0.4,0.4,0.5,0.4c0.2,0,0.2-0.2,0.4-0.4l1.4-2l-2.7-4.6l-2.1,0.2c-0.2,0-0.4,0-0.4,0.2c-0.2,0.2-0.4,0.4,0,0.7l-0.4,0.2
	L189.9,1504.7L189.9,1504.7z M198.6,1510.1l3.6-4.1l-5.3,0.7L198.6,1510.1z M209.1,1516.6c0.4-0.2,0.5-0.4,0.4-1.1l0.4-0.2l1.6,4.6
	l-0.4,0.2c-0.4-0.7-0.5-0.9-0.9-0.7l-9.3,3.2l2.1,6.2c0.2,0.7,0.4,0.9,0.9,0.7l0.2,0.4l-2.8,1.1l-0.2-0.4c0.4-0.2,0.4-0.5,0-1.1
	l-3.4-9.8l0.4-0.2c0.4,0.5,0.5,0.7,0.9,0.5L209.1,1516.6L209.1,1516.6z M202.1,1533.5h0.4c0.2,0.9,0.4,0.9,0.9,0.9l10.5-2.1
	c0.4,0,0.5-0.2,0.4-1.1h0.4l0.9,4.8h-0.4c-0.2-0.9-0.4-0.9-0.9-0.9l-10.5,2.1c-0.4,0-0.5,0.2-0.4,1.1H203L202.1,1533.5z M203.7,1542
	h0.4c0.2,0.7,0.4,0.9,0.7,0.9l10.7-0.7c0.4,0,0.5-0.2,0.5-1.1h0.4l0.7,10.3c0,0.5,0.2,0.9,0.5,0.9v0.4l-2.8,0.2v-0.4
	c0.4-0.2,0.4-0.4,0.4-0.9l-0.5-6.4l-3.2,0.2l0.4,4.1c0,0.7,0.2,0.9,0.5,0.9v0.4l-2.8,0.2v-0.4c0.4-0.2,0.4-0.4,0.4-1.1l-0.4-4.1
	l-4.5,0.4c-0.4,0-0.5,0.2-0.5,1.1h-0.4L203.7,1542z M216.4,1565c-0.5,4.5-3.7,6.8-7.3,6.2c-3.6-0.6-6.2-3.4-5.5-7.8
	c0.5-4.5,3.7-6.8,7.3-6.2C214.4,1557.7,216.9,1560.6,216.4,1565z M205.5,1563.8c-0.4,2.7,1.1,4.3,3.9,4.6c2.8,0.4,4.6-0.9,5-3.6
	c0.4-2.7-1.1-4.3-3.9-4.6C207.7,1559.9,205.9,1561.1,205.5,1563.8z M201.8,1574.6l0.4,0.2c-0.2,0.5,0,0.7,0.4,0.9l10.1,3.6
	c0.4,0.2,0.5,0,0.9-0.5l0.4,0.2l-2.6,6.8c-1.1,3-3,4.5-5,3.7c-1.8-0.5-2.7-2.1-2.3-4.3l-4.3,1.1c-1.2,0.2-1.6,0.4-2,0.9l-0.4-0.2
	l1.4-4.1l0.4,0.2c0,0.4-0.2,0.5,0.2,0.7c0.2,0,0.2,0,0.9-0.2l4.5-1.1l0.9-2.5l-4.1-1.4c-0.4-0.2-0.5,0-0.9,0.5l-0.4-0.2
	L201.8,1574.6L201.8,1574.6z M207.5,1580.4l-1.1,3.2c-0.5,1.8-0.2,2.7,0.7,3c1.1,0.4,1.8-0.2,2.5-2l1.1-3.2L207.5,1580.4z
	 M195.9,1590.8l0.4,0.2c-0.2,0.5-0.2,0.7,0.2,0.9l9.3,5.3c0.4,0.2,0.5,0.2,0.9-0.2l0.4,0.2l-2.5,4.3l-0.4-0.2c0.2-0.4,0.2-0.5,0-0.5
	c-0.4-0.2-8.5,1.1-9.6,0.7l6.6,3.7c0.4,0.2,0.5,0.2,0.9-0.2l0.4,0.2l-2,3.6l-0.4-0.2c0.2-0.5,0.2-0.7-0.2-0.9l-9.4-5.3
	c-0.4-0.2-0.5-0.2-0.9,0.2l-0.4-0.2l2.1-3.7l0.4,0.2c-0.2,0.4-0.2,0.5,0,0.7c0.4,0.2,8.2-1.1,10.5-0.9l-7.3-4.1
	c-0.4-0.2-0.5-0.2-0.9,0.2l-0.4-0.2L195.9,1590.8L195.9,1590.8z M186.5,1605.5l0.2,0.2c-0.5,0.7-0.5,0.9-0.2,1.2l8.4,6.8
	c0.4,0.2,0.5,0.2,1.1-0.4l0.2,0.2l-3.2,3.9l-0.2-0.2c0.5-0.7,0.5-0.9,0.2-1.2l-8.4-6.8c-0.4-0.2-0.5-0.2-1.1,0.4l-0.2-0.2
	L186.5,1605.5z M181.4,1611.8l0.2,0.2c-0.4,0.4-0.2,0.7,0,0.9l3.9,10.5c0.2,0.4,0.2,0.7,0.4,0.7c0.2,0.2,0.2,0.2,0.7-0.2l0.2,0.2
	l-3.6,3.4l-0.2-0.2c0.4-0.4,0.4-0.5,0.2-0.7l-0.9-0.5l-10-4.5c-0.4-0.2-0.5-0.2-0.9,0l-0.2-0.2l3-2.7l0.2,0.2
	c-0.2,0.4-0.4,0.4-0.2,0.5c0,0,0.2,0.2,0.4,0.2l2.1,0.9l3.9-3.6l-0.7-2c0-0.2-0.2-0.4-0.2-0.4c-0.2-0.2-0.4-0.2-0.7,0.2l-0.2-0.2
	L181.4,1611.8L181.4,1611.8z M178.4,1621.5l5,2.3l-2.1-5L178.4,1621.5L178.4,1621.5z"/>
<circle fill="#777777" cx="27.4" cy="1572.8" r="2"/>
<path fill="#777777" d="M64.2,1628.1c-1.1,0-2,0.9-2,2s0.9,2,2,2c1.1,0,2-0.9,2-2C66.2,1629,65.3,1628.1,64.2,1628.1z M88.3,1641.8
	c-1.1,0-2,0.9-2,2s0.9,2,2,2c1.1,0,2-0.9,2-2S89.4,1641.8,88.3,1641.8z M146.7,1640.9c-1.1,0-2,0.9-2,2s0.9,2,2,2c1.1,0,2-0.9,2-2
	C148.6,1641.8,147.7,1640.9,146.7,1640.9z M167.1,1629.1c-1.1,0-2,0.9-2,2s0.9,2,2,2c1.1,0,2-0.9,2-2
	C169.3,1629.9,168.4,1629.1,167.1,1629.1z"/>
<circle fill="#777777" cx="177.7" cy="1481.6" r="2"/>
<circle fill="#777777" cx="130.7" cy="1461" r="2"/>
<g>
	<path fill="#777777" d="M92.3,1582.9H95c0.4,0,2.3,0.2,3.2,0.4c0.4,0,0.7,1.1,0.2,1.1c-2.8-0.2-1.8,0-4.6-0.4
		C91,1583.8,92.3,1582.9,92.3,1582.9z M102.8,1583.5c0.7-0.2,8.7,1.1,9.3,1.6c0,0,0.4,0.2,0.2,0.7c-0.5,0.9-2-0.7-7.5-0.9
		c-1.2-0.2-3,0-2.8-0.9C101.9,1583.8,102.4,1583.5,102.8,1583.5z"/>
</g>
<path fill="#777777" d="M86.4,1520.3c-0.4,0.4-0.4,1.4-0.5,1.8c0,0.2-1.1,0-1.1-0.2c0,0,0.4-2.1,0.5-2.7h2.1
	c0.2-0.4-0.5-2.5-0.5-2.5c-0.4,0.2-0.7,2.7-0.7,2.7h-0.9c0,0,0.7-4.6,1.4-4.6c0.2,0,0.7-0.2,0.9,0.2c0.2,0.5,2,6.4,2,6.9
	c-0.4,0.2-1.2,0.5-1.2,0c0,0,0-1.2-0.4-1.6C87.6,1520.1,86.7,1520,86.4,1520.3z"/>
<g>
	<path fill="#777777" d="M92.4,1537.4c-0.2,0.7-2,0.4-3.2,0.4c-3,0-6.2,0.4-6.2-0.4c-0.2-1.2,3.6-0.7,5-0.7
		C90.1,1536.7,92.8,1536.2,92.4,1537.4z M96.9,1537.2c-0.4,0.5-1.2,0.5-2.3,0.4c-0.4,0-0.5,0-0.7-0.4c0-0.7,1.1-0.7,2.5-0.7
		C96.9,1536.7,97.1,1536.9,96.9,1537.2z M102.6,1537.6c-0.4,0.2-3.6,0.5-3.7-0.2c-0.2-0.7,1.2-0.9,2.7-0.7
		C103.1,1536.5,102.9,1537.4,102.6,1537.6z M113.4,1539.7c-0.4,0.4-3.9-1.4-5.5-1.8c-1.2-0.4-2.1,0-3-0.2c-0.7-0.2-0.4-0.9,0.4-1.1
		C107.2,1536.2,114.2,1539,113.4,1539.7z"/>
</g>
<g>
	<path fill="#777777" d="M90.5,1542.9c-0.2,0.7-2,0.4-3.2,0.4c-2.8,0-4.3,0-4.3-0.9c0-0.7,1.6-0.2,3-0.2
		C88.2,1542.2,90.8,1541.7,90.5,1542.9z M98.1,1542.9c-0.2,0.7-2,0.4-3.2,0.4c-2.8,0-3,0-3-0.4c-0.2-0.5,0.4-0.7,1.8-0.7
		C95.8,1542.2,98.5,1541.9,98.1,1542.9z M103.3,1543.1c-0.4,0.5-1.2,0.2-2.5,0.2c-0.4,0-0.5,0-0.7-0.4c0-0.7,1.2-0.7,2.7-0.7
		C103.1,1542.2,103.5,1542.8,103.3,1543.1z M113.6,1545.4c-0.2,0.9-1.8-0.7-3.6-1.1c-1.2-0.4-3.7-0.5-4.8-0.5
		c-0.7-0.2-0.7-0.9,0-0.9C108.8,1542.2,113.8,1544.5,113.6,1545.4z"/>
</g>
<g>
	<path fill="#777777" d="M114,1551.1c0,1.2-2.5-0.4-4.1-0.5c-1.2-0.2-3.4-0.4-5.2-0.2c-0.7,0-0.7-1.1,0-1.1
		C106.3,1549,114,1550.2,114,1551.1L114,1551.1z M102.1,1549.7c-0.4,0.5-1.6,0.4-2.7,0.4c-0.4,0-0.7-0.2-0.7-0.5
		c0-0.7,0.7-0.7,2.1-0.7C102.2,1548.6,102.2,1549.3,102.1,1549.7z M91.4,1549.3c-0.4,0.5-2.3,0.4-3.4,0.2c-2.8-0.5-5.3,0.9-5.3-0.4
		c0-0.9,2.8-0.7,4.3-0.7C89.1,1548.5,92.1,1548.1,91.4,1549.3z M96.7,1549.3c-0.4,0.7-1.2,0.5-2.3,0.5c-0.4,0-0.7,0-0.7-0.4
		c0-0.9,1.2-0.9,2.7-0.9C96.5,1548.8,96.9,1549,96.7,1549.3z"/>
</g>
<g>
	<path fill="#777777" d="M99.4,1512.7c0.2,0.7-2,0.4-3.6,0.5c-3,0.4-3.2,0.7-3,0C93.5,1512,99.4,1511.7,99.4,1512.7z M101,1513.3
		c-0.2-0.2-0.4-0.4,0-0.7c1.2-0.9,3-0.2,3.4,0.2c0.4,0.5-0.2,0.9-0.5,0.9C103.5,1513.5,101.5,1513.6,101,1513.3z M113.1,1516.4
		c-0.4,0.4-2.5-1.1-3.6-1.6c-1.8-0.5-3.6-0.5-3.6-1.4C106,1511.5,114.7,1514.8,113.1,1516.4z"/>
</g>
<g>
	<path fill="#777777" d="M98.7,1525.5c-0.2,0.4-1.8,0-3,0.2c-1.4,0-2.3,0.4-2.5-0.5c0-0.7,1.4-0.5,2.8-0.5
		C97.6,1524.6,99.2,1524.4,98.7,1525.5z M100.3,1525.7c-0.5-0.2-0.4-0.5,0-0.9c1.4-0.2,3.2,0,3.6,0c0.5,0.2,0.4,0.9-0.2,0.9
		C100.6,1525.7,101,1525.8,100.3,1525.7z M113.1,1528.3l-3-0.9c-1.2-0.4-1.8-0.4-2.1-0.7c-0.5-0.2-0.2-0.9,0-1.1
		C108.3,1525.7,114.5,1527.3,113.1,1528.3z M107,1525.7c-0.2,1.1-1.1,0.5-1.6,0.5c-0.4-0.2-0.4-0.5-0.2-0.7
		C105.6,1525,106.9,1525.3,107,1525.7z"/>
</g>
<g>
	<path fill="#777777" d="M95.1,1519.6c0.4,0.9-1.2,0.9-1.6,0.9c-0.2-0.2-0.4-0.5-0.2-0.7C93.7,1519.3,94.9,1519.3,95.1,1519.6z
		 M97.4,1520.1c-0.2-0.2-0.4-0.5,0-0.9c1.2-0.5,4.6-0.2,5,0c0.9,0.5,0.4,1.1,0,1.1C100.5,1520,98,1520.3,97.4,1520.1z M110.2,1521.6
		c-0.4,0.4-2.7-0.5-3.9-0.7c-1.2-0.2-2.1-0.4-2.1-0.7c0-0.9,2-0.7,3.7-0.4C109.5,1520.1,111.1,1520.7,110.2,1521.6z M113.3,1522.3
		c-0.2,1.1-1.1,0.5-1.4,0.4c-0.2-0.2-0.5-0.7-0.2-0.9C112,1521.2,113.4,1521.9,113.3,1522.3z"/>
</g>
<g>
	<path fill="#777777" d="M83.5,1530.1c1.8-0.4,3,1.8,0.4,1.4c-0.9-0.2-1.1-0.4-1.1-0.7C83,1530.6,83,1530.3,83.5,1530.1z M96.5,1531
		c-0.2,0.7-4.1,0.5-5.2,0.5c-3,0-4.1,0-4.3-0.5c0-0.7,1.6-0.7,3-0.7C91.5,1530.3,96.9,1529.8,96.5,1531z M102.8,1531.4
		c-0.2,0.4-0.5,0.2-1.8,0.2c-1.2,0-2.1,0-2.3-0.5c0-0.7,1.2-0.7,2.7-0.7C102.9,1530.5,103.1,1531,102.8,1531.4z M110.1,1532.8
		c-0.9,0.7-1.4-0.4-2.8-0.7c-1.2-0.2-2.3-0.2-3.4-0.4c-0.7-0.4-0.4-1.1,0.2-1.2C107.8,1530.5,111,1532.1,110.1,1532.8z M112.9,1534
		c-0.2,0.7-0.7,0.9-1.4,0.4c-0.2-0.2-0.5-0.7-0.4-0.9C111.5,1533,112.7,1533.3,112.9,1534z"/>
</g>
<g>
	<path fill="#777777" d="M112.7,1556.8c-0.4,0.9-3-0.5-5-0.5h-2.3c-0.7-0.2-0.7-1.1,0-1.1C107.8,1554.9,113.3,1555.8,112.7,1556.8z
		 M99.9,1555.6c-0.4,0.5-1.1,0.4-2.3,0.2c-0.4,0-2,0.5-2.5,0c-0.2-0.9,2-1.1,2.8-0.9C99.6,1554.7,100.1,1555.2,99.9,1555.6z
		 M92.1,1555.6c-0.4,0.5-4.3,0-5.5-0.2c-2.1,0-3.6,0.7-3.6-0.5c0.4-0.7,4.1-0.4,5-0.4C89.9,1554.7,92.6,1554.5,92.1,1555.6z
		 M103.8,1555c0.4,0.9-1.2,0.9-1.6,0.9c-0.2-0.2-0.4-0.5-0.2-0.7C102.4,1554.7,103.5,1554.9,103.8,1555z"/>
</g>
<g>
	<path fill="#777777" d="M126.8,1513.1c1.8,0,2,0.4,1.8,1.1c-0.2,0.4-2.3,0.2-2.8,0.2c-2.1,0-3,1.2-3.7,1.1
		c-0.9-0.2-0.4-0.9,0.5-1.4C123.2,1513.6,124.8,1513.1,126.8,1513.1L126.8,1513.1z M131.3,1512.9c0,0,2.5,0.2,2.8,0.4
		c0.7,0.4,0.5,0.9,0.4,1.1c-0.2,0.2-3.6-0.2-3.6-0.4c-0.2-0.2-0.4-0.2-0.4-0.5C130.4,1513.1,130.5,1512.9,131.3,1512.9z
		 M152.7,1513.3c0.7,0.2,0.9,1.2,0.4,1.4c-2.5,0.4-3,0.2-3-0.2C149.2,1513.1,152.5,1513.3,152.7,1513.3z M143.6,1513.8
		c0,0,2.8,0,3.6,0.2c0.4,0,0.7,0.5,0.2,1.1c-0.2,0.4-3.9,0.4-4.3-0.9C143.1,1514.4,143.1,1513.8,143.6,1513.8z M137.2,1513.6
		c0,0,2.5,0.2,3.2,0.4c0.4,0,0.9,0.5,0.5,0.9c-0.2,0.4-3.9,0.4-4.3-0.9C136.9,1514.1,136.7,1513.6,137.2,1513.6L137.2,1513.6z"/>
</g>
<g>
	<path fill="#777777" d="M130.7,1519.8c0.4-0.7,2.5-0.5,3-0.2c0,0,0.2,0.4-0.2,0.7C132.3,1520.9,130.5,1520.3,130.7,1519.8z
		 M137.1,1520.1c0.7-0.5,3.4,0,2.5,1.1c-0.2,0.2-2,0.4-2.7,0C136.7,1521,136.3,1520.7,137.1,1520.1z M146,1520.5
		c0.9,1.2-2.3,1.1-2.7,1.1c-0.4,0-1.1-0.2-1.2-0.5C142,1520,145.2,1519.8,146,1520.5z M152.9,1520c0.5,1.6-2.1,1.2-2.5,1.2
		s-1.1,0-1.2-0.5C149,1519.8,152.5,1518.9,152.9,1520z M126.8,1518.5c0.7,0,2.1,0,2.1,0.7c-0.5,0.9-3.2,0.7-3.9,0.9
		c-2.5,0.4-3,1.2-3.7,1.1c-0.9-0.2-0.4-0.9,0.5-1.4C122.7,1519.6,125,1518.7,126.8,1518.5L126.8,1518.5z"/>
</g>
<g>
	<path fill="#777777" d="M138.7,1525.8c0.2,0.5-0.2,0.7-0.2,0.7c-0.2,0.4-2.7,0.2-3-0.7c0-0.2,0-0.9,0.7-0.7
		C136.9,1525.5,138.7,1524.8,138.7,1525.8L138.7,1525.8z M141.3,1525.5c0.2,0,4.5,0,3.4,1.2c-0.2,0.2-0.5,0.4-0.9,0.4
		c-1.1,0-2.8-0.2-3.2-0.4c-0.2-0.2-0.2-0.5,0-0.9C140.8,1525.7,141,1525.5,141.3,1525.5z M147.2,1525.5c3.2,0.5,5.5-0.4,5.7,0.4
		c0.4,0.7,0,0.9,0,0.9c-0.4,0.4-6.4,0.5-6.6-0.5C146.3,1525.7,146.8,1525.5,147.2,1525.5z M133,1525.3c0.7,1.1-1.6,0.9-1.8,0.9
		c-0.4,0-0.9-0.2-0.9-0.5C130.2,1524.6,132.5,1524.4,133,1525.3z M125.9,1524.4c0.7,0,1.6-0.4,2.1,0.5c-0.5,1.1-2,0.5-3.9,0.9
		c-2.5,0.4-2.5,1.1-3,0.5c-0.5-0.5,0-0.9,0.9-1.2C122.9,1524.8,124.1,1524.6,125.9,1524.4z"/>
</g>
<g>
	<path fill="#777777" d="M129.3,1530.8c0.4,0,1.1,0.2,1.6,0.5c0.4,0.4,0.2,0.7,0,0.9c-3,0.4-2.8-0.4-2.8-0.4
		C127.7,1530.6,128.9,1530.6,129.3,1530.8z M152.9,1531.2c1.4,0.7-0.9,1.4-2.5,1.1c-0.2,0-0.4-0.2-0.5-0.4
		C149.7,1531,152.4,1531,152.9,1531.2L152.9,1531.2z M135.8,1530.8c0.7,0.2,0.7,1.2,0,1.4c-0.2,0-3,0.5-3.2-0.4
		C132.5,1530.1,135.5,1530.6,135.8,1530.8z M148.8,1531.5c0.2,0.9-0.7,0.9-1.4,0.7c-1.1,0-4.1,0.4-3.9-0.5c0.2-0.5,1.2-0.4,1.8-0.4
		C146.1,1531,148.6,1531,148.8,1531.5z M141.3,1532.3c-0.4,0.7-3.4,0.4-2.8-0.7C138.7,1531.2,141.7,1530.6,141.3,1532.3z
		 M124.3,1530.3c0.7,0,2,0,2.1,0.9c-0.9,0.7-2,0.2-3.9,0.7c-1.8,0.4-2.1,0.7-2.1-0.2C120.4,1531,122.5,1530.3,124.3,1530.3z"/>
</g>
<g>
	<path fill="#777777" d="M128.8,1536.7c0,0,2.5-0.4,3.2,0.2c0.2,0.2,0.7,0.5,0.4,1.1c-0.4,0.4-3.9,0.4-3.9-0.7
		C128.4,1537.2,128.2,1536.9,128.8,1536.7z M134.9,1537.2c0.9-0.4,3.7,0.4,2.5,1.4c-0.2,0.2-2.3,0-2.8-0.5
		C134.4,1537.9,134.2,1537.6,134.9,1537.2z M140.4,1537.4c0.7-0.2,3.2,0.4,2.1,1.2c-0.2,0.2-1.8,0.4-2.3-0.2
		C140.1,1538.3,139.7,1537.6,140.4,1537.4L140.4,1537.4z M147.4,1537.8c-0.9,0.2-2.1,0.4-2.1,0.9c0.2,0.5,0.7,0.4,2.5,0.4
		c0.9,0,3.6,0.4,4.3,0.2c0.7-0.2,0.7-0.9,0.5-0.9C150.9,1538.3,149.7,1537.6,147.4,1537.8L147.4,1537.8z M124.7,1536.7
		c0.7,0,2-0.4,2,0.7c-0.7,0.9-1.8,0.5-3.7,1.1c-1.8,0.4-2.1,0.7-2.1-0.4C120.6,1537.4,122.9,1536.7,124.7,1536.7z"/>
</g>
<path fill="#777777" d="M129.5,1544h1.4c0.7,0,0.4,0.9,0.4,1.1s-1.2,0.4-2.1,0.2c-0.4,0-1.2-0.2-1.2-0.9
	C128.1,1543.8,128.9,1544,129.5,1544L129.5,1544z M134.4,1544c0.2,0,4.1,0,3,1.1c-0.2,0.2-0.5,0.4-0.7,0.4c-1.1,0-2.7-0.2-3-0.4
	c-0.2-0.2-0.2-0.4,0-0.7C133.8,1544.2,134,1544,134.4,1544z M140.4,1544.2c0.7-0.4,3.2,0.7,2.3,1.4c-0.2,0-2.1,0-2.7-0.5
	C139.9,1545.1,139.5,1544.5,140.4,1544.2z M145.8,1544.7c0.2,0,4.5,0,3.4,1.2c-0.2,0.2-0.5,0.4-0.9,0.4c-1.1,0-2.8-0.2-3.2-0.4
	c-0.2-0.2-0.2-0.5,0-0.9C145.1,1544.9,145.4,1544.7,145.8,1544.7z M124.3,1543.6c0.9,0,2.1-0.4,2.1,0.7c-0.7,0.9-1.4,0.5-3.4,0.9
	c-1.8,0.4-2.1,0.7-2.1-0.4C121.1,1544.2,122.5,1543.8,124.3,1543.6z M151.1,1545.1c0.7-0.2,3.2,0.4,2.1,1.2
	c-0.2,0.2-1.8,0.4-2.3-0.2C150.8,1546,150.4,1545.2,151.1,1545.1L151.1,1545.1z M136.9,1550.8c0.2,0,4.1,0,3,1.1
	c-0.2,0.2-0.5,0.4-0.7,0.4c-1.1,0-2.7-0.2-3-0.4c-0.2-0.2-0.2-0.4,0-0.7C136.3,1550.9,136.7,1550.8,136.9,1550.8z M143.3,1551.3
	c1.2-0.2,3.4,0.2,3.2,1.2c-0.2,0.7-0.9,0.2-1.2,0.2c-0.9,0-3.6,0.4-3.2-0.7C142,1551.5,142.9,1551.5,143.3,1551.3L143.3,1551.3z
	 M148.1,1552.7c0,0.7,3,1.6,3,0.5C150.9,1552.7,148.3,1551.1,148.1,1552.7z M133.7,1550.6c0,0-2.1-0.5-3-0.4c-0.2,0-0.5,0.5-0.4,0.9
	c0.1,0.4,3.6,0.7,3.6-0.2C134,1551.1,134,1550.8,133.7,1550.6L133.7,1550.6z M125.6,1550.2c0.7,0,3.4,0,3.4,1.1
	c-0.4,0.9-2.5,0-5.2,0.4c-1.8,0.2-2.1,0.7-2.1-0.4C121.6,1550.6,123.8,1550.2,125.6,1550.2z M132,1556.5c0.9-0.4,3.9,0.4,2.7,1.4
	c-0.2,0.2-2.5,0-3.2-0.4C131.4,1557.4,131.3,1556.8,132,1556.5L132,1556.5z M138.3,1557.4c0.7-0.2,3.2,0.4,2.1,1.2
	c-0.2,0.2-2,0-2.5-0.4C137.8,1557.9,137.6,1557.5,138.3,1557.4L138.3,1557.4z M145.8,1558.4c0.7,1.2-2,0.9-2.3,0.9
	c-0.4,0-0.9-0.2-0.9-0.7C142.8,1557.5,145.4,1557.7,145.8,1558.4z M147.6,1559.3c0,0.7,1.8,1.2,1.8,0.2
	C149.2,1559.1,147.7,1557.9,147.6,1559.3z M122.2,1556.8c0.2,0,7.1-1.1,6.9,0.2c0,0.2,0.4,0.5-3.6,0.7c-0.9,0-3.7,0.5-4.1,0.4
	C121.3,1557.9,120.9,1557.4,122.2,1556.8z M129.8,1568.3c0,0,2.5-0.2,3.2,0.4c0.2,0.2,0.7,0.5,0.4,1.1c-0.2,0.4-3.9,0.4-3.7-0.7
	C129.5,1568.9,129.3,1568.5,129.8,1568.3L129.8,1568.3z M136.9,1569.2c0.2,0,4.1,0.2,3,1.2c-0.2,0.2-0.5,0.4-0.7,0.4
	c-1.1,0-2.7-0.2-2.8-0.5c-0.2-0.2-0.2-0.4,0-0.7C136.3,1569.2,136.5,1569.2,136.9,1569.2L136.9,1569.2z M143.8,1571.2
	c-1.1-0.2-2.7-0.7-2.3-1.2c0.4-0.5,1.4,0.2,1.8,0.2C145.4,1569.7,145.8,1571.5,143.8,1571.2z M149.5,1571.7c-1.1,0-2.8-0.4-2.7-1.1
	c0.2-0.5,1.1,0,1.4-0.2C151.1,1569.6,151.5,1571.7,149.5,1571.7z M126.8,1568.7c0.2,0.7-0.9,0.5-2.7,0.5c-1.8,0-3,1.4-3.6,0.4
	c-0.2-0.4,0.2-0.7,1.2-1.1C122.7,1568.1,126.6,1568,126.8,1568.7z M131.1,1562.3c0.2,0,3,0,2.3,1.1c-0.2,0.2-0.4,0.4-0.5,0.4
	c-0.7,0-2-0.2-2.1-0.4c-0.2-0.2-0.2-0.4,0-0.7C130.7,1562.3,130.9,1562.3,131.1,1562.3z M135.6,1562.7c0.7-0.4,4.8,0.4,3.6,1.6
	c-0.2,0-3.4-0.2-3.9-0.7C135.1,1563.6,134.9,1563.1,135.6,1562.7z M144.5,1563.8c0.7,0,3.7,0.5,3.6,1.4c0,0.2-1.1,0.2-1.6,0
	c-1.6-0.4-2.5-0.7-3.7-0.7c-0.5,0-0.5-0.5-0.4-0.9C142.4,1563.6,144.2,1563.8,144.5,1563.8z M128.1,1562.9c0.2,1.1-1.4,0.5-3.4,0.5
	c-1.8,0-3,1.2-3.6,0.2c-0.2-0.4,0.2-0.7,1.2-1.1C123.2,1562.3,128.1,1562.2,128.1,1562.9L128.1,1562.9z M147.4,1575.3
	c0.2,0,4.5,0.2,3.2,1.4c-0.2,0.2-0.5,0.4-0.9,0.4c-1.1,0-2.8-0.4-3.2-0.5c-0.2-0.2-0.2-0.5,0-0.9
	C146.7,1575.4,147,1575.3,147.4,1575.3z M144.4,1576.2c-0.4,0.7-3.4,0.2-2.8-0.9C141.7,1574.9,144.9,1574.6,144.4,1576.2z
	 M136.7,1574.4c0.2,0,4.1,0.2,3,1.2c-0.2,0.2-0.5,0.4-0.7,0.4c-1.1,0-2.7-0.4-2.8-0.5c-0.2-0.2-0.2-0.4,0-0.7
	C136.2,1574.4,136.5,1574.4,136.7,1574.4L136.7,1574.4z M132.9,1574c0.7,1.2-1.6,0.9-1.8,0.7c-0.4,0-0.9-0.2-0.9-0.5
	C130,1573.3,132.3,1573.1,132.9,1574z M124.8,1573.7c0.7,0,2.1-0.4,2,0.7c-0.5,0.9-1.8,0.5-3.7,1.1c-1.8,0.4-2.1,0.7-2.1-0.4
	C120.9,1574.2,122.9,1573.7,124.8,1573.7z M121.8,1579.7c0,0,2.1-0.7,3.2-0.4c0.4,0,0.5,0.4,0.4,0.9c-0.9,0-3.2,0.4-3.6,0.7
	C121.6,1581,121.3,1580.1,121.8,1579.7L121.8,1579.7z"/>
<g>
	<path fill="#777777" d="M96.2,1560.9c1.1-0.2,3.7,1.1,0.9,1.2c-0.2,0-1.8,0-2-0.2C94,1561.1,95.8,1560.9,96.2,1560.9z M93,1561.6
		c0,0.5-3,0.5-5.3,0.4c-2.8-0.2-4.6,0.2-4.6-0.7c0.2-1.1,2.8-0.4,4.3-0.4C89.4,1561.1,93,1560.2,93,1561.6z M109.4,1562.5
		c-0.2,1.1-4.3-0.4-6.2-0.4c-1.4,0-2.5-0.2-2.7-0.2c-0.7-0.2-0.7-1.1,0-1.1C101.9,1560.7,109.4,1561.8,109.4,1562.5L109.4,1562.5z
		 M113.1,1564.8c-0.4,0.5-0.9,0-1.8-0.4c-0.4-0.2-0.9-0.4-0.7-0.9c0.5-0.7,1.4-0.2,1.8,0.2C113.1,1564.1,113.3,1564.5,113.1,1564.8z
		"/>
</g>
<g>
	<path fill="#777777" d="M105.6,1574.6c0,0.9-4.5-0.4-6.2-0.5h-3.7c-0.7-0.2-0.7-1.1,0-1.2C97.8,1572.6,105.8,1573.3,105.6,1574.6z
		 M93.1,1573.7c0,0.5-2.8,0.4-5.3,0.2c-4.5,0-4.8-0.2-4.6-0.9c0.4-1.1,2.8-0.7,4.3-0.7C89.4,1572.4,93.1,1572.2,93.1,1573.7z
		 M113.3,1576.9c-0.4,0.5-1.8-0.5-3-0.7c-0.4,0-1.8-0.2-1.6-0.7c0-0.7,1.1-0.7,2.5-0.4C112.6,1575.4,113.6,1576.3,113.3,1576.9z"/>
</g>
<g>
	<path fill="#777777" d="M109.2,1569c-0.4,1.4-2-0.2-6.2-0.4c-1.4,0-2.5-0.2-2.7-0.2c-0.7-0.2-0.7-1.1,0-1.1
		C102.4,1566.8,109.4,1568,109.2,1569L109.2,1569z M96.5,1566.8c1.1-0.2,3.7,1.1,0.9,1.2c-0.2,0-1.8,0-2-0.2
		C94.4,1567.1,96.2,1566.8,96.5,1566.8z M93,1567.4c0,1.1-4.8,0.4-5.9,0.4c-2.8-0.2-3.9,0.4-4.1-0.9c0.2-1.1,2.8-0.4,4.3-0.4
		C89.4,1566.4,93,1565.9,93,1567.4z M111.8,1569.6c1.1,0.4,2.8,2.7,0.2,1.6c-0.2,0-1.6-0.7-1.6-1.1
		C109.9,1568.9,111.7,1569.6,111.8,1569.6z"/>
</g>
<g>
	<path fill="#777777" d="M112.7,1590.8c0.2,0,0.7,0,0.4,0.7c-0.4,0.5-7.8-0.7-8.2-0.7c-0.7-0.2-0.7-0.4-0.7-0.9
		c0.2-0.4,0.7-0.4,0.9-0.4C105.3,1589.5,112.6,1590.6,112.7,1590.8z M101.5,1589.9c-0.4,0.4-3.6,0.5-3.4-0.4c0-0.9,0.9-0.4,2.3-0.4
		C101.8,1589.1,101.9,1589.5,101.5,1589.9L101.5,1589.9z"/>
</g>
<path fill="#777777" d="M125.4,1589.7c0.7,0,1.2-0.5,1.2,0.5c-0.2,0.7-1.1,0.4-3,0.9c-1.8,0.4-2.3,0.9-2-0.2
	C121.5,1590.6,123.6,1589.9,125.4,1589.7L125.4,1589.7z M125.4,1584.3c0.7,0,1.4-0.4,1.4,0.7c-0.4,0.5-1.4,0.2-3.4,0.7
	c-1.8,0.4-2.1,0.9-2,0C121.3,1585.1,123.6,1584.3,125.4,1584.3z M83.4,1513.6c0,0-0.2,0.5-0.2,1.4v8.4h0.2c-0.2-0.2-0.2-5.3-0.2-5.3
	v-3.2C83.4,1514.3,83.4,1513.6,83.4,1513.6c1.6-0.4,6.1-0.9,7.1-0.4c0.4,0.2,0.4,1.6,0.4,3.4c0,2.7-0.2,6.1-0.4,6.4
	c-0.2,0.2-1.6,0.4-3.4,0.5c1.6,0,3.2-0.2,3.4-0.5c0.2-0.4,0.4-3.7,0.4-6.4c0-1.8-0.2-3.2-0.4-3.4C89.4,1512.7,85,1513.3,83.4,1513.6
	z M83.5,1523.7c0.5,0.2,2.1,0.2,3.7,0H83.5z M83.4,1513.1c-0.5,0.2-0.7,0.4-0.5,4.8v5.7c0.2,0.9,1.1,0.9,2.1,0.7l1.6-0.2h1.6
	c2.8,0,3.4,0,3.7-0.7v-1.8l-0.2-3.6c0.2-5-0.4-5.2-0.7-5.3C89.4,1512,84.4,1512.7,83.4,1513.1z M90.3,1513.8v4.3l0.2,3.7v0.9
	c-0.5,0-2.5,0.2-2.5,0.2h-1.6l-1.6,0.2h-1.1c0.2,0,0.2-1.4,0.2-2v-6.9C85.8,1513.8,89.4,1513.5,90.3,1513.8L90.3,1513.8z
	 M223.9,1547.6c-0.9-5.7-1.1-10.5-1.2-14.4c-0.2-4.1-0.2-6.9-1.1-8.7v0.2l-8.5-21c-1.8-6.2-16.6-23.5-17.5-24.4
	c-1.8-2.7-11.8-10.3-14.6-11.8c-0.2,0-11-7.7-11-7.7c-4.5-3.2-11.9-6.2-18-8l-7.1-2.5c-8.9-3-22.6-3.4-24.6-3.2h-5
	c-1.6-0.2-15.5,0.2-23.9,3.4l-5.2,1.8c-6.6,1.8-12.6,3.7-17.3,6.9c0,0-12.3,8.7-12.8,9.1c-2.8,1.4-15.8,10.9-17.5,13.4l0.2-0.2
	c-0.7,0.9-14.1,16.7-15.8,23l-8.7,21.2v-0.2c-0.9,1.8-0.7,5.3-0.9,9.3c-0.2,3.9-0.5,8.2-1.4,13.9c-0.7,4.5-0.2,8.5,0.4,13.4
	c0.5,4.8,0.7,10.5,1.6,14.8c0.7,3.6,1.8,6.8,2,9.1c1.2,5.7,4.1,13.4,5.5,15.3c1.1,1.6,3,4.5,3,4.5c1.8,2.3,3.7,5.2,5.2,7.3
	c1.2,2,1.8,3.4,2.7,5.2c1.4,2.5,2.7,4.6,4.1,6.8c1.4,2,3,3.7,5.2,5.5c0.5,0.4,5.2,3.6,7.5,5c2.7,1.8,3.6,2.3,4.1,2.8l1.6,1.6
	c4.5,4.6,7.8,8,10.9,9.8c1.1,0.7,4.1,1.4,5,1.4s1.8-0.2,2.5-0.5c1.2-0.7,2-2,2.5-3.7c0-0.2,0.7-1.6,1.2-3c1.1,0.2,2.1,1.4,3.2,2.3
	l-0.5,2.1c-0.5,1.8-0.2,3.6,1.1,5.2c4.8,6.2,22.8,8.7,38.6,8.2c16.2,0.5,36.6-4.3,39.3-10.5c0.5-1.2,0.4-2.3-0.7-3.4
	c-0.4-0.4-0.5-0.7-0.7-0.9c0.2-0.2,0.2-0.4,0.5-0.5c0.7-0.4,1.6-0.2,2.1-0.2c0.7,1.2,1.4,2.5,2.1,3.9c0.4,0.5,0.9,0.9,1.6,1.1
	c4.6,0.7,19.8-12.5,19.9-12.6c0.5-0.5,3.4-2.8,5.9-4.6c2.1-1.4,4.1-2.7,4.6-3.2c4.1-3.4,7.1-7.3,10-12.1c2-3.6,4.3-7.5,7.8-12.3
	l0.4-0.4c3.2-4.5,7.7-13,8.4-19.4c0.2-2.3,0.9-5.3,1.6-9.1C223.2,1567.4,225.3,1556.6,223.9,1547.6L223.9,1547.6z M80.2,1642.7
	c-0.7-0.7-1.8-1.4-3-1.8c3.2-7.7,4.6-11.2,5-13v-1.1l-0.5-1.2c-0.4-0.7-1.4-2.1-1.4-3.2c0-1.6,0.5-1.2,1.2-1.2s3.7,0.7,5.9,1.8
	c1.6,0.7,2.8,2.3,3.4,3c0.2,0.4,0.2,0.9-0.2,1.2c-0.4,0.4-0.7,0.5-1.6,0.9c-0.9,0.4-2.5,1.6-2.8,1.8c-2,0.7-3.2,3.9-5,9.6
	c0,0.2,0,0.2-0.2,0.4c-0.2,0.5-0.4,1.2-0.5,2C80.2,1642.1,80.2,1642.3,80.2,1642.7L80.2,1642.7z M78.4,1624.2
	c-1.1-0.5-2.1-1.1-3.6-2.1c-2.1-1.6-7.5-5.9-10-7.3c-1.6-0.9-1.8-1.8-3.7-3.9c-1.6-1.8-3.4-3.6-4.8-4.6c-2-1.4-5.5-6.8-6.6-8.7
	c-3.9-6.4-10.3-19.1-11.8-31.6c-0.2-1.6-0.2-5.7-0.2-9.4c0-3.2,0-5.9-0.2-7.1c0.2-2.5,0.9-9.3,1.4-11c0.5-1.2,0.9-3.9,1.4-6.1
	c0.4-1.8,0.9-4.6,1.2-5.5c0-0.2,1.8-5.2,3-7.5l5.7-10.7c0-0.2,3-6.2,5.2-8.4l2.1-2.3c2.3-2.5,4.8-5.2,7.1-6.9
	c3.7-2.8,9.4-6.8,14.4-9.1l6.9-3.4c2.5-1.2,3.7-2,5.9-2.5c0.2,0,13.9-4.5,23.1-5c-0.9,2-1.4,3.7-1.8,4.6c0,0-2.1,0.4-5,0.5
	c-1.6,0-6.4,0.9-6.4,0.9c3.4,5.2,6.2,8.2,7.7,9.6c0,0-1.6,9.6-1.6,10.9c0.2,0,5.3-2.7,6.9-3.6c1.6-0.9,3.6-1.6,3.9-1.6
	c0.2,0,4.8,2,5.9,2.7c2.7,1.6,4.5,2.5,5,2.7v-0.2c0,0-2.5-10.3-2.5-10.9c0,0,1.2-1.2,2.1-2.3c1.4-1.8,2.8-2.8,3.7-3.9s2.7-3,2.7-3.2
	c-0.2,0-11.2-1.4-11.8-1.6c0,0-1.1-2.5-2-4.6c2.3,0.2,3.7,0.4,6.2,0.7h0.2c6.8,1.1,14.2,3.9,17.5,5.2c0,0,2.7,1.1,3,1.2
	c0.2,0,4.8,2,4.8,2c3.2,1.6,5.9,3.4,7.1,4.3l1.6,1.2c3.4,2.3,10.9,7.3,12.1,9.3l2,2.5c1.1,1.4,1.8,3.2,2.3,4.6
	c1.1,2.7,3.6,5.5,5.9,8.5c1.6,2,3.2,3.9,4.1,5.5c0,0,3,4.3,3.7,8.2c0.7,5,2,12.5,2.7,14.8c3.6,12.1,2.5,18.3,1.1,24.8
	c-0.4,2-1.4,4.6-1.6,6.6c-0.2,2.1-0.5,4.6-2,7.5c-0.5,1.1-1.6,3.6-2,5c-0.7,2.3-1.4,4.6-2.7,6.4c-0.5,0.7-1.4,2.1-2.8,4.3
	c-3,5-7.8,12.5-11.9,17.5c-1.2,1.6-4.8,4.5-7.7,6.6c-1.8,1.4-3.2,2.7-3.9,3.4c-1.1,1.1-3.4,2.8-5.3,4.3l0.2-0.5c0-0.4,0-0.5-0.2-0.9
	c-0.2-0.5-0.7-1.4-2.1-1.8c-1.4-0.4-3,0.2-5,1.1c-1.4,0.5-3,1.4-5.3,3.4c-0.9,0.7-2.1,2.1-1.8,3.2c0.4,0.7,1.1,1.4,2,2
	c-4.8,1.4-9.4,2.8-11.2,3.2c-1.1,0.2-5,1.4-7.5,1.8c-2.8,0.5-5.7,0.9-7.1,1.1c-5.9,0.2-14.2-2-16-2.8c-4.1-1.6-9.4-3.6-12.8-4.5
	c0,0,0.2,0,0.2-0.2c1.4-0.5,2.3-1.4,2.7-2.5c0.2-0.5,0.2-1.6-0.9-2.7c-1.1-1.2-2.7-2.5-4.3-3.2c-0.4-0.2-4.1-1.6-5.7-1.6
	c-1.2,0-1.8-0.2-2.3,0.2c-0.7,0.4-0.9,1.1-0.9,1.8C77.9,1622.7,78.1,1623.4,78.4,1624.2z M118.3,1481.6c-1.2-0.9-3.7-5.5-3.7-5.5
	c0.2-0.5,3.7-8.5,3.7-8.5c0.4,1.4,0.2,4.3,0.2,7.1C118.3,1477.3,118.1,1480.2,118.3,1481.6z M104.4,1478.4c1.2,0.4,4.8,1.4,4.8,1.4
	c2.7,1.1,5,2,7.8,2.7c-0.4,0.9-1.2,2.5-1.2,2.5s-6.1,9.4-6.4,10c0,0,1.8-9.6,1.8-9.8C110.6,1484.6,107,1481.6,104.4,1478.4
	L104.4,1478.4z M129.5,1481.2c0,0.4-2.3,3-2.3,3c-0.4,0-7.1-1.6-8-2c0,0,2.7-5.2,3.7-5.7l9.8,1.1c-0.7,0.4-3.6,1.1-6.2,2l-5.7,2.1
	C120.7,1481.8,128.6,1481.4,129.5,1481.2z M127.2,1495.1c-0.7-0.2-7.5-3.9-7.5-3.9c-0.2-0.2-1.2-7.3-1.1-8.5L127.2,1495.1
	L127.2,1495.1z M155.8,1648.9c-1.6,3.9-18.5,10.3-35.4,9.8c-17.6,0.5-35-2.1-38.7-6.9c-0.5-0.7-0.9-2.5-0.9-3.2c0-0.4,0-0.7,0.2-1.1
	l0.9-2.8l0.2-0.4v-0.2c1.6-5.5,3.4-11.8,4.8-12.1c1.2,0,1.2-0.7,8,1.8c2.5,1.2,15.7,5.2,18.5,5.3c2.1,0.2,9.4,0,12.5-0.5
	c2.5-0.4,4.5-1.1,5.3-1.2c2.3-0.2,14.8-3.9,17.1-4.6c0,0,0.2,0,0.2,0.2c0.5,0.5,0.9,2,1.4,3.2l0.4,1.1c0.2,0.7,0.5,1.6,0.7,2.5
	l0.2,0.7l0.7,2c0.2,0.4,0.4,0.7,0.4,0.9c0.2,0.5,0.5,1.1,0.9,1.6l0.5,0.9c0.2,0.2,0.2,0.4,0.4,0.7l1.6,2.1
	C155.9,1648.7,155.9,1648.7,155.8,1648.9L155.8,1648.9z M156.3,1643.4c-0.4,0.2-0.7,0.4-0.9,0.5c-0.7-1.1-1.2-2.3-1.6-3.6l-0.2-0.5
	c-0.2-0.5-0.4-1.1-0.5-1.4l-0.4-1.1l-0.2-0.7c-0.9-3-1.6-5.3-3.2-5.9h-1c-2,0.2-4.1-0.7-4.3-1.4c0-0.2,0.2-0.9,0.4-1.1
	c2-1.8,2.8-2.8,4.1-3.4c0.9-0.4,3-1.4,5.2-0.9c0.5,0.2,0.5,0.9,0.5,0.9v0.2c0,0.7-0.9,2.1-1.4,3c-1.1,0.9-1.6,2-1.6,3
	c0,1.8,1.2,3.7,3.2,6.6c0.9,1.4,2.1,3.2,3.4,5.5C157.4,1642.9,156.8,1643,156.3,1643.4L156.3,1643.4z M219.2,1575.4
	c-0.7,3.7-1.4,6.8-1.6,9.3c-0.9,8.7-4.1,13-8,18.3l-0.4,0.4c-3.6,4.8-5.9,8.9-8,12.6c-2.7,4.8-4.8,8.5-8.7,11.6
	c-0.5,0.4-2.5,1.8-4.6,3c-3.9,2.5-6.4,4.3-6.9,4.8c-3.7,3.6-16.2,12.8-18.2,12.1c-2.7-5.2-5-8.9-6.6-11.6c-2-3-2.8-4.5-2.8-5.5
	c0-0.5,0.4-1.1,0.9-1.4c0.5-0.4,5.5-4.3,7.8-6.4l5-3.6c3-2.5,8-8,9.4-9.8c4.1-5.2,6.4-8.9,9.6-13.9c1.2-2,3.4-5.3,3.7-6.1
	c1.4-2,2.1-3.6,2.8-5.9c0.4-1.2,1.2-2.8,1.8-3.9c1.4-3,2-6.8,2.3-9.1c0.2-1.8,0.2-2.5,0.5-4.5c0.7-3.4,2.1-8.4,2.1-13.4
	c0-4.1-0.7-7.3-2.3-12.8c-0.7-2.1-2-10-2.8-14.8c-0.7-4.3-3.6-9.8-3.6-10.1c-1.1-1.8-3-3.6-4.8-5.7c-2.3-2.8-4.3-5.9-5.2-8.2
	c-0.7-1.8-2.1-3.4-3.2-5l-1.8-2.3c-1.4-2.1-6.4-5.9-11.6-9.4l-1.8-0.9c-1.2-1.1-4.6-2.8-8.2-4.6l-4.3-2.5l-3-1.2
	c-3.2-1.2-11.6-3.9-14.6-4.5h-0.2c-3.4-0.5-6.1-1.1-10.5-1.2c-0.2-0.5-0.4-1.1-0.5-1.4c-0.4-0.9-1.4-3-2-4.3c-0.7,0.5-2,3-3.2,5.7
	c-9.4,0.7-22.4,4.3-23.1,4.5c-2.3,0.7-3.7,1.4-6.2,2.7l-10,5c-6.6,3-10,6.1-11.9,7.5c-2.5,2-4.3,3.2-6.8,5.9l-2.1,2.3
	c-2.3,2.5-6.8,11-6.8,11.2l-3.9,6.6c-1.2,2.3-5.2,12.3-5.3,12.5c-0.4,1.1-0.9,2.8-1.2,5c-0.5,2.1-1.2,4.1-1.4,5.3
	c-0.5,7.8-1.1,11.4-1.1,12.5v0.2c0.2,1.1-0.4,4.1-0.4,6.4c0.2,3.9,0.2,7.8,0.2,9.6c0.7,7.3,5,19.6,9.1,26.4
	c0.2,0.4,3.2,6.8,10.7,15.5c1.1,1.2,3.9,3.7,5.5,5.5c2,2.1,2.7,3.2,4.5,4.3l6.8,4.5c2.5,1.8,5,3.6,7.5,5c0,0.2,0,0.4-0.2,0.7v0.2
	l-0.4,1.1L79,1630c-0.2,0.4-0.4,0.9-0.5,1.4c0,0,0,0.2-0.2,0.2c-0.2,0.5-0.4,1.1-0.7,1.6l-0.2,0.5c-0.2,0.5-0.4,1.1-0.7,1.6l-0.7,1
	c-0.2,0.4-0.4,0.7-0.4,1.1c-0.2,0.2-0.2,0.5-0.4,0.9l-0.4,0.7c-0.4,0.9-0.7,1.6-0.9,2.3c0,0,0,0.2-0.2,0.2l-0.2,0.2
	c-1.1,2.5-1.4,3.2-1.4,3.6c-0.4,1.2-0.7,2-1.4,2.5c-0.9,0.5-1.8,0.9-3.6,0.2c-2.5-0.9-4.5-3-6.8-5.2l-5.3-5.2l-2.7-2.3
	c-0.5-0.5-2.1-1.8-6.1-4.3l-2.7-1.6c-0.9-0.7-3-2.8-3.2-3c-3.9-3-4.6-5.3-7.3-10.1c-2-3.6-5-8.9-5.9-10l-2.3-3
	c-3.9-5.3-6.9-9.4-8-18.3c-0.2-2.3-1.1-4.5-2-8.2c-0.4-1.6-0.5-4.5-0.9-6.4c-0.5-6.9-1.8-15-0.5-21.9c0.9-5.9,0.9-9.6,0.9-13.5
	c0.2-3.6,0.2-6.4,0.9-7.7l0.4-1.2l7.5-19.8c0.9-2.8,6.8-12.6,9.1-15.8c2.3-3.2,8.4-9.8,8.4-9.8c1.1-2,11.2-8.9,14.4-10.5l13-9.1
	c4.3-3,12.5-5.7,18.5-7.5l4.5-1.8c8.4-2.8,20.8-3.9,22.4-3.7h5.3c1.8-0.2,16.4,0.9,24.8,3.7l5.3,1.2c6.1,2,13.2,4.6,17.5,7.8
	l13.9,9.3c-1.8-0.9,11.8,6.6,14.4,11.4c0.2,0.2,15,18.9,16.6,24.6l7.7,18.7c0.7,1.2,0.9,5.2,1.1,8.9c0.2,3.9,0.9,9.3,1.8,15.1
	C223.7,1557,221,1567.1,219.2,1575.4L219.2,1575.4z"/>
<g>
	<path fill="#777777" d="M112.6,1580.4c-0.2,0.9-4.3-0.7-6.2-0.9c-1.4,0-4.8-0.2-5-0.2c-0.7-0.2-1.1-0.9-0.4-1.1
		C103.1,1577.9,112.7,1579.4,112.6,1580.4z M92.8,1578.6h-4.3c-4.5,0-4.8,0-4.6-0.5c0.4-1.1,2.8-0.4,4.3-0.5
		C90.3,1577.8,92.8,1577.2,92.8,1578.6L92.8,1578.6z M95.5,1578.5c0.4-0.4,3-0.5,2.8,0.4c0,0.7-0.4,0.5-1.8,0.4
		C94.9,1579.2,95.1,1578.8,95.5,1578.5L95.5,1578.5z"/>
</g>
<g>
	<path fill="#777777" d="M117.9,1442c-1.2,0-2.1-1.1-2.1-2.1c0-1.2,0.9-2.1,2.1-2.1s2.1,1.1,2.1,2.1
		C120,1441.1,119.1,1442,117.9,1442z M110.2,1442.1c-1.2,0-2.1-0.9-2.3-2c0-1.2,0.7-2.1,2-2.3c1.2,0,2.1,0.9,2.3,2
		C112.4,1441.1,111.5,1442.1,110.2,1442.1z M102.6,1442.8c-1.2,0.2-2.3-0.7-2.3-1.8c-0.2-1.2,0.7-2.3,1.8-2.3
		c1.2-0.2,2.3,0.7,2.3,1.8C104.7,1441.6,103.8,1442.7,102.6,1442.8z M95.1,1444.1c-1.2,0.2-2.3-0.5-2.5-1.6
		c-0.2-1.2,0.5-2.3,1.6-2.5c1.2-0.2,2.3,0.5,2.5,1.6C97.1,1442.8,96.2,1443.9,95.1,1444.1z M87.6,1445.9c-1.2,0.4-2.3-0.4-2.7-1.4
		c-0.4-1.1,0.4-2.3,1.4-2.7c1.1-0.4,2.3,0.4,2.7,1.4C89.4,1444.4,88.7,1445.5,87.6,1445.9z M80.1,1448.2c-1.1,0.4-2.3-0.2-2.7-1.2
		c-0.4-1.1,0.2-2.3,1.2-2.7c1.1-0.4,2.3,0.2,2.7,1.2C81.9,1446.6,81.4,1447.8,80.1,1448.2z M72.9,1451c-1.1,0.5-2.3,0-2.8-1.1
		s0-2.3,1.1-2.8c1.1-0.5,2.3,0,2.8,1.1S74,1450.5,72.9,1451z M66,1454.2c-1.1,0.5-2.3,0.2-2.8-0.9c-0.5-1.1-0.2-2.3,0.9-2.8
		c1.1-0.5,2.3-0.2,2.8,0.9S67.1,1453.7,66,1454.2z M59.4,1458c-1.1,0.7-2.3,0.4-2.8-0.7c-0.5-1.1-0.4-2.3,0.7-2.8
		c1.1-0.5,2.3-0.4,2.8,0.7C60.6,1456,60.3,1457.4,59.4,1458z M52.8,1462.3c-0.9,0.7-2.3,0.5-3-0.5c-0.7-0.9-0.5-2.3,0.5-3
		c1.1-0.7,2.3-0.5,3,0.5C54.1,1460.3,53.9,1461.6,52.8,1462.3z M46.8,1467c-0.9,0.7-2.3,0.5-3-0.4s-0.7-2.3,0.4-3
		c0.9-0.7,2.3-0.5,3,0.4C47.8,1464.8,47.6,1466.3,46.8,1467z M40.9,1472c-0.9,0.9-2.1,0.7-3-0.2c-0.9-0.9-0.7-2.1,0.2-3
		s2.1-0.7,3,0.2C41.8,1469.8,41.8,1471.3,40.9,1472z M35.5,1477.5c-0.9,0.9-2.1,0.9-3,0.2c-0.9-0.9-0.9-2.1-0.2-3
		c0.9-0.9,2.1-0.9,3-0.2C36.2,1475.3,36.2,1476.6,35.5,1477.5z M30.4,1483.4c-0.7,0.9-2.1,1.1-3,0.4c-0.9-0.7-1.1-2.1-0.4-3
		c0.7-0.9,2.1-1.1,3-0.4C31.1,1481,31.1,1482.3,30.4,1483.4z M25.6,1489.4c-0.7,0.9-2,1.2-3,0.5c-0.9-0.7-1.2-2-0.5-3
		c0.7-1.1,2-1.2,3-0.5C26.2,1487.1,26.4,1488.3,25.6,1489.4z M21.5,1495.8c-0.5,1.1-2,1.2-2.8,0.7c-1.1-0.5-1.4-2-0.7-2.8
		c0.7-1.1,2-1.2,3-0.7C21.7,1493.5,22.1,1494.8,21.5,1495.8z M17.8,1502.6c-0.5,1.1-1.8,1.4-2.8,0.9c-1-0.5-1.4-1.8-0.9-2.8
		c0.5-1.1,1.8-1.4,2.8-0.9C17.8,1500.1,18.3,1501.5,17.8,1502.6z M14.4,1509.5c-0.5,1.1-1.8,1.6-2.8,1.1c-1.1-0.5-1.6-1.6-1.1-2.8
		c0.5-1.1,1.8-1.6,2.8-1.1C14.4,1507,15,1508.3,14.4,1509.5z M11.6,1516.8c-0.4,1.1-1.6,1.6-2.7,1.2c-1.1-0.4-1.8-1.6-1.2-2.7
		c0.4-1.1,1.6-1.8,2.7-1.2C11.4,1514.4,12.1,1515.5,11.6,1516.8z M9.4,1524.1c-0.4,1.1-1.4,1.8-2.7,1.4c-1.1-0.4-1.8-1.4-1.4-2.7
		s1.4-1.8,2.7-1.4C9.1,1521.7,9.6,1522.8,9.4,1524.1z M7.7,1531.5c-0.2,1.2-1.4,2-2.5,1.6c-1.2-0.2-2-1.2-1.6-2.5
		c0-1.1,1.2-1.8,2.3-1.6C7.1,1529.2,7.8,1530.3,7.7,1531.5z M6.2,1539.2c-0.2,1.2-1.2,2-2.3,1.8c-1.2-0.2-2-1.2-1.8-2.3
		c0.2-1.2,1.2-2,2.3-1.8C5.7,1536.9,6.4,1537.9,6.2,1539.2z M5.5,1546.9c0,1.2-1.1,2.1-2.3,2c-1.2,0-2.1-1.1-2-2.3
		c0-1.2,1.1-2.1,2.3-2C4.8,1544.5,5.7,1545.6,5.5,1546.9z M5.3,1554.5c0,1.2-0.9,2.1-2.1,2.1s-2.1-0.9-2.1-2.1s0.9-2.1,2.1-2.1
		S5.3,1553.3,5.3,1554.5z M5.7,1562.2c0,1.2-0.7,2.1-2,2.3c-1.2,0.2-2.1-0.7-2.3-2c0-1.2,0.7-2.1,2-2.3
		C4.6,1560,5.5,1560.9,5.7,1562.2z M6.6,1569.9c0.2,1.2-0.7,2.3-1.8,2.5c-1.2,0.2-2.3-0.5-2.5-1.8c-0.2-1.2,0.7-2.3,1.8-2.5
		C5.3,1568,6.4,1568.7,6.6,1569.9z M7.8,1577.4c0.2,1.2-0.5,2.3-1.6,2.5c-1.2,0.2-2.3-0.5-2.5-1.6c-0.4-1.1,0.5-2.3,1.6-2.5
		C6.6,1575.6,7.7,1576.3,7.8,1577.4z M9.8,1584.9c0.4,1.1-0.4,2.3-1.4,2.7c-1.1,0.4-2.3-0.4-2.7-1.4c-0.4-1.2,0.4-2.3,1.4-2.7
		C8.1,1583.1,9.4,1583.8,9.8,1584.9z M12.1,1592.2c0.4,1.1-0.2,2.3-1.2,2.7c-1.1,0.4-2.3-0.2-2.7-1.2c-0.4-1.1,0.2-2.3,1.2-2.7
		C10.5,1590.6,11.8,1591.1,12.1,1592.2z M15.1,1599.3c0.5,1.1,0,2.3-1.1,2.8c-1.1,0.5-2.3,0-2.8-1.1c-0.5-1.1,0-2.3,1.1-2.8
		C13.4,1597.7,14.6,1598.2,15.1,1599.3z M18.5,1606.2c0.5,1.1,0.2,2.3-0.9,2.8s-2.3,0.2-2.8-0.9s-0.2-2.3,0.9-2.8
		C16.6,1604.8,17.8,1605.2,18.5,1606.2z M22.3,1612.8c0.7,1.1,0.4,2.3-0.7,3c-1.1,0.7-2.3,0.4-3-0.7s-0.4-2.3,0.7-3
		C20.3,1611.6,21.7,1611.9,22.3,1612.8z M26.5,1619.2c0.7,0.9,0.5,2.3-0.5,3c-0.9,0.7-2.3,0.5-3-0.5c-0.7-0.9-0.5-2.3,0.5-3
		C24.6,1618,25.8,1618.4,26.5,1619.2z M31.4,1625.4c0.7,0.9,0.7,2.3-0.4,3c-0.9,0.7-2.3,0.7-3-0.2c-0.7-0.9-0.7-2.3,0.4-3
		C29.3,1624.3,30.7,1624.5,31.4,1625.4z M36.6,1631.1c0.9,0.9,0.7,2.1,0,3c-0.9,0.9-2.1,0.9-3,0s-0.7-2.1,0-3
		C34.5,1630.2,35.7,1630.2,36.6,1631.1z M42.1,1636.4c0.9,0.9,0.9,2.1,0.2,3c-0.7,0.9-2.1,0.9-3,0.2c-0.9-0.9-0.9-2.1-0.2-3
		C39.8,1635.7,41.2,1635.7,42.1,1636.4z M48,1641.4c0.9,0.7,1.1,2.1,0.4,3c-0.7,0.9-2.1,1.1-3,0.4c-0.9-0.7-1.1-2.1-0.4-3
		C45.7,1640.9,46.9,1640.7,48,1641.4z M54.2,1646.1c1.1,0.7,1.2,2,0.5,3c-0.7,0.9-2,1.2-3,0.5c-1-0.7-1.2-2-0.5-3
		C51.9,1645.7,53.2,1645.3,54.2,1646.1z M60.6,1650.2c1.1,0.5,1.4,2,0.7,2.8c-0.5,1.1-2,1.4-2.8,0.7c-1.1-0.5-1.4-2-0.7-2.8
		C58.3,1649.8,59.6,1649.6,60.6,1650.2z M67.4,1653.7c1.1,0.5,1.4,1.8,0.9,2.8c-0.5,1.1-1.8,1.4-2.8,0.9c-1.1-0.5-1.4-1.8-0.9-2.8
		C65.1,1653.7,66.3,1653.2,67.4,1653.7z M74.4,1656.9c1.1,0.5,1.6,1.6,1.1,2.8c-0.5,1.1-1.6,1.6-2.8,1.2c-1.1-0.5-1.6-1.8-1.2-2.8
		C72,1657.1,73.3,1656.6,74.4,1656.9z M81.8,1659.8c1.1,0.4,1.8,1.6,1.4,2.7c-0.4,1.1-1.6,1.8-2.7,1.4c-1.1-0.4-1.8-1.6-1.4-2.7
		C79.2,1659.9,80.4,1659.2,81.8,1659.8z M89.1,1661.9c1.2,0.4,1.8,1.4,1.6,2.7c-0.4,1.1-1.4,1.8-2.7,1.6c-1.2-0.4-1.8-1.4-1.6-2.7
		C86.7,1662.3,88,1661.5,89.1,1661.9L89.1,1661.9z M96.5,1663.5c1.2,0.2,2,1.2,1.8,2.5c-0.2,1.3-1.2,2-2.5,1.8
		c-1.2-0.2-2-1.2-1.8-2.5C94.4,1664,95.5,1663.3,96.5,1663.5L96.5,1663.5z M104.2,1664.8c1.2,0.2,2,1.2,1.8,2.3
		c-0.2,1.2-1.2,2-2.3,2c-1.2-0.2-2-1.2-2-2.3C101.9,1665.3,102.9,1664.6,104.2,1664.8L104.2,1664.8z M111.8,1665.3
		c1.2,0,2.1,1.1,2,2.1c0,1.2-1.1,2.1-2.1,2.1c-1.2,0-2.1-1.1-2-2.3C109.7,1666.2,110.6,1665.3,111.8,1665.3L111.8,1665.3z
		 M119.5,1665.5c1.2,0,2.1,0.9,2.1,2.1s-0.9,2.1-2.1,2.1c-1.2,0-2.1-0.9-2.1-2.1S118.4,1665.5,119.5,1665.5z M127.2,1664.9
		c1.2-0.2,2.1,0.7,2.3,2c0.2,1.2-0.7,2.1-2,2.3c-1.2,0.2-2.1-0.7-2.3-2C125.2,1666.2,126.1,1665.1,127.2,1664.9L127.2,1664.9z
		 M134.9,1664c1.2-0.2,2.3,0.5,2.5,1.8c0.2,1.2-0.5,2.3-1.8,2.5c-1.2,0.2-2.3-0.5-2.5-1.8C132.9,1665.3,133.7,1664.2,134.9,1664
		L134.9,1664z M142.6,1662.6c1.2-0.4,2.3,0.4,2.5,1.6c0.2,1.1-0.4,2.3-1.6,2.5c-1.2,0.4-2.3-0.5-2.5-1.6
		C140.6,1664,141.3,1662.8,142.6,1662.6L142.6,1662.6z M149.9,1660.5c1.1-0.4,2.3,0.4,2.7,1.4c0.4,1.1-0.2,2.3-1.4,2.7
		c-1.1,0.4-2.3-0.4-2.7-1.4C148.1,1662.1,148.8,1660.8,149.9,1660.5z M157.2,1658c1.1-0.4,2.3,0.2,2.7,1.2c0.4,1.1-0.2,2.3-1.2,2.7
		c-1.1,0.4-2.3-0.2-2.8-1.2C155.6,1659.8,156.1,1658.5,157.2,1658L157.2,1658z M164.1,1655.1c1.1-0.5,2.3,0,2.8,1.1
		c0.5,1.1,0,2.3-1.1,2.8c-1.1,0.5-2.3,0-2.8-1.1C162.7,1656.9,163.1,1655.7,164.1,1655.1z M171.1,1651.6c1.1-0.5,2.3-0.2,2.8,0.9
		c0.5,1.1,0.2,2.3-0.9,2.8c-1.1,0.5-2.3,0.2-2.8-0.9C169.6,1653.4,170,1652.1,171.1,1651.6z M177.7,1647.7c1.1-0.7,2.3-0.4,3,0.7
		c0.7,1.1,0.4,2.3-0.7,3c-1.1,0.7-2.3,0.4-3-0.7C176.4,1649.6,176.8,1648.4,177.7,1647.7z M184.1,1643.2c0.9-0.7,2.3-0.5,3,0.4
		c0.7,0.9,0.5,2.3-0.4,3c-0.9,0.7-2.3,0.5-3-0.4C182.8,1645.3,183,1643.9,184.1,1643.2z M190,1638.4c0.9-0.7,2.1-0.7,3,0.2
		c0.7,0.9,0.7,2.3-0.2,3c-0.9,0.7-2.3,0.7-3-0.2C189,1640.5,189.1,1639.3,190,1638.4z M195.7,1633.2c0.9-0.9,2.1-0.9,3,0
		c0.9,0.9,0.9,2.1,0,3c-0.9,0.9-2.1,0.9-3,0C194.8,1635.4,194.8,1634.1,195.7,1633.2z M201.1,1627.7c0.7-0.9,2.1-0.9,3-0.2
		c0.9,0.7,1.1,2.1,0.2,3c-0.7,0.9-2.1,0.9-3,0.2C200.4,1629.9,200.2,1628.6,201.1,1627.7z M205.9,1621.7c0.7-0.9,2-1.1,3-0.4
		c0.9,0.7,1.1,2,0.4,3c-0.7,0.9-2.1,1.1-3,0.4C205.4,1624,205.2,1622.6,205.9,1621.7z M210.3,1615.3c0.7-1.1,2-1.2,3-0.5
		c1.1,0.7,1.2,2,0.5,3c-0.7,1.1-2,1.2-3,0.5C210,1617.6,209.8,1616.2,210.3,1615.3z M214.4,1608.7c0.5-1.1,2-1.4,2.8-0.9
		c1.1,0.5,1.4,1.8,0.9,2.8c-0.5,1.1-2,1.4-2.8,0.7C214.1,1611.1,213.7,1609.8,214.4,1608.7z M218,1602c0.5-1.1,1.8-1.4,2.8-1.1
		c1.1,0.5,1.6,1.8,1.1,2.8c-0.5,1-1.8,1.6-2.8,1.1C217.8,1604.3,217.5,1603,218,1602z M221,1594.9c0.5-1.1,1.6-1.6,2.8-1.2
		c1.1,0.4,1.6,1.6,1.2,2.8c-0.5,1.1-1.6,1.6-2.8,1.2C221.2,1597.3,220.7,1596.1,221,1594.9z M223.7,1587.7c0.4-1.1,1.6-1.8,2.7-1.4
		c1.1,0.4,1.8,1.6,1.4,2.7s-1.6,1.8-2.7,1.4C223.9,1590,223.3,1588.8,223.7,1587.7z M225.7,1580.3c0.4-1.2,1.4-1.8,2.5-1.6
		c1.1,0.4,1.8,1.4,1.6,2.5c-0.4,1.2-1.4,1.8-2.7,1.6C226.2,1582.6,225.5,1581.5,225.7,1580.3z M227.3,1572.8c0.2-1.2,1.2-2,2.5-1.8
		c1.2,0.2,2,1.2,1.8,2.5c-0.2,1.3-1.2,2-2.5,1.8C227.8,1575.1,227.1,1574,227.3,1572.8L227.3,1572.8z M228.3,1565
		c0.2-1.2,1.1-2,2.3-2c1.2,0.2,2,1.1,2,2.3c-0.2,1.2-1.2,2-2.3,2C229,1567.3,228.1,1566.3,228.3,1565z M228.9,1557.4
		c0-1.2,1.1-2.1,2.1-2.1c1.2,0,2.1,1.1,2.1,2.1c0,1.2-1.1,2.1-2.1,2.1C229.7,1559.5,228.9,1558.6,228.9,1557.4z M228.9,1549.7
		c0-1.2,0.9-2.1,2-2.1c1.2,0,2.1,0.9,2.1,2c0,1.2-0.9,2.1-2.1,2.1C229.7,1551.7,228.9,1550.8,228.9,1549.7z M228.3,1542
		c-0.2-1.2,0.7-2.1,2-2.3c1.2-0.2,2.1,0.7,2.3,2c0.2,1.2-0.7,2.3-2,2.3C229.4,1544,228.3,1543.1,228.3,1542z M227.3,1534.4
		c-0.2-1.2,0.5-2.3,1.8-2.5c1.2-0.2,2.3,0.5,2.5,1.8c0.2,1.2-0.5,2.3-1.8,2.5C228.5,1536.3,227.4,1535.5,227.3,1534.4L227.3,1534.4z
		 M225.7,1526.9c-0.4-1.2,0.4-2.3,1.6-2.5c1.1-0.4,2.3,0.4,2.7,1.6s-0.4,2.3-1.6,2.7C227.1,1528.7,226,1528,225.7,1526.9
		L225.7,1526.9z M223.5,1519.4c-0.4-1.1,0.2-2.3,1.4-2.7c1.1-0.4,2.3,0.2,2.7,1.4c0.4,1.1-0.2,2.3-1.4,2.7
		C225.1,1521.2,223.9,1520.7,223.5,1519.4z M220.8,1512.2c-0.5-1.1,0-2.3,1.2-2.8c1.1-0.4,2.3,0,2.8,1.2c0.5,1.1,0,2.3-1.2,2.8
		C222.6,1513.8,221.4,1513.3,220.8,1512.2z M217.8,1505.1c-0.5-1.1,0-2.3,1.1-2.8c1.1-0.5,2.3-0.2,2.8,0.9c0.5,1.1,0,2.3-1.1,2.8
		C219.6,1506.5,218.4,1506.2,217.8,1505.1z M214.3,1498.3c-0.5-1.1-0.2-2.3,0.7-2.8c1.1-0.5,2.3-0.2,2.8,0.7
		c0.5,1.1,0.2,2.3-0.7,2.8C216,1499.7,214.8,1499.4,214.3,1498.3z M210.2,1491.7c-0.7-1.1-0.4-2.3,0.5-3c1.1-0.7,2.3-0.4,3,0.5
		c0.7,1.1,0.4,2.3-0.5,3C212.1,1493,210.9,1492.8,210.2,1491.7z M205.7,1485.5c-0.7-0.9-0.5-2.3,0.4-3c0.9-0.7,2.3-0.5,3,0.4
		s0.5,2.3-0.4,3C207.7,1486.6,206.4,1486.4,205.7,1485.5z M200.7,1479.6c-0.7-0.9-0.7-2.1,0.2-3c0.9-0.7,2.1-0.7,3,0.2
		c0.7,0.9,0.7,2.3-0.2,3C202.9,1480.5,201.6,1480.5,200.7,1479.6z M195.6,1473.9c-0.9-0.9-0.9-2.1,0-3s2.1-0.9,3,0s0.9,2.1,0,3
		C197.7,1474.8,196.3,1474.8,195.6,1473.9z M189.9,1468.8c-0.9-0.7-1.1-2.1-0.2-3c0.7-0.9,2.1-1.1,3-0.2c0.9,0.7,1.1,2.1,0.2,3
		C192,1469.5,190.8,1469.7,189.9,1468.8z M183.7,1464c-0.9-0.7-1.1-2-0.4-3c0.7-0.9,2-1.2,3-0.5c0.9,0.7,1.1,2.1,0.4,3
		C186,1464.5,184.6,1464.7,183.7,1464z M177.5,1459.6c-1.1-0.7-1.2-2-0.7-2.8c0.7-1.1,2-1.2,3-0.7c1.1,0.7,1.2,2,0.7,3
		C179.8,1459.9,178.4,1460.1,177.5,1459.6z M170.7,1455.7c-1.1-0.5-1.4-1.8-0.9-2.8c0.5-1.1,1.8-1.4,2.8-0.9
		c1.1,0.5,1.4,1.8,0.9,2.8C173,1455.8,171.8,1456.2,170.7,1455.7z M163.9,1452.1c-1.1-0.5-1.6-1.8-1.1-2.8c0.5-1,1.8-1.6,2.8-1.1
		c1.1,0.5,1.6,1.8,1.1,2.8C166.3,1452.1,165,1452.6,163.9,1452.1z M156.8,1449.3c-1.1-0.5-1.6-1.8-1.2-2.8s1.6-1.6,2.7-1.2
		s1.6,1.6,1.2,2.8C159.1,1449.1,157.9,1449.6,156.8,1449.3z M149.5,1446.8c-1.1-0.4-1.8-1.4-1.4-2.7c0.4-1.1,1.4-1.8,2.7-1.4
		c1.1,0.4,1.8,1.6,1.4,2.7C151.8,1446.4,150.8,1447.1,149.5,1446.8z M142.2,1444.8c-1.2-0.4-1.8-1.4-1.6-2.5c0.2-1.2,1.4-2,2.5-1.6
		c1.2,0.2,2,1.4,1.6,2.5C144.5,1444.3,143.3,1445,142.2,1444.8z M134.6,1443.2c-1.2-0.2-2-1.2-1.8-2.5c0.2-1.2,1.2-2,2.5-1.8
		c1.2,0.2,2,1.2,1.8,2.5C136.9,1442.7,135.8,1443.4,134.6,1443.2z M126.8,1442.3c-1.1,0-2-1.1-2-2.3c0.2-1.2,1.1-2.1,2.3-2
		c1.2,0.2,2.1,1.2,2,2.3C129.1,1441.6,128.1,1442.5,126.8,1442.3z"/>
</g>
</svg>
